%TF.GenerationSoftware,KiCad,Pcbnew,7.0.10*%
%TF.CreationDate,2024-01-22T13:51:10-08:00*%
%TF.ProjectId,esp32-prog,65737033-322d-4707-926f-672e6b696361,rev2*%
%TF.SameCoordinates,PX47868c0PY36d6160*%
%TF.FileFunction,Legend,Top*%
%TF.FilePolarity,Positive*%
%FSLAX46Y46*%
G04 Gerber Fmt 4.6, Leading zero omitted, Abs format (unit mm)*
G04 Created by KiCad (PCBNEW 7.0.10) date 2024-01-22 13:51:10*
%MOMM*%
%LPD*%
G01*
G04 APERTURE LIST*
%ADD10C,0.357843*%
%ADD11C,0.150000*%
%ADD12C,0.120000*%
%ADD13C,0.100000*%
G04 APERTURE END LIST*
D10*
X54378921Y-22400000D02*
G75*
G03*
X54021079Y-22400000I-178921J0D01*
G01*
X54021079Y-22400000D02*
G75*
G03*
X54378921Y-22400000I178921J0D01*
G01*
D11*
X48300000Y-8300000D02*
X47500000Y-7500000D01*
X48300000Y-8300000D02*
X48300000Y-7600000D01*
X54000000Y-12000000D02*
X54500000Y-12000000D01*
X54500000Y-17500000D01*
X54000000Y-17500000D01*
X54000000Y-12000000D01*
G36*
X54000000Y-12000000D02*
G01*
X54500000Y-12000000D01*
X54500000Y-17500000D01*
X54000000Y-17500000D01*
X54000000Y-12000000D01*
G37*
X48300000Y-7600000D02*
X47600000Y-8300000D01*
X47600000Y-8300000D02*
X48300000Y-8300000D01*
X47500000Y-7500000D02*
X43250000Y-7500000D01*
G36*
X43661622Y-14168247D02*
G01*
X43703604Y-14238217D01*
X43727939Y-14319336D01*
X43754887Y-14498982D01*
X43754887Y-14630654D01*
X43727939Y-14810300D01*
X43703603Y-14891421D01*
X43661622Y-14961390D01*
X43610452Y-14989819D01*
X43562030Y-14989819D01*
X43562030Y-14139819D01*
X43610452Y-14139819D01*
X43661622Y-14168247D01*
G37*
G36*
X43261622Y-13034437D02*
G01*
X43275031Y-13056785D01*
X43297744Y-13132493D01*
X43297744Y-13253333D01*
X43275031Y-13329040D01*
X43257824Y-13357718D01*
X43231304Y-13379819D01*
X43104887Y-13379819D01*
X43104887Y-13006009D01*
X43210452Y-13006009D01*
X43261622Y-13034437D01*
G37*
G36*
X43229254Y-12551919D02*
G01*
X43246460Y-12580596D01*
X43269172Y-12656302D01*
X43269172Y-12729525D01*
X43246460Y-12805231D01*
X43229254Y-12833908D01*
X43202733Y-12856009D01*
X43104887Y-12856009D01*
X43104887Y-12529819D01*
X43202733Y-12529819D01*
X43229254Y-12551919D01*
G37*
G36*
X44418241Y-16892676D02*
G01*
X42012030Y-16892676D01*
X42012030Y-15661795D01*
X42298882Y-15661795D01*
X42307791Y-15712319D01*
X42347091Y-15745296D01*
X42372743Y-15749819D01*
X42620088Y-15749819D01*
X42477766Y-16020908D01*
X42476190Y-16032561D01*
X42470310Y-16042747D01*
X42472859Y-16057204D01*
X42470893Y-16071749D01*
X42477176Y-16081689D01*
X42479219Y-16093271D01*
X42490462Y-16102705D01*
X42498306Y-16115113D01*
X42509510Y-16118688D01*
X42518519Y-16126248D01*
X42544171Y-16130771D01*
X42602732Y-16130771D01*
X42629253Y-16152871D01*
X42646459Y-16181548D01*
X42669171Y-16257254D01*
X42669171Y-16473334D01*
X42646459Y-16549039D01*
X42629252Y-16577718D01*
X42602732Y-16599819D01*
X42485611Y-16599819D01*
X42459088Y-16577717D01*
X42437056Y-16540994D01*
X42397206Y-16508682D01*
X42345911Y-16509544D01*
X42307170Y-16543177D01*
X42299111Y-16593843D01*
X42308430Y-16618166D01*
X42337001Y-16665786D01*
X42337698Y-16666351D01*
X42353300Y-16684817D01*
X42410443Y-16732435D01*
X42422767Y-16736873D01*
X42432805Y-16745296D01*
X42458457Y-16749819D01*
X42629886Y-16749819D01*
X42642195Y-16745338D01*
X42655298Y-16745383D01*
X42677900Y-16732436D01*
X42735042Y-16684817D01*
X42735491Y-16684044D01*
X42751342Y-16665786D01*
X42779912Y-16618167D01*
X42780565Y-16614794D01*
X42787437Y-16601131D01*
X42816008Y-16505893D01*
X42815851Y-16503171D01*
X42819171Y-16484342D01*
X42819171Y-16246247D01*
X42818238Y-16243685D01*
X42816008Y-16224696D01*
X42787437Y-16129458D01*
X42785384Y-16126703D01*
X42779912Y-16112423D01*
X42751341Y-16064803D01*
X42750640Y-16064235D01*
X42735042Y-16045773D01*
X42677900Y-15998154D01*
X42665574Y-15993715D01*
X42662716Y-15991317D01*
X42810576Y-15709681D01*
X42812151Y-15698028D01*
X42818032Y-15687843D01*
X42815482Y-15673385D01*
X42816821Y-15663487D01*
X42841461Y-15663487D01*
X42842056Y-15689528D01*
X43042056Y-16689528D01*
X43048062Y-16699402D01*
X43049808Y-16710824D01*
X43060984Y-16720645D01*
X43068717Y-16733359D01*
X43079663Y-16737062D01*
X43088344Y-16744691D01*
X43103218Y-16745031D01*
X43117314Y-16749800D01*
X43128081Y-16745599D01*
X43139634Y-16745864D01*
X43151249Y-16736562D01*
X43165110Y-16731155D01*
X43170656Y-16721019D01*
X43179678Y-16713795D01*
X43189144Y-16689528D01*
X43389144Y-15689528D01*
X43386909Y-15674907D01*
X43393506Y-15712319D01*
X43432806Y-15745296D01*
X43458458Y-15749819D01*
X43705803Y-15749819D01*
X43563481Y-16020908D01*
X43561905Y-16032561D01*
X43556025Y-16042747D01*
X43558574Y-16057204D01*
X43556608Y-16071749D01*
X43562891Y-16081689D01*
X43564934Y-16093271D01*
X43576177Y-16102705D01*
X43584021Y-16115113D01*
X43595225Y-16118688D01*
X43604234Y-16126248D01*
X43629886Y-16130771D01*
X43688447Y-16130771D01*
X43714968Y-16152871D01*
X43732174Y-16181548D01*
X43754886Y-16257254D01*
X43754886Y-16473334D01*
X43732174Y-16549039D01*
X43714967Y-16577718D01*
X43688447Y-16599819D01*
X43571326Y-16599819D01*
X43544803Y-16577717D01*
X43522771Y-16540994D01*
X43482921Y-16508682D01*
X43431626Y-16509544D01*
X43392885Y-16543177D01*
X43384826Y-16593843D01*
X43394145Y-16618166D01*
X43422716Y-16665786D01*
X43423413Y-16666351D01*
X43439015Y-16684817D01*
X43496158Y-16732435D01*
X43508482Y-16736873D01*
X43518520Y-16745296D01*
X43544172Y-16749819D01*
X43715601Y-16749819D01*
X43727910Y-16745338D01*
X43741013Y-16745383D01*
X43763615Y-16732436D01*
X43820757Y-16684817D01*
X43821206Y-16684044D01*
X43837057Y-16665786D01*
X43865627Y-16618167D01*
X43866280Y-16614794D01*
X43873152Y-16601131D01*
X43901723Y-16505893D01*
X43901566Y-16503171D01*
X43904886Y-16484342D01*
X43904886Y-16305646D01*
X44070104Y-16305646D01*
X44070751Y-16306812D01*
X44070542Y-16308129D01*
X44079861Y-16332453D01*
X44108432Y-16380072D01*
X44113194Y-16383933D01*
X44115291Y-16389694D01*
X44120598Y-16392758D01*
X44123575Y-16398120D01*
X44137065Y-16403288D01*
X44148282Y-16412383D01*
X44154409Y-16412280D01*
X44159720Y-16415346D01*
X44165759Y-16414281D01*
X44171483Y-16416474D01*
X44185132Y-16411764D01*
X44199577Y-16411522D01*
X44204208Y-16407501D01*
X44210244Y-16406437D01*
X44214184Y-16401740D01*
X44219980Y-16399741D01*
X44237056Y-16380072D01*
X44265627Y-16332452D01*
X44265880Y-16331143D01*
X44266888Y-16330269D01*
X44270734Y-16306088D01*
X44275384Y-16282086D01*
X44274737Y-16280921D01*
X44274947Y-16279603D01*
X44265627Y-16255280D01*
X44237056Y-16207660D01*
X44232293Y-16203798D01*
X44230197Y-16198038D01*
X44224889Y-16194973D01*
X44221913Y-16189612D01*
X44208423Y-16184443D01*
X44197207Y-16175349D01*
X44191078Y-16175451D01*
X44185768Y-16172386D01*
X44179730Y-16173450D01*
X44174005Y-16171257D01*
X44160350Y-16175968D01*
X44145911Y-16176211D01*
X44141281Y-16180230D01*
X44135244Y-16181295D01*
X44131304Y-16185990D01*
X44125508Y-16187990D01*
X44108432Y-16207660D01*
X44079861Y-16255279D01*
X44079607Y-16256588D01*
X44078600Y-16257463D01*
X44074756Y-16281626D01*
X44070104Y-16305646D01*
X43904886Y-16305646D01*
X43904886Y-16246247D01*
X43903953Y-16243685D01*
X43901723Y-16224696D01*
X43873152Y-16129458D01*
X43871099Y-16126703D01*
X43865627Y-16112423D01*
X43837056Y-16064803D01*
X43836355Y-16064235D01*
X43820757Y-16045773D01*
X43763615Y-15998154D01*
X43751289Y-15993715D01*
X43748431Y-15991317D01*
X43896291Y-15709681D01*
X43897866Y-15698028D01*
X43903747Y-15687843D01*
X43901197Y-15673385D01*
X43903164Y-15658841D01*
X43896880Y-15648900D01*
X43894838Y-15637319D01*
X43883594Y-15627884D01*
X43875751Y-15615477D01*
X43864546Y-15611901D01*
X43855538Y-15604342D01*
X43829886Y-15599819D01*
X43458458Y-15599819D01*
X43410249Y-15617366D01*
X43384840Y-15661373D01*
X43381392Y-15638814D01*
X43342856Y-15604946D01*
X43291566Y-15603774D01*
X43251522Y-15635843D01*
X43242056Y-15660110D01*
X43115600Y-16292390D01*
X42989144Y-15660110D01*
X42962483Y-15616279D01*
X42913886Y-15599838D01*
X42866090Y-15618483D01*
X42841461Y-15663487D01*
X42816821Y-15663487D01*
X42817449Y-15658841D01*
X42811165Y-15648900D01*
X42809123Y-15637319D01*
X42797879Y-15627884D01*
X42790036Y-15615477D01*
X42778831Y-15611901D01*
X42769823Y-15604342D01*
X42744171Y-15599819D01*
X42372743Y-15599819D01*
X42324534Y-15617366D01*
X42298882Y-15661795D01*
X42012030Y-15661795D01*
X42012030Y-14636247D01*
X42154887Y-14636247D01*
X42155928Y-14639108D01*
X42155717Y-14647373D01*
X42184289Y-14837849D01*
X42185702Y-14840449D01*
X42186622Y-14848274D01*
X42215193Y-14943512D01*
X42217246Y-14946267D01*
X42222718Y-14960548D01*
X42279861Y-15055787D01*
X42285107Y-15060040D01*
X42287522Y-15066350D01*
X42307750Y-15082762D01*
X42393463Y-15130381D01*
X42399529Y-15131347D01*
X42404235Y-15135296D01*
X42429887Y-15139819D01*
X42487030Y-15139819D01*
X42492801Y-15137718D01*
X42498833Y-15138885D01*
X42523453Y-15130381D01*
X42609167Y-15082762D01*
X42613593Y-15077660D01*
X42619980Y-15075457D01*
X42629215Y-15064819D01*
X42783459Y-15064819D01*
X42801006Y-15113028D01*
X42845435Y-15138680D01*
X42895959Y-15129771D01*
X42928936Y-15090471D01*
X42933459Y-15064819D01*
X42933459Y-14514819D01*
X43130370Y-15089143D01*
X43139107Y-15099961D01*
X43143863Y-15113028D01*
X43154724Y-15119298D01*
X43162604Y-15129056D01*
X43176250Y-15131727D01*
X43188292Y-15138680D01*
X43200641Y-15136502D01*
X43212951Y-15138912D01*
X43225123Y-15132185D01*
X43238816Y-15129771D01*
X43246876Y-15120164D01*
X43257855Y-15114098D01*
X43262855Y-15101122D01*
X43271793Y-15090471D01*
X43275869Y-15067352D01*
X43276303Y-15066227D01*
X43276192Y-15065521D01*
X43276316Y-15064819D01*
X43412030Y-15064819D01*
X43418693Y-15083127D01*
X43422078Y-15102319D01*
X43427262Y-15106669D01*
X43429577Y-15113028D01*
X43446450Y-15122770D01*
X43461378Y-15135296D01*
X43471120Y-15137013D01*
X43474006Y-15138680D01*
X43477288Y-15138101D01*
X43487030Y-15139819D01*
X43629887Y-15139819D01*
X43635658Y-15137718D01*
X43641690Y-15138885D01*
X43666310Y-15130381D01*
X43752024Y-15082762D01*
X43756451Y-15077659D01*
X43762837Y-15075456D01*
X43779913Y-15055787D01*
X43837056Y-14960548D01*
X43837709Y-14957175D01*
X43844581Y-14943512D01*
X43873152Y-14848274D01*
X43872981Y-14845318D01*
X43875485Y-14837849D01*
X43896816Y-14695646D01*
X44070104Y-14695646D01*
X44070751Y-14696812D01*
X44070542Y-14698129D01*
X44079861Y-14722453D01*
X44108432Y-14770072D01*
X44113194Y-14773933D01*
X44115291Y-14779694D01*
X44120598Y-14782758D01*
X44123575Y-14788120D01*
X44137065Y-14793288D01*
X44148282Y-14802383D01*
X44154409Y-14802280D01*
X44159720Y-14805346D01*
X44165759Y-14804281D01*
X44171483Y-14806474D01*
X44185132Y-14801764D01*
X44199577Y-14801522D01*
X44204208Y-14797501D01*
X44210244Y-14796437D01*
X44214184Y-14791740D01*
X44219980Y-14789741D01*
X44237056Y-14770072D01*
X44265627Y-14722452D01*
X44265880Y-14721143D01*
X44266888Y-14720269D01*
X44270734Y-14696088D01*
X44275384Y-14672086D01*
X44274737Y-14670921D01*
X44274947Y-14669603D01*
X44265627Y-14645280D01*
X44237056Y-14597660D01*
X44232293Y-14593798D01*
X44230197Y-14588038D01*
X44224889Y-14584973D01*
X44221913Y-14579612D01*
X44208423Y-14574443D01*
X44197207Y-14565349D01*
X44191078Y-14565451D01*
X44185768Y-14562386D01*
X44179730Y-14563450D01*
X44174005Y-14561257D01*
X44160350Y-14565968D01*
X44145911Y-14566211D01*
X44141281Y-14570230D01*
X44135244Y-14571295D01*
X44131304Y-14575990D01*
X44125508Y-14577990D01*
X44108432Y-14597660D01*
X44079861Y-14645279D01*
X44079607Y-14646588D01*
X44078600Y-14647463D01*
X44074756Y-14671626D01*
X44070104Y-14695646D01*
X43896816Y-14695646D01*
X43904057Y-14647373D01*
X43903451Y-14644388D01*
X43904887Y-14636247D01*
X43904887Y-14493390D01*
X43903845Y-14490528D01*
X43904057Y-14482264D01*
X43875485Y-14291788D01*
X43874071Y-14289187D01*
X43873152Y-14281363D01*
X43844581Y-14186125D01*
X43842527Y-14183370D01*
X43837056Y-14169089D01*
X43779913Y-14073851D01*
X43774665Y-14069596D01*
X43772251Y-14063288D01*
X43752024Y-14046876D01*
X43666310Y-13999257D01*
X43660244Y-13998290D01*
X43655539Y-13994342D01*
X43629887Y-13989819D01*
X43487030Y-13989819D01*
X43468721Y-13996482D01*
X43449530Y-13999867D01*
X43445179Y-14005051D01*
X43438821Y-14007366D01*
X43429078Y-14024239D01*
X43416553Y-14039167D01*
X43414835Y-14048909D01*
X43413169Y-14051795D01*
X43413747Y-14055077D01*
X43412030Y-14064819D01*
X43412030Y-15064819D01*
X43276316Y-15064819D01*
X43276316Y-14064819D01*
X43258769Y-14016610D01*
X43214340Y-13990958D01*
X43163816Y-13999867D01*
X43130839Y-14039167D01*
X43126316Y-14064819D01*
X43126316Y-14614818D01*
X42929405Y-14040495D01*
X42920667Y-14029676D01*
X42915912Y-14016610D01*
X42905050Y-14010339D01*
X42897171Y-14000582D01*
X42883524Y-13997910D01*
X42871483Y-13990958D01*
X42859133Y-13993135D01*
X42846824Y-13990726D01*
X42834651Y-13997452D01*
X42820959Y-13999867D01*
X42812897Y-14009474D01*
X42801921Y-14015540D01*
X42796920Y-14028514D01*
X42787982Y-14039167D01*
X42783905Y-14062285D01*
X42783472Y-14063411D01*
X42783582Y-14064116D01*
X42783459Y-14064819D01*
X42783459Y-15064819D01*
X42629215Y-15064819D01*
X42637056Y-15055787D01*
X42665628Y-15008167D01*
X42667035Y-15000901D01*
X42671793Y-14995232D01*
X42676316Y-14969580D01*
X42676316Y-14636247D01*
X42669652Y-14617938D01*
X42666268Y-14598747D01*
X42661083Y-14594396D01*
X42658769Y-14588038D01*
X42641895Y-14578295D01*
X42626968Y-14565770D01*
X42617225Y-14564052D01*
X42614340Y-14562386D01*
X42611057Y-14562964D01*
X42601316Y-14561247D01*
X42487030Y-14561247D01*
X42438821Y-14578794D01*
X42413169Y-14623223D01*
X42422078Y-14673747D01*
X42461378Y-14706724D01*
X42487030Y-14711247D01*
X42526316Y-14711247D01*
X42526316Y-14948806D01*
X42518765Y-14961390D01*
X42467595Y-14989819D01*
X42449322Y-14989819D01*
X42398152Y-14961391D01*
X42356170Y-14891421D01*
X42331834Y-14810300D01*
X42304887Y-14630654D01*
X42304887Y-14498982D01*
X42331834Y-14319336D01*
X42356170Y-14238215D01*
X42398151Y-14168246D01*
X42449322Y-14139819D01*
X42488449Y-14139819D01*
X42524730Y-14170054D01*
X42572998Y-14187437D01*
X42621148Y-14169729D01*
X42646649Y-14125212D01*
X42637569Y-14074719D01*
X42620759Y-14054822D01*
X42563616Y-14007203D01*
X42551291Y-14002764D01*
X42541254Y-13994342D01*
X42515602Y-13989819D01*
X42429887Y-13989819D01*
X42424115Y-13991919D01*
X42418084Y-13990753D01*
X42393463Y-13999257D01*
X42307750Y-14046876D01*
X42303323Y-14051977D01*
X42296938Y-14054181D01*
X42279861Y-14073850D01*
X42222718Y-14169089D01*
X42222064Y-14172461D01*
X42215193Y-14186125D01*
X42186622Y-14281363D01*
X42186792Y-14284318D01*
X42184289Y-14291788D01*
X42155717Y-14482264D01*
X42156322Y-14485248D01*
X42154887Y-14493390D01*
X42154887Y-14636247D01*
X42012030Y-14636247D01*
X42012030Y-13454819D01*
X42954887Y-13454819D01*
X42961550Y-13473127D01*
X42964935Y-13492319D01*
X42970119Y-13496669D01*
X42972434Y-13503028D01*
X42989307Y-13512770D01*
X43004235Y-13525296D01*
X43013977Y-13527013D01*
X43016863Y-13528680D01*
X43020145Y-13528101D01*
X43029887Y-13529819D01*
X43258458Y-13529819D01*
X43270767Y-13525338D01*
X43283870Y-13525383D01*
X43306472Y-13512436D01*
X43363614Y-13464817D01*
X43364063Y-13464044D01*
X43379914Y-13445786D01*
X43408484Y-13398167D01*
X43409137Y-13394794D01*
X43416009Y-13381132D01*
X43444581Y-13285893D01*
X43444424Y-13283171D01*
X43447744Y-13264342D01*
X43447744Y-13121485D01*
X43446811Y-13118923D01*
X43444581Y-13099934D01*
X43416009Y-13004695D01*
X43413955Y-13001939D01*
X43408484Y-12987661D01*
X43379913Y-12940041D01*
X43374665Y-12935786D01*
X43372251Y-12929478D01*
X43355161Y-12915611D01*
X43379913Y-12874357D01*
X43380566Y-12870986D01*
X43387438Y-12857322D01*
X43416009Y-12762084D01*
X43415852Y-12759362D01*
X43419172Y-12740533D01*
X43419172Y-12645295D01*
X43418239Y-12642733D01*
X43416009Y-12623744D01*
X43387438Y-12528506D01*
X43385385Y-12525751D01*
X43379913Y-12511471D01*
X43351342Y-12463851D01*
X43350641Y-12463283D01*
X43335043Y-12444821D01*
X43331412Y-12441795D01*
X43470311Y-12441795D01*
X43479220Y-12492319D01*
X43518520Y-12525296D01*
X43544172Y-12529819D01*
X43640601Y-12529819D01*
X43640601Y-13454819D01*
X43658148Y-13503028D01*
X43702577Y-13528680D01*
X43753101Y-13519771D01*
X43786078Y-13480471D01*
X43790601Y-13454819D01*
X43790601Y-13085646D01*
X44070104Y-13085646D01*
X44070751Y-13086812D01*
X44070542Y-13088129D01*
X44079861Y-13112453D01*
X44108432Y-13160072D01*
X44113194Y-13163933D01*
X44115291Y-13169694D01*
X44120598Y-13172758D01*
X44123575Y-13178120D01*
X44137065Y-13183288D01*
X44148282Y-13192383D01*
X44154409Y-13192280D01*
X44159720Y-13195346D01*
X44165759Y-13194281D01*
X44171483Y-13196474D01*
X44185132Y-13191764D01*
X44199577Y-13191522D01*
X44204208Y-13187501D01*
X44210244Y-13186437D01*
X44214184Y-13181740D01*
X44219980Y-13179741D01*
X44237056Y-13160072D01*
X44265627Y-13112452D01*
X44265880Y-13111143D01*
X44266888Y-13110269D01*
X44270734Y-13086088D01*
X44275384Y-13062086D01*
X44274737Y-13060921D01*
X44274947Y-13059603D01*
X44265627Y-13035280D01*
X44237056Y-12987660D01*
X44232293Y-12983798D01*
X44230197Y-12978038D01*
X44224889Y-12974973D01*
X44221913Y-12969612D01*
X44208423Y-12964443D01*
X44197207Y-12955349D01*
X44191078Y-12955451D01*
X44185768Y-12952386D01*
X44179730Y-12953450D01*
X44174005Y-12951257D01*
X44160350Y-12955968D01*
X44145911Y-12956211D01*
X44141281Y-12960230D01*
X44135244Y-12961295D01*
X44131304Y-12965990D01*
X44125508Y-12967990D01*
X44108432Y-12987660D01*
X44079861Y-13035279D01*
X44079607Y-13036588D01*
X44078600Y-13037463D01*
X44074756Y-13061626D01*
X44070104Y-13085646D01*
X43790601Y-13085646D01*
X43790601Y-12529819D01*
X43887030Y-12529819D01*
X43935239Y-12512272D01*
X43960891Y-12467843D01*
X43951982Y-12417319D01*
X43912682Y-12384342D01*
X43887030Y-12379819D01*
X43544172Y-12379819D01*
X43495963Y-12397366D01*
X43470311Y-12441795D01*
X43331412Y-12441795D01*
X43277901Y-12397202D01*
X43265575Y-12392763D01*
X43255539Y-12384342D01*
X43229887Y-12379819D01*
X43029887Y-12379819D01*
X43011578Y-12386482D01*
X42992387Y-12389867D01*
X42988036Y-12395051D01*
X42981678Y-12397366D01*
X42971935Y-12414239D01*
X42959410Y-12429167D01*
X42957692Y-12438909D01*
X42956026Y-12441795D01*
X42956604Y-12445077D01*
X42954887Y-12454819D01*
X42954887Y-13454819D01*
X42012030Y-13454819D01*
X42012030Y-10831795D01*
X42898882Y-10831795D01*
X42907791Y-10882319D01*
X42947091Y-10915296D01*
X42972743Y-10919819D01*
X43069172Y-10919819D01*
X43069172Y-11844819D01*
X43086719Y-11893028D01*
X43131148Y-11918680D01*
X43181672Y-11909771D01*
X43214649Y-11870471D01*
X43219172Y-11844819D01*
X43219172Y-10919819D01*
X43315601Y-10919819D01*
X43363810Y-10902272D01*
X43386716Y-10862597D01*
X43388822Y-10872673D01*
X43577680Y-11344819D01*
X43388822Y-11816965D01*
X43387210Y-11868242D01*
X43418934Y-11908560D01*
X43469153Y-11919053D01*
X43514367Y-11894811D01*
X43528094Y-11872673D01*
X43658458Y-11546763D01*
X43788822Y-11872673D01*
X43823019Y-11910917D01*
X43873797Y-11918234D01*
X43917398Y-11891198D01*
X43933421Y-11842462D01*
X43928094Y-11816965D01*
X43791566Y-11475646D01*
X44070104Y-11475646D01*
X44070751Y-11476812D01*
X44070542Y-11478129D01*
X44079861Y-11502453D01*
X44108432Y-11550072D01*
X44113194Y-11553933D01*
X44115291Y-11559694D01*
X44120598Y-11562758D01*
X44123575Y-11568120D01*
X44137065Y-11573288D01*
X44148282Y-11582383D01*
X44154409Y-11582280D01*
X44159720Y-11585346D01*
X44165759Y-11584281D01*
X44171483Y-11586474D01*
X44185132Y-11581764D01*
X44199577Y-11581522D01*
X44204208Y-11577501D01*
X44210244Y-11576437D01*
X44214184Y-11571740D01*
X44219980Y-11569741D01*
X44237056Y-11550072D01*
X44265627Y-11502452D01*
X44265880Y-11501143D01*
X44266888Y-11500269D01*
X44270734Y-11476088D01*
X44275384Y-11452086D01*
X44274737Y-11450921D01*
X44274947Y-11449603D01*
X44265627Y-11425280D01*
X44237056Y-11377660D01*
X44232293Y-11373798D01*
X44230197Y-11368038D01*
X44224889Y-11364973D01*
X44221913Y-11359612D01*
X44208423Y-11354443D01*
X44197207Y-11345349D01*
X44191078Y-11345451D01*
X44185768Y-11342386D01*
X44179730Y-11343450D01*
X44174005Y-11341257D01*
X44160350Y-11345968D01*
X44145911Y-11346211D01*
X44141281Y-11350230D01*
X44135244Y-11351295D01*
X44131304Y-11355990D01*
X44125508Y-11357990D01*
X44108432Y-11377660D01*
X44079861Y-11425279D01*
X44079607Y-11426588D01*
X44078600Y-11427463D01*
X44074756Y-11451626D01*
X44070104Y-11475646D01*
X43791566Y-11475646D01*
X43739235Y-11344819D01*
X43928094Y-10872673D01*
X43929706Y-10821396D01*
X43897982Y-10781078D01*
X43847763Y-10770585D01*
X43802549Y-10794827D01*
X43788822Y-10816965D01*
X43658458Y-11142875D01*
X43528094Y-10816965D01*
X43493897Y-10778721D01*
X43443119Y-10771404D01*
X43399518Y-10798440D01*
X43386154Y-10839086D01*
X43380553Y-10807319D01*
X43341253Y-10774342D01*
X43315601Y-10769819D01*
X42972743Y-10769819D01*
X42924534Y-10787366D01*
X42898882Y-10831795D01*
X42012030Y-10831795D01*
X42012030Y-10234819D01*
X42783459Y-10234819D01*
X42801006Y-10283028D01*
X42845435Y-10308680D01*
X42895959Y-10299771D01*
X42928936Y-10260471D01*
X42933459Y-10234819D01*
X42933459Y-9684819D01*
X43130370Y-10259143D01*
X43139107Y-10269961D01*
X43143863Y-10283028D01*
X43154724Y-10289298D01*
X43162604Y-10299056D01*
X43176250Y-10301727D01*
X43188292Y-10308680D01*
X43200641Y-10306502D01*
X43212951Y-10308912D01*
X43225123Y-10302185D01*
X43238816Y-10299771D01*
X43246876Y-10290164D01*
X43257855Y-10284098D01*
X43262855Y-10271122D01*
X43271793Y-10260471D01*
X43275869Y-10237352D01*
X43276303Y-10236227D01*
X43276192Y-10235521D01*
X43276316Y-10234819D01*
X43276316Y-9806247D01*
X43383458Y-9806247D01*
X43384499Y-9809108D01*
X43384288Y-9817373D01*
X43412860Y-10007849D01*
X43414273Y-10010449D01*
X43415193Y-10018274D01*
X43443764Y-10113512D01*
X43445817Y-10116267D01*
X43451289Y-10130548D01*
X43508432Y-10225787D01*
X43513678Y-10230040D01*
X43516093Y-10236350D01*
X43536321Y-10252762D01*
X43622034Y-10300381D01*
X43628100Y-10301347D01*
X43632806Y-10305296D01*
X43658458Y-10309819D01*
X43715601Y-10309819D01*
X43721372Y-10307718D01*
X43727404Y-10308885D01*
X43752024Y-10300381D01*
X43837738Y-10252762D01*
X43842164Y-10247660D01*
X43848551Y-10245457D01*
X43865627Y-10225787D01*
X43894199Y-10178167D01*
X43903956Y-10127800D01*
X43879056Y-10082945D01*
X43831149Y-10064591D01*
X43782651Y-10081323D01*
X43765575Y-10100993D01*
X43747336Y-10131390D01*
X43696166Y-10159819D01*
X43677893Y-10159819D01*
X43626723Y-10131391D01*
X43584741Y-10061421D01*
X43560405Y-9980300D01*
X43543207Y-9865646D01*
X44070104Y-9865646D01*
X44070751Y-9866812D01*
X44070542Y-9868129D01*
X44079861Y-9892453D01*
X44108432Y-9940072D01*
X44113194Y-9943933D01*
X44115291Y-9949694D01*
X44120598Y-9952758D01*
X44123575Y-9958120D01*
X44137065Y-9963288D01*
X44148282Y-9972383D01*
X44154409Y-9972280D01*
X44159720Y-9975346D01*
X44165759Y-9974281D01*
X44171483Y-9976474D01*
X44185132Y-9971764D01*
X44199577Y-9971522D01*
X44204208Y-9967501D01*
X44210244Y-9966437D01*
X44214184Y-9961740D01*
X44219980Y-9959741D01*
X44237056Y-9940072D01*
X44265627Y-9892452D01*
X44265880Y-9891143D01*
X44266888Y-9890269D01*
X44270734Y-9866088D01*
X44275384Y-9842086D01*
X44274737Y-9840921D01*
X44274947Y-9839603D01*
X44265627Y-9815280D01*
X44237056Y-9767660D01*
X44232293Y-9763798D01*
X44230197Y-9758038D01*
X44224889Y-9754973D01*
X44221913Y-9749612D01*
X44208423Y-9744443D01*
X44197207Y-9735349D01*
X44191078Y-9735451D01*
X44185768Y-9732386D01*
X44179730Y-9733450D01*
X44174005Y-9731257D01*
X44160350Y-9735968D01*
X44145911Y-9736211D01*
X44141281Y-9740230D01*
X44135244Y-9741295D01*
X44131304Y-9745990D01*
X44125508Y-9747990D01*
X44108432Y-9767660D01*
X44079861Y-9815279D01*
X44079607Y-9816588D01*
X44078600Y-9817463D01*
X44074756Y-9841626D01*
X44070104Y-9865646D01*
X43543207Y-9865646D01*
X43533458Y-9800654D01*
X43533458Y-9668982D01*
X43560405Y-9489336D01*
X43584741Y-9408215D01*
X43626722Y-9338246D01*
X43677893Y-9309819D01*
X43696166Y-9309819D01*
X43747335Y-9338246D01*
X43765575Y-9368645D01*
X43805425Y-9400955D01*
X43856721Y-9400093D01*
X43895461Y-9366459D01*
X43903518Y-9315792D01*
X43894199Y-9291469D01*
X43865627Y-9243850D01*
X43860379Y-9239595D01*
X43857965Y-9233288D01*
X43837738Y-9216876D01*
X43752024Y-9169257D01*
X43745958Y-9168290D01*
X43741253Y-9164342D01*
X43715601Y-9159819D01*
X43658458Y-9159819D01*
X43652686Y-9161919D01*
X43646655Y-9160753D01*
X43622034Y-9169257D01*
X43536321Y-9216876D01*
X43531894Y-9221977D01*
X43525509Y-9224181D01*
X43508432Y-9243850D01*
X43451289Y-9339089D01*
X43450635Y-9342461D01*
X43443764Y-9356125D01*
X43415193Y-9451363D01*
X43415363Y-9454318D01*
X43412860Y-9461788D01*
X43384288Y-9652264D01*
X43384893Y-9655248D01*
X43383458Y-9663390D01*
X43383458Y-9806247D01*
X43276316Y-9806247D01*
X43276316Y-9234819D01*
X43258769Y-9186610D01*
X43214340Y-9160958D01*
X43163816Y-9169867D01*
X43130839Y-9209167D01*
X43126316Y-9234819D01*
X43126316Y-9784818D01*
X42929405Y-9210495D01*
X42920667Y-9199676D01*
X42915912Y-9186610D01*
X42905050Y-9180339D01*
X42897171Y-9170582D01*
X42883524Y-9167910D01*
X42871483Y-9160958D01*
X42859133Y-9163135D01*
X42846824Y-9160726D01*
X42834651Y-9167452D01*
X42820959Y-9169867D01*
X42812897Y-9179474D01*
X42801921Y-9185540D01*
X42796920Y-9198514D01*
X42787982Y-9209167D01*
X42783905Y-9232285D01*
X42783472Y-9233411D01*
X42783582Y-9234116D01*
X42783459Y-9234819D01*
X42783459Y-10234819D01*
X42012030Y-10234819D01*
X42012030Y-9016962D01*
X44418241Y-9016962D01*
X44418241Y-16892676D01*
G37*
G36*
X47101847Y-14168247D02*
G01*
X47143829Y-14238217D01*
X47168164Y-14319336D01*
X47195112Y-14498982D01*
X47195112Y-14630654D01*
X47168164Y-14810300D01*
X47143828Y-14891421D01*
X47101847Y-14961390D01*
X47050677Y-14989819D01*
X47002255Y-14989819D01*
X47002255Y-14139819D01*
X47050677Y-14139819D01*
X47101847Y-14168247D01*
G37*
G36*
X45926622Y-10941919D02*
G01*
X45943828Y-10970595D01*
X45966541Y-11046303D01*
X45966541Y-11167143D01*
X45943828Y-11242851D01*
X45926622Y-11271527D01*
X45900101Y-11293628D01*
X45773684Y-11293628D01*
X45773684Y-10919819D01*
X45900101Y-10919819D01*
X45926622Y-10941919D01*
G37*
G36*
X47487969Y-16892676D02*
G01*
X45081758Y-16892676D01*
X45081758Y-16305646D01*
X45224615Y-16305646D01*
X45225262Y-16306812D01*
X45225053Y-16308129D01*
X45234372Y-16332453D01*
X45262943Y-16380072D01*
X45267705Y-16383933D01*
X45269802Y-16389694D01*
X45275109Y-16392758D01*
X45278086Y-16398120D01*
X45291576Y-16403288D01*
X45302793Y-16412383D01*
X45308920Y-16412280D01*
X45314231Y-16415346D01*
X45320270Y-16414281D01*
X45325994Y-16416474D01*
X45339643Y-16411764D01*
X45354088Y-16411522D01*
X45358719Y-16407501D01*
X45364755Y-16406437D01*
X45368695Y-16401740D01*
X45374491Y-16399741D01*
X45391567Y-16380072D01*
X45420138Y-16332452D01*
X45420391Y-16331143D01*
X45421399Y-16330269D01*
X45425245Y-16306088D01*
X45429895Y-16282086D01*
X45429248Y-16280921D01*
X45429458Y-16279603D01*
X45420138Y-16255280D01*
X45391567Y-16207660D01*
X45386804Y-16203798D01*
X45384708Y-16198038D01*
X45379400Y-16194973D01*
X45376424Y-16189612D01*
X45362934Y-16184443D01*
X45351718Y-16175349D01*
X45345589Y-16175451D01*
X45340279Y-16172386D01*
X45334241Y-16173450D01*
X45328516Y-16171257D01*
X45314861Y-16175968D01*
X45300422Y-16176211D01*
X45295792Y-16180230D01*
X45289755Y-16181295D01*
X45285815Y-16185990D01*
X45280019Y-16187990D01*
X45262943Y-16207660D01*
X45234372Y-16255279D01*
X45234118Y-16256588D01*
X45233111Y-16257463D01*
X45229267Y-16281626D01*
X45224615Y-16305646D01*
X45081758Y-16305646D01*
X45081758Y-16146517D01*
X45595247Y-16146517D01*
X45597637Y-16154554D01*
X45596043Y-16162788D01*
X45604757Y-16178486D01*
X45609875Y-16195690D01*
X45616870Y-16200308D01*
X45620942Y-16207643D01*
X45637708Y-16214066D01*
X45652688Y-16223957D01*
X45661019Y-16222997D01*
X45668850Y-16225998D01*
X45685820Y-16220142D01*
X45703654Y-16218090D01*
X45709418Y-16212001D01*
X45717347Y-16209266D01*
X45734424Y-16189597D01*
X45756459Y-16152872D01*
X45782981Y-16130771D01*
X45871530Y-16130771D01*
X45898051Y-16152871D01*
X45915257Y-16181548D01*
X45937969Y-16257254D01*
X45937969Y-16473334D01*
X45915257Y-16549039D01*
X45898050Y-16577718D01*
X45871530Y-16599819D01*
X45782981Y-16599819D01*
X45756458Y-16577716D01*
X45734424Y-16540993D01*
X45694574Y-16508682D01*
X45643279Y-16509544D01*
X45604538Y-16543178D01*
X45596481Y-16593844D01*
X45605800Y-16618167D01*
X45634372Y-16665787D01*
X45635069Y-16666352D01*
X45650670Y-16684817D01*
X45707813Y-16732435D01*
X45720137Y-16736873D01*
X45730175Y-16745296D01*
X45755827Y-16749819D01*
X45898684Y-16749819D01*
X45910993Y-16745338D01*
X45924096Y-16745383D01*
X45946698Y-16732436D01*
X46003840Y-16684817D01*
X46004289Y-16684044D01*
X46020140Y-16665786D01*
X46048710Y-16618167D01*
X46049363Y-16614794D01*
X46056235Y-16601131D01*
X46084806Y-16505893D01*
X46084649Y-16503171D01*
X46087969Y-16484342D01*
X46087969Y-16246247D01*
X46087036Y-16243685D01*
X46084806Y-16224696D01*
X46056235Y-16129458D01*
X46054182Y-16126703D01*
X46048710Y-16112423D01*
X46020139Y-16064803D01*
X46019438Y-16064235D01*
X46003840Y-16045773D01*
X45946698Y-15998154D01*
X45934372Y-15993715D01*
X45924336Y-15985294D01*
X45898684Y-15980771D01*
X45755827Y-15980771D01*
X45755452Y-15980907D01*
X45769318Y-15749819D01*
X45984398Y-15749819D01*
X46032607Y-15732272D01*
X46058259Y-15687843D01*
X46053964Y-15663487D01*
X46110259Y-15663487D01*
X46110854Y-15689528D01*
X46310854Y-16689528D01*
X46316860Y-16699402D01*
X46318606Y-16710824D01*
X46329782Y-16720645D01*
X46337515Y-16733359D01*
X46348461Y-16737062D01*
X46357142Y-16744691D01*
X46372016Y-16745031D01*
X46386112Y-16749800D01*
X46396879Y-16745599D01*
X46408432Y-16745864D01*
X46420047Y-16736562D01*
X46433908Y-16731155D01*
X46439454Y-16721019D01*
X46448476Y-16713795D01*
X46457942Y-16689528D01*
X46657942Y-15689528D01*
X46650190Y-15638814D01*
X46611654Y-15604946D01*
X46560364Y-15603774D01*
X46520320Y-15635843D01*
X46510854Y-15660110D01*
X46384398Y-16292390D01*
X46257942Y-15660110D01*
X46231281Y-15616279D01*
X46182684Y-15599838D01*
X46134888Y-15618483D01*
X46110259Y-15663487D01*
X46053964Y-15663487D01*
X46049350Y-15637319D01*
X46010050Y-15604342D01*
X45984398Y-15599819D01*
X45698684Y-15599819D01*
X45682378Y-15605753D01*
X45665142Y-15607738D01*
X45658945Y-15614283D01*
X45650475Y-15617366D01*
X45641799Y-15632392D01*
X45629870Y-15644992D01*
X45626586Y-15658741D01*
X45624823Y-15661795D01*
X45625262Y-15664285D01*
X45623819Y-15670327D01*
X45595247Y-16146517D01*
X45081758Y-16146517D01*
X45081758Y-14695646D01*
X45224615Y-14695646D01*
X45225262Y-14696812D01*
X45225053Y-14698129D01*
X45234372Y-14722453D01*
X45262943Y-14770072D01*
X45267705Y-14773933D01*
X45269802Y-14779694D01*
X45275109Y-14782758D01*
X45278086Y-14788120D01*
X45291576Y-14793288D01*
X45302793Y-14802383D01*
X45308920Y-14802280D01*
X45314231Y-14805346D01*
X45320270Y-14804281D01*
X45325994Y-14806474D01*
X45339643Y-14801764D01*
X45354088Y-14801522D01*
X45358719Y-14797501D01*
X45364755Y-14796437D01*
X45368695Y-14791740D01*
X45374491Y-14789741D01*
X45391567Y-14770072D01*
X45420138Y-14722452D01*
X45420391Y-14721143D01*
X45421399Y-14720269D01*
X45425245Y-14696088D01*
X45429895Y-14672086D01*
X45429248Y-14670921D01*
X45429458Y-14669603D01*
X45420138Y-14645280D01*
X45414718Y-14636247D01*
X45595112Y-14636247D01*
X45596153Y-14639108D01*
X45595942Y-14647373D01*
X45624514Y-14837849D01*
X45625927Y-14840449D01*
X45626847Y-14848274D01*
X45655418Y-14943512D01*
X45657471Y-14946267D01*
X45662943Y-14960548D01*
X45720086Y-15055787D01*
X45725332Y-15060040D01*
X45727747Y-15066350D01*
X45747975Y-15082762D01*
X45833688Y-15130381D01*
X45839754Y-15131347D01*
X45844460Y-15135296D01*
X45870112Y-15139819D01*
X45927255Y-15139819D01*
X45933026Y-15137718D01*
X45939058Y-15138885D01*
X45963678Y-15130381D01*
X46049392Y-15082762D01*
X46053818Y-15077660D01*
X46060205Y-15075457D01*
X46069440Y-15064819D01*
X46223684Y-15064819D01*
X46241231Y-15113028D01*
X46285660Y-15138680D01*
X46336184Y-15129771D01*
X46369161Y-15090471D01*
X46373684Y-15064819D01*
X46373684Y-14514819D01*
X46570595Y-15089143D01*
X46579332Y-15099961D01*
X46584088Y-15113028D01*
X46594949Y-15119298D01*
X46602829Y-15129056D01*
X46616475Y-15131727D01*
X46628517Y-15138680D01*
X46640866Y-15136502D01*
X46653176Y-15138912D01*
X46665348Y-15132185D01*
X46679041Y-15129771D01*
X46687101Y-15120164D01*
X46698080Y-15114098D01*
X46703080Y-15101122D01*
X46712018Y-15090471D01*
X46716094Y-15067352D01*
X46716528Y-15066227D01*
X46716417Y-15065521D01*
X46716541Y-15064819D01*
X46852255Y-15064819D01*
X46858918Y-15083127D01*
X46862303Y-15102319D01*
X46867487Y-15106669D01*
X46869802Y-15113028D01*
X46886675Y-15122770D01*
X46901603Y-15135296D01*
X46911345Y-15137013D01*
X46914231Y-15138680D01*
X46917513Y-15138101D01*
X46927255Y-15139819D01*
X47070112Y-15139819D01*
X47075883Y-15137718D01*
X47081915Y-15138885D01*
X47106535Y-15130381D01*
X47192249Y-15082762D01*
X47196676Y-15077659D01*
X47203062Y-15075456D01*
X47220138Y-15055787D01*
X47277281Y-14960548D01*
X47277934Y-14957175D01*
X47284806Y-14943512D01*
X47313377Y-14848274D01*
X47313206Y-14845318D01*
X47315710Y-14837849D01*
X47344282Y-14647373D01*
X47343676Y-14644388D01*
X47345112Y-14636247D01*
X47345112Y-14493390D01*
X47344070Y-14490528D01*
X47344282Y-14482264D01*
X47315710Y-14291788D01*
X47314296Y-14289187D01*
X47313377Y-14281363D01*
X47284806Y-14186125D01*
X47282752Y-14183370D01*
X47277281Y-14169089D01*
X47220138Y-14073851D01*
X47214890Y-14069596D01*
X47212476Y-14063288D01*
X47192249Y-14046876D01*
X47106535Y-13999257D01*
X47100469Y-13998290D01*
X47095764Y-13994342D01*
X47070112Y-13989819D01*
X46927255Y-13989819D01*
X46908946Y-13996482D01*
X46889755Y-13999867D01*
X46885404Y-14005051D01*
X46879046Y-14007366D01*
X46869303Y-14024239D01*
X46856778Y-14039167D01*
X46855060Y-14048909D01*
X46853394Y-14051795D01*
X46853972Y-14055077D01*
X46852255Y-14064819D01*
X46852255Y-15064819D01*
X46716541Y-15064819D01*
X46716541Y-14064819D01*
X46698994Y-14016610D01*
X46654565Y-13990958D01*
X46604041Y-13999867D01*
X46571064Y-14039167D01*
X46566541Y-14064819D01*
X46566541Y-14614818D01*
X46369630Y-14040495D01*
X46360892Y-14029676D01*
X46356137Y-14016610D01*
X46345275Y-14010339D01*
X46337396Y-14000582D01*
X46323749Y-13997910D01*
X46311708Y-13990958D01*
X46299358Y-13993135D01*
X46287049Y-13990726D01*
X46274876Y-13997452D01*
X46261184Y-13999867D01*
X46253122Y-14009474D01*
X46242146Y-14015540D01*
X46237145Y-14028514D01*
X46228207Y-14039167D01*
X46224130Y-14062285D01*
X46223697Y-14063411D01*
X46223807Y-14064116D01*
X46223684Y-14064819D01*
X46223684Y-15064819D01*
X46069440Y-15064819D01*
X46077281Y-15055787D01*
X46105853Y-15008167D01*
X46107260Y-15000901D01*
X46112018Y-14995232D01*
X46116541Y-14969580D01*
X46116541Y-14636247D01*
X46109877Y-14617938D01*
X46106493Y-14598747D01*
X46101308Y-14594396D01*
X46098994Y-14588038D01*
X46082120Y-14578295D01*
X46067193Y-14565770D01*
X46057450Y-14564052D01*
X46054565Y-14562386D01*
X46051282Y-14562964D01*
X46041541Y-14561247D01*
X45927255Y-14561247D01*
X45879046Y-14578794D01*
X45853394Y-14623223D01*
X45862303Y-14673747D01*
X45901603Y-14706724D01*
X45927255Y-14711247D01*
X45966541Y-14711247D01*
X45966541Y-14948806D01*
X45958990Y-14961390D01*
X45907820Y-14989819D01*
X45889547Y-14989819D01*
X45838377Y-14961391D01*
X45796395Y-14891421D01*
X45772059Y-14810300D01*
X45745112Y-14630654D01*
X45745112Y-14498982D01*
X45772059Y-14319336D01*
X45796395Y-14238215D01*
X45838376Y-14168246D01*
X45889547Y-14139819D01*
X45928674Y-14139819D01*
X45964955Y-14170054D01*
X46013223Y-14187437D01*
X46061373Y-14169729D01*
X46086874Y-14125212D01*
X46077794Y-14074719D01*
X46060984Y-14054822D01*
X46003841Y-14007203D01*
X45991516Y-14002764D01*
X45981479Y-13994342D01*
X45955827Y-13989819D01*
X45870112Y-13989819D01*
X45864340Y-13991919D01*
X45858309Y-13990753D01*
X45833688Y-13999257D01*
X45747975Y-14046876D01*
X45743548Y-14051977D01*
X45737163Y-14054181D01*
X45720086Y-14073850D01*
X45662943Y-14169089D01*
X45662289Y-14172461D01*
X45655418Y-14186125D01*
X45626847Y-14281363D01*
X45627017Y-14284318D01*
X45624514Y-14291788D01*
X45595942Y-14482264D01*
X45596547Y-14485248D01*
X45595112Y-14493390D01*
X45595112Y-14636247D01*
X45414718Y-14636247D01*
X45391567Y-14597660D01*
X45386804Y-14593798D01*
X45384708Y-14588038D01*
X45379400Y-14584973D01*
X45376424Y-14579612D01*
X45362934Y-14574443D01*
X45351718Y-14565349D01*
X45345589Y-14565451D01*
X45340279Y-14562386D01*
X45334241Y-14563450D01*
X45328516Y-14561257D01*
X45314861Y-14565968D01*
X45300422Y-14566211D01*
X45295792Y-14570230D01*
X45289755Y-14571295D01*
X45285815Y-14575990D01*
X45280019Y-14577990D01*
X45262943Y-14597660D01*
X45234372Y-14645279D01*
X45234118Y-14646588D01*
X45233111Y-14647463D01*
X45229267Y-14671626D01*
X45224615Y-14695646D01*
X45081758Y-14695646D01*
X45081758Y-13454819D01*
X45623684Y-13454819D01*
X45630347Y-13473127D01*
X45633732Y-13492319D01*
X45638916Y-13496669D01*
X45641231Y-13503028D01*
X45658104Y-13512770D01*
X45673032Y-13525296D01*
X45682774Y-13527013D01*
X45685660Y-13528680D01*
X45688942Y-13528101D01*
X45698684Y-13529819D01*
X45984398Y-13529819D01*
X46032607Y-13512272D01*
X46058259Y-13467843D01*
X46055962Y-13454819D01*
X46166541Y-13454819D01*
X46184088Y-13503028D01*
X46228517Y-13528680D01*
X46279041Y-13519771D01*
X46312018Y-13480471D01*
X46316541Y-13454819D01*
X46316541Y-12904819D01*
X46513452Y-13479143D01*
X46522189Y-13489961D01*
X46526945Y-13503028D01*
X46537806Y-13509298D01*
X46545686Y-13519056D01*
X46559332Y-13521727D01*
X46571374Y-13528680D01*
X46583723Y-13526502D01*
X46596033Y-13528912D01*
X46608205Y-13522185D01*
X46621898Y-13519771D01*
X46629958Y-13510164D01*
X46640937Y-13504098D01*
X46645937Y-13491122D01*
X46654875Y-13480471D01*
X46658951Y-13457352D01*
X46659385Y-13456227D01*
X46659274Y-13455521D01*
X46659398Y-13454819D01*
X46659398Y-12454819D01*
X46641851Y-12406610D01*
X46597422Y-12380958D01*
X46546898Y-12389867D01*
X46513921Y-12429167D01*
X46509398Y-12454819D01*
X46509398Y-13004818D01*
X46312487Y-12430495D01*
X46303749Y-12419676D01*
X46298994Y-12406610D01*
X46288132Y-12400339D01*
X46280253Y-12390582D01*
X46266606Y-12387910D01*
X46254565Y-12380958D01*
X46242215Y-12383135D01*
X46229906Y-12380726D01*
X46217733Y-12387452D01*
X46204041Y-12389867D01*
X46195979Y-12399474D01*
X46185003Y-12405540D01*
X46180002Y-12418514D01*
X46171064Y-12429167D01*
X46166987Y-12452285D01*
X46166554Y-12453411D01*
X46166664Y-12454116D01*
X46166541Y-12454819D01*
X46166541Y-13454819D01*
X46055962Y-13454819D01*
X46049350Y-13417319D01*
X46010050Y-13384342D01*
X45984398Y-13379819D01*
X45773684Y-13379819D01*
X45773684Y-13006009D01*
X45898684Y-13006009D01*
X45946893Y-12988462D01*
X45972545Y-12944033D01*
X45963636Y-12893509D01*
X45924336Y-12860532D01*
X45898684Y-12856009D01*
X45773684Y-12856009D01*
X45773684Y-12529819D01*
X45984398Y-12529819D01*
X46032607Y-12512272D01*
X46058259Y-12467843D01*
X46049350Y-12417319D01*
X46010050Y-12384342D01*
X45984398Y-12379819D01*
X45698684Y-12379819D01*
X45680375Y-12386482D01*
X45661184Y-12389867D01*
X45656833Y-12395051D01*
X45650475Y-12397366D01*
X45640732Y-12414239D01*
X45628207Y-12429167D01*
X45626489Y-12438909D01*
X45624823Y-12441795D01*
X45625401Y-12445077D01*
X45623684Y-12454819D01*
X45623684Y-13454819D01*
X45081758Y-13454819D01*
X45081758Y-13085646D01*
X45224615Y-13085646D01*
X45225262Y-13086812D01*
X45225053Y-13088129D01*
X45234372Y-13112453D01*
X45262943Y-13160072D01*
X45267705Y-13163933D01*
X45269802Y-13169694D01*
X45275109Y-13172758D01*
X45278086Y-13178120D01*
X45291576Y-13183288D01*
X45302793Y-13192383D01*
X45308920Y-13192280D01*
X45314231Y-13195346D01*
X45320270Y-13194281D01*
X45325994Y-13196474D01*
X45339643Y-13191764D01*
X45354088Y-13191522D01*
X45358719Y-13187501D01*
X45364755Y-13186437D01*
X45368695Y-13181740D01*
X45374491Y-13179741D01*
X45391567Y-13160072D01*
X45420138Y-13112452D01*
X45420391Y-13111143D01*
X45421399Y-13110269D01*
X45425245Y-13086088D01*
X45429895Y-13062086D01*
X45429248Y-13060921D01*
X45429458Y-13059603D01*
X45420138Y-13035280D01*
X45391567Y-12987660D01*
X45386804Y-12983798D01*
X45384708Y-12978038D01*
X45379400Y-12974973D01*
X45376424Y-12969612D01*
X45362934Y-12964443D01*
X45351718Y-12955349D01*
X45345589Y-12955451D01*
X45340279Y-12952386D01*
X45334241Y-12953450D01*
X45328516Y-12951257D01*
X45314861Y-12955968D01*
X45300422Y-12956211D01*
X45295792Y-12960230D01*
X45289755Y-12961295D01*
X45285815Y-12965990D01*
X45280019Y-12967990D01*
X45262943Y-12987660D01*
X45234372Y-13035279D01*
X45234118Y-13036588D01*
X45233111Y-13037463D01*
X45229267Y-13061626D01*
X45224615Y-13085646D01*
X45081758Y-13085646D01*
X45081758Y-11844819D01*
X45623684Y-11844819D01*
X45641231Y-11893028D01*
X45685660Y-11918680D01*
X45736184Y-11909771D01*
X45769161Y-11870471D01*
X45773684Y-11844819D01*
X45773684Y-11443628D01*
X45791694Y-11443628D01*
X45972392Y-11873861D01*
X46007238Y-11911514D01*
X46058134Y-11917961D01*
X46101267Y-11890182D01*
X46116453Y-11841179D01*
X46110690Y-11815777D01*
X45952524Y-11439191D01*
X45952667Y-11439192D01*
X45975269Y-11426245D01*
X46032411Y-11378626D01*
X46032862Y-11377849D01*
X46048710Y-11359596D01*
X46077281Y-11311976D01*
X46077934Y-11308604D01*
X46084806Y-11294942D01*
X46113378Y-11199703D01*
X46113221Y-11196981D01*
X46116541Y-11178152D01*
X46116541Y-11035295D01*
X46115608Y-11032733D01*
X46113378Y-11013744D01*
X46084806Y-10918505D01*
X46082752Y-10915749D01*
X46077281Y-10901471D01*
X46048710Y-10853851D01*
X46048009Y-10853283D01*
X46042849Y-10847176D01*
X46166578Y-10847176D01*
X46171905Y-10872673D01*
X46360763Y-11344819D01*
X46171905Y-11816965D01*
X46170293Y-11868242D01*
X46202017Y-11908560D01*
X46252236Y-11919053D01*
X46297450Y-11894811D01*
X46311177Y-11872673D01*
X46441541Y-11546763D01*
X46571905Y-11872673D01*
X46606102Y-11910917D01*
X46656880Y-11918234D01*
X46700481Y-11891198D01*
X46716504Y-11842462D01*
X46711177Y-11816965D01*
X46522318Y-11344819D01*
X46711177Y-10872673D01*
X46712789Y-10821396D01*
X46681065Y-10781078D01*
X46630846Y-10770585D01*
X46585632Y-10794827D01*
X46571905Y-10816965D01*
X46441541Y-11142875D01*
X46311177Y-10816965D01*
X46276980Y-10778721D01*
X46226202Y-10771404D01*
X46182601Y-10798440D01*
X46166578Y-10847176D01*
X46042849Y-10847176D01*
X46032411Y-10834821D01*
X45975269Y-10787202D01*
X45962943Y-10782763D01*
X45952907Y-10774342D01*
X45927255Y-10769819D01*
X45698684Y-10769819D01*
X45680375Y-10776482D01*
X45661184Y-10779867D01*
X45656833Y-10785051D01*
X45650475Y-10787366D01*
X45640732Y-10804239D01*
X45628207Y-10819167D01*
X45626489Y-10828909D01*
X45624823Y-10831795D01*
X45625401Y-10835077D01*
X45623684Y-10844819D01*
X45623684Y-11844819D01*
X45081758Y-11844819D01*
X45081758Y-11475646D01*
X45224615Y-11475646D01*
X45225262Y-11476812D01*
X45225053Y-11478129D01*
X45234372Y-11502453D01*
X45262943Y-11550072D01*
X45267705Y-11553933D01*
X45269802Y-11559694D01*
X45275109Y-11562758D01*
X45278086Y-11568120D01*
X45291576Y-11573288D01*
X45302793Y-11582383D01*
X45308920Y-11582280D01*
X45314231Y-11585346D01*
X45320270Y-11584281D01*
X45325994Y-11586474D01*
X45339643Y-11581764D01*
X45354088Y-11581522D01*
X45358719Y-11577501D01*
X45364755Y-11576437D01*
X45368695Y-11571740D01*
X45374491Y-11569741D01*
X45391567Y-11550072D01*
X45420138Y-11502452D01*
X45420391Y-11501143D01*
X45421399Y-11500269D01*
X45425245Y-11476088D01*
X45429895Y-11452086D01*
X45429248Y-11450921D01*
X45429458Y-11449603D01*
X45420138Y-11425280D01*
X45391567Y-11377660D01*
X45386804Y-11373798D01*
X45384708Y-11368038D01*
X45379400Y-11364973D01*
X45376424Y-11359612D01*
X45362934Y-11354443D01*
X45351718Y-11345349D01*
X45345589Y-11345451D01*
X45340279Y-11342386D01*
X45334241Y-11343450D01*
X45328516Y-11341257D01*
X45314861Y-11345968D01*
X45300422Y-11346211D01*
X45295792Y-11350230D01*
X45289755Y-11351295D01*
X45285815Y-11355990D01*
X45280019Y-11357990D01*
X45262943Y-11377660D01*
X45234372Y-11425279D01*
X45234118Y-11426588D01*
X45233111Y-11427463D01*
X45229267Y-11451626D01*
X45224615Y-11475646D01*
X45081758Y-11475646D01*
X45081758Y-10234819D01*
X45623684Y-10234819D01*
X45641231Y-10283028D01*
X45685660Y-10308680D01*
X45736184Y-10299771D01*
X45769161Y-10260471D01*
X45773684Y-10234819D01*
X45773684Y-9684819D01*
X45970595Y-10259143D01*
X45979332Y-10269961D01*
X45984088Y-10283028D01*
X45994949Y-10289298D01*
X46002829Y-10299056D01*
X46016475Y-10301727D01*
X46028517Y-10308680D01*
X46040866Y-10306502D01*
X46053176Y-10308912D01*
X46065348Y-10302185D01*
X46079041Y-10299771D01*
X46087101Y-10290164D01*
X46098080Y-10284098D01*
X46103080Y-10271122D01*
X46112018Y-10260471D01*
X46116094Y-10237352D01*
X46116528Y-10236227D01*
X46116417Y-10235521D01*
X46116541Y-10234819D01*
X46116541Y-9806247D01*
X46223683Y-9806247D01*
X46224724Y-9809108D01*
X46224513Y-9817373D01*
X46253085Y-10007849D01*
X46254498Y-10010449D01*
X46255418Y-10018274D01*
X46283989Y-10113512D01*
X46286042Y-10116267D01*
X46291514Y-10130548D01*
X46348657Y-10225787D01*
X46353903Y-10230040D01*
X46356318Y-10236350D01*
X46376546Y-10252762D01*
X46462259Y-10300381D01*
X46468325Y-10301347D01*
X46473031Y-10305296D01*
X46498683Y-10309819D01*
X46555826Y-10309819D01*
X46561597Y-10307718D01*
X46567629Y-10308885D01*
X46592249Y-10300381D01*
X46677963Y-10252762D01*
X46682389Y-10247660D01*
X46688776Y-10245457D01*
X46705852Y-10225787D01*
X46734424Y-10178167D01*
X46744181Y-10127800D01*
X46719281Y-10082945D01*
X46671374Y-10064591D01*
X46622876Y-10081323D01*
X46605800Y-10100993D01*
X46587561Y-10131390D01*
X46536391Y-10159819D01*
X46518118Y-10159819D01*
X46466948Y-10131391D01*
X46424966Y-10061421D01*
X46400630Y-9980300D01*
X46373683Y-9800654D01*
X46373683Y-9668982D01*
X46400630Y-9489336D01*
X46424966Y-9408215D01*
X46466947Y-9338246D01*
X46518118Y-9309819D01*
X46536391Y-9309819D01*
X46587560Y-9338246D01*
X46605800Y-9368645D01*
X46645650Y-9400955D01*
X46696946Y-9400093D01*
X46735686Y-9366459D01*
X46743743Y-9315792D01*
X46734424Y-9291469D01*
X46705852Y-9243850D01*
X46700604Y-9239595D01*
X46698190Y-9233288D01*
X46677963Y-9216876D01*
X46592249Y-9169257D01*
X46586183Y-9168290D01*
X46581478Y-9164342D01*
X46555826Y-9159819D01*
X46498683Y-9159819D01*
X46492911Y-9161919D01*
X46486880Y-9160753D01*
X46462259Y-9169257D01*
X46376546Y-9216876D01*
X46372119Y-9221977D01*
X46365734Y-9224181D01*
X46348657Y-9243850D01*
X46291514Y-9339089D01*
X46290860Y-9342461D01*
X46283989Y-9356125D01*
X46255418Y-9451363D01*
X46255588Y-9454318D01*
X46253085Y-9461788D01*
X46224513Y-9652264D01*
X46225118Y-9655248D01*
X46223683Y-9663390D01*
X46223683Y-9806247D01*
X46116541Y-9806247D01*
X46116541Y-9234819D01*
X46098994Y-9186610D01*
X46054565Y-9160958D01*
X46004041Y-9169867D01*
X45971064Y-9209167D01*
X45966541Y-9234819D01*
X45966541Y-9784818D01*
X45769630Y-9210495D01*
X45760892Y-9199676D01*
X45756137Y-9186610D01*
X45745275Y-9180339D01*
X45737396Y-9170582D01*
X45723749Y-9167910D01*
X45711708Y-9160958D01*
X45699358Y-9163135D01*
X45687049Y-9160726D01*
X45674876Y-9167452D01*
X45661184Y-9169867D01*
X45653122Y-9179474D01*
X45642146Y-9185540D01*
X45637145Y-9198514D01*
X45628207Y-9209167D01*
X45624130Y-9232285D01*
X45623697Y-9233411D01*
X45623807Y-9234116D01*
X45623684Y-9234819D01*
X45623684Y-10234819D01*
X45081758Y-10234819D01*
X45081758Y-9865646D01*
X45224615Y-9865646D01*
X45225262Y-9866812D01*
X45225053Y-9868129D01*
X45234372Y-9892453D01*
X45262943Y-9940072D01*
X45267705Y-9943933D01*
X45269802Y-9949694D01*
X45275109Y-9952758D01*
X45278086Y-9958120D01*
X45291576Y-9963288D01*
X45302793Y-9972383D01*
X45308920Y-9972280D01*
X45314231Y-9975346D01*
X45320270Y-9974281D01*
X45325994Y-9976474D01*
X45339643Y-9971764D01*
X45354088Y-9971522D01*
X45358719Y-9967501D01*
X45364755Y-9966437D01*
X45368695Y-9961740D01*
X45374491Y-9959741D01*
X45391567Y-9940072D01*
X45420138Y-9892452D01*
X45420391Y-9891143D01*
X45421399Y-9890269D01*
X45425245Y-9866088D01*
X45429895Y-9842086D01*
X45429248Y-9840921D01*
X45429458Y-9839603D01*
X45420138Y-9815280D01*
X45391567Y-9767660D01*
X45386804Y-9763798D01*
X45384708Y-9758038D01*
X45379400Y-9754973D01*
X45376424Y-9749612D01*
X45362934Y-9744443D01*
X45351718Y-9735349D01*
X45345589Y-9735451D01*
X45340279Y-9732386D01*
X45334241Y-9733450D01*
X45328516Y-9731257D01*
X45314861Y-9735968D01*
X45300422Y-9736211D01*
X45295792Y-9740230D01*
X45289755Y-9741295D01*
X45285815Y-9745990D01*
X45280019Y-9747990D01*
X45262943Y-9767660D01*
X45234372Y-9815279D01*
X45234118Y-9816588D01*
X45233111Y-9817463D01*
X45229267Y-9841626D01*
X45224615Y-9865646D01*
X45081758Y-9865646D01*
X45081758Y-9016962D01*
X47487969Y-9016962D01*
X47487969Y-16892676D01*
G37*
X42857143Y-6954819D02*
X42857143Y-5954819D01*
X42857143Y-5954819D02*
X43238095Y-5954819D01*
X43238095Y-5954819D02*
X43333333Y-6002438D01*
X43333333Y-6002438D02*
X43380952Y-6050057D01*
X43380952Y-6050057D02*
X43428571Y-6145295D01*
X43428571Y-6145295D02*
X43428571Y-6288152D01*
X43428571Y-6288152D02*
X43380952Y-6383390D01*
X43380952Y-6383390D02*
X43333333Y-6431009D01*
X43333333Y-6431009D02*
X43238095Y-6478628D01*
X43238095Y-6478628D02*
X42857143Y-6478628D01*
X43857143Y-6954819D02*
X43857143Y-6288152D01*
X43857143Y-5954819D02*
X43809524Y-6002438D01*
X43809524Y-6002438D02*
X43857143Y-6050057D01*
X43857143Y-6050057D02*
X43904762Y-6002438D01*
X43904762Y-6002438D02*
X43857143Y-5954819D01*
X43857143Y-5954819D02*
X43857143Y-6050057D01*
X44333333Y-6288152D02*
X44333333Y-6954819D01*
X44333333Y-6383390D02*
X44380952Y-6335771D01*
X44380952Y-6335771D02*
X44476190Y-6288152D01*
X44476190Y-6288152D02*
X44619047Y-6288152D01*
X44619047Y-6288152D02*
X44714285Y-6335771D01*
X44714285Y-6335771D02*
X44761904Y-6431009D01*
X44761904Y-6431009D02*
X44761904Y-6954819D01*
X45380952Y-6954819D02*
X45285714Y-6907200D01*
X45285714Y-6907200D02*
X45238095Y-6859580D01*
X45238095Y-6859580D02*
X45190476Y-6764342D01*
X45190476Y-6764342D02*
X45190476Y-6478628D01*
X45190476Y-6478628D02*
X45238095Y-6383390D01*
X45238095Y-6383390D02*
X45285714Y-6335771D01*
X45285714Y-6335771D02*
X45380952Y-6288152D01*
X45380952Y-6288152D02*
X45523809Y-6288152D01*
X45523809Y-6288152D02*
X45619047Y-6335771D01*
X45619047Y-6335771D02*
X45666666Y-6383390D01*
X45666666Y-6383390D02*
X45714285Y-6478628D01*
X45714285Y-6478628D02*
X45714285Y-6764342D01*
X45714285Y-6764342D02*
X45666666Y-6859580D01*
X45666666Y-6859580D02*
X45619047Y-6907200D01*
X45619047Y-6907200D02*
X45523809Y-6954819D01*
X45523809Y-6954819D02*
X45380952Y-6954819D01*
X46571428Y-6288152D02*
X46571428Y-6954819D01*
X46142857Y-6288152D02*
X46142857Y-6811961D01*
X46142857Y-6811961D02*
X46190476Y-6907200D01*
X46190476Y-6907200D02*
X46285714Y-6954819D01*
X46285714Y-6954819D02*
X46428571Y-6954819D01*
X46428571Y-6954819D02*
X46523809Y-6907200D01*
X46523809Y-6907200D02*
X46571428Y-6859580D01*
X46904762Y-6288152D02*
X47285714Y-6288152D01*
X47047619Y-5954819D02*
X47047619Y-6811961D01*
X47047619Y-6811961D02*
X47095238Y-6907200D01*
X47095238Y-6907200D02*
X47190476Y-6954819D01*
X47190476Y-6954819D02*
X47285714Y-6954819D01*
G36*
X24955548Y-20087676D02*
G01*
X21524823Y-20087676D01*
X21524823Y-18856795D01*
X21667680Y-18856795D01*
X21676589Y-18907319D01*
X21715889Y-18940296D01*
X21741541Y-18944819D01*
X22195306Y-18944819D01*
X21970812Y-19201383D01*
X21963505Y-19220234D01*
X21953394Y-19237747D01*
X21954433Y-19243640D01*
X21952271Y-19249219D01*
X21958791Y-19268358D01*
X21962303Y-19288271D01*
X21966886Y-19292116D01*
X21968816Y-19297781D01*
X21986114Y-19308251D01*
X22001603Y-19321248D01*
X22010046Y-19322736D01*
X22012705Y-19324346D01*
X22016146Y-19323812D01*
X22027255Y-19325771D01*
X22152407Y-19325771D01*
X22220923Y-19360029D01*
X22251330Y-19390436D01*
X22285588Y-19458952D01*
X22285588Y-19661637D01*
X22251329Y-19730153D01*
X22220922Y-19760561D01*
X22152407Y-19794819D01*
X21902103Y-19794819D01*
X21833587Y-19760561D01*
X21794575Y-19721548D01*
X21748078Y-19699866D01*
X21698523Y-19713143D01*
X21669097Y-19755168D01*
X21673567Y-19806275D01*
X21688507Y-19827612D01*
X21736126Y-19875232D01*
X21737607Y-19875922D01*
X21755619Y-19889282D01*
X21850857Y-19936901D01*
X21855310Y-19937413D01*
X21858746Y-19940296D01*
X21884398Y-19944819D01*
X22170112Y-19944819D01*
X22174325Y-19943285D01*
X22178686Y-19944327D01*
X22203653Y-19936901D01*
X22298891Y-19889282D01*
X22300015Y-19888094D01*
X22318384Y-19875232D01*
X22366002Y-19827613D01*
X22366692Y-19826131D01*
X22374456Y-19815664D01*
X22666827Y-19815664D01*
X22671869Y-19834484D01*
X22673568Y-19853896D01*
X22679241Y-19861998D01*
X22680104Y-19865219D01*
X22682835Y-19867131D01*
X22688508Y-19875233D01*
X22736127Y-19922852D01*
X22753785Y-19931085D01*
X22769749Y-19942264D01*
X22773165Y-19941965D01*
X22776136Y-19943680D01*
X22779515Y-19943084D01*
X22782623Y-19944533D01*
X22801442Y-19939490D01*
X22820856Y-19937792D01*
X22824669Y-19935122D01*
X22826660Y-19934771D01*
X22828781Y-19932242D01*
X22828958Y-19932118D01*
X22832178Y-19931256D01*
X22834089Y-19928526D01*
X22842193Y-19922852D01*
X22889812Y-19875233D01*
X22898046Y-19857574D01*
X22909223Y-19841612D01*
X22908633Y-19834869D01*
X22911493Y-19828737D01*
X22906450Y-19809918D01*
X22904753Y-19790505D01*
X22899078Y-19782400D01*
X22898216Y-19779182D01*
X22895486Y-19777270D01*
X22889812Y-19769167D01*
X22842194Y-19721548D01*
X22824536Y-19713314D01*
X22808571Y-19702135D01*
X22805154Y-19702433D01*
X22802184Y-19700719D01*
X22798804Y-19701314D01*
X22795697Y-19699866D01*
X22776877Y-19704908D01*
X22757463Y-19706607D01*
X22753649Y-19709277D01*
X22751660Y-19709628D01*
X22749538Y-19712155D01*
X22749360Y-19712280D01*
X22746142Y-19713143D01*
X22744230Y-19715872D01*
X22736126Y-19721548D01*
X22688507Y-19769168D01*
X22680273Y-19786825D01*
X22669096Y-19802789D01*
X22669686Y-19809532D01*
X22666827Y-19815664D01*
X22374456Y-19815664D01*
X22380051Y-19808121D01*
X22427670Y-19712883D01*
X22428182Y-19708429D01*
X22431065Y-19704994D01*
X22435588Y-19679342D01*
X22435588Y-19441247D01*
X22434054Y-19437033D01*
X22435096Y-19432672D01*
X22427670Y-19407706D01*
X22380051Y-19312468D01*
X22378861Y-19311342D01*
X22366002Y-19292976D01*
X22318383Y-19245357D01*
X22316901Y-19244666D01*
X22298891Y-19231308D01*
X22203653Y-19183689D01*
X22199199Y-19183176D01*
X22195764Y-19180294D01*
X22189540Y-19179196D01*
X22417031Y-18919207D01*
X22424337Y-18900355D01*
X22434449Y-18882843D01*
X22433409Y-18876949D01*
X22435572Y-18871371D01*
X22430606Y-18856795D01*
X23096251Y-18856795D01*
X23105160Y-18907319D01*
X23144460Y-18940296D01*
X23170112Y-18944819D01*
X23623877Y-18944819D01*
X23399383Y-19201383D01*
X23392076Y-19220234D01*
X23381965Y-19237747D01*
X23383004Y-19243640D01*
X23380842Y-19249219D01*
X23387362Y-19268358D01*
X23390874Y-19288271D01*
X23395457Y-19292116D01*
X23397387Y-19297781D01*
X23414685Y-19308251D01*
X23430174Y-19321248D01*
X23438617Y-19322736D01*
X23441276Y-19324346D01*
X23444717Y-19323812D01*
X23455826Y-19325771D01*
X23580978Y-19325771D01*
X23649494Y-19360029D01*
X23679901Y-19390436D01*
X23714159Y-19458952D01*
X23714159Y-19661637D01*
X23679900Y-19730153D01*
X23649493Y-19760561D01*
X23580978Y-19794819D01*
X23330674Y-19794819D01*
X23262158Y-19760561D01*
X23223146Y-19721548D01*
X23176649Y-19699866D01*
X23127094Y-19713143D01*
X23097668Y-19755168D01*
X23102138Y-19806275D01*
X23117078Y-19827612D01*
X23164697Y-19875232D01*
X23166178Y-19875922D01*
X23184190Y-19889282D01*
X23279428Y-19936901D01*
X23283881Y-19937413D01*
X23287317Y-19940296D01*
X23312969Y-19944819D01*
X23598683Y-19944819D01*
X23602896Y-19943285D01*
X23607257Y-19944327D01*
X23632224Y-19936901D01*
X23727462Y-19889282D01*
X23728586Y-19888094D01*
X23746955Y-19875232D01*
X23794573Y-19827613D01*
X23795263Y-19826131D01*
X23808622Y-19808121D01*
X23856241Y-19712883D01*
X23856753Y-19708429D01*
X23859636Y-19704994D01*
X23864159Y-19679342D01*
X23864159Y-19441247D01*
X23862625Y-19437033D01*
X23863667Y-19432672D01*
X23856241Y-19407706D01*
X23808622Y-19312468D01*
X23807432Y-19311342D01*
X23794573Y-19292976D01*
X23746954Y-19245357D01*
X23745472Y-19244666D01*
X23727462Y-19231308D01*
X23632224Y-19183689D01*
X23627770Y-19183176D01*
X23624335Y-19180294D01*
X23618111Y-19179196D01*
X23845602Y-18919207D01*
X23852908Y-18900355D01*
X23863020Y-18882843D01*
X23861980Y-18876949D01*
X23864143Y-18871371D01*
X23862916Y-18867770D01*
X23999902Y-18867770D01*
X24003723Y-18893536D01*
X24337056Y-19893536D01*
X24338398Y-19895227D01*
X24338457Y-19897386D01*
X24354206Y-19915147D01*
X24368947Y-19933722D01*
X24371060Y-19934154D01*
X24372494Y-19935771D01*
X24395964Y-19939251D01*
X24419208Y-19944008D01*
X24421107Y-19942979D01*
X24423243Y-19943296D01*
X24443456Y-19930877D01*
X24464322Y-19919579D01*
X24465115Y-19917571D01*
X24466955Y-19916441D01*
X24479358Y-19893536D01*
X24812691Y-18893536D01*
X24811290Y-18842253D01*
X24777252Y-18803867D01*
X24726504Y-18796342D01*
X24682791Y-18823197D01*
X24670389Y-18846102D01*
X24408207Y-19632648D01*
X24146025Y-18846102D01*
X24114134Y-18805916D01*
X24063873Y-18795630D01*
X24018759Y-18820059D01*
X23999902Y-18867770D01*
X23862916Y-18867770D01*
X23857622Y-18852231D01*
X23854111Y-18832319D01*
X23849527Y-18828473D01*
X23847598Y-18822809D01*
X23830299Y-18812338D01*
X23814811Y-18799342D01*
X23806367Y-18797853D01*
X23803709Y-18796244D01*
X23800267Y-18796777D01*
X23789159Y-18794819D01*
X23170112Y-18794819D01*
X23121903Y-18812366D01*
X23096251Y-18856795D01*
X22430606Y-18856795D01*
X22429051Y-18852231D01*
X22425540Y-18832319D01*
X22420956Y-18828473D01*
X22419027Y-18822809D01*
X22401728Y-18812338D01*
X22386240Y-18799342D01*
X22377796Y-18797853D01*
X22375138Y-18796244D01*
X22371696Y-18796777D01*
X22360588Y-18794819D01*
X21741541Y-18794819D01*
X21693332Y-18812366D01*
X21667680Y-18856795D01*
X21524823Y-18856795D01*
X21524823Y-17729473D01*
X21714446Y-17729473D01*
X21720972Y-17753832D01*
X21727195Y-17778262D01*
X21727595Y-17778549D01*
X21727723Y-17779027D01*
X21748357Y-17793475D01*
X21768851Y-17808208D01*
X21769344Y-17808170D01*
X21769749Y-17808454D01*
X21794852Y-17806257D01*
X21820011Y-17804370D01*
X21820364Y-17804024D01*
X21820856Y-17803982D01*
X21842193Y-17789042D01*
X21881206Y-17750029D01*
X21949722Y-17715771D01*
X22152407Y-17715771D01*
X22220923Y-17750029D01*
X22251330Y-17780436D01*
X22285588Y-17848952D01*
X22285588Y-18051637D01*
X22251329Y-18120153D01*
X22220922Y-18150561D01*
X22152407Y-18184819D01*
X21949722Y-18184819D01*
X21881206Y-18150561D01*
X21842194Y-18111548D01*
X21795697Y-18089866D01*
X21746142Y-18103143D01*
X21716716Y-18145168D01*
X21721186Y-18196275D01*
X21736126Y-18217612D01*
X21783745Y-18265232D01*
X21785226Y-18265922D01*
X21803238Y-18279282D01*
X21898476Y-18326901D01*
X21902929Y-18327413D01*
X21906365Y-18330296D01*
X21932017Y-18334819D01*
X22170112Y-18334819D01*
X22174325Y-18333285D01*
X22178686Y-18334327D01*
X22203653Y-18326901D01*
X22298891Y-18279282D01*
X22300015Y-18278094D01*
X22318384Y-18265232D01*
X22366002Y-18217613D01*
X22366692Y-18216131D01*
X22380051Y-18198121D01*
X22427670Y-18102883D01*
X22428182Y-18098429D01*
X22431065Y-18094994D01*
X22435588Y-18069342D01*
X22435588Y-17831247D01*
X22434054Y-17827033D01*
X22435096Y-17822672D01*
X22427670Y-17797706D01*
X22380051Y-17702468D01*
X22378861Y-17701342D01*
X22366002Y-17682976D01*
X22318383Y-17635357D01*
X22316901Y-17634666D01*
X22298891Y-17621308D01*
X22203653Y-17573689D01*
X22199199Y-17573176D01*
X22195764Y-17570294D01*
X22170112Y-17565771D01*
X21932017Y-17565771D01*
X21927803Y-17567304D01*
X21923442Y-17566263D01*
X21898476Y-17573689D01*
X21879834Y-17583009D01*
X21904653Y-17334819D01*
X22312969Y-17334819D01*
X22361178Y-17317272D01*
X22386830Y-17272843D01*
X22384172Y-17257770D01*
X22571331Y-17257770D01*
X22575152Y-17283536D01*
X22908485Y-18283536D01*
X22909827Y-18285227D01*
X22909886Y-18287386D01*
X22925635Y-18305147D01*
X22940376Y-18323722D01*
X22942489Y-18324154D01*
X22943923Y-18325771D01*
X22967393Y-18329251D01*
X22990637Y-18334008D01*
X22992536Y-18332979D01*
X22994672Y-18333296D01*
X23014885Y-18320877D01*
X23035751Y-18309579D01*
X23036544Y-18307571D01*
X23038384Y-18306441D01*
X23050787Y-18283536D01*
X23384120Y-17283536D01*
X23382719Y-17232253D01*
X23348681Y-17193867D01*
X23297933Y-17186342D01*
X23254220Y-17213197D01*
X23241818Y-17236102D01*
X22979636Y-18022648D01*
X22717454Y-17236102D01*
X22685563Y-17195916D01*
X22635302Y-17185630D01*
X22590188Y-17210059D01*
X22571331Y-17257770D01*
X22384172Y-17257770D01*
X22377921Y-17222319D01*
X22338621Y-17189342D01*
X22312969Y-17184819D01*
X21836779Y-17184819D01*
X21821811Y-17190266D01*
X21805928Y-17191458D01*
X21798421Y-17198780D01*
X21788570Y-17202366D01*
X21780606Y-17216159D01*
X21769204Y-17227282D01*
X21764472Y-17244102D01*
X21762918Y-17246795D01*
X21763225Y-17248537D01*
X21762151Y-17252356D01*
X21714532Y-17728546D01*
X21714654Y-17729026D01*
X21714446Y-17729473D01*
X21524823Y-17729473D01*
X21524823Y-17041962D01*
X24955548Y-17041962D01*
X24955548Y-20087676D01*
G37*
X8099819Y-15333333D02*
X8814104Y-15333333D01*
X8814104Y-15333333D02*
X8956961Y-15380952D01*
X8956961Y-15380952D02*
X9052200Y-15476190D01*
X9052200Y-15476190D02*
X9099819Y-15619047D01*
X9099819Y-15619047D02*
X9099819Y-15714285D01*
X9099819Y-14333333D02*
X9099819Y-14904761D01*
X9099819Y-14619047D02*
X8099819Y-14619047D01*
X8099819Y-14619047D02*
X8242676Y-14714285D01*
X8242676Y-14714285D02*
X8337914Y-14809523D01*
X8337914Y-14809523D02*
X8385533Y-14904761D01*
X11654819Y-11966666D02*
X11178628Y-12299999D01*
X11654819Y-12538094D02*
X10654819Y-12538094D01*
X10654819Y-12538094D02*
X10654819Y-12157142D01*
X10654819Y-12157142D02*
X10702438Y-12061904D01*
X10702438Y-12061904D02*
X10750057Y-12014285D01*
X10750057Y-12014285D02*
X10845295Y-11966666D01*
X10845295Y-11966666D02*
X10988152Y-11966666D01*
X10988152Y-11966666D02*
X11083390Y-12014285D01*
X11083390Y-12014285D02*
X11131009Y-12061904D01*
X11131009Y-12061904D02*
X11178628Y-12157142D01*
X11178628Y-12157142D02*
X11178628Y-12538094D01*
X10750057Y-11585713D02*
X10702438Y-11538094D01*
X10702438Y-11538094D02*
X10654819Y-11442856D01*
X10654819Y-11442856D02*
X10654819Y-11204761D01*
X10654819Y-11204761D02*
X10702438Y-11109523D01*
X10702438Y-11109523D02*
X10750057Y-11061904D01*
X10750057Y-11061904D02*
X10845295Y-11014285D01*
X10845295Y-11014285D02*
X10940533Y-11014285D01*
X10940533Y-11014285D02*
X11083390Y-11061904D01*
X11083390Y-11061904D02*
X11654819Y-11633332D01*
X11654819Y-11633332D02*
X11654819Y-11014285D01*
X33107142Y-4704819D02*
X32773809Y-4228628D01*
X32535714Y-4704819D02*
X32535714Y-3704819D01*
X32535714Y-3704819D02*
X32916666Y-3704819D01*
X32916666Y-3704819D02*
X33011904Y-3752438D01*
X33011904Y-3752438D02*
X33059523Y-3800057D01*
X33059523Y-3800057D02*
X33107142Y-3895295D01*
X33107142Y-3895295D02*
X33107142Y-4038152D01*
X33107142Y-4038152D02*
X33059523Y-4133390D01*
X33059523Y-4133390D02*
X33011904Y-4181009D01*
X33011904Y-4181009D02*
X32916666Y-4228628D01*
X32916666Y-4228628D02*
X32535714Y-4228628D01*
X33488095Y-3800057D02*
X33535714Y-3752438D01*
X33535714Y-3752438D02*
X33630952Y-3704819D01*
X33630952Y-3704819D02*
X33869047Y-3704819D01*
X33869047Y-3704819D02*
X33964285Y-3752438D01*
X33964285Y-3752438D02*
X34011904Y-3800057D01*
X34011904Y-3800057D02*
X34059523Y-3895295D01*
X34059523Y-3895295D02*
X34059523Y-3990533D01*
X34059523Y-3990533D02*
X34011904Y-4133390D01*
X34011904Y-4133390D02*
X33440476Y-4704819D01*
X33440476Y-4704819D02*
X34059523Y-4704819D01*
X34916666Y-3704819D02*
X34726190Y-3704819D01*
X34726190Y-3704819D02*
X34630952Y-3752438D01*
X34630952Y-3752438D02*
X34583333Y-3800057D01*
X34583333Y-3800057D02*
X34488095Y-3942914D01*
X34488095Y-3942914D02*
X34440476Y-4133390D01*
X34440476Y-4133390D02*
X34440476Y-4514342D01*
X34440476Y-4514342D02*
X34488095Y-4609580D01*
X34488095Y-4609580D02*
X34535714Y-4657200D01*
X34535714Y-4657200D02*
X34630952Y-4704819D01*
X34630952Y-4704819D02*
X34821428Y-4704819D01*
X34821428Y-4704819D02*
X34916666Y-4657200D01*
X34916666Y-4657200D02*
X34964285Y-4609580D01*
X34964285Y-4609580D02*
X35011904Y-4514342D01*
X35011904Y-4514342D02*
X35011904Y-4276247D01*
X35011904Y-4276247D02*
X34964285Y-4181009D01*
X34964285Y-4181009D02*
X34916666Y-4133390D01*
X34916666Y-4133390D02*
X34821428Y-4085771D01*
X34821428Y-4085771D02*
X34630952Y-4085771D01*
X34630952Y-4085771D02*
X34535714Y-4133390D01*
X34535714Y-4133390D02*
X34488095Y-4181009D01*
X34488095Y-4181009D02*
X34440476Y-4276247D01*
X25638095Y-354819D02*
X25638095Y-1164342D01*
X25638095Y-1164342D02*
X25685714Y-1259580D01*
X25685714Y-1259580D02*
X25733333Y-1307200D01*
X25733333Y-1307200D02*
X25828571Y-1354819D01*
X25828571Y-1354819D02*
X26019047Y-1354819D01*
X26019047Y-1354819D02*
X26114285Y-1307200D01*
X26114285Y-1307200D02*
X26161904Y-1259580D01*
X26161904Y-1259580D02*
X26209523Y-1164342D01*
X26209523Y-1164342D02*
X26209523Y-354819D01*
X27114285Y-688152D02*
X27114285Y-1354819D01*
X26876190Y-307200D02*
X26638095Y-1021485D01*
X26638095Y-1021485D02*
X27257142Y-1021485D01*
X20838095Y-28654819D02*
X20838095Y-29464342D01*
X20838095Y-29464342D02*
X20885714Y-29559580D01*
X20885714Y-29559580D02*
X20933333Y-29607200D01*
X20933333Y-29607200D02*
X21028571Y-29654819D01*
X21028571Y-29654819D02*
X21219047Y-29654819D01*
X21219047Y-29654819D02*
X21314285Y-29607200D01*
X21314285Y-29607200D02*
X21361904Y-29559580D01*
X21361904Y-29559580D02*
X21409523Y-29464342D01*
X21409523Y-29464342D02*
X21409523Y-28654819D01*
X22409523Y-29654819D02*
X21838095Y-29654819D01*
X22123809Y-29654819D02*
X22123809Y-28654819D01*
X22123809Y-28654819D02*
X22028571Y-28797676D01*
X22028571Y-28797676D02*
X21933333Y-28892914D01*
X21933333Y-28892914D02*
X21838095Y-28940533D01*
X41861905Y-24854819D02*
X41861905Y-23854819D01*
X41861905Y-23854819D02*
X42100000Y-23854819D01*
X42100000Y-23854819D02*
X42242857Y-23902438D01*
X42242857Y-23902438D02*
X42338095Y-23997676D01*
X42338095Y-23997676D02*
X42385714Y-24092914D01*
X42385714Y-24092914D02*
X42433333Y-24283390D01*
X42433333Y-24283390D02*
X42433333Y-24426247D01*
X42433333Y-24426247D02*
X42385714Y-24616723D01*
X42385714Y-24616723D02*
X42338095Y-24711961D01*
X42338095Y-24711961D02*
X42242857Y-24807200D01*
X42242857Y-24807200D02*
X42100000Y-24854819D01*
X42100000Y-24854819D02*
X41861905Y-24854819D01*
X42766667Y-23854819D02*
X43433333Y-23854819D01*
X43433333Y-23854819D02*
X43004762Y-24854819D01*
X24033333Y-29519580D02*
X23985714Y-29567200D01*
X23985714Y-29567200D02*
X23842857Y-29614819D01*
X23842857Y-29614819D02*
X23747619Y-29614819D01*
X23747619Y-29614819D02*
X23604762Y-29567200D01*
X23604762Y-29567200D02*
X23509524Y-29471961D01*
X23509524Y-29471961D02*
X23461905Y-29376723D01*
X23461905Y-29376723D02*
X23414286Y-29186247D01*
X23414286Y-29186247D02*
X23414286Y-29043390D01*
X23414286Y-29043390D02*
X23461905Y-28852914D01*
X23461905Y-28852914D02*
X23509524Y-28757676D01*
X23509524Y-28757676D02*
X23604762Y-28662438D01*
X23604762Y-28662438D02*
X23747619Y-28614819D01*
X23747619Y-28614819D02*
X23842857Y-28614819D01*
X23842857Y-28614819D02*
X23985714Y-28662438D01*
X23985714Y-28662438D02*
X24033333Y-28710057D01*
X24414286Y-28710057D02*
X24461905Y-28662438D01*
X24461905Y-28662438D02*
X24557143Y-28614819D01*
X24557143Y-28614819D02*
X24795238Y-28614819D01*
X24795238Y-28614819D02*
X24890476Y-28662438D01*
X24890476Y-28662438D02*
X24938095Y-28710057D01*
X24938095Y-28710057D02*
X24985714Y-28805295D01*
X24985714Y-28805295D02*
X24985714Y-28900533D01*
X24985714Y-28900533D02*
X24938095Y-29043390D01*
X24938095Y-29043390D02*
X24366667Y-29614819D01*
X24366667Y-29614819D02*
X24985714Y-29614819D01*
X29957142Y-7154819D02*
X29623809Y-6678628D01*
X29385714Y-7154819D02*
X29385714Y-6154819D01*
X29385714Y-6154819D02*
X29766666Y-6154819D01*
X29766666Y-6154819D02*
X29861904Y-6202438D01*
X29861904Y-6202438D02*
X29909523Y-6250057D01*
X29909523Y-6250057D02*
X29957142Y-6345295D01*
X29957142Y-6345295D02*
X29957142Y-6488152D01*
X29957142Y-6488152D02*
X29909523Y-6583390D01*
X29909523Y-6583390D02*
X29861904Y-6631009D01*
X29861904Y-6631009D02*
X29766666Y-6678628D01*
X29766666Y-6678628D02*
X29385714Y-6678628D01*
X30338095Y-6250057D02*
X30385714Y-6202438D01*
X30385714Y-6202438D02*
X30480952Y-6154819D01*
X30480952Y-6154819D02*
X30719047Y-6154819D01*
X30719047Y-6154819D02*
X30814285Y-6202438D01*
X30814285Y-6202438D02*
X30861904Y-6250057D01*
X30861904Y-6250057D02*
X30909523Y-6345295D01*
X30909523Y-6345295D02*
X30909523Y-6440533D01*
X30909523Y-6440533D02*
X30861904Y-6583390D01*
X30861904Y-6583390D02*
X30290476Y-7154819D01*
X30290476Y-7154819D02*
X30909523Y-7154819D01*
X31861904Y-7154819D02*
X31290476Y-7154819D01*
X31576190Y-7154819D02*
X31576190Y-6154819D01*
X31576190Y-6154819D02*
X31480952Y-6297676D01*
X31480952Y-6297676D02*
X31385714Y-6392914D01*
X31385714Y-6392914D02*
X31290476Y-6440533D01*
X26407200Y-20333332D02*
X26454819Y-20190475D01*
X26454819Y-20190475D02*
X26454819Y-19952380D01*
X26454819Y-19952380D02*
X26407200Y-19857142D01*
X26407200Y-19857142D02*
X26359580Y-19809523D01*
X26359580Y-19809523D02*
X26264342Y-19761904D01*
X26264342Y-19761904D02*
X26169104Y-19761904D01*
X26169104Y-19761904D02*
X26073866Y-19809523D01*
X26073866Y-19809523D02*
X26026247Y-19857142D01*
X26026247Y-19857142D02*
X25978628Y-19952380D01*
X25978628Y-19952380D02*
X25931009Y-20142856D01*
X25931009Y-20142856D02*
X25883390Y-20238094D01*
X25883390Y-20238094D02*
X25835771Y-20285713D01*
X25835771Y-20285713D02*
X25740533Y-20333332D01*
X25740533Y-20333332D02*
X25645295Y-20333332D01*
X25645295Y-20333332D02*
X25550057Y-20285713D01*
X25550057Y-20285713D02*
X25502438Y-20238094D01*
X25502438Y-20238094D02*
X25454819Y-20142856D01*
X25454819Y-20142856D02*
X25454819Y-19904761D01*
X25454819Y-19904761D02*
X25502438Y-19761904D01*
X25454819Y-19428570D02*
X26454819Y-19190475D01*
X26454819Y-19190475D02*
X25740533Y-18999999D01*
X25740533Y-18999999D02*
X26454819Y-18809523D01*
X26454819Y-18809523D02*
X25454819Y-18571428D01*
X26454819Y-17666666D02*
X26454819Y-18238094D01*
X26454819Y-17952380D02*
X25454819Y-17952380D01*
X25454819Y-17952380D02*
X25597676Y-18047618D01*
X25597676Y-18047618D02*
X25692914Y-18142856D01*
X25692914Y-18142856D02*
X25740533Y-18238094D01*
X27954819Y-20261904D02*
X26954819Y-20261904D01*
X26954819Y-20261904D02*
X26954819Y-19880952D01*
X26954819Y-19880952D02*
X27002438Y-19785714D01*
X27002438Y-19785714D02*
X27050057Y-19738095D01*
X27050057Y-19738095D02*
X27145295Y-19690476D01*
X27145295Y-19690476D02*
X27288152Y-19690476D01*
X27288152Y-19690476D02*
X27383390Y-19738095D01*
X27383390Y-19738095D02*
X27431009Y-19785714D01*
X27431009Y-19785714D02*
X27478628Y-19880952D01*
X27478628Y-19880952D02*
X27478628Y-20261904D01*
X26954819Y-19357142D02*
X27954819Y-19119047D01*
X27954819Y-19119047D02*
X27240533Y-18928571D01*
X27240533Y-18928571D02*
X27954819Y-18738095D01*
X27954819Y-18738095D02*
X26954819Y-18500000D01*
X27954819Y-17547619D02*
X27478628Y-17880952D01*
X27954819Y-18119047D02*
X26954819Y-18119047D01*
X26954819Y-18119047D02*
X26954819Y-17738095D01*
X26954819Y-17738095D02*
X27002438Y-17642857D01*
X27002438Y-17642857D02*
X27050057Y-17595238D01*
X27050057Y-17595238D02*
X27145295Y-17547619D01*
X27145295Y-17547619D02*
X27288152Y-17547619D01*
X27288152Y-17547619D02*
X27383390Y-17595238D01*
X27383390Y-17595238D02*
X27431009Y-17642857D01*
X27431009Y-17642857D02*
X27478628Y-17738095D01*
X27478628Y-17738095D02*
X27478628Y-18119047D01*
X28050057Y-17357143D02*
X28050057Y-16595238D01*
X27907200Y-16404761D02*
X27954819Y-16261904D01*
X27954819Y-16261904D02*
X27954819Y-16023809D01*
X27954819Y-16023809D02*
X27907200Y-15928571D01*
X27907200Y-15928571D02*
X27859580Y-15880952D01*
X27859580Y-15880952D02*
X27764342Y-15833333D01*
X27764342Y-15833333D02*
X27669104Y-15833333D01*
X27669104Y-15833333D02*
X27573866Y-15880952D01*
X27573866Y-15880952D02*
X27526247Y-15928571D01*
X27526247Y-15928571D02*
X27478628Y-16023809D01*
X27478628Y-16023809D02*
X27431009Y-16214285D01*
X27431009Y-16214285D02*
X27383390Y-16309523D01*
X27383390Y-16309523D02*
X27335771Y-16357142D01*
X27335771Y-16357142D02*
X27240533Y-16404761D01*
X27240533Y-16404761D02*
X27145295Y-16404761D01*
X27145295Y-16404761D02*
X27050057Y-16357142D01*
X27050057Y-16357142D02*
X27002438Y-16309523D01*
X27002438Y-16309523D02*
X26954819Y-16214285D01*
X26954819Y-16214285D02*
X26954819Y-15976190D01*
X26954819Y-15976190D02*
X27002438Y-15833333D01*
X26954819Y-15499999D02*
X27954819Y-15261904D01*
X27954819Y-15261904D02*
X27240533Y-15071428D01*
X27240533Y-15071428D02*
X27954819Y-14880952D01*
X27954819Y-14880952D02*
X26954819Y-14642857D01*
X19454819Y-20119047D02*
X19454819Y-19928571D01*
X19454819Y-19928571D02*
X19502438Y-19833333D01*
X19502438Y-19833333D02*
X19597676Y-19738095D01*
X19597676Y-19738095D02*
X19788152Y-19690476D01*
X19788152Y-19690476D02*
X20121485Y-19690476D01*
X20121485Y-19690476D02*
X20311961Y-19738095D01*
X20311961Y-19738095D02*
X20407200Y-19833333D01*
X20407200Y-19833333D02*
X20454819Y-19928571D01*
X20454819Y-19928571D02*
X20454819Y-20119047D01*
X20454819Y-20119047D02*
X20407200Y-20214285D01*
X20407200Y-20214285D02*
X20311961Y-20309523D01*
X20311961Y-20309523D02*
X20121485Y-20357142D01*
X20121485Y-20357142D02*
X19788152Y-20357142D01*
X19788152Y-20357142D02*
X19597676Y-20309523D01*
X19597676Y-20309523D02*
X19502438Y-20214285D01*
X19502438Y-20214285D02*
X19454819Y-20119047D01*
X20454819Y-19261904D02*
X19454819Y-19261904D01*
X19454819Y-19261904D02*
X20454819Y-18690476D01*
X20454819Y-18690476D02*
X19454819Y-18690476D01*
X40433333Y-18254819D02*
X40100000Y-17778628D01*
X39861905Y-18254819D02*
X39861905Y-17254819D01*
X39861905Y-17254819D02*
X40242857Y-17254819D01*
X40242857Y-17254819D02*
X40338095Y-17302438D01*
X40338095Y-17302438D02*
X40385714Y-17350057D01*
X40385714Y-17350057D02*
X40433333Y-17445295D01*
X40433333Y-17445295D02*
X40433333Y-17588152D01*
X40433333Y-17588152D02*
X40385714Y-17683390D01*
X40385714Y-17683390D02*
X40338095Y-17731009D01*
X40338095Y-17731009D02*
X40242857Y-17778628D01*
X40242857Y-17778628D02*
X39861905Y-17778628D01*
X40909524Y-18254819D02*
X41100000Y-18254819D01*
X41100000Y-18254819D02*
X41195238Y-18207200D01*
X41195238Y-18207200D02*
X41242857Y-18159580D01*
X41242857Y-18159580D02*
X41338095Y-18016723D01*
X41338095Y-18016723D02*
X41385714Y-17826247D01*
X41385714Y-17826247D02*
X41385714Y-17445295D01*
X41385714Y-17445295D02*
X41338095Y-17350057D01*
X41338095Y-17350057D02*
X41290476Y-17302438D01*
X41290476Y-17302438D02*
X41195238Y-17254819D01*
X41195238Y-17254819D02*
X41004762Y-17254819D01*
X41004762Y-17254819D02*
X40909524Y-17302438D01*
X40909524Y-17302438D02*
X40861905Y-17350057D01*
X40861905Y-17350057D02*
X40814286Y-17445295D01*
X40814286Y-17445295D02*
X40814286Y-17683390D01*
X40814286Y-17683390D02*
X40861905Y-17778628D01*
X40861905Y-17778628D02*
X40909524Y-17826247D01*
X40909524Y-17826247D02*
X41004762Y-17873866D01*
X41004762Y-17873866D02*
X41195238Y-17873866D01*
X41195238Y-17873866D02*
X41290476Y-17826247D01*
X41290476Y-17826247D02*
X41338095Y-17778628D01*
X41338095Y-17778628D02*
X41385714Y-17683390D01*
X15633333Y-28959580D02*
X15585714Y-29007200D01*
X15585714Y-29007200D02*
X15442857Y-29054819D01*
X15442857Y-29054819D02*
X15347619Y-29054819D01*
X15347619Y-29054819D02*
X15204762Y-29007200D01*
X15204762Y-29007200D02*
X15109524Y-28911961D01*
X15109524Y-28911961D02*
X15061905Y-28816723D01*
X15061905Y-28816723D02*
X15014286Y-28626247D01*
X15014286Y-28626247D02*
X15014286Y-28483390D01*
X15014286Y-28483390D02*
X15061905Y-28292914D01*
X15061905Y-28292914D02*
X15109524Y-28197676D01*
X15109524Y-28197676D02*
X15204762Y-28102438D01*
X15204762Y-28102438D02*
X15347619Y-28054819D01*
X15347619Y-28054819D02*
X15442857Y-28054819D01*
X15442857Y-28054819D02*
X15585714Y-28102438D01*
X15585714Y-28102438D02*
X15633333Y-28150057D01*
X16585714Y-29054819D02*
X16014286Y-29054819D01*
X16300000Y-29054819D02*
X16300000Y-28054819D01*
X16300000Y-28054819D02*
X16204762Y-28197676D01*
X16204762Y-28197676D02*
X16109524Y-28292914D01*
X16109524Y-28292914D02*
X16014286Y-28340533D01*
X22433333Y-10259580D02*
X22385714Y-10307200D01*
X22385714Y-10307200D02*
X22242857Y-10354819D01*
X22242857Y-10354819D02*
X22147619Y-10354819D01*
X22147619Y-10354819D02*
X22004762Y-10307200D01*
X22004762Y-10307200D02*
X21909524Y-10211961D01*
X21909524Y-10211961D02*
X21861905Y-10116723D01*
X21861905Y-10116723D02*
X21814286Y-9926247D01*
X21814286Y-9926247D02*
X21814286Y-9783390D01*
X21814286Y-9783390D02*
X21861905Y-9592914D01*
X21861905Y-9592914D02*
X21909524Y-9497676D01*
X21909524Y-9497676D02*
X22004762Y-9402438D01*
X22004762Y-9402438D02*
X22147619Y-9354819D01*
X22147619Y-9354819D02*
X22242857Y-9354819D01*
X22242857Y-9354819D02*
X22385714Y-9402438D01*
X22385714Y-9402438D02*
X22433333Y-9450057D01*
X23004762Y-9783390D02*
X22909524Y-9735771D01*
X22909524Y-9735771D02*
X22861905Y-9688152D01*
X22861905Y-9688152D02*
X22814286Y-9592914D01*
X22814286Y-9592914D02*
X22814286Y-9545295D01*
X22814286Y-9545295D02*
X22861905Y-9450057D01*
X22861905Y-9450057D02*
X22909524Y-9402438D01*
X22909524Y-9402438D02*
X23004762Y-9354819D01*
X23004762Y-9354819D02*
X23195238Y-9354819D01*
X23195238Y-9354819D02*
X23290476Y-9402438D01*
X23290476Y-9402438D02*
X23338095Y-9450057D01*
X23338095Y-9450057D02*
X23385714Y-9545295D01*
X23385714Y-9545295D02*
X23385714Y-9592914D01*
X23385714Y-9592914D02*
X23338095Y-9688152D01*
X23338095Y-9688152D02*
X23290476Y-9735771D01*
X23290476Y-9735771D02*
X23195238Y-9783390D01*
X23195238Y-9783390D02*
X23004762Y-9783390D01*
X23004762Y-9783390D02*
X22909524Y-9831009D01*
X22909524Y-9831009D02*
X22861905Y-9878628D01*
X22861905Y-9878628D02*
X22814286Y-9973866D01*
X22814286Y-9973866D02*
X22814286Y-10164342D01*
X22814286Y-10164342D02*
X22861905Y-10259580D01*
X22861905Y-10259580D02*
X22909524Y-10307200D01*
X22909524Y-10307200D02*
X23004762Y-10354819D01*
X23004762Y-10354819D02*
X23195238Y-10354819D01*
X23195238Y-10354819D02*
X23290476Y-10307200D01*
X23290476Y-10307200D02*
X23338095Y-10259580D01*
X23338095Y-10259580D02*
X23385714Y-10164342D01*
X23385714Y-10164342D02*
X23385714Y-9973866D01*
X23385714Y-9973866D02*
X23338095Y-9878628D01*
X23338095Y-9878628D02*
X23290476Y-9831009D01*
X23290476Y-9831009D02*
X23195238Y-9783390D01*
X8238095Y-26454819D02*
X8238095Y-25454819D01*
X8238095Y-25931009D02*
X8809523Y-25931009D01*
X8809523Y-26454819D02*
X8809523Y-25454819D01*
X9714285Y-25788152D02*
X9714285Y-26454819D01*
X9476190Y-25407200D02*
X9238095Y-26121485D01*
X9238095Y-26121485D02*
X9857142Y-26121485D01*
X45238095Y-3454819D02*
X45238095Y-2454819D01*
X45238095Y-2931009D02*
X45809523Y-2931009D01*
X45809523Y-3454819D02*
X45809523Y-2454819D01*
X46238095Y-2550057D02*
X46285714Y-2502438D01*
X46285714Y-2502438D02*
X46380952Y-2454819D01*
X46380952Y-2454819D02*
X46619047Y-2454819D01*
X46619047Y-2454819D02*
X46714285Y-2502438D01*
X46714285Y-2502438D02*
X46761904Y-2550057D01*
X46761904Y-2550057D02*
X46809523Y-2645295D01*
X46809523Y-2645295D02*
X46809523Y-2740533D01*
X46809523Y-2740533D02*
X46761904Y-2883390D01*
X46761904Y-2883390D02*
X46190476Y-3454819D01*
X46190476Y-3454819D02*
X46809523Y-3454819D01*
X21457142Y-9054819D02*
X21123809Y-8578628D01*
X20885714Y-9054819D02*
X20885714Y-8054819D01*
X20885714Y-8054819D02*
X21266666Y-8054819D01*
X21266666Y-8054819D02*
X21361904Y-8102438D01*
X21361904Y-8102438D02*
X21409523Y-8150057D01*
X21409523Y-8150057D02*
X21457142Y-8245295D01*
X21457142Y-8245295D02*
X21457142Y-8388152D01*
X21457142Y-8388152D02*
X21409523Y-8483390D01*
X21409523Y-8483390D02*
X21361904Y-8531009D01*
X21361904Y-8531009D02*
X21266666Y-8578628D01*
X21266666Y-8578628D02*
X20885714Y-8578628D01*
X22409523Y-9054819D02*
X21838095Y-9054819D01*
X22123809Y-9054819D02*
X22123809Y-8054819D01*
X22123809Y-8054819D02*
X22028571Y-8197676D01*
X22028571Y-8197676D02*
X21933333Y-8292914D01*
X21933333Y-8292914D02*
X21838095Y-8340533D01*
X23314285Y-8054819D02*
X22838095Y-8054819D01*
X22838095Y-8054819D02*
X22790476Y-8531009D01*
X22790476Y-8531009D02*
X22838095Y-8483390D01*
X22838095Y-8483390D02*
X22933333Y-8435771D01*
X22933333Y-8435771D02*
X23171428Y-8435771D01*
X23171428Y-8435771D02*
X23266666Y-8483390D01*
X23266666Y-8483390D02*
X23314285Y-8531009D01*
X23314285Y-8531009D02*
X23361904Y-8626247D01*
X23361904Y-8626247D02*
X23361904Y-8864342D01*
X23361904Y-8864342D02*
X23314285Y-8959580D01*
X23314285Y-8959580D02*
X23266666Y-9007200D01*
X23266666Y-9007200D02*
X23171428Y-9054819D01*
X23171428Y-9054819D02*
X22933333Y-9054819D01*
X22933333Y-9054819D02*
X22838095Y-9007200D01*
X22838095Y-9007200D02*
X22790476Y-8959580D01*
X37461905Y-28454819D02*
X37461905Y-27454819D01*
X37461905Y-27454819D02*
X37700000Y-27454819D01*
X37700000Y-27454819D02*
X37842857Y-27502438D01*
X37842857Y-27502438D02*
X37938095Y-27597676D01*
X37938095Y-27597676D02*
X37985714Y-27692914D01*
X37985714Y-27692914D02*
X38033333Y-27883390D01*
X38033333Y-27883390D02*
X38033333Y-28026247D01*
X38033333Y-28026247D02*
X37985714Y-28216723D01*
X37985714Y-28216723D02*
X37938095Y-28311961D01*
X37938095Y-28311961D02*
X37842857Y-28407200D01*
X37842857Y-28407200D02*
X37700000Y-28454819D01*
X37700000Y-28454819D02*
X37461905Y-28454819D01*
X38604762Y-27883390D02*
X38509524Y-27835771D01*
X38509524Y-27835771D02*
X38461905Y-27788152D01*
X38461905Y-27788152D02*
X38414286Y-27692914D01*
X38414286Y-27692914D02*
X38414286Y-27645295D01*
X38414286Y-27645295D02*
X38461905Y-27550057D01*
X38461905Y-27550057D02*
X38509524Y-27502438D01*
X38509524Y-27502438D02*
X38604762Y-27454819D01*
X38604762Y-27454819D02*
X38795238Y-27454819D01*
X38795238Y-27454819D02*
X38890476Y-27502438D01*
X38890476Y-27502438D02*
X38938095Y-27550057D01*
X38938095Y-27550057D02*
X38985714Y-27645295D01*
X38985714Y-27645295D02*
X38985714Y-27692914D01*
X38985714Y-27692914D02*
X38938095Y-27788152D01*
X38938095Y-27788152D02*
X38890476Y-27835771D01*
X38890476Y-27835771D02*
X38795238Y-27883390D01*
X38795238Y-27883390D02*
X38604762Y-27883390D01*
X38604762Y-27883390D02*
X38509524Y-27931009D01*
X38509524Y-27931009D02*
X38461905Y-27978628D01*
X38461905Y-27978628D02*
X38414286Y-28073866D01*
X38414286Y-28073866D02*
X38414286Y-28264342D01*
X38414286Y-28264342D02*
X38461905Y-28359580D01*
X38461905Y-28359580D02*
X38509524Y-28407200D01*
X38509524Y-28407200D02*
X38604762Y-28454819D01*
X38604762Y-28454819D02*
X38795238Y-28454819D01*
X38795238Y-28454819D02*
X38890476Y-28407200D01*
X38890476Y-28407200D02*
X38938095Y-28359580D01*
X38938095Y-28359580D02*
X38985714Y-28264342D01*
X38985714Y-28264342D02*
X38985714Y-28073866D01*
X38985714Y-28073866D02*
X38938095Y-27978628D01*
X38938095Y-27978628D02*
X38890476Y-27931009D01*
X38890476Y-27931009D02*
X38795238Y-27883390D01*
X40357142Y-28454819D02*
X40023809Y-27978628D01*
X39785714Y-28454819D02*
X39785714Y-27454819D01*
X39785714Y-27454819D02*
X40166666Y-27454819D01*
X40166666Y-27454819D02*
X40261904Y-27502438D01*
X40261904Y-27502438D02*
X40309523Y-27550057D01*
X40309523Y-27550057D02*
X40357142Y-27645295D01*
X40357142Y-27645295D02*
X40357142Y-27788152D01*
X40357142Y-27788152D02*
X40309523Y-27883390D01*
X40309523Y-27883390D02*
X40261904Y-27931009D01*
X40261904Y-27931009D02*
X40166666Y-27978628D01*
X40166666Y-27978628D02*
X39785714Y-27978628D01*
X41309523Y-28454819D02*
X40738095Y-28454819D01*
X41023809Y-28454819D02*
X41023809Y-27454819D01*
X41023809Y-27454819D02*
X40928571Y-27597676D01*
X40928571Y-27597676D02*
X40833333Y-27692914D01*
X40833333Y-27692914D02*
X40738095Y-27740533D01*
X42166666Y-27788152D02*
X42166666Y-28454819D01*
X41928571Y-27407200D02*
X41690476Y-28121485D01*
X41690476Y-28121485D02*
X42309523Y-28121485D01*
X35761905Y-4704819D02*
X35761905Y-3704819D01*
X35761905Y-3704819D02*
X36000000Y-3704819D01*
X36000000Y-3704819D02*
X36142857Y-3752438D01*
X36142857Y-3752438D02*
X36238095Y-3847676D01*
X36238095Y-3847676D02*
X36285714Y-3942914D01*
X36285714Y-3942914D02*
X36333333Y-4133390D01*
X36333333Y-4133390D02*
X36333333Y-4276247D01*
X36333333Y-4276247D02*
X36285714Y-4466723D01*
X36285714Y-4466723D02*
X36238095Y-4561961D01*
X36238095Y-4561961D02*
X36142857Y-4657200D01*
X36142857Y-4657200D02*
X36000000Y-4704819D01*
X36000000Y-4704819D02*
X35761905Y-4704819D01*
X36809524Y-4704819D02*
X37000000Y-4704819D01*
X37000000Y-4704819D02*
X37095238Y-4657200D01*
X37095238Y-4657200D02*
X37142857Y-4609580D01*
X37142857Y-4609580D02*
X37238095Y-4466723D01*
X37238095Y-4466723D02*
X37285714Y-4276247D01*
X37285714Y-4276247D02*
X37285714Y-3895295D01*
X37285714Y-3895295D02*
X37238095Y-3800057D01*
X37238095Y-3800057D02*
X37190476Y-3752438D01*
X37190476Y-3752438D02*
X37095238Y-3704819D01*
X37095238Y-3704819D02*
X36904762Y-3704819D01*
X36904762Y-3704819D02*
X36809524Y-3752438D01*
X36809524Y-3752438D02*
X36761905Y-3800057D01*
X36761905Y-3800057D02*
X36714286Y-3895295D01*
X36714286Y-3895295D02*
X36714286Y-4133390D01*
X36714286Y-4133390D02*
X36761905Y-4228628D01*
X36761905Y-4228628D02*
X36809524Y-4276247D01*
X36809524Y-4276247D02*
X36904762Y-4323866D01*
X36904762Y-4323866D02*
X37095238Y-4323866D01*
X37095238Y-4323866D02*
X37190476Y-4276247D01*
X37190476Y-4276247D02*
X37238095Y-4228628D01*
X37238095Y-4228628D02*
X37285714Y-4133390D01*
X14359580Y-22166666D02*
X14407200Y-22214285D01*
X14407200Y-22214285D02*
X14454819Y-22357142D01*
X14454819Y-22357142D02*
X14454819Y-22452380D01*
X14454819Y-22452380D02*
X14407200Y-22595237D01*
X14407200Y-22595237D02*
X14311961Y-22690475D01*
X14311961Y-22690475D02*
X14216723Y-22738094D01*
X14216723Y-22738094D02*
X14026247Y-22785713D01*
X14026247Y-22785713D02*
X13883390Y-22785713D01*
X13883390Y-22785713D02*
X13692914Y-22738094D01*
X13692914Y-22738094D02*
X13597676Y-22690475D01*
X13597676Y-22690475D02*
X13502438Y-22595237D01*
X13502438Y-22595237D02*
X13454819Y-22452380D01*
X13454819Y-22452380D02*
X13454819Y-22357142D01*
X13454819Y-22357142D02*
X13502438Y-22214285D01*
X13502438Y-22214285D02*
X13550057Y-22166666D01*
X13788152Y-21309523D02*
X14454819Y-21309523D01*
X13407200Y-21547618D02*
X14121485Y-21785713D01*
X14121485Y-21785713D02*
X14121485Y-21166666D01*
X10454819Y-23338094D02*
X9454819Y-23338094D01*
X9454819Y-23338094D02*
X9454819Y-23099999D01*
X9454819Y-23099999D02*
X9502438Y-22957142D01*
X9502438Y-22957142D02*
X9597676Y-22861904D01*
X9597676Y-22861904D02*
X9692914Y-22814285D01*
X9692914Y-22814285D02*
X9883390Y-22766666D01*
X9883390Y-22766666D02*
X10026247Y-22766666D01*
X10026247Y-22766666D02*
X10216723Y-22814285D01*
X10216723Y-22814285D02*
X10311961Y-22861904D01*
X10311961Y-22861904D02*
X10407200Y-22957142D01*
X10407200Y-22957142D02*
X10454819Y-23099999D01*
X10454819Y-23099999D02*
X10454819Y-23338094D01*
X9550057Y-22385713D02*
X9502438Y-22338094D01*
X9502438Y-22338094D02*
X9454819Y-22242856D01*
X9454819Y-22242856D02*
X9454819Y-22004761D01*
X9454819Y-22004761D02*
X9502438Y-21909523D01*
X9502438Y-21909523D02*
X9550057Y-21861904D01*
X9550057Y-21861904D02*
X9645295Y-21814285D01*
X9645295Y-21814285D02*
X9740533Y-21814285D01*
X9740533Y-21814285D02*
X9883390Y-21861904D01*
X9883390Y-21861904D02*
X10454819Y-22433332D01*
X10454819Y-22433332D02*
X10454819Y-21814285D01*
X33107142Y-8454819D02*
X32773809Y-7978628D01*
X32535714Y-8454819D02*
X32535714Y-7454819D01*
X32535714Y-7454819D02*
X32916666Y-7454819D01*
X32916666Y-7454819D02*
X33011904Y-7502438D01*
X33011904Y-7502438D02*
X33059523Y-7550057D01*
X33059523Y-7550057D02*
X33107142Y-7645295D01*
X33107142Y-7645295D02*
X33107142Y-7788152D01*
X33107142Y-7788152D02*
X33059523Y-7883390D01*
X33059523Y-7883390D02*
X33011904Y-7931009D01*
X33011904Y-7931009D02*
X32916666Y-7978628D01*
X32916666Y-7978628D02*
X32535714Y-7978628D01*
X33488095Y-7550057D02*
X33535714Y-7502438D01*
X33535714Y-7502438D02*
X33630952Y-7454819D01*
X33630952Y-7454819D02*
X33869047Y-7454819D01*
X33869047Y-7454819D02*
X33964285Y-7502438D01*
X33964285Y-7502438D02*
X34011904Y-7550057D01*
X34011904Y-7550057D02*
X34059523Y-7645295D01*
X34059523Y-7645295D02*
X34059523Y-7740533D01*
X34059523Y-7740533D02*
X34011904Y-7883390D01*
X34011904Y-7883390D02*
X33440476Y-8454819D01*
X33440476Y-8454819D02*
X34059523Y-8454819D01*
X34392857Y-7454819D02*
X35059523Y-7454819D01*
X35059523Y-7454819D02*
X34630952Y-8454819D01*
X18838095Y-10454819D02*
X18838095Y-11264342D01*
X18838095Y-11264342D02*
X18885714Y-11359580D01*
X18885714Y-11359580D02*
X18933333Y-11407200D01*
X18933333Y-11407200D02*
X19028571Y-11454819D01*
X19028571Y-11454819D02*
X19219047Y-11454819D01*
X19219047Y-11454819D02*
X19314285Y-11407200D01*
X19314285Y-11407200D02*
X19361904Y-11359580D01*
X19361904Y-11359580D02*
X19409523Y-11264342D01*
X19409523Y-11264342D02*
X19409523Y-10454819D01*
X19838095Y-10550057D02*
X19885714Y-10502438D01*
X19885714Y-10502438D02*
X19980952Y-10454819D01*
X19980952Y-10454819D02*
X20219047Y-10454819D01*
X20219047Y-10454819D02*
X20314285Y-10502438D01*
X20314285Y-10502438D02*
X20361904Y-10550057D01*
X20361904Y-10550057D02*
X20409523Y-10645295D01*
X20409523Y-10645295D02*
X20409523Y-10740533D01*
X20409523Y-10740533D02*
X20361904Y-10883390D01*
X20361904Y-10883390D02*
X19790476Y-11454819D01*
X19790476Y-11454819D02*
X20409523Y-11454819D01*
X45429819Y-23217857D02*
X44953628Y-23551190D01*
X45429819Y-23789285D02*
X44429819Y-23789285D01*
X44429819Y-23789285D02*
X44429819Y-23408333D01*
X44429819Y-23408333D02*
X44477438Y-23313095D01*
X44477438Y-23313095D02*
X44525057Y-23265476D01*
X44525057Y-23265476D02*
X44620295Y-23217857D01*
X44620295Y-23217857D02*
X44763152Y-23217857D01*
X44763152Y-23217857D02*
X44858390Y-23265476D01*
X44858390Y-23265476D02*
X44906009Y-23313095D01*
X44906009Y-23313095D02*
X44953628Y-23408333D01*
X44953628Y-23408333D02*
X44953628Y-23789285D01*
X44525057Y-22836904D02*
X44477438Y-22789285D01*
X44477438Y-22789285D02*
X44429819Y-22694047D01*
X44429819Y-22694047D02*
X44429819Y-22455952D01*
X44429819Y-22455952D02*
X44477438Y-22360714D01*
X44477438Y-22360714D02*
X44525057Y-22313095D01*
X44525057Y-22313095D02*
X44620295Y-22265476D01*
X44620295Y-22265476D02*
X44715533Y-22265476D01*
X44715533Y-22265476D02*
X44858390Y-22313095D01*
X44858390Y-22313095D02*
X45429819Y-22884523D01*
X45429819Y-22884523D02*
X45429819Y-22265476D01*
X44763152Y-21408333D02*
X45429819Y-21408333D01*
X44382200Y-21646428D02*
X45096485Y-21884523D01*
X45096485Y-21884523D02*
X45096485Y-21265476D01*
X16854819Y-8642857D02*
X16378628Y-8976190D01*
X16854819Y-9214285D02*
X15854819Y-9214285D01*
X15854819Y-9214285D02*
X15854819Y-8833333D01*
X15854819Y-8833333D02*
X15902438Y-8738095D01*
X15902438Y-8738095D02*
X15950057Y-8690476D01*
X15950057Y-8690476D02*
X16045295Y-8642857D01*
X16045295Y-8642857D02*
X16188152Y-8642857D01*
X16188152Y-8642857D02*
X16283390Y-8690476D01*
X16283390Y-8690476D02*
X16331009Y-8738095D01*
X16331009Y-8738095D02*
X16378628Y-8833333D01*
X16378628Y-8833333D02*
X16378628Y-9214285D01*
X16854819Y-7690476D02*
X16854819Y-8261904D01*
X16854819Y-7976190D02*
X15854819Y-7976190D01*
X15854819Y-7976190D02*
X15997676Y-8071428D01*
X15997676Y-8071428D02*
X16092914Y-8166666D01*
X16092914Y-8166666D02*
X16140533Y-8261904D01*
X16854819Y-6738095D02*
X16854819Y-7309523D01*
X16854819Y-7023809D02*
X15854819Y-7023809D01*
X15854819Y-7023809D02*
X15997676Y-7119047D01*
X15997676Y-7119047D02*
X16092914Y-7214285D01*
X16092914Y-7214285D02*
X16140533Y-7309523D01*
X21357142Y-12854819D02*
X21023809Y-12378628D01*
X20785714Y-12854819D02*
X20785714Y-11854819D01*
X20785714Y-11854819D02*
X21166666Y-11854819D01*
X21166666Y-11854819D02*
X21261904Y-11902438D01*
X21261904Y-11902438D02*
X21309523Y-11950057D01*
X21309523Y-11950057D02*
X21357142Y-12045295D01*
X21357142Y-12045295D02*
X21357142Y-12188152D01*
X21357142Y-12188152D02*
X21309523Y-12283390D01*
X21309523Y-12283390D02*
X21261904Y-12331009D01*
X21261904Y-12331009D02*
X21166666Y-12378628D01*
X21166666Y-12378628D02*
X20785714Y-12378628D01*
X22309523Y-12854819D02*
X21738095Y-12854819D01*
X22023809Y-12854819D02*
X22023809Y-11854819D01*
X22023809Y-11854819D02*
X21928571Y-11997676D01*
X21928571Y-11997676D02*
X21833333Y-12092914D01*
X21833333Y-12092914D02*
X21738095Y-12140533D01*
X22785714Y-12854819D02*
X22976190Y-12854819D01*
X22976190Y-12854819D02*
X23071428Y-12807200D01*
X23071428Y-12807200D02*
X23119047Y-12759580D01*
X23119047Y-12759580D02*
X23214285Y-12616723D01*
X23214285Y-12616723D02*
X23261904Y-12426247D01*
X23261904Y-12426247D02*
X23261904Y-12045295D01*
X23261904Y-12045295D02*
X23214285Y-11950057D01*
X23214285Y-11950057D02*
X23166666Y-11902438D01*
X23166666Y-11902438D02*
X23071428Y-11854819D01*
X23071428Y-11854819D02*
X22880952Y-11854819D01*
X22880952Y-11854819D02*
X22785714Y-11902438D01*
X22785714Y-11902438D02*
X22738095Y-11950057D01*
X22738095Y-11950057D02*
X22690476Y-12045295D01*
X22690476Y-12045295D02*
X22690476Y-12283390D01*
X22690476Y-12283390D02*
X22738095Y-12378628D01*
X22738095Y-12378628D02*
X22785714Y-12426247D01*
X22785714Y-12426247D02*
X22880952Y-12473866D01*
X22880952Y-12473866D02*
X23071428Y-12473866D01*
X23071428Y-12473866D02*
X23166666Y-12426247D01*
X23166666Y-12426247D02*
X23214285Y-12378628D01*
X23214285Y-12378628D02*
X23261904Y-12283390D01*
X29957142Y-10954819D02*
X29623809Y-10478628D01*
X29385714Y-10954819D02*
X29385714Y-9954819D01*
X29385714Y-9954819D02*
X29766666Y-9954819D01*
X29766666Y-9954819D02*
X29861904Y-10002438D01*
X29861904Y-10002438D02*
X29909523Y-10050057D01*
X29909523Y-10050057D02*
X29957142Y-10145295D01*
X29957142Y-10145295D02*
X29957142Y-10288152D01*
X29957142Y-10288152D02*
X29909523Y-10383390D01*
X29909523Y-10383390D02*
X29861904Y-10431009D01*
X29861904Y-10431009D02*
X29766666Y-10478628D01*
X29766666Y-10478628D02*
X29385714Y-10478628D01*
X30338095Y-10050057D02*
X30385714Y-10002438D01*
X30385714Y-10002438D02*
X30480952Y-9954819D01*
X30480952Y-9954819D02*
X30719047Y-9954819D01*
X30719047Y-9954819D02*
X30814285Y-10002438D01*
X30814285Y-10002438D02*
X30861904Y-10050057D01*
X30861904Y-10050057D02*
X30909523Y-10145295D01*
X30909523Y-10145295D02*
X30909523Y-10240533D01*
X30909523Y-10240533D02*
X30861904Y-10383390D01*
X30861904Y-10383390D02*
X30290476Y-10954819D01*
X30290476Y-10954819D02*
X30909523Y-10954819D01*
X31528571Y-9954819D02*
X31623809Y-9954819D01*
X31623809Y-9954819D02*
X31719047Y-10002438D01*
X31719047Y-10002438D02*
X31766666Y-10050057D01*
X31766666Y-10050057D02*
X31814285Y-10145295D01*
X31814285Y-10145295D02*
X31861904Y-10335771D01*
X31861904Y-10335771D02*
X31861904Y-10573866D01*
X31861904Y-10573866D02*
X31814285Y-10764342D01*
X31814285Y-10764342D02*
X31766666Y-10859580D01*
X31766666Y-10859580D02*
X31719047Y-10907200D01*
X31719047Y-10907200D02*
X31623809Y-10954819D01*
X31623809Y-10954819D02*
X31528571Y-10954819D01*
X31528571Y-10954819D02*
X31433333Y-10907200D01*
X31433333Y-10907200D02*
X31385714Y-10859580D01*
X31385714Y-10859580D02*
X31338095Y-10764342D01*
X31338095Y-10764342D02*
X31290476Y-10573866D01*
X31290476Y-10573866D02*
X31290476Y-10335771D01*
X31290476Y-10335771D02*
X31338095Y-10145295D01*
X31338095Y-10145295D02*
X31385714Y-10050057D01*
X31385714Y-10050057D02*
X31433333Y-10002438D01*
X31433333Y-10002438D02*
X31528571Y-9954819D01*
X45238095Y-26454819D02*
X45238095Y-25454819D01*
X45238095Y-25931009D02*
X45809523Y-25931009D01*
X45809523Y-26454819D02*
X45809523Y-25454819D01*
X46190476Y-25454819D02*
X46809523Y-25454819D01*
X46809523Y-25454819D02*
X46476190Y-25835771D01*
X46476190Y-25835771D02*
X46619047Y-25835771D01*
X46619047Y-25835771D02*
X46714285Y-25883390D01*
X46714285Y-25883390D02*
X46761904Y-25931009D01*
X46761904Y-25931009D02*
X46809523Y-26026247D01*
X46809523Y-26026247D02*
X46809523Y-26264342D01*
X46809523Y-26264342D02*
X46761904Y-26359580D01*
X46761904Y-26359580D02*
X46714285Y-26407200D01*
X46714285Y-26407200D02*
X46619047Y-26454819D01*
X46619047Y-26454819D02*
X46333333Y-26454819D01*
X46333333Y-26454819D02*
X46238095Y-26407200D01*
X46238095Y-26407200D02*
X46190476Y-26359580D01*
X21357142Y-5954819D02*
X21023809Y-5478628D01*
X20785714Y-5954819D02*
X20785714Y-4954819D01*
X20785714Y-4954819D02*
X21166666Y-4954819D01*
X21166666Y-4954819D02*
X21261904Y-5002438D01*
X21261904Y-5002438D02*
X21309523Y-5050057D01*
X21309523Y-5050057D02*
X21357142Y-5145295D01*
X21357142Y-5145295D02*
X21357142Y-5288152D01*
X21357142Y-5288152D02*
X21309523Y-5383390D01*
X21309523Y-5383390D02*
X21261904Y-5431009D01*
X21261904Y-5431009D02*
X21166666Y-5478628D01*
X21166666Y-5478628D02*
X20785714Y-5478628D01*
X22309523Y-5954819D02*
X21738095Y-5954819D01*
X22023809Y-5954819D02*
X22023809Y-4954819D01*
X22023809Y-4954819D02*
X21928571Y-5097676D01*
X21928571Y-5097676D02*
X21833333Y-5192914D01*
X21833333Y-5192914D02*
X21738095Y-5240533D01*
X22642857Y-4954819D02*
X23309523Y-4954819D01*
X23309523Y-4954819D02*
X22880952Y-5954819D01*
X29833333Y-5659580D02*
X29785714Y-5707200D01*
X29785714Y-5707200D02*
X29642857Y-5754819D01*
X29642857Y-5754819D02*
X29547619Y-5754819D01*
X29547619Y-5754819D02*
X29404762Y-5707200D01*
X29404762Y-5707200D02*
X29309524Y-5611961D01*
X29309524Y-5611961D02*
X29261905Y-5516723D01*
X29261905Y-5516723D02*
X29214286Y-5326247D01*
X29214286Y-5326247D02*
X29214286Y-5183390D01*
X29214286Y-5183390D02*
X29261905Y-4992914D01*
X29261905Y-4992914D02*
X29309524Y-4897676D01*
X29309524Y-4897676D02*
X29404762Y-4802438D01*
X29404762Y-4802438D02*
X29547619Y-4754819D01*
X29547619Y-4754819D02*
X29642857Y-4754819D01*
X29642857Y-4754819D02*
X29785714Y-4802438D01*
X29785714Y-4802438D02*
X29833333Y-4850057D01*
X30738095Y-4754819D02*
X30261905Y-4754819D01*
X30261905Y-4754819D02*
X30214286Y-5231009D01*
X30214286Y-5231009D02*
X30261905Y-5183390D01*
X30261905Y-5183390D02*
X30357143Y-5135771D01*
X30357143Y-5135771D02*
X30595238Y-5135771D01*
X30595238Y-5135771D02*
X30690476Y-5183390D01*
X30690476Y-5183390D02*
X30738095Y-5231009D01*
X30738095Y-5231009D02*
X30785714Y-5326247D01*
X30785714Y-5326247D02*
X30785714Y-5564342D01*
X30785714Y-5564342D02*
X30738095Y-5659580D01*
X30738095Y-5659580D02*
X30690476Y-5707200D01*
X30690476Y-5707200D02*
X30595238Y-5754819D01*
X30595238Y-5754819D02*
X30357143Y-5754819D01*
X30357143Y-5754819D02*
X30261905Y-5707200D01*
X30261905Y-5707200D02*
X30214286Y-5659580D01*
X13254819Y-11966666D02*
X12778628Y-12299999D01*
X13254819Y-12538094D02*
X12254819Y-12538094D01*
X12254819Y-12538094D02*
X12254819Y-12157142D01*
X12254819Y-12157142D02*
X12302438Y-12061904D01*
X12302438Y-12061904D02*
X12350057Y-12014285D01*
X12350057Y-12014285D02*
X12445295Y-11966666D01*
X12445295Y-11966666D02*
X12588152Y-11966666D01*
X12588152Y-11966666D02*
X12683390Y-12014285D01*
X12683390Y-12014285D02*
X12731009Y-12061904D01*
X12731009Y-12061904D02*
X12778628Y-12157142D01*
X12778628Y-12157142D02*
X12778628Y-12538094D01*
X12254819Y-11633332D02*
X12254819Y-11014285D01*
X12254819Y-11014285D02*
X12635771Y-11347618D01*
X12635771Y-11347618D02*
X12635771Y-11204761D01*
X12635771Y-11204761D02*
X12683390Y-11109523D01*
X12683390Y-11109523D02*
X12731009Y-11061904D01*
X12731009Y-11061904D02*
X12826247Y-11014285D01*
X12826247Y-11014285D02*
X13064342Y-11014285D01*
X13064342Y-11014285D02*
X13159580Y-11061904D01*
X13159580Y-11061904D02*
X13207200Y-11109523D01*
X13207200Y-11109523D02*
X13254819Y-11204761D01*
X13254819Y-11204761D02*
X13254819Y-11490475D01*
X13254819Y-11490475D02*
X13207200Y-11585713D01*
X13207200Y-11585713D02*
X13159580Y-11633332D01*
X25638095Y-3754819D02*
X25638095Y-4564342D01*
X25638095Y-4564342D02*
X25685714Y-4659580D01*
X25685714Y-4659580D02*
X25733333Y-4707200D01*
X25733333Y-4707200D02*
X25828571Y-4754819D01*
X25828571Y-4754819D02*
X26019047Y-4754819D01*
X26019047Y-4754819D02*
X26114285Y-4707200D01*
X26114285Y-4707200D02*
X26161904Y-4659580D01*
X26161904Y-4659580D02*
X26209523Y-4564342D01*
X26209523Y-4564342D02*
X26209523Y-3754819D01*
X26590476Y-3754819D02*
X27209523Y-3754819D01*
X27209523Y-3754819D02*
X26876190Y-4135771D01*
X26876190Y-4135771D02*
X27019047Y-4135771D01*
X27019047Y-4135771D02*
X27114285Y-4183390D01*
X27114285Y-4183390D02*
X27161904Y-4231009D01*
X27161904Y-4231009D02*
X27209523Y-4326247D01*
X27209523Y-4326247D02*
X27209523Y-4564342D01*
X27209523Y-4564342D02*
X27161904Y-4659580D01*
X27161904Y-4659580D02*
X27114285Y-4707200D01*
X27114285Y-4707200D02*
X27019047Y-4754819D01*
X27019047Y-4754819D02*
X26733333Y-4754819D01*
X26733333Y-4754819D02*
X26638095Y-4707200D01*
X26638095Y-4707200D02*
X26590476Y-4659580D01*
X29333333Y-20454819D02*
X29000000Y-19978628D01*
X28761905Y-20454819D02*
X28761905Y-19454819D01*
X28761905Y-19454819D02*
X29142857Y-19454819D01*
X29142857Y-19454819D02*
X29238095Y-19502438D01*
X29238095Y-19502438D02*
X29285714Y-19550057D01*
X29285714Y-19550057D02*
X29333333Y-19645295D01*
X29333333Y-19645295D02*
X29333333Y-19788152D01*
X29333333Y-19788152D02*
X29285714Y-19883390D01*
X29285714Y-19883390D02*
X29238095Y-19931009D01*
X29238095Y-19931009D02*
X29142857Y-19978628D01*
X29142857Y-19978628D02*
X28761905Y-19978628D01*
X29666667Y-19454819D02*
X30333333Y-19454819D01*
X30333333Y-19454819D02*
X29904762Y-20454819D01*
X52666666Y-6954819D02*
X52666666Y-7669104D01*
X52666666Y-7669104D02*
X52619047Y-7811961D01*
X52619047Y-7811961D02*
X52523809Y-7907200D01*
X52523809Y-7907200D02*
X52380952Y-7954819D01*
X52380952Y-7954819D02*
X52285714Y-7954819D01*
X53095238Y-7050057D02*
X53142857Y-7002438D01*
X53142857Y-7002438D02*
X53238095Y-6954819D01*
X53238095Y-6954819D02*
X53476190Y-6954819D01*
X53476190Y-6954819D02*
X53571428Y-7002438D01*
X53571428Y-7002438D02*
X53619047Y-7050057D01*
X53619047Y-7050057D02*
X53666666Y-7145295D01*
X53666666Y-7145295D02*
X53666666Y-7240533D01*
X53666666Y-7240533D02*
X53619047Y-7383390D01*
X53619047Y-7383390D02*
X53047619Y-7954819D01*
X53047619Y-7954819D02*
X53666666Y-7954819D01*
X37904761Y-14050057D02*
X37809523Y-14002438D01*
X37809523Y-14002438D02*
X37714285Y-13907200D01*
X37714285Y-13907200D02*
X37571428Y-13764342D01*
X37571428Y-13764342D02*
X37476190Y-13716723D01*
X37476190Y-13716723D02*
X37380952Y-13716723D01*
X37428571Y-13954819D02*
X37333333Y-13907200D01*
X37333333Y-13907200D02*
X37238095Y-13811961D01*
X37238095Y-13811961D02*
X37190476Y-13621485D01*
X37190476Y-13621485D02*
X37190476Y-13288152D01*
X37190476Y-13288152D02*
X37238095Y-13097676D01*
X37238095Y-13097676D02*
X37333333Y-13002438D01*
X37333333Y-13002438D02*
X37428571Y-12954819D01*
X37428571Y-12954819D02*
X37619047Y-12954819D01*
X37619047Y-12954819D02*
X37714285Y-13002438D01*
X37714285Y-13002438D02*
X37809523Y-13097676D01*
X37809523Y-13097676D02*
X37857142Y-13288152D01*
X37857142Y-13288152D02*
X37857142Y-13621485D01*
X37857142Y-13621485D02*
X37809523Y-13811961D01*
X37809523Y-13811961D02*
X37714285Y-13907200D01*
X37714285Y-13907200D02*
X37619047Y-13954819D01*
X37619047Y-13954819D02*
X37428571Y-13954819D01*
X38714285Y-13288152D02*
X38714285Y-13954819D01*
X38476190Y-12907200D02*
X38238095Y-13621485D01*
X38238095Y-13621485D02*
X38857142Y-13621485D01*
X29957142Y-3554819D02*
X29623809Y-3078628D01*
X29385714Y-3554819D02*
X29385714Y-2554819D01*
X29385714Y-2554819D02*
X29766666Y-2554819D01*
X29766666Y-2554819D02*
X29861904Y-2602438D01*
X29861904Y-2602438D02*
X29909523Y-2650057D01*
X29909523Y-2650057D02*
X29957142Y-2745295D01*
X29957142Y-2745295D02*
X29957142Y-2888152D01*
X29957142Y-2888152D02*
X29909523Y-2983390D01*
X29909523Y-2983390D02*
X29861904Y-3031009D01*
X29861904Y-3031009D02*
X29766666Y-3078628D01*
X29766666Y-3078628D02*
X29385714Y-3078628D01*
X30338095Y-2650057D02*
X30385714Y-2602438D01*
X30385714Y-2602438D02*
X30480952Y-2554819D01*
X30480952Y-2554819D02*
X30719047Y-2554819D01*
X30719047Y-2554819D02*
X30814285Y-2602438D01*
X30814285Y-2602438D02*
X30861904Y-2650057D01*
X30861904Y-2650057D02*
X30909523Y-2745295D01*
X30909523Y-2745295D02*
X30909523Y-2840533D01*
X30909523Y-2840533D02*
X30861904Y-2983390D01*
X30861904Y-2983390D02*
X30290476Y-3554819D01*
X30290476Y-3554819D02*
X30909523Y-3554819D01*
X31290476Y-2650057D02*
X31338095Y-2602438D01*
X31338095Y-2602438D02*
X31433333Y-2554819D01*
X31433333Y-2554819D02*
X31671428Y-2554819D01*
X31671428Y-2554819D02*
X31766666Y-2602438D01*
X31766666Y-2602438D02*
X31814285Y-2650057D01*
X31814285Y-2650057D02*
X31861904Y-2745295D01*
X31861904Y-2745295D02*
X31861904Y-2840533D01*
X31861904Y-2840533D02*
X31814285Y-2983390D01*
X31814285Y-2983390D02*
X31242857Y-3554819D01*
X31242857Y-3554819D02*
X31861904Y-3554819D01*
X35535714Y-9704819D02*
X35535714Y-8704819D01*
X35535714Y-8704819D02*
X35773809Y-8704819D01*
X35773809Y-8704819D02*
X35916666Y-8752438D01*
X35916666Y-8752438D02*
X36011904Y-8847676D01*
X36011904Y-8847676D02*
X36059523Y-8942914D01*
X36059523Y-8942914D02*
X36107142Y-9133390D01*
X36107142Y-9133390D02*
X36107142Y-9276247D01*
X36107142Y-9276247D02*
X36059523Y-9466723D01*
X36059523Y-9466723D02*
X36011904Y-9561961D01*
X36011904Y-9561961D02*
X35916666Y-9657200D01*
X35916666Y-9657200D02*
X35773809Y-9704819D01*
X35773809Y-9704819D02*
X35535714Y-9704819D01*
X37059523Y-9704819D02*
X36488095Y-9704819D01*
X36773809Y-9704819D02*
X36773809Y-8704819D01*
X36773809Y-8704819D02*
X36678571Y-8847676D01*
X36678571Y-8847676D02*
X36583333Y-8942914D01*
X36583333Y-8942914D02*
X36488095Y-8990533D01*
X37678571Y-8704819D02*
X37773809Y-8704819D01*
X37773809Y-8704819D02*
X37869047Y-8752438D01*
X37869047Y-8752438D02*
X37916666Y-8800057D01*
X37916666Y-8800057D02*
X37964285Y-8895295D01*
X37964285Y-8895295D02*
X38011904Y-9085771D01*
X38011904Y-9085771D02*
X38011904Y-9323866D01*
X38011904Y-9323866D02*
X37964285Y-9514342D01*
X37964285Y-9514342D02*
X37916666Y-9609580D01*
X37916666Y-9609580D02*
X37869047Y-9657200D01*
X37869047Y-9657200D02*
X37773809Y-9704819D01*
X37773809Y-9704819D02*
X37678571Y-9704819D01*
X37678571Y-9704819D02*
X37583333Y-9657200D01*
X37583333Y-9657200D02*
X37535714Y-9609580D01*
X37535714Y-9609580D02*
X37488095Y-9514342D01*
X37488095Y-9514342D02*
X37440476Y-9323866D01*
X37440476Y-9323866D02*
X37440476Y-9085771D01*
X37440476Y-9085771D02*
X37488095Y-8895295D01*
X37488095Y-8895295D02*
X37535714Y-8800057D01*
X37535714Y-8800057D02*
X37583333Y-8752438D01*
X37583333Y-8752438D02*
X37678571Y-8704819D01*
X30033333Y-12659580D02*
X29985714Y-12707200D01*
X29985714Y-12707200D02*
X29842857Y-12754819D01*
X29842857Y-12754819D02*
X29747619Y-12754819D01*
X29747619Y-12754819D02*
X29604762Y-12707200D01*
X29604762Y-12707200D02*
X29509524Y-12611961D01*
X29509524Y-12611961D02*
X29461905Y-12516723D01*
X29461905Y-12516723D02*
X29414286Y-12326247D01*
X29414286Y-12326247D02*
X29414286Y-12183390D01*
X29414286Y-12183390D02*
X29461905Y-11992914D01*
X29461905Y-11992914D02*
X29509524Y-11897676D01*
X29509524Y-11897676D02*
X29604762Y-11802438D01*
X29604762Y-11802438D02*
X29747619Y-11754819D01*
X29747619Y-11754819D02*
X29842857Y-11754819D01*
X29842857Y-11754819D02*
X29985714Y-11802438D01*
X29985714Y-11802438D02*
X30033333Y-11850057D01*
X30366667Y-11754819D02*
X31033333Y-11754819D01*
X31033333Y-11754819D02*
X30604762Y-12754819D01*
X30057142Y-13954819D02*
X29723809Y-13478628D01*
X29485714Y-13954819D02*
X29485714Y-12954819D01*
X29485714Y-12954819D02*
X29866666Y-12954819D01*
X29866666Y-12954819D02*
X29961904Y-13002438D01*
X29961904Y-13002438D02*
X30009523Y-13050057D01*
X30009523Y-13050057D02*
X30057142Y-13145295D01*
X30057142Y-13145295D02*
X30057142Y-13288152D01*
X30057142Y-13288152D02*
X30009523Y-13383390D01*
X30009523Y-13383390D02*
X29961904Y-13431009D01*
X29961904Y-13431009D02*
X29866666Y-13478628D01*
X29866666Y-13478628D02*
X29485714Y-13478628D01*
X30438095Y-13050057D02*
X30485714Y-13002438D01*
X30485714Y-13002438D02*
X30580952Y-12954819D01*
X30580952Y-12954819D02*
X30819047Y-12954819D01*
X30819047Y-12954819D02*
X30914285Y-13002438D01*
X30914285Y-13002438D02*
X30961904Y-13050057D01*
X30961904Y-13050057D02*
X31009523Y-13145295D01*
X31009523Y-13145295D02*
X31009523Y-13240533D01*
X31009523Y-13240533D02*
X30961904Y-13383390D01*
X30961904Y-13383390D02*
X30390476Y-13954819D01*
X30390476Y-13954819D02*
X31009523Y-13954819D01*
X31342857Y-12954819D02*
X31961904Y-12954819D01*
X31961904Y-12954819D02*
X31628571Y-13335771D01*
X31628571Y-13335771D02*
X31771428Y-13335771D01*
X31771428Y-13335771D02*
X31866666Y-13383390D01*
X31866666Y-13383390D02*
X31914285Y-13431009D01*
X31914285Y-13431009D02*
X31961904Y-13526247D01*
X31961904Y-13526247D02*
X31961904Y-13764342D01*
X31961904Y-13764342D02*
X31914285Y-13859580D01*
X31914285Y-13859580D02*
X31866666Y-13907200D01*
X31866666Y-13907200D02*
X31771428Y-13954819D01*
X31771428Y-13954819D02*
X31485714Y-13954819D01*
X31485714Y-13954819D02*
X31390476Y-13907200D01*
X31390476Y-13907200D02*
X31342857Y-13859580D01*
X31904761Y-17050057D02*
X31809523Y-17002438D01*
X31809523Y-17002438D02*
X31714285Y-16907200D01*
X31714285Y-16907200D02*
X31571428Y-16764342D01*
X31571428Y-16764342D02*
X31476190Y-16716723D01*
X31476190Y-16716723D02*
X31380952Y-16716723D01*
X31428571Y-16954819D02*
X31333333Y-16907200D01*
X31333333Y-16907200D02*
X31238095Y-16811961D01*
X31238095Y-16811961D02*
X31190476Y-16621485D01*
X31190476Y-16621485D02*
X31190476Y-16288152D01*
X31190476Y-16288152D02*
X31238095Y-16097676D01*
X31238095Y-16097676D02*
X31333333Y-16002438D01*
X31333333Y-16002438D02*
X31428571Y-15954819D01*
X31428571Y-15954819D02*
X31619047Y-15954819D01*
X31619047Y-15954819D02*
X31714285Y-16002438D01*
X31714285Y-16002438D02*
X31809523Y-16097676D01*
X31809523Y-16097676D02*
X31857142Y-16288152D01*
X31857142Y-16288152D02*
X31857142Y-16621485D01*
X31857142Y-16621485D02*
X31809523Y-16811961D01*
X31809523Y-16811961D02*
X31714285Y-16907200D01*
X31714285Y-16907200D02*
X31619047Y-16954819D01*
X31619047Y-16954819D02*
X31428571Y-16954819D01*
X32190476Y-15954819D02*
X32809523Y-15954819D01*
X32809523Y-15954819D02*
X32476190Y-16335771D01*
X32476190Y-16335771D02*
X32619047Y-16335771D01*
X32619047Y-16335771D02*
X32714285Y-16383390D01*
X32714285Y-16383390D02*
X32761904Y-16431009D01*
X32761904Y-16431009D02*
X32809523Y-16526247D01*
X32809523Y-16526247D02*
X32809523Y-16764342D01*
X32809523Y-16764342D02*
X32761904Y-16859580D01*
X32761904Y-16859580D02*
X32714285Y-16907200D01*
X32714285Y-16907200D02*
X32619047Y-16954819D01*
X32619047Y-16954819D02*
X32333333Y-16954819D01*
X32333333Y-16954819D02*
X32238095Y-16907200D01*
X32238095Y-16907200D02*
X32190476Y-16859580D01*
X10424819Y-21138094D02*
X9424819Y-21138094D01*
X9424819Y-21138094D02*
X9424819Y-20899999D01*
X9424819Y-20899999D02*
X9472438Y-20757142D01*
X9472438Y-20757142D02*
X9567676Y-20661904D01*
X9567676Y-20661904D02*
X9662914Y-20614285D01*
X9662914Y-20614285D02*
X9853390Y-20566666D01*
X9853390Y-20566666D02*
X9996247Y-20566666D01*
X9996247Y-20566666D02*
X10186723Y-20614285D01*
X10186723Y-20614285D02*
X10281961Y-20661904D01*
X10281961Y-20661904D02*
X10377200Y-20757142D01*
X10377200Y-20757142D02*
X10424819Y-20899999D01*
X10424819Y-20899999D02*
X10424819Y-21138094D01*
X9424819Y-20233332D02*
X9424819Y-19614285D01*
X9424819Y-19614285D02*
X9805771Y-19947618D01*
X9805771Y-19947618D02*
X9805771Y-19804761D01*
X9805771Y-19804761D02*
X9853390Y-19709523D01*
X9853390Y-19709523D02*
X9901009Y-19661904D01*
X9901009Y-19661904D02*
X9996247Y-19614285D01*
X9996247Y-19614285D02*
X10234342Y-19614285D01*
X10234342Y-19614285D02*
X10329580Y-19661904D01*
X10329580Y-19661904D02*
X10377200Y-19709523D01*
X10377200Y-19709523D02*
X10424819Y-19804761D01*
X10424819Y-19804761D02*
X10424819Y-20090475D01*
X10424819Y-20090475D02*
X10377200Y-20185713D01*
X10377200Y-20185713D02*
X10329580Y-20233332D01*
X26633333Y-27854819D02*
X26300000Y-27378628D01*
X26061905Y-27854819D02*
X26061905Y-26854819D01*
X26061905Y-26854819D02*
X26442857Y-26854819D01*
X26442857Y-26854819D02*
X26538095Y-26902438D01*
X26538095Y-26902438D02*
X26585714Y-26950057D01*
X26585714Y-26950057D02*
X26633333Y-27045295D01*
X26633333Y-27045295D02*
X26633333Y-27188152D01*
X26633333Y-27188152D02*
X26585714Y-27283390D01*
X26585714Y-27283390D02*
X26538095Y-27331009D01*
X26538095Y-27331009D02*
X26442857Y-27378628D01*
X26442857Y-27378628D02*
X26061905Y-27378628D01*
X27490476Y-27188152D02*
X27490476Y-27854819D01*
X27252381Y-26807200D02*
X27014286Y-27521485D01*
X27014286Y-27521485D02*
X27633333Y-27521485D01*
X18254819Y-8642857D02*
X17778628Y-8976190D01*
X18254819Y-9214285D02*
X17254819Y-9214285D01*
X17254819Y-9214285D02*
X17254819Y-8833333D01*
X17254819Y-8833333D02*
X17302438Y-8738095D01*
X17302438Y-8738095D02*
X17350057Y-8690476D01*
X17350057Y-8690476D02*
X17445295Y-8642857D01*
X17445295Y-8642857D02*
X17588152Y-8642857D01*
X17588152Y-8642857D02*
X17683390Y-8690476D01*
X17683390Y-8690476D02*
X17731009Y-8738095D01*
X17731009Y-8738095D02*
X17778628Y-8833333D01*
X17778628Y-8833333D02*
X17778628Y-9214285D01*
X18254819Y-7690476D02*
X18254819Y-8261904D01*
X18254819Y-7976190D02*
X17254819Y-7976190D01*
X17254819Y-7976190D02*
X17397676Y-8071428D01*
X17397676Y-8071428D02*
X17492914Y-8166666D01*
X17492914Y-8166666D02*
X17540533Y-8261904D01*
X17350057Y-7309523D02*
X17302438Y-7261904D01*
X17302438Y-7261904D02*
X17254819Y-7166666D01*
X17254819Y-7166666D02*
X17254819Y-6928571D01*
X17254819Y-6928571D02*
X17302438Y-6833333D01*
X17302438Y-6833333D02*
X17350057Y-6785714D01*
X17350057Y-6785714D02*
X17445295Y-6738095D01*
X17445295Y-6738095D02*
X17540533Y-6738095D01*
X17540533Y-6738095D02*
X17683390Y-6785714D01*
X17683390Y-6785714D02*
X18254819Y-7357142D01*
X18254819Y-7357142D02*
X18254819Y-6738095D01*
X18261905Y-22854819D02*
X18261905Y-21854819D01*
X18261905Y-21854819D02*
X18500000Y-21854819D01*
X18500000Y-21854819D02*
X18642857Y-21902438D01*
X18642857Y-21902438D02*
X18738095Y-21997676D01*
X18738095Y-21997676D02*
X18785714Y-22092914D01*
X18785714Y-22092914D02*
X18833333Y-22283390D01*
X18833333Y-22283390D02*
X18833333Y-22426247D01*
X18833333Y-22426247D02*
X18785714Y-22616723D01*
X18785714Y-22616723D02*
X18738095Y-22711961D01*
X18738095Y-22711961D02*
X18642857Y-22807200D01*
X18642857Y-22807200D02*
X18500000Y-22854819D01*
X18500000Y-22854819D02*
X18261905Y-22854819D01*
X19738095Y-21854819D02*
X19261905Y-21854819D01*
X19261905Y-21854819D02*
X19214286Y-22331009D01*
X19214286Y-22331009D02*
X19261905Y-22283390D01*
X19261905Y-22283390D02*
X19357143Y-22235771D01*
X19357143Y-22235771D02*
X19595238Y-22235771D01*
X19595238Y-22235771D02*
X19690476Y-22283390D01*
X19690476Y-22283390D02*
X19738095Y-22331009D01*
X19738095Y-22331009D02*
X19785714Y-22426247D01*
X19785714Y-22426247D02*
X19785714Y-22664342D01*
X19785714Y-22664342D02*
X19738095Y-22759580D01*
X19738095Y-22759580D02*
X19690476Y-22807200D01*
X19690476Y-22807200D02*
X19595238Y-22854819D01*
X19595238Y-22854819D02*
X19357143Y-22854819D01*
X19357143Y-22854819D02*
X19261905Y-22807200D01*
X19261905Y-22807200D02*
X19214286Y-22759580D01*
X16159580Y-22166666D02*
X16207200Y-22214285D01*
X16207200Y-22214285D02*
X16254819Y-22357142D01*
X16254819Y-22357142D02*
X16254819Y-22452380D01*
X16254819Y-22452380D02*
X16207200Y-22595237D01*
X16207200Y-22595237D02*
X16111961Y-22690475D01*
X16111961Y-22690475D02*
X16016723Y-22738094D01*
X16016723Y-22738094D02*
X15826247Y-22785713D01*
X15826247Y-22785713D02*
X15683390Y-22785713D01*
X15683390Y-22785713D02*
X15492914Y-22738094D01*
X15492914Y-22738094D02*
X15397676Y-22690475D01*
X15397676Y-22690475D02*
X15302438Y-22595237D01*
X15302438Y-22595237D02*
X15254819Y-22452380D01*
X15254819Y-22452380D02*
X15254819Y-22357142D01*
X15254819Y-22357142D02*
X15302438Y-22214285D01*
X15302438Y-22214285D02*
X15350057Y-22166666D01*
X15254819Y-21833332D02*
X15254819Y-21214285D01*
X15254819Y-21214285D02*
X15635771Y-21547618D01*
X15635771Y-21547618D02*
X15635771Y-21404761D01*
X15635771Y-21404761D02*
X15683390Y-21309523D01*
X15683390Y-21309523D02*
X15731009Y-21261904D01*
X15731009Y-21261904D02*
X15826247Y-21214285D01*
X15826247Y-21214285D02*
X16064342Y-21214285D01*
X16064342Y-21214285D02*
X16159580Y-21261904D01*
X16159580Y-21261904D02*
X16207200Y-21309523D01*
X16207200Y-21309523D02*
X16254819Y-21404761D01*
X16254819Y-21404761D02*
X16254819Y-21690475D01*
X16254819Y-21690475D02*
X16207200Y-21785713D01*
X16207200Y-21785713D02*
X16159580Y-21833332D01*
X32304761Y-27750057D02*
X32209523Y-27702438D01*
X32209523Y-27702438D02*
X32114285Y-27607200D01*
X32114285Y-27607200D02*
X31971428Y-27464342D01*
X31971428Y-27464342D02*
X31876190Y-27416723D01*
X31876190Y-27416723D02*
X31780952Y-27416723D01*
X31828571Y-27654819D02*
X31733333Y-27607200D01*
X31733333Y-27607200D02*
X31638095Y-27511961D01*
X31638095Y-27511961D02*
X31590476Y-27321485D01*
X31590476Y-27321485D02*
X31590476Y-26988152D01*
X31590476Y-26988152D02*
X31638095Y-26797676D01*
X31638095Y-26797676D02*
X31733333Y-26702438D01*
X31733333Y-26702438D02*
X31828571Y-26654819D01*
X31828571Y-26654819D02*
X32019047Y-26654819D01*
X32019047Y-26654819D02*
X32114285Y-26702438D01*
X32114285Y-26702438D02*
X32209523Y-26797676D01*
X32209523Y-26797676D02*
X32257142Y-26988152D01*
X32257142Y-26988152D02*
X32257142Y-27321485D01*
X32257142Y-27321485D02*
X32209523Y-27511961D01*
X32209523Y-27511961D02*
X32114285Y-27607200D01*
X32114285Y-27607200D02*
X32019047Y-27654819D01*
X32019047Y-27654819D02*
X31828571Y-27654819D01*
X32638095Y-26750057D02*
X32685714Y-26702438D01*
X32685714Y-26702438D02*
X32780952Y-26654819D01*
X32780952Y-26654819D02*
X33019047Y-26654819D01*
X33019047Y-26654819D02*
X33114285Y-26702438D01*
X33114285Y-26702438D02*
X33161904Y-26750057D01*
X33161904Y-26750057D02*
X33209523Y-26845295D01*
X33209523Y-26845295D02*
X33209523Y-26940533D01*
X33209523Y-26940533D02*
X33161904Y-27083390D01*
X33161904Y-27083390D02*
X32590476Y-27654819D01*
X32590476Y-27654819D02*
X33209523Y-27654819D01*
X14757142Y-25254819D02*
X14423809Y-24778628D01*
X14185714Y-25254819D02*
X14185714Y-24254819D01*
X14185714Y-24254819D02*
X14566666Y-24254819D01*
X14566666Y-24254819D02*
X14661904Y-24302438D01*
X14661904Y-24302438D02*
X14709523Y-24350057D01*
X14709523Y-24350057D02*
X14757142Y-24445295D01*
X14757142Y-24445295D02*
X14757142Y-24588152D01*
X14757142Y-24588152D02*
X14709523Y-24683390D01*
X14709523Y-24683390D02*
X14661904Y-24731009D01*
X14661904Y-24731009D02*
X14566666Y-24778628D01*
X14566666Y-24778628D02*
X14185714Y-24778628D01*
X15709523Y-25254819D02*
X15138095Y-25254819D01*
X15423809Y-25254819D02*
X15423809Y-24254819D01*
X15423809Y-24254819D02*
X15328571Y-24397676D01*
X15328571Y-24397676D02*
X15233333Y-24492914D01*
X15233333Y-24492914D02*
X15138095Y-24540533D01*
X16328571Y-24254819D02*
X16423809Y-24254819D01*
X16423809Y-24254819D02*
X16519047Y-24302438D01*
X16519047Y-24302438D02*
X16566666Y-24350057D01*
X16566666Y-24350057D02*
X16614285Y-24445295D01*
X16614285Y-24445295D02*
X16661904Y-24635771D01*
X16661904Y-24635771D02*
X16661904Y-24873866D01*
X16661904Y-24873866D02*
X16614285Y-25064342D01*
X16614285Y-25064342D02*
X16566666Y-25159580D01*
X16566666Y-25159580D02*
X16519047Y-25207200D01*
X16519047Y-25207200D02*
X16423809Y-25254819D01*
X16423809Y-25254819D02*
X16328571Y-25254819D01*
X16328571Y-25254819D02*
X16233333Y-25207200D01*
X16233333Y-25207200D02*
X16185714Y-25159580D01*
X16185714Y-25159580D02*
X16138095Y-25064342D01*
X16138095Y-25064342D02*
X16090476Y-24873866D01*
X16090476Y-24873866D02*
X16090476Y-24635771D01*
X16090476Y-24635771D02*
X16138095Y-24445295D01*
X16138095Y-24445295D02*
X16185714Y-24350057D01*
X16185714Y-24350057D02*
X16233333Y-24302438D01*
X16233333Y-24302438D02*
X16328571Y-24254819D01*
X25638095Y-7154819D02*
X25638095Y-7964342D01*
X25638095Y-7964342D02*
X25685714Y-8059580D01*
X25685714Y-8059580D02*
X25733333Y-8107200D01*
X25733333Y-8107200D02*
X25828571Y-8154819D01*
X25828571Y-8154819D02*
X26019047Y-8154819D01*
X26019047Y-8154819D02*
X26114285Y-8107200D01*
X26114285Y-8107200D02*
X26161904Y-8059580D01*
X26161904Y-8059580D02*
X26209523Y-7964342D01*
X26209523Y-7964342D02*
X26209523Y-7154819D01*
X27114285Y-7154819D02*
X26923809Y-7154819D01*
X26923809Y-7154819D02*
X26828571Y-7202438D01*
X26828571Y-7202438D02*
X26780952Y-7250057D01*
X26780952Y-7250057D02*
X26685714Y-7392914D01*
X26685714Y-7392914D02*
X26638095Y-7583390D01*
X26638095Y-7583390D02*
X26638095Y-7964342D01*
X26638095Y-7964342D02*
X26685714Y-8059580D01*
X26685714Y-8059580D02*
X26733333Y-8107200D01*
X26733333Y-8107200D02*
X26828571Y-8154819D01*
X26828571Y-8154819D02*
X27019047Y-8154819D01*
X27019047Y-8154819D02*
X27114285Y-8107200D01*
X27114285Y-8107200D02*
X27161904Y-8059580D01*
X27161904Y-8059580D02*
X27209523Y-7964342D01*
X27209523Y-7964342D02*
X27209523Y-7726247D01*
X27209523Y-7726247D02*
X27161904Y-7631009D01*
X27161904Y-7631009D02*
X27114285Y-7583390D01*
X27114285Y-7583390D02*
X27019047Y-7535771D01*
X27019047Y-7535771D02*
X26828571Y-7535771D01*
X26828571Y-7535771D02*
X26733333Y-7583390D01*
X26733333Y-7583390D02*
X26685714Y-7631009D01*
X26685714Y-7631009D02*
X26638095Y-7726247D01*
X26633333Y-26454819D02*
X26300000Y-25978628D01*
X26061905Y-26454819D02*
X26061905Y-25454819D01*
X26061905Y-25454819D02*
X26442857Y-25454819D01*
X26442857Y-25454819D02*
X26538095Y-25502438D01*
X26538095Y-25502438D02*
X26585714Y-25550057D01*
X26585714Y-25550057D02*
X26633333Y-25645295D01*
X26633333Y-25645295D02*
X26633333Y-25788152D01*
X26633333Y-25788152D02*
X26585714Y-25883390D01*
X26585714Y-25883390D02*
X26538095Y-25931009D01*
X26538095Y-25931009D02*
X26442857Y-25978628D01*
X26442857Y-25978628D02*
X26061905Y-25978628D01*
X27538095Y-25454819D02*
X27061905Y-25454819D01*
X27061905Y-25454819D02*
X27014286Y-25931009D01*
X27014286Y-25931009D02*
X27061905Y-25883390D01*
X27061905Y-25883390D02*
X27157143Y-25835771D01*
X27157143Y-25835771D02*
X27395238Y-25835771D01*
X27395238Y-25835771D02*
X27490476Y-25883390D01*
X27490476Y-25883390D02*
X27538095Y-25931009D01*
X27538095Y-25931009D02*
X27585714Y-26026247D01*
X27585714Y-26026247D02*
X27585714Y-26264342D01*
X27585714Y-26264342D02*
X27538095Y-26359580D01*
X27538095Y-26359580D02*
X27490476Y-26407200D01*
X27490476Y-26407200D02*
X27395238Y-26454819D01*
X27395238Y-26454819D02*
X27157143Y-26454819D01*
X27157143Y-26454819D02*
X27061905Y-26407200D01*
X27061905Y-26407200D02*
X27014286Y-26359580D01*
X21357142Y-3754819D02*
X21023809Y-3278628D01*
X20785714Y-3754819D02*
X20785714Y-2754819D01*
X20785714Y-2754819D02*
X21166666Y-2754819D01*
X21166666Y-2754819D02*
X21261904Y-2802438D01*
X21261904Y-2802438D02*
X21309523Y-2850057D01*
X21309523Y-2850057D02*
X21357142Y-2945295D01*
X21357142Y-2945295D02*
X21357142Y-3088152D01*
X21357142Y-3088152D02*
X21309523Y-3183390D01*
X21309523Y-3183390D02*
X21261904Y-3231009D01*
X21261904Y-3231009D02*
X21166666Y-3278628D01*
X21166666Y-3278628D02*
X20785714Y-3278628D01*
X22309523Y-3754819D02*
X21738095Y-3754819D01*
X22023809Y-3754819D02*
X22023809Y-2754819D01*
X22023809Y-2754819D02*
X21928571Y-2897676D01*
X21928571Y-2897676D02*
X21833333Y-2992914D01*
X21833333Y-2992914D02*
X21738095Y-3040533D01*
X23166666Y-2754819D02*
X22976190Y-2754819D01*
X22976190Y-2754819D02*
X22880952Y-2802438D01*
X22880952Y-2802438D02*
X22833333Y-2850057D01*
X22833333Y-2850057D02*
X22738095Y-2992914D01*
X22738095Y-2992914D02*
X22690476Y-3183390D01*
X22690476Y-3183390D02*
X22690476Y-3564342D01*
X22690476Y-3564342D02*
X22738095Y-3659580D01*
X22738095Y-3659580D02*
X22785714Y-3707200D01*
X22785714Y-3707200D02*
X22880952Y-3754819D01*
X22880952Y-3754819D02*
X23071428Y-3754819D01*
X23071428Y-3754819D02*
X23166666Y-3707200D01*
X23166666Y-3707200D02*
X23214285Y-3659580D01*
X23214285Y-3659580D02*
X23261904Y-3564342D01*
X23261904Y-3564342D02*
X23261904Y-3326247D01*
X23261904Y-3326247D02*
X23214285Y-3231009D01*
X23214285Y-3231009D02*
X23166666Y-3183390D01*
X23166666Y-3183390D02*
X23071428Y-3135771D01*
X23071428Y-3135771D02*
X22880952Y-3135771D01*
X22880952Y-3135771D02*
X22785714Y-3183390D01*
X22785714Y-3183390D02*
X22738095Y-3231009D01*
X22738095Y-3231009D02*
X22690476Y-3326247D01*
X32304761Y-19550057D02*
X32209523Y-19502438D01*
X32209523Y-19502438D02*
X32114285Y-19407200D01*
X32114285Y-19407200D02*
X31971428Y-19264342D01*
X31971428Y-19264342D02*
X31876190Y-19216723D01*
X31876190Y-19216723D02*
X31780952Y-19216723D01*
X31828571Y-19454819D02*
X31733333Y-19407200D01*
X31733333Y-19407200D02*
X31638095Y-19311961D01*
X31638095Y-19311961D02*
X31590476Y-19121485D01*
X31590476Y-19121485D02*
X31590476Y-18788152D01*
X31590476Y-18788152D02*
X31638095Y-18597676D01*
X31638095Y-18597676D02*
X31733333Y-18502438D01*
X31733333Y-18502438D02*
X31828571Y-18454819D01*
X31828571Y-18454819D02*
X32019047Y-18454819D01*
X32019047Y-18454819D02*
X32114285Y-18502438D01*
X32114285Y-18502438D02*
X32209523Y-18597676D01*
X32209523Y-18597676D02*
X32257142Y-18788152D01*
X32257142Y-18788152D02*
X32257142Y-19121485D01*
X32257142Y-19121485D02*
X32209523Y-19311961D01*
X32209523Y-19311961D02*
X32114285Y-19407200D01*
X32114285Y-19407200D02*
X32019047Y-19454819D01*
X32019047Y-19454819D02*
X31828571Y-19454819D01*
X33209523Y-19454819D02*
X32638095Y-19454819D01*
X32923809Y-19454819D02*
X32923809Y-18454819D01*
X32923809Y-18454819D02*
X32828571Y-18597676D01*
X32828571Y-18597676D02*
X32733333Y-18692914D01*
X32733333Y-18692914D02*
X32638095Y-18740533D01*
X25638095Y-10554819D02*
X25638095Y-11364342D01*
X25638095Y-11364342D02*
X25685714Y-11459580D01*
X25685714Y-11459580D02*
X25733333Y-11507200D01*
X25733333Y-11507200D02*
X25828571Y-11554819D01*
X25828571Y-11554819D02*
X26019047Y-11554819D01*
X26019047Y-11554819D02*
X26114285Y-11507200D01*
X26114285Y-11507200D02*
X26161904Y-11459580D01*
X26161904Y-11459580D02*
X26209523Y-11364342D01*
X26209523Y-11364342D02*
X26209523Y-10554819D01*
X27161904Y-10554819D02*
X26685714Y-10554819D01*
X26685714Y-10554819D02*
X26638095Y-11031009D01*
X26638095Y-11031009D02*
X26685714Y-10983390D01*
X26685714Y-10983390D02*
X26780952Y-10935771D01*
X26780952Y-10935771D02*
X27019047Y-10935771D01*
X27019047Y-10935771D02*
X27114285Y-10983390D01*
X27114285Y-10983390D02*
X27161904Y-11031009D01*
X27161904Y-11031009D02*
X27209523Y-11126247D01*
X27209523Y-11126247D02*
X27209523Y-11364342D01*
X27209523Y-11364342D02*
X27161904Y-11459580D01*
X27161904Y-11459580D02*
X27114285Y-11507200D01*
X27114285Y-11507200D02*
X27019047Y-11554819D01*
X27019047Y-11554819D02*
X26780952Y-11554819D01*
X26780952Y-11554819D02*
X26685714Y-11507200D01*
X26685714Y-11507200D02*
X26638095Y-11459580D01*
X29833333Y-2259580D02*
X29785714Y-2307200D01*
X29785714Y-2307200D02*
X29642857Y-2354819D01*
X29642857Y-2354819D02*
X29547619Y-2354819D01*
X29547619Y-2354819D02*
X29404762Y-2307200D01*
X29404762Y-2307200D02*
X29309524Y-2211961D01*
X29309524Y-2211961D02*
X29261905Y-2116723D01*
X29261905Y-2116723D02*
X29214286Y-1926247D01*
X29214286Y-1926247D02*
X29214286Y-1783390D01*
X29214286Y-1783390D02*
X29261905Y-1592914D01*
X29261905Y-1592914D02*
X29309524Y-1497676D01*
X29309524Y-1497676D02*
X29404762Y-1402438D01*
X29404762Y-1402438D02*
X29547619Y-1354819D01*
X29547619Y-1354819D02*
X29642857Y-1354819D01*
X29642857Y-1354819D02*
X29785714Y-1402438D01*
X29785714Y-1402438D02*
X29833333Y-1450057D01*
X30690476Y-1354819D02*
X30500000Y-1354819D01*
X30500000Y-1354819D02*
X30404762Y-1402438D01*
X30404762Y-1402438D02*
X30357143Y-1450057D01*
X30357143Y-1450057D02*
X30261905Y-1592914D01*
X30261905Y-1592914D02*
X30214286Y-1783390D01*
X30214286Y-1783390D02*
X30214286Y-2164342D01*
X30214286Y-2164342D02*
X30261905Y-2259580D01*
X30261905Y-2259580D02*
X30309524Y-2307200D01*
X30309524Y-2307200D02*
X30404762Y-2354819D01*
X30404762Y-2354819D02*
X30595238Y-2354819D01*
X30595238Y-2354819D02*
X30690476Y-2307200D01*
X30690476Y-2307200D02*
X30738095Y-2259580D01*
X30738095Y-2259580D02*
X30785714Y-2164342D01*
X30785714Y-2164342D02*
X30785714Y-1926247D01*
X30785714Y-1926247D02*
X30738095Y-1831009D01*
X30738095Y-1831009D02*
X30690476Y-1783390D01*
X30690476Y-1783390D02*
X30595238Y-1735771D01*
X30595238Y-1735771D02*
X30404762Y-1735771D01*
X30404762Y-1735771D02*
X30309524Y-1783390D01*
X30309524Y-1783390D02*
X30261905Y-1831009D01*
X30261905Y-1831009D02*
X30214286Y-1926247D01*
X37758333Y-15699580D02*
X37710714Y-15747200D01*
X37710714Y-15747200D02*
X37567857Y-15794819D01*
X37567857Y-15794819D02*
X37472619Y-15794819D01*
X37472619Y-15794819D02*
X37329762Y-15747200D01*
X37329762Y-15747200D02*
X37234524Y-15651961D01*
X37234524Y-15651961D02*
X37186905Y-15556723D01*
X37186905Y-15556723D02*
X37139286Y-15366247D01*
X37139286Y-15366247D02*
X37139286Y-15223390D01*
X37139286Y-15223390D02*
X37186905Y-15032914D01*
X37186905Y-15032914D02*
X37234524Y-14937676D01*
X37234524Y-14937676D02*
X37329762Y-14842438D01*
X37329762Y-14842438D02*
X37472619Y-14794819D01*
X37472619Y-14794819D02*
X37567857Y-14794819D01*
X37567857Y-14794819D02*
X37710714Y-14842438D01*
X37710714Y-14842438D02*
X37758333Y-14890057D01*
X38234524Y-15794819D02*
X38425000Y-15794819D01*
X38425000Y-15794819D02*
X38520238Y-15747200D01*
X38520238Y-15747200D02*
X38567857Y-15699580D01*
X38567857Y-15699580D02*
X38663095Y-15556723D01*
X38663095Y-15556723D02*
X38710714Y-15366247D01*
X38710714Y-15366247D02*
X38710714Y-14985295D01*
X38710714Y-14985295D02*
X38663095Y-14890057D01*
X38663095Y-14890057D02*
X38615476Y-14842438D01*
X38615476Y-14842438D02*
X38520238Y-14794819D01*
X38520238Y-14794819D02*
X38329762Y-14794819D01*
X38329762Y-14794819D02*
X38234524Y-14842438D01*
X38234524Y-14842438D02*
X38186905Y-14890057D01*
X38186905Y-14890057D02*
X38139286Y-14985295D01*
X38139286Y-14985295D02*
X38139286Y-15223390D01*
X38139286Y-15223390D02*
X38186905Y-15318628D01*
X38186905Y-15318628D02*
X38234524Y-15366247D01*
X38234524Y-15366247D02*
X38329762Y-15413866D01*
X38329762Y-15413866D02*
X38520238Y-15413866D01*
X38520238Y-15413866D02*
X38615476Y-15366247D01*
X38615476Y-15366247D02*
X38663095Y-15318628D01*
X38663095Y-15318628D02*
X38710714Y-15223390D01*
X15454819Y-8642857D02*
X14978628Y-8976190D01*
X15454819Y-9214285D02*
X14454819Y-9214285D01*
X14454819Y-9214285D02*
X14454819Y-8833333D01*
X14454819Y-8833333D02*
X14502438Y-8738095D01*
X14502438Y-8738095D02*
X14550057Y-8690476D01*
X14550057Y-8690476D02*
X14645295Y-8642857D01*
X14645295Y-8642857D02*
X14788152Y-8642857D01*
X14788152Y-8642857D02*
X14883390Y-8690476D01*
X14883390Y-8690476D02*
X14931009Y-8738095D01*
X14931009Y-8738095D02*
X14978628Y-8833333D01*
X14978628Y-8833333D02*
X14978628Y-9214285D01*
X15454819Y-7690476D02*
X15454819Y-8261904D01*
X15454819Y-7976190D02*
X14454819Y-7976190D01*
X14454819Y-7976190D02*
X14597676Y-8071428D01*
X14597676Y-8071428D02*
X14692914Y-8166666D01*
X14692914Y-8166666D02*
X14740533Y-8261904D01*
X14454819Y-7357142D02*
X14454819Y-6738095D01*
X14454819Y-6738095D02*
X14835771Y-7071428D01*
X14835771Y-7071428D02*
X14835771Y-6928571D01*
X14835771Y-6928571D02*
X14883390Y-6833333D01*
X14883390Y-6833333D02*
X14931009Y-6785714D01*
X14931009Y-6785714D02*
X15026247Y-6738095D01*
X15026247Y-6738095D02*
X15264342Y-6738095D01*
X15264342Y-6738095D02*
X15359580Y-6785714D01*
X15359580Y-6785714D02*
X15407200Y-6833333D01*
X15407200Y-6833333D02*
X15454819Y-6928571D01*
X15454819Y-6928571D02*
X15454819Y-7214285D01*
X15454819Y-7214285D02*
X15407200Y-7309523D01*
X15407200Y-7309523D02*
X15359580Y-7357142D01*
X11433333Y-3454819D02*
X11100000Y-2978628D01*
X10861905Y-3454819D02*
X10861905Y-2454819D01*
X10861905Y-2454819D02*
X11242857Y-2454819D01*
X11242857Y-2454819D02*
X11338095Y-2502438D01*
X11338095Y-2502438D02*
X11385714Y-2550057D01*
X11385714Y-2550057D02*
X11433333Y-2645295D01*
X11433333Y-2645295D02*
X11433333Y-2788152D01*
X11433333Y-2788152D02*
X11385714Y-2883390D01*
X11385714Y-2883390D02*
X11338095Y-2931009D01*
X11338095Y-2931009D02*
X11242857Y-2978628D01*
X11242857Y-2978628D02*
X10861905Y-2978628D01*
X12385714Y-3454819D02*
X11814286Y-3454819D01*
X12100000Y-3454819D02*
X12100000Y-2454819D01*
X12100000Y-2454819D02*
X12004762Y-2597676D01*
X12004762Y-2597676D02*
X11909524Y-2692914D01*
X11909524Y-2692914D02*
X11814286Y-2740533D01*
X37661905Y-18254819D02*
X37661905Y-17254819D01*
X37661905Y-17254819D02*
X37900000Y-17254819D01*
X37900000Y-17254819D02*
X38042857Y-17302438D01*
X38042857Y-17302438D02*
X38138095Y-17397676D01*
X38138095Y-17397676D02*
X38185714Y-17492914D01*
X38185714Y-17492914D02*
X38233333Y-17683390D01*
X38233333Y-17683390D02*
X38233333Y-17826247D01*
X38233333Y-17826247D02*
X38185714Y-18016723D01*
X38185714Y-18016723D02*
X38138095Y-18111961D01*
X38138095Y-18111961D02*
X38042857Y-18207200D01*
X38042857Y-18207200D02*
X37900000Y-18254819D01*
X37900000Y-18254819D02*
X37661905Y-18254819D01*
X39090476Y-17588152D02*
X39090476Y-18254819D01*
X38852381Y-17207200D02*
X38614286Y-17921485D01*
X38614286Y-17921485D02*
X39233333Y-17921485D01*
X10861905Y-4854819D02*
X10861905Y-3854819D01*
X10861905Y-3854819D02*
X11100000Y-3854819D01*
X11100000Y-3854819D02*
X11242857Y-3902438D01*
X11242857Y-3902438D02*
X11338095Y-3997676D01*
X11338095Y-3997676D02*
X11385714Y-4092914D01*
X11385714Y-4092914D02*
X11433333Y-4283390D01*
X11433333Y-4283390D02*
X11433333Y-4426247D01*
X11433333Y-4426247D02*
X11385714Y-4616723D01*
X11385714Y-4616723D02*
X11338095Y-4711961D01*
X11338095Y-4711961D02*
X11242857Y-4807200D01*
X11242857Y-4807200D02*
X11100000Y-4854819D01*
X11100000Y-4854819D02*
X10861905Y-4854819D01*
X12385714Y-4854819D02*
X11814286Y-4854819D01*
X12100000Y-4854819D02*
X12100000Y-3854819D01*
X12100000Y-3854819D02*
X12004762Y-3997676D01*
X12004762Y-3997676D02*
X11909524Y-4092914D01*
X11909524Y-4092914D02*
X11814286Y-4140533D01*
X29033333Y-26654819D02*
X28700000Y-26178628D01*
X28461905Y-26654819D02*
X28461905Y-25654819D01*
X28461905Y-25654819D02*
X28842857Y-25654819D01*
X28842857Y-25654819D02*
X28938095Y-25702438D01*
X28938095Y-25702438D02*
X28985714Y-25750057D01*
X28985714Y-25750057D02*
X29033333Y-25845295D01*
X29033333Y-25845295D02*
X29033333Y-25988152D01*
X29033333Y-25988152D02*
X28985714Y-26083390D01*
X28985714Y-26083390D02*
X28938095Y-26131009D01*
X28938095Y-26131009D02*
X28842857Y-26178628D01*
X28842857Y-26178628D02*
X28461905Y-26178628D01*
X29604762Y-26083390D02*
X29509524Y-26035771D01*
X29509524Y-26035771D02*
X29461905Y-25988152D01*
X29461905Y-25988152D02*
X29414286Y-25892914D01*
X29414286Y-25892914D02*
X29414286Y-25845295D01*
X29414286Y-25845295D02*
X29461905Y-25750057D01*
X29461905Y-25750057D02*
X29509524Y-25702438D01*
X29509524Y-25702438D02*
X29604762Y-25654819D01*
X29604762Y-25654819D02*
X29795238Y-25654819D01*
X29795238Y-25654819D02*
X29890476Y-25702438D01*
X29890476Y-25702438D02*
X29938095Y-25750057D01*
X29938095Y-25750057D02*
X29985714Y-25845295D01*
X29985714Y-25845295D02*
X29985714Y-25892914D01*
X29985714Y-25892914D02*
X29938095Y-25988152D01*
X29938095Y-25988152D02*
X29890476Y-26035771D01*
X29890476Y-26035771D02*
X29795238Y-26083390D01*
X29795238Y-26083390D02*
X29604762Y-26083390D01*
X29604762Y-26083390D02*
X29509524Y-26131009D01*
X29509524Y-26131009D02*
X29461905Y-26178628D01*
X29461905Y-26178628D02*
X29414286Y-26273866D01*
X29414286Y-26273866D02*
X29414286Y-26464342D01*
X29414286Y-26464342D02*
X29461905Y-26559580D01*
X29461905Y-26559580D02*
X29509524Y-26607200D01*
X29509524Y-26607200D02*
X29604762Y-26654819D01*
X29604762Y-26654819D02*
X29795238Y-26654819D01*
X29795238Y-26654819D02*
X29890476Y-26607200D01*
X29890476Y-26607200D02*
X29938095Y-26559580D01*
X29938095Y-26559580D02*
X29985714Y-26464342D01*
X29985714Y-26464342D02*
X29985714Y-26273866D01*
X29985714Y-26273866D02*
X29938095Y-26178628D01*
X29938095Y-26178628D02*
X29890476Y-26131009D01*
X29890476Y-26131009D02*
X29795238Y-26083390D01*
X33107142Y-9704819D02*
X32773809Y-9228628D01*
X32535714Y-9704819D02*
X32535714Y-8704819D01*
X32535714Y-8704819D02*
X32916666Y-8704819D01*
X32916666Y-8704819D02*
X33011904Y-8752438D01*
X33011904Y-8752438D02*
X33059523Y-8800057D01*
X33059523Y-8800057D02*
X33107142Y-8895295D01*
X33107142Y-8895295D02*
X33107142Y-9038152D01*
X33107142Y-9038152D02*
X33059523Y-9133390D01*
X33059523Y-9133390D02*
X33011904Y-9181009D01*
X33011904Y-9181009D02*
X32916666Y-9228628D01*
X32916666Y-9228628D02*
X32535714Y-9228628D01*
X33488095Y-8800057D02*
X33535714Y-8752438D01*
X33535714Y-8752438D02*
X33630952Y-8704819D01*
X33630952Y-8704819D02*
X33869047Y-8704819D01*
X33869047Y-8704819D02*
X33964285Y-8752438D01*
X33964285Y-8752438D02*
X34011904Y-8800057D01*
X34011904Y-8800057D02*
X34059523Y-8895295D01*
X34059523Y-8895295D02*
X34059523Y-8990533D01*
X34059523Y-8990533D02*
X34011904Y-9133390D01*
X34011904Y-9133390D02*
X33440476Y-9704819D01*
X33440476Y-9704819D02*
X34059523Y-9704819D01*
X34964285Y-8704819D02*
X34488095Y-8704819D01*
X34488095Y-8704819D02*
X34440476Y-9181009D01*
X34440476Y-9181009D02*
X34488095Y-9133390D01*
X34488095Y-9133390D02*
X34583333Y-9085771D01*
X34583333Y-9085771D02*
X34821428Y-9085771D01*
X34821428Y-9085771D02*
X34916666Y-9133390D01*
X34916666Y-9133390D02*
X34964285Y-9181009D01*
X34964285Y-9181009D02*
X35011904Y-9276247D01*
X35011904Y-9276247D02*
X35011904Y-9514342D01*
X35011904Y-9514342D02*
X34964285Y-9609580D01*
X34964285Y-9609580D02*
X34916666Y-9657200D01*
X34916666Y-9657200D02*
X34821428Y-9704819D01*
X34821428Y-9704819D02*
X34583333Y-9704819D01*
X34583333Y-9704819D02*
X34488095Y-9657200D01*
X34488095Y-9657200D02*
X34440476Y-9609580D01*
X9854819Y-11966666D02*
X9854819Y-12442856D01*
X9854819Y-12442856D02*
X8854819Y-12442856D01*
X9854819Y-11109523D02*
X9854819Y-11680951D01*
X9854819Y-11395237D02*
X8854819Y-11395237D01*
X8854819Y-11395237D02*
X8997676Y-11490475D01*
X8997676Y-11490475D02*
X9092914Y-11585713D01*
X9092914Y-11585713D02*
X9140533Y-11680951D01*
X41861905Y-21654819D02*
X41861905Y-20654819D01*
X41861905Y-20654819D02*
X42100000Y-20654819D01*
X42100000Y-20654819D02*
X42242857Y-20702438D01*
X42242857Y-20702438D02*
X42338095Y-20797676D01*
X42338095Y-20797676D02*
X42385714Y-20892914D01*
X42385714Y-20892914D02*
X42433333Y-21083390D01*
X42433333Y-21083390D02*
X42433333Y-21226247D01*
X42433333Y-21226247D02*
X42385714Y-21416723D01*
X42385714Y-21416723D02*
X42338095Y-21511961D01*
X42338095Y-21511961D02*
X42242857Y-21607200D01*
X42242857Y-21607200D02*
X42100000Y-21654819D01*
X42100000Y-21654819D02*
X41861905Y-21654819D01*
X43290476Y-20654819D02*
X43100000Y-20654819D01*
X43100000Y-20654819D02*
X43004762Y-20702438D01*
X43004762Y-20702438D02*
X42957143Y-20750057D01*
X42957143Y-20750057D02*
X42861905Y-20892914D01*
X42861905Y-20892914D02*
X42814286Y-21083390D01*
X42814286Y-21083390D02*
X42814286Y-21464342D01*
X42814286Y-21464342D02*
X42861905Y-21559580D01*
X42861905Y-21559580D02*
X42909524Y-21607200D01*
X42909524Y-21607200D02*
X43004762Y-21654819D01*
X43004762Y-21654819D02*
X43195238Y-21654819D01*
X43195238Y-21654819D02*
X43290476Y-21607200D01*
X43290476Y-21607200D02*
X43338095Y-21559580D01*
X43338095Y-21559580D02*
X43385714Y-21464342D01*
X43385714Y-21464342D02*
X43385714Y-21226247D01*
X43385714Y-21226247D02*
X43338095Y-21131009D01*
X43338095Y-21131009D02*
X43290476Y-21083390D01*
X43290476Y-21083390D02*
X43195238Y-21035771D01*
X43195238Y-21035771D02*
X43004762Y-21035771D01*
X43004762Y-21035771D02*
X42909524Y-21083390D01*
X42909524Y-21083390D02*
X42861905Y-21131009D01*
X42861905Y-21131009D02*
X42814286Y-21226247D01*
X17654819Y-22166666D02*
X17178628Y-22499999D01*
X17654819Y-22738094D02*
X16654819Y-22738094D01*
X16654819Y-22738094D02*
X16654819Y-22357142D01*
X16654819Y-22357142D02*
X16702438Y-22261904D01*
X16702438Y-22261904D02*
X16750057Y-22214285D01*
X16750057Y-22214285D02*
X16845295Y-22166666D01*
X16845295Y-22166666D02*
X16988152Y-22166666D01*
X16988152Y-22166666D02*
X17083390Y-22214285D01*
X17083390Y-22214285D02*
X17131009Y-22261904D01*
X17131009Y-22261904D02*
X17178628Y-22357142D01*
X17178628Y-22357142D02*
X17178628Y-22738094D01*
X16654819Y-21309523D02*
X16654819Y-21499999D01*
X16654819Y-21499999D02*
X16702438Y-21595237D01*
X16702438Y-21595237D02*
X16750057Y-21642856D01*
X16750057Y-21642856D02*
X16892914Y-21738094D01*
X16892914Y-21738094D02*
X17083390Y-21785713D01*
X17083390Y-21785713D02*
X17464342Y-21785713D01*
X17464342Y-21785713D02*
X17559580Y-21738094D01*
X17559580Y-21738094D02*
X17607200Y-21690475D01*
X17607200Y-21690475D02*
X17654819Y-21595237D01*
X17654819Y-21595237D02*
X17654819Y-21404761D01*
X17654819Y-21404761D02*
X17607200Y-21309523D01*
X17607200Y-21309523D02*
X17559580Y-21261904D01*
X17559580Y-21261904D02*
X17464342Y-21214285D01*
X17464342Y-21214285D02*
X17226247Y-21214285D01*
X17226247Y-21214285D02*
X17131009Y-21261904D01*
X17131009Y-21261904D02*
X17083390Y-21309523D01*
X17083390Y-21309523D02*
X17035771Y-21404761D01*
X17035771Y-21404761D02*
X17035771Y-21595237D01*
X17035771Y-21595237D02*
X17083390Y-21690475D01*
X17083390Y-21690475D02*
X17131009Y-21738094D01*
X17131009Y-21738094D02*
X17226247Y-21785713D01*
X21357142Y-2554819D02*
X21023809Y-2078628D01*
X20785714Y-2554819D02*
X20785714Y-1554819D01*
X20785714Y-1554819D02*
X21166666Y-1554819D01*
X21166666Y-1554819D02*
X21261904Y-1602438D01*
X21261904Y-1602438D02*
X21309523Y-1650057D01*
X21309523Y-1650057D02*
X21357142Y-1745295D01*
X21357142Y-1745295D02*
X21357142Y-1888152D01*
X21357142Y-1888152D02*
X21309523Y-1983390D01*
X21309523Y-1983390D02*
X21261904Y-2031009D01*
X21261904Y-2031009D02*
X21166666Y-2078628D01*
X21166666Y-2078628D02*
X20785714Y-2078628D01*
X22309523Y-2554819D02*
X21738095Y-2554819D01*
X22023809Y-2554819D02*
X22023809Y-1554819D01*
X22023809Y-1554819D02*
X21928571Y-1697676D01*
X21928571Y-1697676D02*
X21833333Y-1792914D01*
X21833333Y-1792914D02*
X21738095Y-1840533D01*
X22880952Y-1983390D02*
X22785714Y-1935771D01*
X22785714Y-1935771D02*
X22738095Y-1888152D01*
X22738095Y-1888152D02*
X22690476Y-1792914D01*
X22690476Y-1792914D02*
X22690476Y-1745295D01*
X22690476Y-1745295D02*
X22738095Y-1650057D01*
X22738095Y-1650057D02*
X22785714Y-1602438D01*
X22785714Y-1602438D02*
X22880952Y-1554819D01*
X22880952Y-1554819D02*
X23071428Y-1554819D01*
X23071428Y-1554819D02*
X23166666Y-1602438D01*
X23166666Y-1602438D02*
X23214285Y-1650057D01*
X23214285Y-1650057D02*
X23261904Y-1745295D01*
X23261904Y-1745295D02*
X23261904Y-1792914D01*
X23261904Y-1792914D02*
X23214285Y-1888152D01*
X23214285Y-1888152D02*
X23166666Y-1935771D01*
X23166666Y-1935771D02*
X23071428Y-1983390D01*
X23071428Y-1983390D02*
X22880952Y-1983390D01*
X22880952Y-1983390D02*
X22785714Y-2031009D01*
X22785714Y-2031009D02*
X22738095Y-2078628D01*
X22738095Y-2078628D02*
X22690476Y-2173866D01*
X22690476Y-2173866D02*
X22690476Y-2364342D01*
X22690476Y-2364342D02*
X22738095Y-2459580D01*
X22738095Y-2459580D02*
X22785714Y-2507200D01*
X22785714Y-2507200D02*
X22880952Y-2554819D01*
X22880952Y-2554819D02*
X23071428Y-2554819D01*
X23071428Y-2554819D02*
X23166666Y-2507200D01*
X23166666Y-2507200D02*
X23214285Y-2459580D01*
X23214285Y-2459580D02*
X23261904Y-2364342D01*
X23261904Y-2364342D02*
X23261904Y-2173866D01*
X23261904Y-2173866D02*
X23214285Y-2078628D01*
X23214285Y-2078628D02*
X23166666Y-2031009D01*
X23166666Y-2031009D02*
X23071428Y-1983390D01*
X8238095Y-3454819D02*
X8238095Y-2454819D01*
X8238095Y-2931009D02*
X8809523Y-2931009D01*
X8809523Y-3454819D02*
X8809523Y-2454819D01*
X9809523Y-3454819D02*
X9238095Y-3454819D01*
X9523809Y-3454819D02*
X9523809Y-2454819D01*
X9523809Y-2454819D02*
X9428571Y-2597676D01*
X9428571Y-2597676D02*
X9333333Y-2692914D01*
X9333333Y-2692914D02*
X9238095Y-2740533D01*
D12*
%TO.C,J1*%
X4900000Y-10300000D02*
X2900000Y-10300000D01*
X1000000Y-10300000D02*
X-900000Y-10300000D01*
X-900000Y-10300000D02*
X-900000Y-19700000D01*
X4900000Y-19700000D02*
X2900000Y-19700000D01*
X1000000Y-19700000D02*
X-900000Y-19700000D01*
%TO.C,R2*%
X10677500Y-9437258D02*
X10677500Y-8962742D01*
X11722500Y-9437258D02*
X11722500Y-8962742D01*
%TO.C,R26*%
X33846359Y-5120000D02*
X34153641Y-5120000D01*
X33846359Y-5880000D02*
X34153641Y-5880000D01*
%TO.C,U4*%
X25900000Y-3435000D02*
X26900000Y-3435000D01*
X26400000Y-1765000D02*
X26900000Y-1765000D01*
%TO.C,U1*%
X21400000Y-24690000D02*
X17400000Y-24690000D01*
X19400000Y-28910000D02*
X17400000Y-28910000D01*
D13*
%TO.C,D7*%
X40250000Y-25800000D02*
X40250000Y-25400000D01*
X40250000Y-25800000D02*
X39850000Y-25800000D01*
X40250000Y-23000000D02*
X40250000Y-23400000D01*
X40250000Y-23000000D02*
X39850000Y-23000000D01*
X39440180Y-25799540D02*
X39440180Y-25334720D01*
X39440180Y-25334720D02*
X39363980Y-25334720D01*
X39440180Y-23457660D02*
X39363980Y-23457660D01*
X39440180Y-22997920D02*
X39440180Y-23457660D01*
X39363980Y-25799540D02*
X39440180Y-25799540D01*
X39363980Y-25334720D02*
X39363980Y-25799540D01*
X39363980Y-23457660D02*
X39363980Y-22997920D01*
X39363980Y-22997920D02*
X39440180Y-22997920D01*
X35750000Y-25800000D02*
X36150000Y-25800000D01*
X35750000Y-25800000D02*
X35750000Y-25400000D01*
X35750000Y-23000000D02*
X36150000Y-23000000D01*
X35750000Y-23000000D02*
X35750000Y-23400000D01*
D12*
%TO.C,C2*%
X24307836Y-28360000D02*
X24092164Y-28360000D01*
X24307836Y-27640000D02*
X24092164Y-27640000D01*
%TO.C,R21*%
X28046359Y-6320000D02*
X28353641Y-6320000D01*
X28046359Y-7080000D02*
X28353641Y-7080000D01*
%TO.C,SW1*%
X24700000Y-21900000D02*
X24100000Y-21900000D01*
X24100000Y-21900000D02*
X24100000Y-22100000D01*
X24100000Y-22100000D02*
X24700000Y-22100000D01*
X24700000Y-22100000D02*
X24700000Y-21900000D01*
X26450000Y-22250000D02*
X23950000Y-22250000D01*
X23950000Y-22250000D02*
X23950000Y-21750000D01*
X23950000Y-21750000D02*
X26450000Y-21750000D01*
X26450000Y-21750000D02*
X26450000Y-22250000D01*
X26450000Y-23750000D02*
X23950000Y-23750000D01*
X23950000Y-23750000D02*
X23950000Y-24250000D01*
X23950000Y-24250000D02*
X26450000Y-24250000D01*
X26450000Y-24250000D02*
X26450000Y-23750000D01*
X24700000Y-23900000D02*
X24100000Y-23900000D01*
X24100000Y-23900000D02*
X24100000Y-24100000D01*
X24100000Y-24100000D02*
X24700000Y-24100000D01*
X24700000Y-24100000D02*
X24700000Y-23900000D01*
%TO.C,R9*%
X40753641Y-19380000D02*
X40446359Y-19380000D01*
X40753641Y-18620000D02*
X40446359Y-18620000D01*
%TO.C,C1*%
X15692164Y-26840000D02*
X15907836Y-26840000D01*
X15692164Y-27560000D02*
X15907836Y-27560000D01*
%TO.C,C8*%
X24707836Y-10260000D02*
X24492164Y-10260000D01*
X24707836Y-9540000D02*
X24492164Y-9540000D01*
%TO.C,R15*%
X24446359Y-8520000D02*
X24753641Y-8520000D01*
X24446359Y-9280000D02*
X24753641Y-9280000D01*
D13*
%TO.C,D8*%
X37560000Y-26600000D02*
G75*
G03*
X37460000Y-26600000I-50000J0D01*
G01*
X37460000Y-26600000D02*
G75*
G03*
X37560000Y-26600000I50000J0D01*
G01*
D12*
%TO.C,R14*%
X40753641Y-26980000D02*
X40446359Y-26980000D01*
X40753641Y-26220000D02*
X40446359Y-26220000D01*
D13*
%TO.C,D9*%
X37140000Y-5500000D02*
G75*
G03*
X37040000Y-5500000I-50000J0D01*
G01*
X37040000Y-5500000D02*
G75*
G03*
X37140000Y-5500000I50000J0D01*
G01*
D12*
%TO.C,C4*%
X14360000Y-19092164D02*
X14360000Y-19307836D01*
X13640000Y-19092164D02*
X13640000Y-19307836D01*
D13*
%TO.C,D2*%
X8850000Y-23490000D02*
G75*
G03*
X8750000Y-23490000I-50000J0D01*
G01*
X8750000Y-23490000D02*
G75*
G03*
X8850000Y-23490000I50000J0D01*
G01*
D12*
%TO.C,R27*%
X33846359Y-10120000D02*
X34153641Y-10120000D01*
X33846359Y-10880000D02*
X34153641Y-10880000D01*
%TO.C,U2*%
X14390000Y-17610000D02*
X14390000Y-16885000D01*
X15115000Y-12390000D02*
X14390000Y-12390000D01*
X15115000Y-17610000D02*
X14390000Y-17610000D01*
X18885000Y-12390000D02*
X19610000Y-12390000D01*
X18885000Y-17610000D02*
X19610000Y-17610000D01*
X19610000Y-12390000D02*
X19610000Y-13115000D01*
X19610000Y-17610000D02*
X19610000Y-16885000D01*
%TO.C,R24*%
X43370000Y-22728641D02*
X43370000Y-22421359D01*
X44130000Y-22728641D02*
X44130000Y-22421359D01*
%TO.C,R11*%
X16020000Y-10753641D02*
X16020000Y-10446359D01*
X16780000Y-10753641D02*
X16780000Y-10446359D01*
%TO.C,R19*%
X24753641Y-12680000D02*
X24446359Y-12680000D01*
X24753641Y-11920000D02*
X24446359Y-11920000D01*
%TO.C,R20*%
X28046359Y-9520000D02*
X28353641Y-9520000D01*
X28046359Y-10280000D02*
X28353641Y-10280000D01*
%TO.C,R17*%
X24753641Y-5880000D02*
X24446359Y-5880000D01*
X24753641Y-5120000D02*
X24446359Y-5120000D01*
%TO.C,C5*%
X28092164Y-5140000D02*
X28307836Y-5140000D01*
X28092164Y-5860000D02*
X28307836Y-5860000D01*
%TO.C,R3*%
X12277500Y-9437258D02*
X12277500Y-8962742D01*
X13322500Y-9437258D02*
X13322500Y-8962742D01*
%TO.C,U3*%
X25900000Y-6835000D02*
X26900000Y-6835000D01*
X26400000Y-5165000D02*
X26900000Y-5165000D01*
%TO.C,R7*%
X29046359Y-20820000D02*
X29353641Y-20820000D01*
X29046359Y-21580000D02*
X29353641Y-21580000D01*
%TO.C,J2*%
X53605000Y-21405000D02*
X52275000Y-21405000D01*
X53605000Y-20075000D02*
X53605000Y-21405000D01*
X53605000Y-18805000D02*
X53605000Y-8585000D01*
X53605000Y-18805000D02*
X51005000Y-18805000D01*
X53605000Y-8585000D02*
X48405000Y-8585000D01*
X51005000Y-21405000D02*
X48405000Y-21405000D01*
X51005000Y-18805000D02*
X51005000Y-21405000D01*
X48405000Y-21405000D02*
X48405000Y-8585000D01*
%TO.C,Q4*%
X35000000Y-12440000D02*
X33325000Y-12440000D01*
X35000000Y-12440000D02*
X35650000Y-12440000D01*
X35000000Y-15560000D02*
X34350000Y-15560000D01*
X35000000Y-15560000D02*
X35650000Y-15560000D01*
%TO.C,R22*%
X28046359Y-2720000D02*
X28353641Y-2720000D01*
X28046359Y-3480000D02*
X28353641Y-3480000D01*
D13*
%TO.C,D10*%
X37140000Y-10500000D02*
G75*
G03*
X37040000Y-10500000I-50000J0D01*
G01*
X37040000Y-10500000D02*
G75*
G03*
X37140000Y-10500000I50000J0D01*
G01*
D12*
%TO.C,C7*%
X28092164Y-11940000D02*
X28307836Y-11940000D01*
X28092164Y-12660000D02*
X28307836Y-12660000D01*
%TO.C,R23*%
X28046359Y-12920000D02*
X28353641Y-12920000D01*
X28046359Y-13680000D02*
X28353641Y-13680000D01*
%TO.C,Q3*%
X35000000Y-15940000D02*
X33325000Y-15940000D01*
X35000000Y-15940000D02*
X35650000Y-15940000D01*
X35000000Y-19060000D02*
X34350000Y-19060000D01*
X35000000Y-19060000D02*
X35650000Y-19060000D01*
D13*
%TO.C,D3*%
X8850000Y-19310000D02*
G75*
G03*
X8750000Y-19310000I-50000J0D01*
G01*
X8750000Y-19310000D02*
G75*
G03*
X8850000Y-19310000I50000J0D01*
G01*
D12*
%TO.C,R4*%
X24353641Y-27380000D02*
X24046359Y-27380000D01*
X24353641Y-26620000D02*
X24046359Y-26620000D01*
%TO.C,R12*%
X17420000Y-10753641D02*
X17420000Y-10446359D01*
X18180000Y-10753641D02*
X18180000Y-10446359D01*
D13*
%TO.C,D5*%
X20140000Y-23600000D02*
G75*
G03*
X20040000Y-23600000I-50000J0D01*
G01*
X20040000Y-23600000D02*
G75*
G03*
X20140000Y-23600000I50000J0D01*
G01*
D12*
%TO.C,C3*%
X16160000Y-19092164D02*
X16160000Y-19307836D01*
X15440000Y-19092164D02*
X15440000Y-19307836D01*
%TO.C,Q2*%
X32400000Y-23240000D02*
X30725000Y-23240000D01*
X32400000Y-23240000D02*
X33050000Y-23240000D01*
X32400000Y-26360000D02*
X31750000Y-26360000D01*
X32400000Y-26360000D02*
X33050000Y-26360000D01*
%TO.C,R10*%
X16846359Y-23220000D02*
X17153641Y-23220000D01*
X16846359Y-23980000D02*
X17153641Y-23980000D01*
%TO.C,U6*%
X26900000Y-8565000D02*
X25900000Y-8565000D01*
X26400000Y-10235000D02*
X25900000Y-10235000D01*
%TO.C,R5*%
X24046359Y-25620000D02*
X24353641Y-25620000D01*
X24046359Y-26380000D02*
X24353641Y-26380000D01*
%TO.C,R16*%
X24446359Y-2720000D02*
X24753641Y-2720000D01*
X24446359Y-3480000D02*
X24753641Y-3480000D01*
%TO.C,Q1*%
X32400000Y-19840000D02*
X30725000Y-19840000D01*
X32400000Y-19840000D02*
X33050000Y-19840000D01*
X32400000Y-22960000D02*
X31750000Y-22960000D01*
X32400000Y-22960000D02*
X33050000Y-22960000D01*
%TO.C,U5*%
X25900000Y-13635000D02*
X26900000Y-13635000D01*
X26400000Y-11965000D02*
X26900000Y-11965000D01*
%TO.C,C6*%
X28092164Y-1740000D02*
X28307836Y-1740000D01*
X28092164Y-2460000D02*
X28307836Y-2460000D01*
%TO.C,C9*%
X37817164Y-16140000D02*
X38032836Y-16140000D01*
X37817164Y-16860000D02*
X38032836Y-16860000D01*
%TO.C,R13*%
X14620000Y-10753641D02*
X14620000Y-10446359D01*
X15380000Y-10753641D02*
X15380000Y-10446359D01*
%TO.C,R1*%
X9246359Y-5020000D02*
X9553641Y-5020000D01*
X9246359Y-5780000D02*
X9553641Y-5780000D01*
D13*
%TO.C,D4*%
X37560000Y-19000000D02*
G75*
G03*
X37460000Y-19000000I-50000J0D01*
G01*
X37460000Y-19000000D02*
G75*
G03*
X37560000Y-19000000I50000J0D01*
G01*
%TO.C,D1*%
X10540000Y-6400000D02*
G75*
G03*
X10440000Y-6400000I-50000J0D01*
G01*
X10440000Y-6400000D02*
G75*
G03*
X10540000Y-6400000I50000J0D01*
G01*
D12*
%TO.C,R8*%
X29046359Y-24420000D02*
X29353641Y-24420000D01*
X29046359Y-25180000D02*
X29353641Y-25180000D01*
%TO.C,R25*%
X33846359Y-11320000D02*
X34153641Y-11320000D01*
X33846359Y-12080000D02*
X34153641Y-12080000D01*
%TO.C,L1*%
X8690000Y-9261252D02*
X8690000Y-8738748D01*
X10110000Y-9261252D02*
X10110000Y-8738748D01*
D13*
%TO.C,D6*%
X40250000Y-22600000D02*
X40250000Y-22200000D01*
X40250000Y-22600000D02*
X39850000Y-22600000D01*
X40250000Y-19800000D02*
X40250000Y-20200000D01*
X40250000Y-19800000D02*
X39850000Y-19800000D01*
X39440180Y-22599540D02*
X39440180Y-22134720D01*
X39440180Y-22134720D02*
X39363980Y-22134720D01*
X39440180Y-20257660D02*
X39363980Y-20257660D01*
X39440180Y-19797920D02*
X39440180Y-20257660D01*
X39363980Y-22599540D02*
X39440180Y-22599540D01*
X39363980Y-22134720D02*
X39363980Y-22599540D01*
X39363980Y-20257660D02*
X39363980Y-19797920D01*
X39363980Y-19797920D02*
X39440180Y-19797920D01*
X35750000Y-22600000D02*
X36150000Y-22600000D01*
X35750000Y-22600000D02*
X35750000Y-22200000D01*
X35750000Y-19800000D02*
X36150000Y-19800000D01*
X35750000Y-19800000D02*
X35750000Y-20200000D01*
D12*
%TO.C,R6*%
X17580000Y-19046359D02*
X17580000Y-19353641D01*
X16820000Y-19046359D02*
X16820000Y-19353641D01*
%TO.C,R18*%
X24753641Y-2480000D02*
X24446359Y-2480000D01*
X24753641Y-1720000D02*
X24446359Y-1720000D01*
%TD*%
M02*
