%TF.GenerationSoftware,KiCad,Pcbnew,7.0.10*%
%TF.CreationDate,2024-01-22T13:51:10-08:00*%
%TF.ProjectId,esp32-prog,65737033-322d-4707-926f-672e6b696361,rev2*%
%TF.SameCoordinates,PX47868c0PY36d6160*%
%TF.FileFunction,Profile,NP*%
%FSLAX46Y46*%
G04 Gerber Fmt 4.6, Leading zero omitted, Abs format (unit mm)*
G04 Created by KiCad (PCBNEW 7.0.10) date 2024-01-22 13:51:10*
%MOMM*%
%LPD*%
G01*
G04 APERTURE LIST*
%TA.AperFunction,Profile*%
%ADD10C,0.100000*%
%TD*%
G04 APERTURE END LIST*
D10*
X0Y-25500000D02*
G75*
G03*
X4500000Y-30000000I4500000J0D01*
G01*
X50500000Y0D02*
X4500000Y0D01*
X55000000Y-4500000D02*
X55000000Y-25500000D01*
X55000000Y-4500000D02*
G75*
G03*
X50500000Y0I-4500000J0D01*
G01*
X0Y-25500000D02*
X0Y-4500000D01*
X4500000Y0D02*
G75*
G03*
X0Y-4500000I0J-4500000D01*
G01*
X50500000Y-30000000D02*
G75*
G03*
X55000000Y-25500000I0J4500000D01*
G01*
X50500000Y-30000000D02*
X4500000Y-30000000D01*
X6166666Y-4500000D02*
G75*
G03*
X2833334Y-4500000I-1666666J0D01*
G01*
X2833334Y-4500000D02*
G75*
G03*
X6166666Y-4500000I1666666J0D01*
G01*
X2000000Y-4500000D02*
X7000000Y-4500000D01*
X4500000Y-2000000D02*
X4500000Y-7000000D01*
X6166666Y-4500000D02*
G75*
G03*
X2833334Y-4500000I-1666666J0D01*
G01*
X2833334Y-4500000D02*
G75*
G03*
X6166666Y-4500000I1666666J0D01*
G01*
X2000000Y-4500000D02*
X7000000Y-4500000D01*
X4500000Y-2000000D02*
X4500000Y-7000000D01*
X6166666Y-4500000D02*
G75*
G03*
X2833334Y-4500000I-1666666J0D01*
G01*
X2833334Y-4500000D02*
G75*
G03*
X6166666Y-4500000I1666666J0D01*
G01*
X2000000Y-4500000D02*
X7000000Y-4500000D01*
X4500000Y-2000000D02*
X4500000Y-7000000D01*
M02*
