%TF.GenerationSoftware,KiCad,Pcbnew,7.0.10*%
%TF.CreationDate,2024-01-22T13:51:10-08:00*%
%TF.ProjectId,esp32-prog,65737033-322d-4707-926f-672e6b696361,rev2*%
%TF.SameCoordinates,PX47868c0PY36d6160*%
%TF.FileFunction,AssemblyDrawing,Top*%
%FSLAX46Y46*%
G04 Gerber Fmt 4.6, Leading zero omitted, Abs format (unit mm)*
G04 Created by KiCad (PCBNEW 7.0.10) date 2024-01-22 13:51:10*
%MOMM*%
%LPD*%
G01*
G04 APERTURE LIST*
%ADD10C,0.150000*%
%ADD11C,0.060000*%
%ADD12C,0.040000*%
%ADD13C,0.050000*%
%ADD14C,0.075000*%
%ADD15C,0.080000*%
%ADD16C,0.100000*%
G04 APERTURE END LIST*
D10*
X2454819Y-15333333D02*
X3169104Y-15333333D01*
X3169104Y-15333333D02*
X3311961Y-15380952D01*
X3311961Y-15380952D02*
X3407200Y-15476190D01*
X3407200Y-15476190D02*
X3454819Y-15619047D01*
X3454819Y-15619047D02*
X3454819Y-15714285D01*
X3454819Y-14333333D02*
X3454819Y-14904761D01*
X3454819Y-14619047D02*
X2454819Y-14619047D01*
X2454819Y-14619047D02*
X2597676Y-14714285D01*
X2597676Y-14714285D02*
X2692914Y-14809523D01*
X2692914Y-14809523D02*
X2740533Y-14904761D01*
D11*
X11381927Y-9266666D02*
X11191451Y-9399999D01*
X11381927Y-9495237D02*
X10981927Y-9495237D01*
X10981927Y-9495237D02*
X10981927Y-9342856D01*
X10981927Y-9342856D02*
X11000975Y-9304761D01*
X11000975Y-9304761D02*
X11020022Y-9285714D01*
X11020022Y-9285714D02*
X11058118Y-9266666D01*
X11058118Y-9266666D02*
X11115260Y-9266666D01*
X11115260Y-9266666D02*
X11153356Y-9285714D01*
X11153356Y-9285714D02*
X11172403Y-9304761D01*
X11172403Y-9304761D02*
X11191451Y-9342856D01*
X11191451Y-9342856D02*
X11191451Y-9495237D01*
X11020022Y-9114285D02*
X11000975Y-9095237D01*
X11000975Y-9095237D02*
X10981927Y-9057142D01*
X10981927Y-9057142D02*
X10981927Y-8961904D01*
X10981927Y-8961904D02*
X11000975Y-8923809D01*
X11000975Y-8923809D02*
X11020022Y-8904761D01*
X11020022Y-8904761D02*
X11058118Y-8885714D01*
X11058118Y-8885714D02*
X11096213Y-8885714D01*
X11096213Y-8885714D02*
X11153356Y-8904761D01*
X11153356Y-8904761D02*
X11381927Y-9133333D01*
X11381927Y-9133333D02*
X11381927Y-8885714D01*
D12*
X33832857Y-5618200D02*
X33746190Y-5494391D01*
X33684285Y-5618200D02*
X33684285Y-5358200D01*
X33684285Y-5358200D02*
X33783333Y-5358200D01*
X33783333Y-5358200D02*
X33808095Y-5370581D01*
X33808095Y-5370581D02*
X33820476Y-5382962D01*
X33820476Y-5382962D02*
X33832857Y-5407724D01*
X33832857Y-5407724D02*
X33832857Y-5444867D01*
X33832857Y-5444867D02*
X33820476Y-5469629D01*
X33820476Y-5469629D02*
X33808095Y-5482010D01*
X33808095Y-5482010D02*
X33783333Y-5494391D01*
X33783333Y-5494391D02*
X33684285Y-5494391D01*
X33931904Y-5382962D02*
X33944285Y-5370581D01*
X33944285Y-5370581D02*
X33969047Y-5358200D01*
X33969047Y-5358200D02*
X34030952Y-5358200D01*
X34030952Y-5358200D02*
X34055714Y-5370581D01*
X34055714Y-5370581D02*
X34068095Y-5382962D01*
X34068095Y-5382962D02*
X34080476Y-5407724D01*
X34080476Y-5407724D02*
X34080476Y-5432486D01*
X34080476Y-5432486D02*
X34068095Y-5469629D01*
X34068095Y-5469629D02*
X33919523Y-5618200D01*
X33919523Y-5618200D02*
X34080476Y-5618200D01*
X34303333Y-5358200D02*
X34253809Y-5358200D01*
X34253809Y-5358200D02*
X34229047Y-5370581D01*
X34229047Y-5370581D02*
X34216666Y-5382962D01*
X34216666Y-5382962D02*
X34191904Y-5420105D01*
X34191904Y-5420105D02*
X34179523Y-5469629D01*
X34179523Y-5469629D02*
X34179523Y-5568677D01*
X34179523Y-5568677D02*
X34191904Y-5593439D01*
X34191904Y-5593439D02*
X34204285Y-5605820D01*
X34204285Y-5605820D02*
X34229047Y-5618200D01*
X34229047Y-5618200D02*
X34278571Y-5618200D01*
X34278571Y-5618200D02*
X34303333Y-5605820D01*
X34303333Y-5605820D02*
X34315714Y-5593439D01*
X34315714Y-5593439D02*
X34328095Y-5568677D01*
X34328095Y-5568677D02*
X34328095Y-5506772D01*
X34328095Y-5506772D02*
X34315714Y-5482010D01*
X34315714Y-5482010D02*
X34303333Y-5469629D01*
X34303333Y-5469629D02*
X34278571Y-5457248D01*
X34278571Y-5457248D02*
X34229047Y-5457248D01*
X34229047Y-5457248D02*
X34204285Y-5469629D01*
X34204285Y-5469629D02*
X34191904Y-5482010D01*
X34191904Y-5482010D02*
X34179523Y-5506772D01*
D13*
X26203942Y-2874285D02*
X26495371Y-2874285D01*
X26495371Y-2874285D02*
X26529657Y-2857142D01*
X26529657Y-2857142D02*
X26546800Y-2840000D01*
X26546800Y-2840000D02*
X26563942Y-2805714D01*
X26563942Y-2805714D02*
X26563942Y-2737142D01*
X26563942Y-2737142D02*
X26546800Y-2702857D01*
X26546800Y-2702857D02*
X26529657Y-2685714D01*
X26529657Y-2685714D02*
X26495371Y-2668571D01*
X26495371Y-2668571D02*
X26203942Y-2668571D01*
X26323942Y-2342857D02*
X26563942Y-2342857D01*
X26186800Y-2428571D02*
X26443942Y-2514285D01*
X26443942Y-2514285D02*
X26443942Y-2291428D01*
D10*
X18638095Y-26254819D02*
X18638095Y-27064342D01*
X18638095Y-27064342D02*
X18685714Y-27159580D01*
X18685714Y-27159580D02*
X18733333Y-27207200D01*
X18733333Y-27207200D02*
X18828571Y-27254819D01*
X18828571Y-27254819D02*
X19019047Y-27254819D01*
X19019047Y-27254819D02*
X19114285Y-27207200D01*
X19114285Y-27207200D02*
X19161904Y-27159580D01*
X19161904Y-27159580D02*
X19209523Y-27064342D01*
X19209523Y-27064342D02*
X19209523Y-26254819D01*
X20209523Y-27254819D02*
X19638095Y-27254819D01*
X19923809Y-27254819D02*
X19923809Y-26254819D01*
X19923809Y-26254819D02*
X19828571Y-26397676D01*
X19828571Y-26397676D02*
X19733333Y-26492914D01*
X19733333Y-26492914D02*
X19638095Y-26540533D01*
D14*
X37037488Y-24743064D02*
X37037488Y-23993064D01*
X37037488Y-23993064D02*
X37216059Y-23993064D01*
X37216059Y-23993064D02*
X37323202Y-24028778D01*
X37323202Y-24028778D02*
X37394631Y-24100207D01*
X37394631Y-24100207D02*
X37430345Y-24171635D01*
X37430345Y-24171635D02*
X37466059Y-24314492D01*
X37466059Y-24314492D02*
X37466059Y-24421635D01*
X37466059Y-24421635D02*
X37430345Y-24564492D01*
X37430345Y-24564492D02*
X37394631Y-24635921D01*
X37394631Y-24635921D02*
X37323202Y-24707350D01*
X37323202Y-24707350D02*
X37216059Y-24743064D01*
X37216059Y-24743064D02*
X37037488Y-24743064D01*
X37716059Y-23993064D02*
X38216059Y-23993064D01*
X38216059Y-23993064D02*
X37894631Y-24743064D01*
D12*
X24158333Y-28089765D02*
X24146429Y-28101670D01*
X24146429Y-28101670D02*
X24110714Y-28113574D01*
X24110714Y-28113574D02*
X24086905Y-28113574D01*
X24086905Y-28113574D02*
X24051191Y-28101670D01*
X24051191Y-28101670D02*
X24027381Y-28077860D01*
X24027381Y-28077860D02*
X24015476Y-28054050D01*
X24015476Y-28054050D02*
X24003572Y-28006431D01*
X24003572Y-28006431D02*
X24003572Y-27970717D01*
X24003572Y-27970717D02*
X24015476Y-27923098D01*
X24015476Y-27923098D02*
X24027381Y-27899289D01*
X24027381Y-27899289D02*
X24051191Y-27875479D01*
X24051191Y-27875479D02*
X24086905Y-27863574D01*
X24086905Y-27863574D02*
X24110714Y-27863574D01*
X24110714Y-27863574D02*
X24146429Y-27875479D01*
X24146429Y-27875479D02*
X24158333Y-27887384D01*
X24253572Y-27887384D02*
X24265476Y-27875479D01*
X24265476Y-27875479D02*
X24289286Y-27863574D01*
X24289286Y-27863574D02*
X24348810Y-27863574D01*
X24348810Y-27863574D02*
X24372619Y-27875479D01*
X24372619Y-27875479D02*
X24384524Y-27887384D01*
X24384524Y-27887384D02*
X24396429Y-27911193D01*
X24396429Y-27911193D02*
X24396429Y-27935003D01*
X24396429Y-27935003D02*
X24384524Y-27970717D01*
X24384524Y-27970717D02*
X24241667Y-28113574D01*
X24241667Y-28113574D02*
X24396429Y-28113574D01*
X28032857Y-6818200D02*
X27946190Y-6694391D01*
X27884285Y-6818200D02*
X27884285Y-6558200D01*
X27884285Y-6558200D02*
X27983333Y-6558200D01*
X27983333Y-6558200D02*
X28008095Y-6570581D01*
X28008095Y-6570581D02*
X28020476Y-6582962D01*
X28020476Y-6582962D02*
X28032857Y-6607724D01*
X28032857Y-6607724D02*
X28032857Y-6644867D01*
X28032857Y-6644867D02*
X28020476Y-6669629D01*
X28020476Y-6669629D02*
X28008095Y-6682010D01*
X28008095Y-6682010D02*
X27983333Y-6694391D01*
X27983333Y-6694391D02*
X27884285Y-6694391D01*
X28131904Y-6582962D02*
X28144285Y-6570581D01*
X28144285Y-6570581D02*
X28169047Y-6558200D01*
X28169047Y-6558200D02*
X28230952Y-6558200D01*
X28230952Y-6558200D02*
X28255714Y-6570581D01*
X28255714Y-6570581D02*
X28268095Y-6582962D01*
X28268095Y-6582962D02*
X28280476Y-6607724D01*
X28280476Y-6607724D02*
X28280476Y-6632486D01*
X28280476Y-6632486D02*
X28268095Y-6669629D01*
X28268095Y-6669629D02*
X28119523Y-6818200D01*
X28119523Y-6818200D02*
X28280476Y-6818200D01*
X28528095Y-6818200D02*
X28379523Y-6818200D01*
X28453809Y-6818200D02*
X28453809Y-6558200D01*
X28453809Y-6558200D02*
X28429047Y-6595343D01*
X28429047Y-6595343D02*
X28404285Y-6620105D01*
X28404285Y-6620105D02*
X28379523Y-6632486D01*
D10*
X23249942Y-23314286D02*
X23297561Y-23361905D01*
X23297561Y-23361905D02*
X23345180Y-23457143D01*
X23345180Y-23457143D02*
X23345180Y-23695238D01*
X23345180Y-23695238D02*
X23297561Y-23790476D01*
X23297561Y-23790476D02*
X23249942Y-23838095D01*
X23249942Y-23838095D02*
X23154704Y-23885714D01*
X23154704Y-23885714D02*
X23059466Y-23885714D01*
X23059466Y-23885714D02*
X22916609Y-23838095D01*
X22916609Y-23838095D02*
X22345180Y-23266667D01*
X22345180Y-23266667D02*
X22345180Y-23885714D01*
X22345180Y-22685714D02*
X22345180Y-22114286D01*
X22345180Y-22400000D02*
X23345180Y-22400000D01*
X23345180Y-22400000D02*
X23202323Y-22304762D01*
X23202323Y-22304762D02*
X23107085Y-22209524D01*
X23107085Y-22209524D02*
X23059466Y-22114286D01*
X27745180Y-21380952D02*
X27745180Y-21571428D01*
X27745180Y-21571428D02*
X27697561Y-21666666D01*
X27697561Y-21666666D02*
X27602323Y-21761904D01*
X27602323Y-21761904D02*
X27411847Y-21809523D01*
X27411847Y-21809523D02*
X27078514Y-21809523D01*
X27078514Y-21809523D02*
X26888038Y-21761904D01*
X26888038Y-21761904D02*
X26792800Y-21666666D01*
X26792800Y-21666666D02*
X26745180Y-21571428D01*
X26745180Y-21571428D02*
X26745180Y-21380952D01*
X26745180Y-21380952D02*
X26792800Y-21285714D01*
X26792800Y-21285714D02*
X26888038Y-21190476D01*
X26888038Y-21190476D02*
X27078514Y-21142857D01*
X27078514Y-21142857D02*
X27411847Y-21142857D01*
X27411847Y-21142857D02*
X27602323Y-21190476D01*
X27602323Y-21190476D02*
X27697561Y-21285714D01*
X27697561Y-21285714D02*
X27745180Y-21380952D01*
X26745180Y-22238095D02*
X27745180Y-22238095D01*
X27745180Y-22238095D02*
X26745180Y-22809523D01*
X26745180Y-22809523D02*
X27745180Y-22809523D01*
X24366667Y-24807200D02*
X24509524Y-24854819D01*
X24509524Y-24854819D02*
X24747619Y-24854819D01*
X24747619Y-24854819D02*
X24842857Y-24807200D01*
X24842857Y-24807200D02*
X24890476Y-24759580D01*
X24890476Y-24759580D02*
X24938095Y-24664342D01*
X24938095Y-24664342D02*
X24938095Y-24569104D01*
X24938095Y-24569104D02*
X24890476Y-24473866D01*
X24890476Y-24473866D02*
X24842857Y-24426247D01*
X24842857Y-24426247D02*
X24747619Y-24378628D01*
X24747619Y-24378628D02*
X24557143Y-24331009D01*
X24557143Y-24331009D02*
X24461905Y-24283390D01*
X24461905Y-24283390D02*
X24414286Y-24235771D01*
X24414286Y-24235771D02*
X24366667Y-24140533D01*
X24366667Y-24140533D02*
X24366667Y-24045295D01*
X24366667Y-24045295D02*
X24414286Y-23950057D01*
X24414286Y-23950057D02*
X24461905Y-23902438D01*
X24461905Y-23902438D02*
X24557143Y-23854819D01*
X24557143Y-23854819D02*
X24795238Y-23854819D01*
X24795238Y-23854819D02*
X24938095Y-23902438D01*
X25271429Y-23854819D02*
X25509524Y-24854819D01*
X25509524Y-24854819D02*
X25700000Y-24140533D01*
X25700000Y-24140533D02*
X25890476Y-24854819D01*
X25890476Y-24854819D02*
X26128572Y-23854819D01*
X27033333Y-24854819D02*
X26461905Y-24854819D01*
X26747619Y-24854819D02*
X26747619Y-23854819D01*
X26747619Y-23854819D02*
X26652381Y-23997676D01*
X26652381Y-23997676D02*
X26557143Y-24092914D01*
X26557143Y-24092914D02*
X26461905Y-24140533D01*
D12*
X40556667Y-19118200D02*
X40470000Y-18994391D01*
X40408095Y-19118200D02*
X40408095Y-18858200D01*
X40408095Y-18858200D02*
X40507143Y-18858200D01*
X40507143Y-18858200D02*
X40531905Y-18870581D01*
X40531905Y-18870581D02*
X40544286Y-18882962D01*
X40544286Y-18882962D02*
X40556667Y-18907724D01*
X40556667Y-18907724D02*
X40556667Y-18944867D01*
X40556667Y-18944867D02*
X40544286Y-18969629D01*
X40544286Y-18969629D02*
X40531905Y-18982010D01*
X40531905Y-18982010D02*
X40507143Y-18994391D01*
X40507143Y-18994391D02*
X40408095Y-18994391D01*
X40680476Y-19118200D02*
X40730000Y-19118200D01*
X40730000Y-19118200D02*
X40754762Y-19105820D01*
X40754762Y-19105820D02*
X40767143Y-19093439D01*
X40767143Y-19093439D02*
X40791905Y-19056296D01*
X40791905Y-19056296D02*
X40804286Y-19006772D01*
X40804286Y-19006772D02*
X40804286Y-18907724D01*
X40804286Y-18907724D02*
X40791905Y-18882962D01*
X40791905Y-18882962D02*
X40779524Y-18870581D01*
X40779524Y-18870581D02*
X40754762Y-18858200D01*
X40754762Y-18858200D02*
X40705238Y-18858200D01*
X40705238Y-18858200D02*
X40680476Y-18870581D01*
X40680476Y-18870581D02*
X40668095Y-18882962D01*
X40668095Y-18882962D02*
X40655714Y-18907724D01*
X40655714Y-18907724D02*
X40655714Y-18969629D01*
X40655714Y-18969629D02*
X40668095Y-18994391D01*
X40668095Y-18994391D02*
X40680476Y-19006772D01*
X40680476Y-19006772D02*
X40705238Y-19019153D01*
X40705238Y-19019153D02*
X40754762Y-19019153D01*
X40754762Y-19019153D02*
X40779524Y-19006772D01*
X40779524Y-19006772D02*
X40791905Y-18994391D01*
X40791905Y-18994391D02*
X40804286Y-18969629D01*
X15758333Y-27289765D02*
X15746429Y-27301670D01*
X15746429Y-27301670D02*
X15710714Y-27313574D01*
X15710714Y-27313574D02*
X15686905Y-27313574D01*
X15686905Y-27313574D02*
X15651191Y-27301670D01*
X15651191Y-27301670D02*
X15627381Y-27277860D01*
X15627381Y-27277860D02*
X15615476Y-27254050D01*
X15615476Y-27254050D02*
X15603572Y-27206431D01*
X15603572Y-27206431D02*
X15603572Y-27170717D01*
X15603572Y-27170717D02*
X15615476Y-27123098D01*
X15615476Y-27123098D02*
X15627381Y-27099289D01*
X15627381Y-27099289D02*
X15651191Y-27075479D01*
X15651191Y-27075479D02*
X15686905Y-27063574D01*
X15686905Y-27063574D02*
X15710714Y-27063574D01*
X15710714Y-27063574D02*
X15746429Y-27075479D01*
X15746429Y-27075479D02*
X15758333Y-27087384D01*
X15996429Y-27313574D02*
X15853572Y-27313574D01*
X15925000Y-27313574D02*
X15925000Y-27063574D01*
X15925000Y-27063574D02*
X15901191Y-27099289D01*
X15901191Y-27099289D02*
X15877381Y-27123098D01*
X15877381Y-27123098D02*
X15853572Y-27135003D01*
X24558333Y-9989765D02*
X24546429Y-10001670D01*
X24546429Y-10001670D02*
X24510714Y-10013574D01*
X24510714Y-10013574D02*
X24486905Y-10013574D01*
X24486905Y-10013574D02*
X24451191Y-10001670D01*
X24451191Y-10001670D02*
X24427381Y-9977860D01*
X24427381Y-9977860D02*
X24415476Y-9954050D01*
X24415476Y-9954050D02*
X24403572Y-9906431D01*
X24403572Y-9906431D02*
X24403572Y-9870717D01*
X24403572Y-9870717D02*
X24415476Y-9823098D01*
X24415476Y-9823098D02*
X24427381Y-9799289D01*
X24427381Y-9799289D02*
X24451191Y-9775479D01*
X24451191Y-9775479D02*
X24486905Y-9763574D01*
X24486905Y-9763574D02*
X24510714Y-9763574D01*
X24510714Y-9763574D02*
X24546429Y-9775479D01*
X24546429Y-9775479D02*
X24558333Y-9787384D01*
X24701191Y-9870717D02*
X24677381Y-9858812D01*
X24677381Y-9858812D02*
X24665476Y-9846908D01*
X24665476Y-9846908D02*
X24653572Y-9823098D01*
X24653572Y-9823098D02*
X24653572Y-9811193D01*
X24653572Y-9811193D02*
X24665476Y-9787384D01*
X24665476Y-9787384D02*
X24677381Y-9775479D01*
X24677381Y-9775479D02*
X24701191Y-9763574D01*
X24701191Y-9763574D02*
X24748810Y-9763574D01*
X24748810Y-9763574D02*
X24772619Y-9775479D01*
X24772619Y-9775479D02*
X24784524Y-9787384D01*
X24784524Y-9787384D02*
X24796429Y-9811193D01*
X24796429Y-9811193D02*
X24796429Y-9823098D01*
X24796429Y-9823098D02*
X24784524Y-9846908D01*
X24784524Y-9846908D02*
X24772619Y-9858812D01*
X24772619Y-9858812D02*
X24748810Y-9870717D01*
X24748810Y-9870717D02*
X24701191Y-9870717D01*
X24701191Y-9870717D02*
X24677381Y-9882622D01*
X24677381Y-9882622D02*
X24665476Y-9894527D01*
X24665476Y-9894527D02*
X24653572Y-9918336D01*
X24653572Y-9918336D02*
X24653572Y-9965955D01*
X24653572Y-9965955D02*
X24665476Y-9989765D01*
X24665476Y-9989765D02*
X24677381Y-10001670D01*
X24677381Y-10001670D02*
X24701191Y-10013574D01*
X24701191Y-10013574D02*
X24748810Y-10013574D01*
X24748810Y-10013574D02*
X24772619Y-10001670D01*
X24772619Y-10001670D02*
X24784524Y-9989765D01*
X24784524Y-9989765D02*
X24796429Y-9965955D01*
X24796429Y-9965955D02*
X24796429Y-9918336D01*
X24796429Y-9918336D02*
X24784524Y-9894527D01*
X24784524Y-9894527D02*
X24772619Y-9882622D01*
X24772619Y-9882622D02*
X24748810Y-9870717D01*
D10*
X3738095Y-25954819D02*
X3738095Y-24954819D01*
X3738095Y-25431009D02*
X4309523Y-25431009D01*
X4309523Y-25954819D02*
X4309523Y-24954819D01*
X5214285Y-25288152D02*
X5214285Y-25954819D01*
X4976190Y-24907200D02*
X4738095Y-25621485D01*
X4738095Y-25621485D02*
X5357142Y-25621485D01*
X49738095Y-4954819D02*
X49738095Y-3954819D01*
X49738095Y-4431009D02*
X50309523Y-4431009D01*
X50309523Y-4954819D02*
X50309523Y-3954819D01*
X50738095Y-4050057D02*
X50785714Y-4002438D01*
X50785714Y-4002438D02*
X50880952Y-3954819D01*
X50880952Y-3954819D02*
X51119047Y-3954819D01*
X51119047Y-3954819D02*
X51214285Y-4002438D01*
X51214285Y-4002438D02*
X51261904Y-4050057D01*
X51261904Y-4050057D02*
X51309523Y-4145295D01*
X51309523Y-4145295D02*
X51309523Y-4240533D01*
X51309523Y-4240533D02*
X51261904Y-4383390D01*
X51261904Y-4383390D02*
X50690476Y-4954819D01*
X50690476Y-4954819D02*
X51309523Y-4954819D01*
D12*
X24432857Y-9018200D02*
X24346190Y-8894391D01*
X24284285Y-9018200D02*
X24284285Y-8758200D01*
X24284285Y-8758200D02*
X24383333Y-8758200D01*
X24383333Y-8758200D02*
X24408095Y-8770581D01*
X24408095Y-8770581D02*
X24420476Y-8782962D01*
X24420476Y-8782962D02*
X24432857Y-8807724D01*
X24432857Y-8807724D02*
X24432857Y-8844867D01*
X24432857Y-8844867D02*
X24420476Y-8869629D01*
X24420476Y-8869629D02*
X24408095Y-8882010D01*
X24408095Y-8882010D02*
X24383333Y-8894391D01*
X24383333Y-8894391D02*
X24284285Y-8894391D01*
X24680476Y-9018200D02*
X24531904Y-9018200D01*
X24606190Y-9018200D02*
X24606190Y-8758200D01*
X24606190Y-8758200D02*
X24581428Y-8795343D01*
X24581428Y-8795343D02*
X24556666Y-8820105D01*
X24556666Y-8820105D02*
X24531904Y-8832486D01*
X24915714Y-8758200D02*
X24791904Y-8758200D01*
X24791904Y-8758200D02*
X24779523Y-8882010D01*
X24779523Y-8882010D02*
X24791904Y-8869629D01*
X24791904Y-8869629D02*
X24816666Y-8857248D01*
X24816666Y-8857248D02*
X24878571Y-8857248D01*
X24878571Y-8857248D02*
X24903333Y-8869629D01*
X24903333Y-8869629D02*
X24915714Y-8882010D01*
X24915714Y-8882010D02*
X24928095Y-8906772D01*
X24928095Y-8906772D02*
X24928095Y-8968677D01*
X24928095Y-8968677D02*
X24915714Y-8993439D01*
X24915714Y-8993439D02*
X24903333Y-9005820D01*
X24903333Y-9005820D02*
X24878571Y-9018200D01*
X24878571Y-9018200D02*
X24816666Y-9018200D01*
X24816666Y-9018200D02*
X24791904Y-9005820D01*
X24791904Y-9005820D02*
X24779523Y-8993439D01*
X38415476Y-26713574D02*
X38415476Y-26463574D01*
X38415476Y-26463574D02*
X38475000Y-26463574D01*
X38475000Y-26463574D02*
X38510714Y-26475479D01*
X38510714Y-26475479D02*
X38534524Y-26499289D01*
X38534524Y-26499289D02*
X38546429Y-26523098D01*
X38546429Y-26523098D02*
X38558333Y-26570717D01*
X38558333Y-26570717D02*
X38558333Y-26606431D01*
X38558333Y-26606431D02*
X38546429Y-26654050D01*
X38546429Y-26654050D02*
X38534524Y-26677860D01*
X38534524Y-26677860D02*
X38510714Y-26701670D01*
X38510714Y-26701670D02*
X38475000Y-26713574D01*
X38475000Y-26713574D02*
X38415476Y-26713574D01*
X38701191Y-26570717D02*
X38677381Y-26558812D01*
X38677381Y-26558812D02*
X38665476Y-26546908D01*
X38665476Y-26546908D02*
X38653572Y-26523098D01*
X38653572Y-26523098D02*
X38653572Y-26511193D01*
X38653572Y-26511193D02*
X38665476Y-26487384D01*
X38665476Y-26487384D02*
X38677381Y-26475479D01*
X38677381Y-26475479D02*
X38701191Y-26463574D01*
X38701191Y-26463574D02*
X38748810Y-26463574D01*
X38748810Y-26463574D02*
X38772619Y-26475479D01*
X38772619Y-26475479D02*
X38784524Y-26487384D01*
X38784524Y-26487384D02*
X38796429Y-26511193D01*
X38796429Y-26511193D02*
X38796429Y-26523098D01*
X38796429Y-26523098D02*
X38784524Y-26546908D01*
X38784524Y-26546908D02*
X38772619Y-26558812D01*
X38772619Y-26558812D02*
X38748810Y-26570717D01*
X38748810Y-26570717D02*
X38701191Y-26570717D01*
X38701191Y-26570717D02*
X38677381Y-26582622D01*
X38677381Y-26582622D02*
X38665476Y-26594527D01*
X38665476Y-26594527D02*
X38653572Y-26618336D01*
X38653572Y-26618336D02*
X38653572Y-26665955D01*
X38653572Y-26665955D02*
X38665476Y-26689765D01*
X38665476Y-26689765D02*
X38677381Y-26701670D01*
X38677381Y-26701670D02*
X38701191Y-26713574D01*
X38701191Y-26713574D02*
X38748810Y-26713574D01*
X38748810Y-26713574D02*
X38772619Y-26701670D01*
X38772619Y-26701670D02*
X38784524Y-26689765D01*
X38784524Y-26689765D02*
X38796429Y-26665955D01*
X38796429Y-26665955D02*
X38796429Y-26618336D01*
X38796429Y-26618336D02*
X38784524Y-26594527D01*
X38784524Y-26594527D02*
X38772619Y-26582622D01*
X38772619Y-26582622D02*
X38748810Y-26570717D01*
X40432857Y-26718200D02*
X40346190Y-26594391D01*
X40284285Y-26718200D02*
X40284285Y-26458200D01*
X40284285Y-26458200D02*
X40383333Y-26458200D01*
X40383333Y-26458200D02*
X40408095Y-26470581D01*
X40408095Y-26470581D02*
X40420476Y-26482962D01*
X40420476Y-26482962D02*
X40432857Y-26507724D01*
X40432857Y-26507724D02*
X40432857Y-26544867D01*
X40432857Y-26544867D02*
X40420476Y-26569629D01*
X40420476Y-26569629D02*
X40408095Y-26582010D01*
X40408095Y-26582010D02*
X40383333Y-26594391D01*
X40383333Y-26594391D02*
X40284285Y-26594391D01*
X40680476Y-26718200D02*
X40531904Y-26718200D01*
X40606190Y-26718200D02*
X40606190Y-26458200D01*
X40606190Y-26458200D02*
X40581428Y-26495343D01*
X40581428Y-26495343D02*
X40556666Y-26520105D01*
X40556666Y-26520105D02*
X40531904Y-26532486D01*
X40903333Y-26544867D02*
X40903333Y-26718200D01*
X40841428Y-26445820D02*
X40779523Y-26631534D01*
X40779523Y-26631534D02*
X40940476Y-26631534D01*
X35815476Y-5613574D02*
X35815476Y-5363574D01*
X35815476Y-5363574D02*
X35875000Y-5363574D01*
X35875000Y-5363574D02*
X35910714Y-5375479D01*
X35910714Y-5375479D02*
X35934524Y-5399289D01*
X35934524Y-5399289D02*
X35946429Y-5423098D01*
X35946429Y-5423098D02*
X35958333Y-5470717D01*
X35958333Y-5470717D02*
X35958333Y-5506431D01*
X35958333Y-5506431D02*
X35946429Y-5554050D01*
X35946429Y-5554050D02*
X35934524Y-5577860D01*
X35934524Y-5577860D02*
X35910714Y-5601670D01*
X35910714Y-5601670D02*
X35875000Y-5613574D01*
X35875000Y-5613574D02*
X35815476Y-5613574D01*
X36077381Y-5613574D02*
X36125000Y-5613574D01*
X36125000Y-5613574D02*
X36148810Y-5601670D01*
X36148810Y-5601670D02*
X36160714Y-5589765D01*
X36160714Y-5589765D02*
X36184524Y-5554050D01*
X36184524Y-5554050D02*
X36196429Y-5506431D01*
X36196429Y-5506431D02*
X36196429Y-5411193D01*
X36196429Y-5411193D02*
X36184524Y-5387384D01*
X36184524Y-5387384D02*
X36172619Y-5375479D01*
X36172619Y-5375479D02*
X36148810Y-5363574D01*
X36148810Y-5363574D02*
X36101191Y-5363574D01*
X36101191Y-5363574D02*
X36077381Y-5375479D01*
X36077381Y-5375479D02*
X36065476Y-5387384D01*
X36065476Y-5387384D02*
X36053572Y-5411193D01*
X36053572Y-5411193D02*
X36053572Y-5470717D01*
X36053572Y-5470717D02*
X36065476Y-5494527D01*
X36065476Y-5494527D02*
X36077381Y-5506431D01*
X36077381Y-5506431D02*
X36101191Y-5518336D01*
X36101191Y-5518336D02*
X36148810Y-5518336D01*
X36148810Y-5518336D02*
X36172619Y-5506431D01*
X36172619Y-5506431D02*
X36184524Y-5494527D01*
X36184524Y-5494527D02*
X36196429Y-5470717D01*
X14089765Y-19241666D02*
X14101670Y-19253570D01*
X14101670Y-19253570D02*
X14113574Y-19289285D01*
X14113574Y-19289285D02*
X14113574Y-19313094D01*
X14113574Y-19313094D02*
X14101670Y-19348808D01*
X14101670Y-19348808D02*
X14077860Y-19372618D01*
X14077860Y-19372618D02*
X14054050Y-19384523D01*
X14054050Y-19384523D02*
X14006431Y-19396427D01*
X14006431Y-19396427D02*
X13970717Y-19396427D01*
X13970717Y-19396427D02*
X13923098Y-19384523D01*
X13923098Y-19384523D02*
X13899289Y-19372618D01*
X13899289Y-19372618D02*
X13875479Y-19348808D01*
X13875479Y-19348808D02*
X13863574Y-19313094D01*
X13863574Y-19313094D02*
X13863574Y-19289285D01*
X13863574Y-19289285D02*
X13875479Y-19253570D01*
X13875479Y-19253570D02*
X13887384Y-19241666D01*
X13946908Y-19027380D02*
X14113574Y-19027380D01*
X13851670Y-19086904D02*
X14030241Y-19146427D01*
X14030241Y-19146427D02*
X14030241Y-18991666D01*
X8913574Y-22584523D02*
X8663574Y-22584523D01*
X8663574Y-22584523D02*
X8663574Y-22524999D01*
X8663574Y-22524999D02*
X8675479Y-22489285D01*
X8675479Y-22489285D02*
X8699289Y-22465475D01*
X8699289Y-22465475D02*
X8723098Y-22453570D01*
X8723098Y-22453570D02*
X8770717Y-22441666D01*
X8770717Y-22441666D02*
X8806431Y-22441666D01*
X8806431Y-22441666D02*
X8854050Y-22453570D01*
X8854050Y-22453570D02*
X8877860Y-22465475D01*
X8877860Y-22465475D02*
X8901670Y-22489285D01*
X8901670Y-22489285D02*
X8913574Y-22524999D01*
X8913574Y-22524999D02*
X8913574Y-22584523D01*
X8687384Y-22346427D02*
X8675479Y-22334523D01*
X8675479Y-22334523D02*
X8663574Y-22310713D01*
X8663574Y-22310713D02*
X8663574Y-22251189D01*
X8663574Y-22251189D02*
X8675479Y-22227380D01*
X8675479Y-22227380D02*
X8687384Y-22215475D01*
X8687384Y-22215475D02*
X8711193Y-22203570D01*
X8711193Y-22203570D02*
X8735003Y-22203570D01*
X8735003Y-22203570D02*
X8770717Y-22215475D01*
X8770717Y-22215475D02*
X8913574Y-22358332D01*
X8913574Y-22358332D02*
X8913574Y-22203570D01*
X33832857Y-10618200D02*
X33746190Y-10494391D01*
X33684285Y-10618200D02*
X33684285Y-10358200D01*
X33684285Y-10358200D02*
X33783333Y-10358200D01*
X33783333Y-10358200D02*
X33808095Y-10370581D01*
X33808095Y-10370581D02*
X33820476Y-10382962D01*
X33820476Y-10382962D02*
X33832857Y-10407724D01*
X33832857Y-10407724D02*
X33832857Y-10444867D01*
X33832857Y-10444867D02*
X33820476Y-10469629D01*
X33820476Y-10469629D02*
X33808095Y-10482010D01*
X33808095Y-10482010D02*
X33783333Y-10494391D01*
X33783333Y-10494391D02*
X33684285Y-10494391D01*
X33931904Y-10382962D02*
X33944285Y-10370581D01*
X33944285Y-10370581D02*
X33969047Y-10358200D01*
X33969047Y-10358200D02*
X34030952Y-10358200D01*
X34030952Y-10358200D02*
X34055714Y-10370581D01*
X34055714Y-10370581D02*
X34068095Y-10382962D01*
X34068095Y-10382962D02*
X34080476Y-10407724D01*
X34080476Y-10407724D02*
X34080476Y-10432486D01*
X34080476Y-10432486D02*
X34068095Y-10469629D01*
X34068095Y-10469629D02*
X33919523Y-10618200D01*
X33919523Y-10618200D02*
X34080476Y-10618200D01*
X34167142Y-10358200D02*
X34340476Y-10358200D01*
X34340476Y-10358200D02*
X34229047Y-10618200D01*
D10*
X16238095Y-14454819D02*
X16238095Y-15264342D01*
X16238095Y-15264342D02*
X16285714Y-15359580D01*
X16285714Y-15359580D02*
X16333333Y-15407200D01*
X16333333Y-15407200D02*
X16428571Y-15454819D01*
X16428571Y-15454819D02*
X16619047Y-15454819D01*
X16619047Y-15454819D02*
X16714285Y-15407200D01*
X16714285Y-15407200D02*
X16761904Y-15359580D01*
X16761904Y-15359580D02*
X16809523Y-15264342D01*
X16809523Y-15264342D02*
X16809523Y-14454819D01*
X17238095Y-14550057D02*
X17285714Y-14502438D01*
X17285714Y-14502438D02*
X17380952Y-14454819D01*
X17380952Y-14454819D02*
X17619047Y-14454819D01*
X17619047Y-14454819D02*
X17714285Y-14502438D01*
X17714285Y-14502438D02*
X17761904Y-14550057D01*
X17761904Y-14550057D02*
X17809523Y-14645295D01*
X17809523Y-14645295D02*
X17809523Y-14740533D01*
X17809523Y-14740533D02*
X17761904Y-14883390D01*
X17761904Y-14883390D02*
X17190476Y-15454819D01*
X17190476Y-15454819D02*
X17809523Y-15454819D01*
D12*
X43868200Y-22742142D02*
X43744391Y-22828809D01*
X43868200Y-22890714D02*
X43608200Y-22890714D01*
X43608200Y-22890714D02*
X43608200Y-22791666D01*
X43608200Y-22791666D02*
X43620581Y-22766904D01*
X43620581Y-22766904D02*
X43632962Y-22754523D01*
X43632962Y-22754523D02*
X43657724Y-22742142D01*
X43657724Y-22742142D02*
X43694867Y-22742142D01*
X43694867Y-22742142D02*
X43719629Y-22754523D01*
X43719629Y-22754523D02*
X43732010Y-22766904D01*
X43732010Y-22766904D02*
X43744391Y-22791666D01*
X43744391Y-22791666D02*
X43744391Y-22890714D01*
X43632962Y-22643095D02*
X43620581Y-22630714D01*
X43620581Y-22630714D02*
X43608200Y-22605952D01*
X43608200Y-22605952D02*
X43608200Y-22544047D01*
X43608200Y-22544047D02*
X43620581Y-22519285D01*
X43620581Y-22519285D02*
X43632962Y-22506904D01*
X43632962Y-22506904D02*
X43657724Y-22494523D01*
X43657724Y-22494523D02*
X43682486Y-22494523D01*
X43682486Y-22494523D02*
X43719629Y-22506904D01*
X43719629Y-22506904D02*
X43868200Y-22655476D01*
X43868200Y-22655476D02*
X43868200Y-22494523D01*
X43694867Y-22271666D02*
X43868200Y-22271666D01*
X43595820Y-22333571D02*
X43781534Y-22395476D01*
X43781534Y-22395476D02*
X43781534Y-22234523D01*
X16518200Y-10767142D02*
X16394391Y-10853809D01*
X16518200Y-10915714D02*
X16258200Y-10915714D01*
X16258200Y-10915714D02*
X16258200Y-10816666D01*
X16258200Y-10816666D02*
X16270581Y-10791904D01*
X16270581Y-10791904D02*
X16282962Y-10779523D01*
X16282962Y-10779523D02*
X16307724Y-10767142D01*
X16307724Y-10767142D02*
X16344867Y-10767142D01*
X16344867Y-10767142D02*
X16369629Y-10779523D01*
X16369629Y-10779523D02*
X16382010Y-10791904D01*
X16382010Y-10791904D02*
X16394391Y-10816666D01*
X16394391Y-10816666D02*
X16394391Y-10915714D01*
X16518200Y-10519523D02*
X16518200Y-10668095D01*
X16518200Y-10593809D02*
X16258200Y-10593809D01*
X16258200Y-10593809D02*
X16295343Y-10618571D01*
X16295343Y-10618571D02*
X16320105Y-10643333D01*
X16320105Y-10643333D02*
X16332486Y-10668095D01*
X16518200Y-10271904D02*
X16518200Y-10420476D01*
X16518200Y-10346190D02*
X16258200Y-10346190D01*
X16258200Y-10346190D02*
X16295343Y-10370952D01*
X16295343Y-10370952D02*
X16320105Y-10395714D01*
X16320105Y-10395714D02*
X16332486Y-10420476D01*
X24432857Y-12418200D02*
X24346190Y-12294391D01*
X24284285Y-12418200D02*
X24284285Y-12158200D01*
X24284285Y-12158200D02*
X24383333Y-12158200D01*
X24383333Y-12158200D02*
X24408095Y-12170581D01*
X24408095Y-12170581D02*
X24420476Y-12182962D01*
X24420476Y-12182962D02*
X24432857Y-12207724D01*
X24432857Y-12207724D02*
X24432857Y-12244867D01*
X24432857Y-12244867D02*
X24420476Y-12269629D01*
X24420476Y-12269629D02*
X24408095Y-12282010D01*
X24408095Y-12282010D02*
X24383333Y-12294391D01*
X24383333Y-12294391D02*
X24284285Y-12294391D01*
X24680476Y-12418200D02*
X24531904Y-12418200D01*
X24606190Y-12418200D02*
X24606190Y-12158200D01*
X24606190Y-12158200D02*
X24581428Y-12195343D01*
X24581428Y-12195343D02*
X24556666Y-12220105D01*
X24556666Y-12220105D02*
X24531904Y-12232486D01*
X24804285Y-12418200D02*
X24853809Y-12418200D01*
X24853809Y-12418200D02*
X24878571Y-12405820D01*
X24878571Y-12405820D02*
X24890952Y-12393439D01*
X24890952Y-12393439D02*
X24915714Y-12356296D01*
X24915714Y-12356296D02*
X24928095Y-12306772D01*
X24928095Y-12306772D02*
X24928095Y-12207724D01*
X24928095Y-12207724D02*
X24915714Y-12182962D01*
X24915714Y-12182962D02*
X24903333Y-12170581D01*
X24903333Y-12170581D02*
X24878571Y-12158200D01*
X24878571Y-12158200D02*
X24829047Y-12158200D01*
X24829047Y-12158200D02*
X24804285Y-12170581D01*
X24804285Y-12170581D02*
X24791904Y-12182962D01*
X24791904Y-12182962D02*
X24779523Y-12207724D01*
X24779523Y-12207724D02*
X24779523Y-12269629D01*
X24779523Y-12269629D02*
X24791904Y-12294391D01*
X24791904Y-12294391D02*
X24804285Y-12306772D01*
X24804285Y-12306772D02*
X24829047Y-12319153D01*
X24829047Y-12319153D02*
X24878571Y-12319153D01*
X24878571Y-12319153D02*
X24903333Y-12306772D01*
X24903333Y-12306772D02*
X24915714Y-12294391D01*
X24915714Y-12294391D02*
X24928095Y-12269629D01*
X28032857Y-10018200D02*
X27946190Y-9894391D01*
X27884285Y-10018200D02*
X27884285Y-9758200D01*
X27884285Y-9758200D02*
X27983333Y-9758200D01*
X27983333Y-9758200D02*
X28008095Y-9770581D01*
X28008095Y-9770581D02*
X28020476Y-9782962D01*
X28020476Y-9782962D02*
X28032857Y-9807724D01*
X28032857Y-9807724D02*
X28032857Y-9844867D01*
X28032857Y-9844867D02*
X28020476Y-9869629D01*
X28020476Y-9869629D02*
X28008095Y-9882010D01*
X28008095Y-9882010D02*
X27983333Y-9894391D01*
X27983333Y-9894391D02*
X27884285Y-9894391D01*
X28131904Y-9782962D02*
X28144285Y-9770581D01*
X28144285Y-9770581D02*
X28169047Y-9758200D01*
X28169047Y-9758200D02*
X28230952Y-9758200D01*
X28230952Y-9758200D02*
X28255714Y-9770581D01*
X28255714Y-9770581D02*
X28268095Y-9782962D01*
X28268095Y-9782962D02*
X28280476Y-9807724D01*
X28280476Y-9807724D02*
X28280476Y-9832486D01*
X28280476Y-9832486D02*
X28268095Y-9869629D01*
X28268095Y-9869629D02*
X28119523Y-10018200D01*
X28119523Y-10018200D02*
X28280476Y-10018200D01*
X28441428Y-9758200D02*
X28466190Y-9758200D01*
X28466190Y-9758200D02*
X28490952Y-9770581D01*
X28490952Y-9770581D02*
X28503333Y-9782962D01*
X28503333Y-9782962D02*
X28515714Y-9807724D01*
X28515714Y-9807724D02*
X28528095Y-9857248D01*
X28528095Y-9857248D02*
X28528095Y-9919153D01*
X28528095Y-9919153D02*
X28515714Y-9968677D01*
X28515714Y-9968677D02*
X28503333Y-9993439D01*
X28503333Y-9993439D02*
X28490952Y-10005820D01*
X28490952Y-10005820D02*
X28466190Y-10018200D01*
X28466190Y-10018200D02*
X28441428Y-10018200D01*
X28441428Y-10018200D02*
X28416666Y-10005820D01*
X28416666Y-10005820D02*
X28404285Y-9993439D01*
X28404285Y-9993439D02*
X28391904Y-9968677D01*
X28391904Y-9968677D02*
X28379523Y-9919153D01*
X28379523Y-9919153D02*
X28379523Y-9857248D01*
X28379523Y-9857248D02*
X28391904Y-9807724D01*
X28391904Y-9807724D02*
X28404285Y-9782962D01*
X28404285Y-9782962D02*
X28416666Y-9770581D01*
X28416666Y-9770581D02*
X28441428Y-9758200D01*
D10*
X49738095Y-25954819D02*
X49738095Y-24954819D01*
X49738095Y-25431009D02*
X50309523Y-25431009D01*
X50309523Y-25954819D02*
X50309523Y-24954819D01*
X50690476Y-24954819D02*
X51309523Y-24954819D01*
X51309523Y-24954819D02*
X50976190Y-25335771D01*
X50976190Y-25335771D02*
X51119047Y-25335771D01*
X51119047Y-25335771D02*
X51214285Y-25383390D01*
X51214285Y-25383390D02*
X51261904Y-25431009D01*
X51261904Y-25431009D02*
X51309523Y-25526247D01*
X51309523Y-25526247D02*
X51309523Y-25764342D01*
X51309523Y-25764342D02*
X51261904Y-25859580D01*
X51261904Y-25859580D02*
X51214285Y-25907200D01*
X51214285Y-25907200D02*
X51119047Y-25954819D01*
X51119047Y-25954819D02*
X50833333Y-25954819D01*
X50833333Y-25954819D02*
X50738095Y-25907200D01*
X50738095Y-25907200D02*
X50690476Y-25859580D01*
D12*
X24432857Y-5618200D02*
X24346190Y-5494391D01*
X24284285Y-5618200D02*
X24284285Y-5358200D01*
X24284285Y-5358200D02*
X24383333Y-5358200D01*
X24383333Y-5358200D02*
X24408095Y-5370581D01*
X24408095Y-5370581D02*
X24420476Y-5382962D01*
X24420476Y-5382962D02*
X24432857Y-5407724D01*
X24432857Y-5407724D02*
X24432857Y-5444867D01*
X24432857Y-5444867D02*
X24420476Y-5469629D01*
X24420476Y-5469629D02*
X24408095Y-5482010D01*
X24408095Y-5482010D02*
X24383333Y-5494391D01*
X24383333Y-5494391D02*
X24284285Y-5494391D01*
X24680476Y-5618200D02*
X24531904Y-5618200D01*
X24606190Y-5618200D02*
X24606190Y-5358200D01*
X24606190Y-5358200D02*
X24581428Y-5395343D01*
X24581428Y-5395343D02*
X24556666Y-5420105D01*
X24556666Y-5420105D02*
X24531904Y-5432486D01*
X24767142Y-5358200D02*
X24940476Y-5358200D01*
X24940476Y-5358200D02*
X24829047Y-5618200D01*
X28158333Y-5589765D02*
X28146429Y-5601670D01*
X28146429Y-5601670D02*
X28110714Y-5613574D01*
X28110714Y-5613574D02*
X28086905Y-5613574D01*
X28086905Y-5613574D02*
X28051191Y-5601670D01*
X28051191Y-5601670D02*
X28027381Y-5577860D01*
X28027381Y-5577860D02*
X28015476Y-5554050D01*
X28015476Y-5554050D02*
X28003572Y-5506431D01*
X28003572Y-5506431D02*
X28003572Y-5470717D01*
X28003572Y-5470717D02*
X28015476Y-5423098D01*
X28015476Y-5423098D02*
X28027381Y-5399289D01*
X28027381Y-5399289D02*
X28051191Y-5375479D01*
X28051191Y-5375479D02*
X28086905Y-5363574D01*
X28086905Y-5363574D02*
X28110714Y-5363574D01*
X28110714Y-5363574D02*
X28146429Y-5375479D01*
X28146429Y-5375479D02*
X28158333Y-5387384D01*
X28384524Y-5363574D02*
X28265476Y-5363574D01*
X28265476Y-5363574D02*
X28253572Y-5482622D01*
X28253572Y-5482622D02*
X28265476Y-5470717D01*
X28265476Y-5470717D02*
X28289286Y-5458812D01*
X28289286Y-5458812D02*
X28348810Y-5458812D01*
X28348810Y-5458812D02*
X28372619Y-5470717D01*
X28372619Y-5470717D02*
X28384524Y-5482622D01*
X28384524Y-5482622D02*
X28396429Y-5506431D01*
X28396429Y-5506431D02*
X28396429Y-5565955D01*
X28396429Y-5565955D02*
X28384524Y-5589765D01*
X28384524Y-5589765D02*
X28372619Y-5601670D01*
X28372619Y-5601670D02*
X28348810Y-5613574D01*
X28348810Y-5613574D02*
X28289286Y-5613574D01*
X28289286Y-5613574D02*
X28265476Y-5601670D01*
X28265476Y-5601670D02*
X28253572Y-5589765D01*
D11*
X12981927Y-9266666D02*
X12791451Y-9399999D01*
X12981927Y-9495237D02*
X12581927Y-9495237D01*
X12581927Y-9495237D02*
X12581927Y-9342856D01*
X12581927Y-9342856D02*
X12600975Y-9304761D01*
X12600975Y-9304761D02*
X12620022Y-9285714D01*
X12620022Y-9285714D02*
X12658118Y-9266666D01*
X12658118Y-9266666D02*
X12715260Y-9266666D01*
X12715260Y-9266666D02*
X12753356Y-9285714D01*
X12753356Y-9285714D02*
X12772403Y-9304761D01*
X12772403Y-9304761D02*
X12791451Y-9342856D01*
X12791451Y-9342856D02*
X12791451Y-9495237D01*
X12581927Y-9133333D02*
X12581927Y-8885714D01*
X12581927Y-8885714D02*
X12734308Y-9019047D01*
X12734308Y-9019047D02*
X12734308Y-8961904D01*
X12734308Y-8961904D02*
X12753356Y-8923809D01*
X12753356Y-8923809D02*
X12772403Y-8904761D01*
X12772403Y-8904761D02*
X12810499Y-8885714D01*
X12810499Y-8885714D02*
X12905737Y-8885714D01*
X12905737Y-8885714D02*
X12943832Y-8904761D01*
X12943832Y-8904761D02*
X12962880Y-8923809D01*
X12962880Y-8923809D02*
X12981927Y-8961904D01*
X12981927Y-8961904D02*
X12981927Y-9076190D01*
X12981927Y-9076190D02*
X12962880Y-9114285D01*
X12962880Y-9114285D02*
X12943832Y-9133333D01*
D13*
X26203942Y-6274285D02*
X26495371Y-6274285D01*
X26495371Y-6274285D02*
X26529657Y-6257142D01*
X26529657Y-6257142D02*
X26546800Y-6240000D01*
X26546800Y-6240000D02*
X26563942Y-6205714D01*
X26563942Y-6205714D02*
X26563942Y-6137142D01*
X26563942Y-6137142D02*
X26546800Y-6102857D01*
X26546800Y-6102857D02*
X26529657Y-6085714D01*
X26529657Y-6085714D02*
X26495371Y-6068571D01*
X26495371Y-6068571D02*
X26203942Y-6068571D01*
X26203942Y-5931428D02*
X26203942Y-5708571D01*
X26203942Y-5708571D02*
X26341085Y-5828571D01*
X26341085Y-5828571D02*
X26341085Y-5777142D01*
X26341085Y-5777142D02*
X26358228Y-5742857D01*
X26358228Y-5742857D02*
X26375371Y-5725714D01*
X26375371Y-5725714D02*
X26409657Y-5708571D01*
X26409657Y-5708571D02*
X26495371Y-5708571D01*
X26495371Y-5708571D02*
X26529657Y-5725714D01*
X26529657Y-5725714D02*
X26546800Y-5742857D01*
X26546800Y-5742857D02*
X26563942Y-5777142D01*
X26563942Y-5777142D02*
X26563942Y-5879999D01*
X26563942Y-5879999D02*
X26546800Y-5914285D01*
X26546800Y-5914285D02*
X26529657Y-5931428D01*
D12*
X29156667Y-21318200D02*
X29070000Y-21194391D01*
X29008095Y-21318200D02*
X29008095Y-21058200D01*
X29008095Y-21058200D02*
X29107143Y-21058200D01*
X29107143Y-21058200D02*
X29131905Y-21070581D01*
X29131905Y-21070581D02*
X29144286Y-21082962D01*
X29144286Y-21082962D02*
X29156667Y-21107724D01*
X29156667Y-21107724D02*
X29156667Y-21144867D01*
X29156667Y-21144867D02*
X29144286Y-21169629D01*
X29144286Y-21169629D02*
X29131905Y-21182010D01*
X29131905Y-21182010D02*
X29107143Y-21194391D01*
X29107143Y-21194391D02*
X29008095Y-21194391D01*
X29243333Y-21058200D02*
X29416667Y-21058200D01*
X29416667Y-21058200D02*
X29305238Y-21318200D01*
D10*
X50459819Y-15328333D02*
X51174104Y-15328333D01*
X51174104Y-15328333D02*
X51316961Y-15375952D01*
X51316961Y-15375952D02*
X51412200Y-15471190D01*
X51412200Y-15471190D02*
X51459819Y-15614047D01*
X51459819Y-15614047D02*
X51459819Y-15709285D01*
X50555057Y-14899761D02*
X50507438Y-14852142D01*
X50507438Y-14852142D02*
X50459819Y-14756904D01*
X50459819Y-14756904D02*
X50459819Y-14518809D01*
X50459819Y-14518809D02*
X50507438Y-14423571D01*
X50507438Y-14423571D02*
X50555057Y-14375952D01*
X50555057Y-14375952D02*
X50650295Y-14328333D01*
X50650295Y-14328333D02*
X50745533Y-14328333D01*
X50745533Y-14328333D02*
X50888390Y-14375952D01*
X50888390Y-14375952D02*
X51459819Y-14947380D01*
X51459819Y-14947380D02*
X51459819Y-14328333D01*
D13*
X34969523Y-14175914D02*
X34939047Y-14160676D01*
X34939047Y-14160676D02*
X34908571Y-14130200D01*
X34908571Y-14130200D02*
X34862857Y-14084485D01*
X34862857Y-14084485D02*
X34832380Y-14069247D01*
X34832380Y-14069247D02*
X34801904Y-14069247D01*
X34817142Y-14145438D02*
X34786666Y-14130200D01*
X34786666Y-14130200D02*
X34756190Y-14099723D01*
X34756190Y-14099723D02*
X34740952Y-14038771D01*
X34740952Y-14038771D02*
X34740952Y-13932104D01*
X34740952Y-13932104D02*
X34756190Y-13871152D01*
X34756190Y-13871152D02*
X34786666Y-13840676D01*
X34786666Y-13840676D02*
X34817142Y-13825438D01*
X34817142Y-13825438D02*
X34878095Y-13825438D01*
X34878095Y-13825438D02*
X34908571Y-13840676D01*
X34908571Y-13840676D02*
X34939047Y-13871152D01*
X34939047Y-13871152D02*
X34954285Y-13932104D01*
X34954285Y-13932104D02*
X34954285Y-14038771D01*
X34954285Y-14038771D02*
X34939047Y-14099723D01*
X34939047Y-14099723D02*
X34908571Y-14130200D01*
X34908571Y-14130200D02*
X34878095Y-14145438D01*
X34878095Y-14145438D02*
X34817142Y-14145438D01*
X35228571Y-13932104D02*
X35228571Y-14145438D01*
X35152380Y-13810200D02*
X35076190Y-14038771D01*
X35076190Y-14038771D02*
X35274285Y-14038771D01*
D12*
X28032857Y-3218200D02*
X27946190Y-3094391D01*
X27884285Y-3218200D02*
X27884285Y-2958200D01*
X27884285Y-2958200D02*
X27983333Y-2958200D01*
X27983333Y-2958200D02*
X28008095Y-2970581D01*
X28008095Y-2970581D02*
X28020476Y-2982962D01*
X28020476Y-2982962D02*
X28032857Y-3007724D01*
X28032857Y-3007724D02*
X28032857Y-3044867D01*
X28032857Y-3044867D02*
X28020476Y-3069629D01*
X28020476Y-3069629D02*
X28008095Y-3082010D01*
X28008095Y-3082010D02*
X27983333Y-3094391D01*
X27983333Y-3094391D02*
X27884285Y-3094391D01*
X28131904Y-2982962D02*
X28144285Y-2970581D01*
X28144285Y-2970581D02*
X28169047Y-2958200D01*
X28169047Y-2958200D02*
X28230952Y-2958200D01*
X28230952Y-2958200D02*
X28255714Y-2970581D01*
X28255714Y-2970581D02*
X28268095Y-2982962D01*
X28268095Y-2982962D02*
X28280476Y-3007724D01*
X28280476Y-3007724D02*
X28280476Y-3032486D01*
X28280476Y-3032486D02*
X28268095Y-3069629D01*
X28268095Y-3069629D02*
X28119523Y-3218200D01*
X28119523Y-3218200D02*
X28280476Y-3218200D01*
X28379523Y-2982962D02*
X28391904Y-2970581D01*
X28391904Y-2970581D02*
X28416666Y-2958200D01*
X28416666Y-2958200D02*
X28478571Y-2958200D01*
X28478571Y-2958200D02*
X28503333Y-2970581D01*
X28503333Y-2970581D02*
X28515714Y-2982962D01*
X28515714Y-2982962D02*
X28528095Y-3007724D01*
X28528095Y-3007724D02*
X28528095Y-3032486D01*
X28528095Y-3032486D02*
X28515714Y-3069629D01*
X28515714Y-3069629D02*
X28367142Y-3218200D01*
X28367142Y-3218200D02*
X28528095Y-3218200D01*
X35696428Y-10613574D02*
X35696428Y-10363574D01*
X35696428Y-10363574D02*
X35755952Y-10363574D01*
X35755952Y-10363574D02*
X35791666Y-10375479D01*
X35791666Y-10375479D02*
X35815476Y-10399289D01*
X35815476Y-10399289D02*
X35827381Y-10423098D01*
X35827381Y-10423098D02*
X35839285Y-10470717D01*
X35839285Y-10470717D02*
X35839285Y-10506431D01*
X35839285Y-10506431D02*
X35827381Y-10554050D01*
X35827381Y-10554050D02*
X35815476Y-10577860D01*
X35815476Y-10577860D02*
X35791666Y-10601670D01*
X35791666Y-10601670D02*
X35755952Y-10613574D01*
X35755952Y-10613574D02*
X35696428Y-10613574D01*
X36077381Y-10613574D02*
X35934524Y-10613574D01*
X36005952Y-10613574D02*
X36005952Y-10363574D01*
X36005952Y-10363574D02*
X35982143Y-10399289D01*
X35982143Y-10399289D02*
X35958333Y-10423098D01*
X35958333Y-10423098D02*
X35934524Y-10435003D01*
X36232142Y-10363574D02*
X36255952Y-10363574D01*
X36255952Y-10363574D02*
X36279761Y-10375479D01*
X36279761Y-10375479D02*
X36291666Y-10387384D01*
X36291666Y-10387384D02*
X36303571Y-10411193D01*
X36303571Y-10411193D02*
X36315476Y-10458812D01*
X36315476Y-10458812D02*
X36315476Y-10518336D01*
X36315476Y-10518336D02*
X36303571Y-10565955D01*
X36303571Y-10565955D02*
X36291666Y-10589765D01*
X36291666Y-10589765D02*
X36279761Y-10601670D01*
X36279761Y-10601670D02*
X36255952Y-10613574D01*
X36255952Y-10613574D02*
X36232142Y-10613574D01*
X36232142Y-10613574D02*
X36208333Y-10601670D01*
X36208333Y-10601670D02*
X36196428Y-10589765D01*
X36196428Y-10589765D02*
X36184523Y-10565955D01*
X36184523Y-10565955D02*
X36172619Y-10518336D01*
X36172619Y-10518336D02*
X36172619Y-10458812D01*
X36172619Y-10458812D02*
X36184523Y-10411193D01*
X36184523Y-10411193D02*
X36196428Y-10387384D01*
X36196428Y-10387384D02*
X36208333Y-10375479D01*
X36208333Y-10375479D02*
X36232142Y-10363574D01*
X28158333Y-12389765D02*
X28146429Y-12401670D01*
X28146429Y-12401670D02*
X28110714Y-12413574D01*
X28110714Y-12413574D02*
X28086905Y-12413574D01*
X28086905Y-12413574D02*
X28051191Y-12401670D01*
X28051191Y-12401670D02*
X28027381Y-12377860D01*
X28027381Y-12377860D02*
X28015476Y-12354050D01*
X28015476Y-12354050D02*
X28003572Y-12306431D01*
X28003572Y-12306431D02*
X28003572Y-12270717D01*
X28003572Y-12270717D02*
X28015476Y-12223098D01*
X28015476Y-12223098D02*
X28027381Y-12199289D01*
X28027381Y-12199289D02*
X28051191Y-12175479D01*
X28051191Y-12175479D02*
X28086905Y-12163574D01*
X28086905Y-12163574D02*
X28110714Y-12163574D01*
X28110714Y-12163574D02*
X28146429Y-12175479D01*
X28146429Y-12175479D02*
X28158333Y-12187384D01*
X28241667Y-12163574D02*
X28408333Y-12163574D01*
X28408333Y-12163574D02*
X28301191Y-12413574D01*
X28032857Y-13418200D02*
X27946190Y-13294391D01*
X27884285Y-13418200D02*
X27884285Y-13158200D01*
X27884285Y-13158200D02*
X27983333Y-13158200D01*
X27983333Y-13158200D02*
X28008095Y-13170581D01*
X28008095Y-13170581D02*
X28020476Y-13182962D01*
X28020476Y-13182962D02*
X28032857Y-13207724D01*
X28032857Y-13207724D02*
X28032857Y-13244867D01*
X28032857Y-13244867D02*
X28020476Y-13269629D01*
X28020476Y-13269629D02*
X28008095Y-13282010D01*
X28008095Y-13282010D02*
X27983333Y-13294391D01*
X27983333Y-13294391D02*
X27884285Y-13294391D01*
X28131904Y-13182962D02*
X28144285Y-13170581D01*
X28144285Y-13170581D02*
X28169047Y-13158200D01*
X28169047Y-13158200D02*
X28230952Y-13158200D01*
X28230952Y-13158200D02*
X28255714Y-13170581D01*
X28255714Y-13170581D02*
X28268095Y-13182962D01*
X28268095Y-13182962D02*
X28280476Y-13207724D01*
X28280476Y-13207724D02*
X28280476Y-13232486D01*
X28280476Y-13232486D02*
X28268095Y-13269629D01*
X28268095Y-13269629D02*
X28119523Y-13418200D01*
X28119523Y-13418200D02*
X28280476Y-13418200D01*
X28367142Y-13158200D02*
X28528095Y-13158200D01*
X28528095Y-13158200D02*
X28441428Y-13257248D01*
X28441428Y-13257248D02*
X28478571Y-13257248D01*
X28478571Y-13257248D02*
X28503333Y-13269629D01*
X28503333Y-13269629D02*
X28515714Y-13282010D01*
X28515714Y-13282010D02*
X28528095Y-13306772D01*
X28528095Y-13306772D02*
X28528095Y-13368677D01*
X28528095Y-13368677D02*
X28515714Y-13393439D01*
X28515714Y-13393439D02*
X28503333Y-13405820D01*
X28503333Y-13405820D02*
X28478571Y-13418200D01*
X28478571Y-13418200D02*
X28404285Y-13418200D01*
X28404285Y-13418200D02*
X28379523Y-13405820D01*
X28379523Y-13405820D02*
X28367142Y-13393439D01*
D13*
X34969523Y-17675914D02*
X34939047Y-17660676D01*
X34939047Y-17660676D02*
X34908571Y-17630200D01*
X34908571Y-17630200D02*
X34862857Y-17584485D01*
X34862857Y-17584485D02*
X34832380Y-17569247D01*
X34832380Y-17569247D02*
X34801904Y-17569247D01*
X34817142Y-17645438D02*
X34786666Y-17630200D01*
X34786666Y-17630200D02*
X34756190Y-17599723D01*
X34756190Y-17599723D02*
X34740952Y-17538771D01*
X34740952Y-17538771D02*
X34740952Y-17432104D01*
X34740952Y-17432104D02*
X34756190Y-17371152D01*
X34756190Y-17371152D02*
X34786666Y-17340676D01*
X34786666Y-17340676D02*
X34817142Y-17325438D01*
X34817142Y-17325438D02*
X34878095Y-17325438D01*
X34878095Y-17325438D02*
X34908571Y-17340676D01*
X34908571Y-17340676D02*
X34939047Y-17371152D01*
X34939047Y-17371152D02*
X34954285Y-17432104D01*
X34954285Y-17432104D02*
X34954285Y-17538771D01*
X34954285Y-17538771D02*
X34939047Y-17599723D01*
X34939047Y-17599723D02*
X34908571Y-17630200D01*
X34908571Y-17630200D02*
X34878095Y-17645438D01*
X34878095Y-17645438D02*
X34817142Y-17645438D01*
X35060952Y-17325438D02*
X35259047Y-17325438D01*
X35259047Y-17325438D02*
X35152380Y-17447342D01*
X35152380Y-17447342D02*
X35198095Y-17447342D01*
X35198095Y-17447342D02*
X35228571Y-17462580D01*
X35228571Y-17462580D02*
X35243809Y-17477819D01*
X35243809Y-17477819D02*
X35259047Y-17508295D01*
X35259047Y-17508295D02*
X35259047Y-17584485D01*
X35259047Y-17584485D02*
X35243809Y-17614961D01*
X35243809Y-17614961D02*
X35228571Y-17630200D01*
X35228571Y-17630200D02*
X35198095Y-17645438D01*
X35198095Y-17645438D02*
X35106666Y-17645438D01*
X35106666Y-17645438D02*
X35076190Y-17630200D01*
X35076190Y-17630200D02*
X35060952Y-17614961D01*
D12*
X8913574Y-20584523D02*
X8663574Y-20584523D01*
X8663574Y-20584523D02*
X8663574Y-20524999D01*
X8663574Y-20524999D02*
X8675479Y-20489285D01*
X8675479Y-20489285D02*
X8699289Y-20465475D01*
X8699289Y-20465475D02*
X8723098Y-20453570D01*
X8723098Y-20453570D02*
X8770717Y-20441666D01*
X8770717Y-20441666D02*
X8806431Y-20441666D01*
X8806431Y-20441666D02*
X8854050Y-20453570D01*
X8854050Y-20453570D02*
X8877860Y-20465475D01*
X8877860Y-20465475D02*
X8901670Y-20489285D01*
X8901670Y-20489285D02*
X8913574Y-20524999D01*
X8913574Y-20524999D02*
X8913574Y-20584523D01*
X8663574Y-20358332D02*
X8663574Y-20203570D01*
X8663574Y-20203570D02*
X8758812Y-20286904D01*
X8758812Y-20286904D02*
X8758812Y-20251189D01*
X8758812Y-20251189D02*
X8770717Y-20227380D01*
X8770717Y-20227380D02*
X8782622Y-20215475D01*
X8782622Y-20215475D02*
X8806431Y-20203570D01*
X8806431Y-20203570D02*
X8865955Y-20203570D01*
X8865955Y-20203570D02*
X8889765Y-20215475D01*
X8889765Y-20215475D02*
X8901670Y-20227380D01*
X8901670Y-20227380D02*
X8913574Y-20251189D01*
X8913574Y-20251189D02*
X8913574Y-20322618D01*
X8913574Y-20322618D02*
X8901670Y-20346427D01*
X8901670Y-20346427D02*
X8889765Y-20358332D01*
X24156667Y-27118200D02*
X24070000Y-26994391D01*
X24008095Y-27118200D02*
X24008095Y-26858200D01*
X24008095Y-26858200D02*
X24107143Y-26858200D01*
X24107143Y-26858200D02*
X24131905Y-26870581D01*
X24131905Y-26870581D02*
X24144286Y-26882962D01*
X24144286Y-26882962D02*
X24156667Y-26907724D01*
X24156667Y-26907724D02*
X24156667Y-26944867D01*
X24156667Y-26944867D02*
X24144286Y-26969629D01*
X24144286Y-26969629D02*
X24131905Y-26982010D01*
X24131905Y-26982010D02*
X24107143Y-26994391D01*
X24107143Y-26994391D02*
X24008095Y-26994391D01*
X24379524Y-26944867D02*
X24379524Y-27118200D01*
X24317619Y-26845820D02*
X24255714Y-27031534D01*
X24255714Y-27031534D02*
X24416667Y-27031534D01*
X17918200Y-10767142D02*
X17794391Y-10853809D01*
X17918200Y-10915714D02*
X17658200Y-10915714D01*
X17658200Y-10915714D02*
X17658200Y-10816666D01*
X17658200Y-10816666D02*
X17670581Y-10791904D01*
X17670581Y-10791904D02*
X17682962Y-10779523D01*
X17682962Y-10779523D02*
X17707724Y-10767142D01*
X17707724Y-10767142D02*
X17744867Y-10767142D01*
X17744867Y-10767142D02*
X17769629Y-10779523D01*
X17769629Y-10779523D02*
X17782010Y-10791904D01*
X17782010Y-10791904D02*
X17794391Y-10816666D01*
X17794391Y-10816666D02*
X17794391Y-10915714D01*
X17918200Y-10519523D02*
X17918200Y-10668095D01*
X17918200Y-10593809D02*
X17658200Y-10593809D01*
X17658200Y-10593809D02*
X17695343Y-10618571D01*
X17695343Y-10618571D02*
X17720105Y-10643333D01*
X17720105Y-10643333D02*
X17732486Y-10668095D01*
X17682962Y-10420476D02*
X17670581Y-10408095D01*
X17670581Y-10408095D02*
X17658200Y-10383333D01*
X17658200Y-10383333D02*
X17658200Y-10321428D01*
X17658200Y-10321428D02*
X17670581Y-10296666D01*
X17670581Y-10296666D02*
X17682962Y-10284285D01*
X17682962Y-10284285D02*
X17707724Y-10271904D01*
X17707724Y-10271904D02*
X17732486Y-10271904D01*
X17732486Y-10271904D02*
X17769629Y-10284285D01*
X17769629Y-10284285D02*
X17918200Y-10432857D01*
X17918200Y-10432857D02*
X17918200Y-10271904D01*
X18815476Y-23713574D02*
X18815476Y-23463574D01*
X18815476Y-23463574D02*
X18875000Y-23463574D01*
X18875000Y-23463574D02*
X18910714Y-23475479D01*
X18910714Y-23475479D02*
X18934524Y-23499289D01*
X18934524Y-23499289D02*
X18946429Y-23523098D01*
X18946429Y-23523098D02*
X18958333Y-23570717D01*
X18958333Y-23570717D02*
X18958333Y-23606431D01*
X18958333Y-23606431D02*
X18946429Y-23654050D01*
X18946429Y-23654050D02*
X18934524Y-23677860D01*
X18934524Y-23677860D02*
X18910714Y-23701670D01*
X18910714Y-23701670D02*
X18875000Y-23713574D01*
X18875000Y-23713574D02*
X18815476Y-23713574D01*
X19184524Y-23463574D02*
X19065476Y-23463574D01*
X19065476Y-23463574D02*
X19053572Y-23582622D01*
X19053572Y-23582622D02*
X19065476Y-23570717D01*
X19065476Y-23570717D02*
X19089286Y-23558812D01*
X19089286Y-23558812D02*
X19148810Y-23558812D01*
X19148810Y-23558812D02*
X19172619Y-23570717D01*
X19172619Y-23570717D02*
X19184524Y-23582622D01*
X19184524Y-23582622D02*
X19196429Y-23606431D01*
X19196429Y-23606431D02*
X19196429Y-23665955D01*
X19196429Y-23665955D02*
X19184524Y-23689765D01*
X19184524Y-23689765D02*
X19172619Y-23701670D01*
X19172619Y-23701670D02*
X19148810Y-23713574D01*
X19148810Y-23713574D02*
X19089286Y-23713574D01*
X19089286Y-23713574D02*
X19065476Y-23701670D01*
X19065476Y-23701670D02*
X19053572Y-23689765D01*
X15889765Y-19241666D02*
X15901670Y-19253570D01*
X15901670Y-19253570D02*
X15913574Y-19289285D01*
X15913574Y-19289285D02*
X15913574Y-19313094D01*
X15913574Y-19313094D02*
X15901670Y-19348808D01*
X15901670Y-19348808D02*
X15877860Y-19372618D01*
X15877860Y-19372618D02*
X15854050Y-19384523D01*
X15854050Y-19384523D02*
X15806431Y-19396427D01*
X15806431Y-19396427D02*
X15770717Y-19396427D01*
X15770717Y-19396427D02*
X15723098Y-19384523D01*
X15723098Y-19384523D02*
X15699289Y-19372618D01*
X15699289Y-19372618D02*
X15675479Y-19348808D01*
X15675479Y-19348808D02*
X15663574Y-19313094D01*
X15663574Y-19313094D02*
X15663574Y-19289285D01*
X15663574Y-19289285D02*
X15675479Y-19253570D01*
X15675479Y-19253570D02*
X15687384Y-19241666D01*
X15663574Y-19158332D02*
X15663574Y-19003570D01*
X15663574Y-19003570D02*
X15758812Y-19086904D01*
X15758812Y-19086904D02*
X15758812Y-19051189D01*
X15758812Y-19051189D02*
X15770717Y-19027380D01*
X15770717Y-19027380D02*
X15782622Y-19015475D01*
X15782622Y-19015475D02*
X15806431Y-19003570D01*
X15806431Y-19003570D02*
X15865955Y-19003570D01*
X15865955Y-19003570D02*
X15889765Y-19015475D01*
X15889765Y-19015475D02*
X15901670Y-19027380D01*
X15901670Y-19027380D02*
X15913574Y-19051189D01*
X15913574Y-19051189D02*
X15913574Y-19122618D01*
X15913574Y-19122618D02*
X15901670Y-19146427D01*
X15901670Y-19146427D02*
X15889765Y-19158332D01*
D13*
X32369523Y-24975914D02*
X32339047Y-24960676D01*
X32339047Y-24960676D02*
X32308571Y-24930200D01*
X32308571Y-24930200D02*
X32262857Y-24884485D01*
X32262857Y-24884485D02*
X32232380Y-24869247D01*
X32232380Y-24869247D02*
X32201904Y-24869247D01*
X32217142Y-24945438D02*
X32186666Y-24930200D01*
X32186666Y-24930200D02*
X32156190Y-24899723D01*
X32156190Y-24899723D02*
X32140952Y-24838771D01*
X32140952Y-24838771D02*
X32140952Y-24732104D01*
X32140952Y-24732104D02*
X32156190Y-24671152D01*
X32156190Y-24671152D02*
X32186666Y-24640676D01*
X32186666Y-24640676D02*
X32217142Y-24625438D01*
X32217142Y-24625438D02*
X32278095Y-24625438D01*
X32278095Y-24625438D02*
X32308571Y-24640676D01*
X32308571Y-24640676D02*
X32339047Y-24671152D01*
X32339047Y-24671152D02*
X32354285Y-24732104D01*
X32354285Y-24732104D02*
X32354285Y-24838771D01*
X32354285Y-24838771D02*
X32339047Y-24899723D01*
X32339047Y-24899723D02*
X32308571Y-24930200D01*
X32308571Y-24930200D02*
X32278095Y-24945438D01*
X32278095Y-24945438D02*
X32217142Y-24945438D01*
X32476190Y-24655914D02*
X32491428Y-24640676D01*
X32491428Y-24640676D02*
X32521904Y-24625438D01*
X32521904Y-24625438D02*
X32598095Y-24625438D01*
X32598095Y-24625438D02*
X32628571Y-24640676D01*
X32628571Y-24640676D02*
X32643809Y-24655914D01*
X32643809Y-24655914D02*
X32659047Y-24686390D01*
X32659047Y-24686390D02*
X32659047Y-24716866D01*
X32659047Y-24716866D02*
X32643809Y-24762580D01*
X32643809Y-24762580D02*
X32460952Y-24945438D01*
X32460952Y-24945438D02*
X32659047Y-24945438D01*
D12*
X16832857Y-23718200D02*
X16746190Y-23594391D01*
X16684285Y-23718200D02*
X16684285Y-23458200D01*
X16684285Y-23458200D02*
X16783333Y-23458200D01*
X16783333Y-23458200D02*
X16808095Y-23470581D01*
X16808095Y-23470581D02*
X16820476Y-23482962D01*
X16820476Y-23482962D02*
X16832857Y-23507724D01*
X16832857Y-23507724D02*
X16832857Y-23544867D01*
X16832857Y-23544867D02*
X16820476Y-23569629D01*
X16820476Y-23569629D02*
X16808095Y-23582010D01*
X16808095Y-23582010D02*
X16783333Y-23594391D01*
X16783333Y-23594391D02*
X16684285Y-23594391D01*
X17080476Y-23718200D02*
X16931904Y-23718200D01*
X17006190Y-23718200D02*
X17006190Y-23458200D01*
X17006190Y-23458200D02*
X16981428Y-23495343D01*
X16981428Y-23495343D02*
X16956666Y-23520105D01*
X16956666Y-23520105D02*
X16931904Y-23532486D01*
X17241428Y-23458200D02*
X17266190Y-23458200D01*
X17266190Y-23458200D02*
X17290952Y-23470581D01*
X17290952Y-23470581D02*
X17303333Y-23482962D01*
X17303333Y-23482962D02*
X17315714Y-23507724D01*
X17315714Y-23507724D02*
X17328095Y-23557248D01*
X17328095Y-23557248D02*
X17328095Y-23619153D01*
X17328095Y-23619153D02*
X17315714Y-23668677D01*
X17315714Y-23668677D02*
X17303333Y-23693439D01*
X17303333Y-23693439D02*
X17290952Y-23705820D01*
X17290952Y-23705820D02*
X17266190Y-23718200D01*
X17266190Y-23718200D02*
X17241428Y-23718200D01*
X17241428Y-23718200D02*
X17216666Y-23705820D01*
X17216666Y-23705820D02*
X17204285Y-23693439D01*
X17204285Y-23693439D02*
X17191904Y-23668677D01*
X17191904Y-23668677D02*
X17179523Y-23619153D01*
X17179523Y-23619153D02*
X17179523Y-23557248D01*
X17179523Y-23557248D02*
X17191904Y-23507724D01*
X17191904Y-23507724D02*
X17204285Y-23482962D01*
X17204285Y-23482962D02*
X17216666Y-23470581D01*
X17216666Y-23470581D02*
X17241428Y-23458200D01*
D13*
X26203942Y-9674285D02*
X26495371Y-9674285D01*
X26495371Y-9674285D02*
X26529657Y-9657142D01*
X26529657Y-9657142D02*
X26546800Y-9640000D01*
X26546800Y-9640000D02*
X26563942Y-9605714D01*
X26563942Y-9605714D02*
X26563942Y-9537142D01*
X26563942Y-9537142D02*
X26546800Y-9502857D01*
X26546800Y-9502857D02*
X26529657Y-9485714D01*
X26529657Y-9485714D02*
X26495371Y-9468571D01*
X26495371Y-9468571D02*
X26203942Y-9468571D01*
X26203942Y-9142857D02*
X26203942Y-9211428D01*
X26203942Y-9211428D02*
X26221085Y-9245714D01*
X26221085Y-9245714D02*
X26238228Y-9262857D01*
X26238228Y-9262857D02*
X26289657Y-9297142D01*
X26289657Y-9297142D02*
X26358228Y-9314285D01*
X26358228Y-9314285D02*
X26495371Y-9314285D01*
X26495371Y-9314285D02*
X26529657Y-9297142D01*
X26529657Y-9297142D02*
X26546800Y-9279999D01*
X26546800Y-9279999D02*
X26563942Y-9245714D01*
X26563942Y-9245714D02*
X26563942Y-9177142D01*
X26563942Y-9177142D02*
X26546800Y-9142857D01*
X26546800Y-9142857D02*
X26529657Y-9125714D01*
X26529657Y-9125714D02*
X26495371Y-9108571D01*
X26495371Y-9108571D02*
X26409657Y-9108571D01*
X26409657Y-9108571D02*
X26375371Y-9125714D01*
X26375371Y-9125714D02*
X26358228Y-9142857D01*
X26358228Y-9142857D02*
X26341085Y-9177142D01*
X26341085Y-9177142D02*
X26341085Y-9245714D01*
X26341085Y-9245714D02*
X26358228Y-9279999D01*
X26358228Y-9279999D02*
X26375371Y-9297142D01*
X26375371Y-9297142D02*
X26409657Y-9314285D01*
D12*
X24156667Y-26118200D02*
X24070000Y-25994391D01*
X24008095Y-26118200D02*
X24008095Y-25858200D01*
X24008095Y-25858200D02*
X24107143Y-25858200D01*
X24107143Y-25858200D02*
X24131905Y-25870581D01*
X24131905Y-25870581D02*
X24144286Y-25882962D01*
X24144286Y-25882962D02*
X24156667Y-25907724D01*
X24156667Y-25907724D02*
X24156667Y-25944867D01*
X24156667Y-25944867D02*
X24144286Y-25969629D01*
X24144286Y-25969629D02*
X24131905Y-25982010D01*
X24131905Y-25982010D02*
X24107143Y-25994391D01*
X24107143Y-25994391D02*
X24008095Y-25994391D01*
X24391905Y-25858200D02*
X24268095Y-25858200D01*
X24268095Y-25858200D02*
X24255714Y-25982010D01*
X24255714Y-25982010D02*
X24268095Y-25969629D01*
X24268095Y-25969629D02*
X24292857Y-25957248D01*
X24292857Y-25957248D02*
X24354762Y-25957248D01*
X24354762Y-25957248D02*
X24379524Y-25969629D01*
X24379524Y-25969629D02*
X24391905Y-25982010D01*
X24391905Y-25982010D02*
X24404286Y-26006772D01*
X24404286Y-26006772D02*
X24404286Y-26068677D01*
X24404286Y-26068677D02*
X24391905Y-26093439D01*
X24391905Y-26093439D02*
X24379524Y-26105820D01*
X24379524Y-26105820D02*
X24354762Y-26118200D01*
X24354762Y-26118200D02*
X24292857Y-26118200D01*
X24292857Y-26118200D02*
X24268095Y-26105820D01*
X24268095Y-26105820D02*
X24255714Y-26093439D01*
X24432857Y-3218200D02*
X24346190Y-3094391D01*
X24284285Y-3218200D02*
X24284285Y-2958200D01*
X24284285Y-2958200D02*
X24383333Y-2958200D01*
X24383333Y-2958200D02*
X24408095Y-2970581D01*
X24408095Y-2970581D02*
X24420476Y-2982962D01*
X24420476Y-2982962D02*
X24432857Y-3007724D01*
X24432857Y-3007724D02*
X24432857Y-3044867D01*
X24432857Y-3044867D02*
X24420476Y-3069629D01*
X24420476Y-3069629D02*
X24408095Y-3082010D01*
X24408095Y-3082010D02*
X24383333Y-3094391D01*
X24383333Y-3094391D02*
X24284285Y-3094391D01*
X24680476Y-3218200D02*
X24531904Y-3218200D01*
X24606190Y-3218200D02*
X24606190Y-2958200D01*
X24606190Y-2958200D02*
X24581428Y-2995343D01*
X24581428Y-2995343D02*
X24556666Y-3020105D01*
X24556666Y-3020105D02*
X24531904Y-3032486D01*
X24903333Y-2958200D02*
X24853809Y-2958200D01*
X24853809Y-2958200D02*
X24829047Y-2970581D01*
X24829047Y-2970581D02*
X24816666Y-2982962D01*
X24816666Y-2982962D02*
X24791904Y-3020105D01*
X24791904Y-3020105D02*
X24779523Y-3069629D01*
X24779523Y-3069629D02*
X24779523Y-3168677D01*
X24779523Y-3168677D02*
X24791904Y-3193439D01*
X24791904Y-3193439D02*
X24804285Y-3205820D01*
X24804285Y-3205820D02*
X24829047Y-3218200D01*
X24829047Y-3218200D02*
X24878571Y-3218200D01*
X24878571Y-3218200D02*
X24903333Y-3205820D01*
X24903333Y-3205820D02*
X24915714Y-3193439D01*
X24915714Y-3193439D02*
X24928095Y-3168677D01*
X24928095Y-3168677D02*
X24928095Y-3106772D01*
X24928095Y-3106772D02*
X24915714Y-3082010D01*
X24915714Y-3082010D02*
X24903333Y-3069629D01*
X24903333Y-3069629D02*
X24878571Y-3057248D01*
X24878571Y-3057248D02*
X24829047Y-3057248D01*
X24829047Y-3057248D02*
X24804285Y-3069629D01*
X24804285Y-3069629D02*
X24791904Y-3082010D01*
X24791904Y-3082010D02*
X24779523Y-3106772D01*
D13*
X32369523Y-21575914D02*
X32339047Y-21560676D01*
X32339047Y-21560676D02*
X32308571Y-21530200D01*
X32308571Y-21530200D02*
X32262857Y-21484485D01*
X32262857Y-21484485D02*
X32232380Y-21469247D01*
X32232380Y-21469247D02*
X32201904Y-21469247D01*
X32217142Y-21545438D02*
X32186666Y-21530200D01*
X32186666Y-21530200D02*
X32156190Y-21499723D01*
X32156190Y-21499723D02*
X32140952Y-21438771D01*
X32140952Y-21438771D02*
X32140952Y-21332104D01*
X32140952Y-21332104D02*
X32156190Y-21271152D01*
X32156190Y-21271152D02*
X32186666Y-21240676D01*
X32186666Y-21240676D02*
X32217142Y-21225438D01*
X32217142Y-21225438D02*
X32278095Y-21225438D01*
X32278095Y-21225438D02*
X32308571Y-21240676D01*
X32308571Y-21240676D02*
X32339047Y-21271152D01*
X32339047Y-21271152D02*
X32354285Y-21332104D01*
X32354285Y-21332104D02*
X32354285Y-21438771D01*
X32354285Y-21438771D02*
X32339047Y-21499723D01*
X32339047Y-21499723D02*
X32308571Y-21530200D01*
X32308571Y-21530200D02*
X32278095Y-21545438D01*
X32278095Y-21545438D02*
X32217142Y-21545438D01*
X32659047Y-21545438D02*
X32476190Y-21545438D01*
X32567618Y-21545438D02*
X32567618Y-21225438D01*
X32567618Y-21225438D02*
X32537142Y-21271152D01*
X32537142Y-21271152D02*
X32506666Y-21301628D01*
X32506666Y-21301628D02*
X32476190Y-21316866D01*
X26203942Y-13074285D02*
X26495371Y-13074285D01*
X26495371Y-13074285D02*
X26529657Y-13057142D01*
X26529657Y-13057142D02*
X26546800Y-13040000D01*
X26546800Y-13040000D02*
X26563942Y-13005714D01*
X26563942Y-13005714D02*
X26563942Y-12937142D01*
X26563942Y-12937142D02*
X26546800Y-12902857D01*
X26546800Y-12902857D02*
X26529657Y-12885714D01*
X26529657Y-12885714D02*
X26495371Y-12868571D01*
X26495371Y-12868571D02*
X26203942Y-12868571D01*
X26203942Y-12525714D02*
X26203942Y-12697142D01*
X26203942Y-12697142D02*
X26375371Y-12714285D01*
X26375371Y-12714285D02*
X26358228Y-12697142D01*
X26358228Y-12697142D02*
X26341085Y-12662857D01*
X26341085Y-12662857D02*
X26341085Y-12577142D01*
X26341085Y-12577142D02*
X26358228Y-12542857D01*
X26358228Y-12542857D02*
X26375371Y-12525714D01*
X26375371Y-12525714D02*
X26409657Y-12508571D01*
X26409657Y-12508571D02*
X26495371Y-12508571D01*
X26495371Y-12508571D02*
X26529657Y-12525714D01*
X26529657Y-12525714D02*
X26546800Y-12542857D01*
X26546800Y-12542857D02*
X26563942Y-12577142D01*
X26563942Y-12577142D02*
X26563942Y-12662857D01*
X26563942Y-12662857D02*
X26546800Y-12697142D01*
X26546800Y-12697142D02*
X26529657Y-12714285D01*
D12*
X28158333Y-2189765D02*
X28146429Y-2201670D01*
X28146429Y-2201670D02*
X28110714Y-2213574D01*
X28110714Y-2213574D02*
X28086905Y-2213574D01*
X28086905Y-2213574D02*
X28051191Y-2201670D01*
X28051191Y-2201670D02*
X28027381Y-2177860D01*
X28027381Y-2177860D02*
X28015476Y-2154050D01*
X28015476Y-2154050D02*
X28003572Y-2106431D01*
X28003572Y-2106431D02*
X28003572Y-2070717D01*
X28003572Y-2070717D02*
X28015476Y-2023098D01*
X28015476Y-2023098D02*
X28027381Y-1999289D01*
X28027381Y-1999289D02*
X28051191Y-1975479D01*
X28051191Y-1975479D02*
X28086905Y-1963574D01*
X28086905Y-1963574D02*
X28110714Y-1963574D01*
X28110714Y-1963574D02*
X28146429Y-1975479D01*
X28146429Y-1975479D02*
X28158333Y-1987384D01*
X28372619Y-1963574D02*
X28325000Y-1963574D01*
X28325000Y-1963574D02*
X28301191Y-1975479D01*
X28301191Y-1975479D02*
X28289286Y-1987384D01*
X28289286Y-1987384D02*
X28265476Y-2023098D01*
X28265476Y-2023098D02*
X28253572Y-2070717D01*
X28253572Y-2070717D02*
X28253572Y-2165955D01*
X28253572Y-2165955D02*
X28265476Y-2189765D01*
X28265476Y-2189765D02*
X28277381Y-2201670D01*
X28277381Y-2201670D02*
X28301191Y-2213574D01*
X28301191Y-2213574D02*
X28348810Y-2213574D01*
X28348810Y-2213574D02*
X28372619Y-2201670D01*
X28372619Y-2201670D02*
X28384524Y-2189765D01*
X28384524Y-2189765D02*
X28396429Y-2165955D01*
X28396429Y-2165955D02*
X28396429Y-2106431D01*
X28396429Y-2106431D02*
X28384524Y-2082622D01*
X28384524Y-2082622D02*
X28372619Y-2070717D01*
X28372619Y-2070717D02*
X28348810Y-2058812D01*
X28348810Y-2058812D02*
X28301191Y-2058812D01*
X28301191Y-2058812D02*
X28277381Y-2070717D01*
X28277381Y-2070717D02*
X28265476Y-2082622D01*
X28265476Y-2082622D02*
X28253572Y-2106431D01*
X37883333Y-16589765D02*
X37871429Y-16601670D01*
X37871429Y-16601670D02*
X37835714Y-16613574D01*
X37835714Y-16613574D02*
X37811905Y-16613574D01*
X37811905Y-16613574D02*
X37776191Y-16601670D01*
X37776191Y-16601670D02*
X37752381Y-16577860D01*
X37752381Y-16577860D02*
X37740476Y-16554050D01*
X37740476Y-16554050D02*
X37728572Y-16506431D01*
X37728572Y-16506431D02*
X37728572Y-16470717D01*
X37728572Y-16470717D02*
X37740476Y-16423098D01*
X37740476Y-16423098D02*
X37752381Y-16399289D01*
X37752381Y-16399289D02*
X37776191Y-16375479D01*
X37776191Y-16375479D02*
X37811905Y-16363574D01*
X37811905Y-16363574D02*
X37835714Y-16363574D01*
X37835714Y-16363574D02*
X37871429Y-16375479D01*
X37871429Y-16375479D02*
X37883333Y-16387384D01*
X38002381Y-16613574D02*
X38050000Y-16613574D01*
X38050000Y-16613574D02*
X38073810Y-16601670D01*
X38073810Y-16601670D02*
X38085714Y-16589765D01*
X38085714Y-16589765D02*
X38109524Y-16554050D01*
X38109524Y-16554050D02*
X38121429Y-16506431D01*
X38121429Y-16506431D02*
X38121429Y-16411193D01*
X38121429Y-16411193D02*
X38109524Y-16387384D01*
X38109524Y-16387384D02*
X38097619Y-16375479D01*
X38097619Y-16375479D02*
X38073810Y-16363574D01*
X38073810Y-16363574D02*
X38026191Y-16363574D01*
X38026191Y-16363574D02*
X38002381Y-16375479D01*
X38002381Y-16375479D02*
X37990476Y-16387384D01*
X37990476Y-16387384D02*
X37978572Y-16411193D01*
X37978572Y-16411193D02*
X37978572Y-16470717D01*
X37978572Y-16470717D02*
X37990476Y-16494527D01*
X37990476Y-16494527D02*
X38002381Y-16506431D01*
X38002381Y-16506431D02*
X38026191Y-16518336D01*
X38026191Y-16518336D02*
X38073810Y-16518336D01*
X38073810Y-16518336D02*
X38097619Y-16506431D01*
X38097619Y-16506431D02*
X38109524Y-16494527D01*
X38109524Y-16494527D02*
X38121429Y-16470717D01*
X15118200Y-10767142D02*
X14994391Y-10853809D01*
X15118200Y-10915714D02*
X14858200Y-10915714D01*
X14858200Y-10915714D02*
X14858200Y-10816666D01*
X14858200Y-10816666D02*
X14870581Y-10791904D01*
X14870581Y-10791904D02*
X14882962Y-10779523D01*
X14882962Y-10779523D02*
X14907724Y-10767142D01*
X14907724Y-10767142D02*
X14944867Y-10767142D01*
X14944867Y-10767142D02*
X14969629Y-10779523D01*
X14969629Y-10779523D02*
X14982010Y-10791904D01*
X14982010Y-10791904D02*
X14994391Y-10816666D01*
X14994391Y-10816666D02*
X14994391Y-10915714D01*
X15118200Y-10519523D02*
X15118200Y-10668095D01*
X15118200Y-10593809D02*
X14858200Y-10593809D01*
X14858200Y-10593809D02*
X14895343Y-10618571D01*
X14895343Y-10618571D02*
X14920105Y-10643333D01*
X14920105Y-10643333D02*
X14932486Y-10668095D01*
X14858200Y-10432857D02*
X14858200Y-10271904D01*
X14858200Y-10271904D02*
X14957248Y-10358571D01*
X14957248Y-10358571D02*
X14957248Y-10321428D01*
X14957248Y-10321428D02*
X14969629Y-10296666D01*
X14969629Y-10296666D02*
X14982010Y-10284285D01*
X14982010Y-10284285D02*
X15006772Y-10271904D01*
X15006772Y-10271904D02*
X15068677Y-10271904D01*
X15068677Y-10271904D02*
X15093439Y-10284285D01*
X15093439Y-10284285D02*
X15105820Y-10296666D01*
X15105820Y-10296666D02*
X15118200Y-10321428D01*
X15118200Y-10321428D02*
X15118200Y-10395714D01*
X15118200Y-10395714D02*
X15105820Y-10420476D01*
X15105820Y-10420476D02*
X15093439Y-10432857D01*
X9356667Y-5518200D02*
X9270000Y-5394391D01*
X9208095Y-5518200D02*
X9208095Y-5258200D01*
X9208095Y-5258200D02*
X9307143Y-5258200D01*
X9307143Y-5258200D02*
X9331905Y-5270581D01*
X9331905Y-5270581D02*
X9344286Y-5282962D01*
X9344286Y-5282962D02*
X9356667Y-5307724D01*
X9356667Y-5307724D02*
X9356667Y-5344867D01*
X9356667Y-5344867D02*
X9344286Y-5369629D01*
X9344286Y-5369629D02*
X9331905Y-5382010D01*
X9331905Y-5382010D02*
X9307143Y-5394391D01*
X9307143Y-5394391D02*
X9208095Y-5394391D01*
X9604286Y-5518200D02*
X9455714Y-5518200D01*
X9530000Y-5518200D02*
X9530000Y-5258200D01*
X9530000Y-5258200D02*
X9505238Y-5295343D01*
X9505238Y-5295343D02*
X9480476Y-5320105D01*
X9480476Y-5320105D02*
X9455714Y-5332486D01*
X38415476Y-19113574D02*
X38415476Y-18863574D01*
X38415476Y-18863574D02*
X38475000Y-18863574D01*
X38475000Y-18863574D02*
X38510714Y-18875479D01*
X38510714Y-18875479D02*
X38534524Y-18899289D01*
X38534524Y-18899289D02*
X38546429Y-18923098D01*
X38546429Y-18923098D02*
X38558333Y-18970717D01*
X38558333Y-18970717D02*
X38558333Y-19006431D01*
X38558333Y-19006431D02*
X38546429Y-19054050D01*
X38546429Y-19054050D02*
X38534524Y-19077860D01*
X38534524Y-19077860D02*
X38510714Y-19101670D01*
X38510714Y-19101670D02*
X38475000Y-19113574D01*
X38475000Y-19113574D02*
X38415476Y-19113574D01*
X38772619Y-18946908D02*
X38772619Y-19113574D01*
X38713095Y-18851670D02*
X38653572Y-19030241D01*
X38653572Y-19030241D02*
X38808333Y-19030241D01*
X9215476Y-6513574D02*
X9215476Y-6263574D01*
X9215476Y-6263574D02*
X9275000Y-6263574D01*
X9275000Y-6263574D02*
X9310714Y-6275479D01*
X9310714Y-6275479D02*
X9334524Y-6299289D01*
X9334524Y-6299289D02*
X9346429Y-6323098D01*
X9346429Y-6323098D02*
X9358333Y-6370717D01*
X9358333Y-6370717D02*
X9358333Y-6406431D01*
X9358333Y-6406431D02*
X9346429Y-6454050D01*
X9346429Y-6454050D02*
X9334524Y-6477860D01*
X9334524Y-6477860D02*
X9310714Y-6501670D01*
X9310714Y-6501670D02*
X9275000Y-6513574D01*
X9275000Y-6513574D02*
X9215476Y-6513574D01*
X9596429Y-6513574D02*
X9453572Y-6513574D01*
X9525000Y-6513574D02*
X9525000Y-6263574D01*
X9525000Y-6263574D02*
X9501191Y-6299289D01*
X9501191Y-6299289D02*
X9477381Y-6323098D01*
X9477381Y-6323098D02*
X9453572Y-6335003D01*
X29156667Y-24918200D02*
X29070000Y-24794391D01*
X29008095Y-24918200D02*
X29008095Y-24658200D01*
X29008095Y-24658200D02*
X29107143Y-24658200D01*
X29107143Y-24658200D02*
X29131905Y-24670581D01*
X29131905Y-24670581D02*
X29144286Y-24682962D01*
X29144286Y-24682962D02*
X29156667Y-24707724D01*
X29156667Y-24707724D02*
X29156667Y-24744867D01*
X29156667Y-24744867D02*
X29144286Y-24769629D01*
X29144286Y-24769629D02*
X29131905Y-24782010D01*
X29131905Y-24782010D02*
X29107143Y-24794391D01*
X29107143Y-24794391D02*
X29008095Y-24794391D01*
X29305238Y-24769629D02*
X29280476Y-24757248D01*
X29280476Y-24757248D02*
X29268095Y-24744867D01*
X29268095Y-24744867D02*
X29255714Y-24720105D01*
X29255714Y-24720105D02*
X29255714Y-24707724D01*
X29255714Y-24707724D02*
X29268095Y-24682962D01*
X29268095Y-24682962D02*
X29280476Y-24670581D01*
X29280476Y-24670581D02*
X29305238Y-24658200D01*
X29305238Y-24658200D02*
X29354762Y-24658200D01*
X29354762Y-24658200D02*
X29379524Y-24670581D01*
X29379524Y-24670581D02*
X29391905Y-24682962D01*
X29391905Y-24682962D02*
X29404286Y-24707724D01*
X29404286Y-24707724D02*
X29404286Y-24720105D01*
X29404286Y-24720105D02*
X29391905Y-24744867D01*
X29391905Y-24744867D02*
X29379524Y-24757248D01*
X29379524Y-24757248D02*
X29354762Y-24769629D01*
X29354762Y-24769629D02*
X29305238Y-24769629D01*
X29305238Y-24769629D02*
X29280476Y-24782010D01*
X29280476Y-24782010D02*
X29268095Y-24794391D01*
X29268095Y-24794391D02*
X29255714Y-24819153D01*
X29255714Y-24819153D02*
X29255714Y-24868677D01*
X29255714Y-24868677D02*
X29268095Y-24893439D01*
X29268095Y-24893439D02*
X29280476Y-24905820D01*
X29280476Y-24905820D02*
X29305238Y-24918200D01*
X29305238Y-24918200D02*
X29354762Y-24918200D01*
X29354762Y-24918200D02*
X29379524Y-24905820D01*
X29379524Y-24905820D02*
X29391905Y-24893439D01*
X29391905Y-24893439D02*
X29404286Y-24868677D01*
X29404286Y-24868677D02*
X29404286Y-24819153D01*
X29404286Y-24819153D02*
X29391905Y-24794391D01*
X29391905Y-24794391D02*
X29379524Y-24782010D01*
X29379524Y-24782010D02*
X29354762Y-24769629D01*
X33832857Y-11818200D02*
X33746190Y-11694391D01*
X33684285Y-11818200D02*
X33684285Y-11558200D01*
X33684285Y-11558200D02*
X33783333Y-11558200D01*
X33783333Y-11558200D02*
X33808095Y-11570581D01*
X33808095Y-11570581D02*
X33820476Y-11582962D01*
X33820476Y-11582962D02*
X33832857Y-11607724D01*
X33832857Y-11607724D02*
X33832857Y-11644867D01*
X33832857Y-11644867D02*
X33820476Y-11669629D01*
X33820476Y-11669629D02*
X33808095Y-11682010D01*
X33808095Y-11682010D02*
X33783333Y-11694391D01*
X33783333Y-11694391D02*
X33684285Y-11694391D01*
X33931904Y-11582962D02*
X33944285Y-11570581D01*
X33944285Y-11570581D02*
X33969047Y-11558200D01*
X33969047Y-11558200D02*
X34030952Y-11558200D01*
X34030952Y-11558200D02*
X34055714Y-11570581D01*
X34055714Y-11570581D02*
X34068095Y-11582962D01*
X34068095Y-11582962D02*
X34080476Y-11607724D01*
X34080476Y-11607724D02*
X34080476Y-11632486D01*
X34080476Y-11632486D02*
X34068095Y-11669629D01*
X34068095Y-11669629D02*
X33919523Y-11818200D01*
X33919523Y-11818200D02*
X34080476Y-11818200D01*
X34315714Y-11558200D02*
X34191904Y-11558200D01*
X34191904Y-11558200D02*
X34179523Y-11682010D01*
X34179523Y-11682010D02*
X34191904Y-11669629D01*
X34191904Y-11669629D02*
X34216666Y-11657248D01*
X34216666Y-11657248D02*
X34278571Y-11657248D01*
X34278571Y-11657248D02*
X34303333Y-11669629D01*
X34303333Y-11669629D02*
X34315714Y-11682010D01*
X34315714Y-11682010D02*
X34328095Y-11706772D01*
X34328095Y-11706772D02*
X34328095Y-11768677D01*
X34328095Y-11768677D02*
X34315714Y-11793439D01*
X34315714Y-11793439D02*
X34303333Y-11805820D01*
X34303333Y-11805820D02*
X34278571Y-11818200D01*
X34278571Y-11818200D02*
X34216666Y-11818200D01*
X34216666Y-11818200D02*
X34191904Y-11805820D01*
X34191904Y-11805820D02*
X34179523Y-11793439D01*
D15*
X9627149Y-9083333D02*
X9627149Y-9321428D01*
X9627149Y-9321428D02*
X9127149Y-9321428D01*
X9627149Y-8654761D02*
X9627149Y-8940475D01*
X9627149Y-8797618D02*
X9127149Y-8797618D01*
X9127149Y-8797618D02*
X9198578Y-8845237D01*
X9198578Y-8845237D02*
X9246197Y-8892856D01*
X9246197Y-8892856D02*
X9270006Y-8940475D01*
D14*
X37037488Y-21543064D02*
X37037488Y-20793064D01*
X37037488Y-20793064D02*
X37216059Y-20793064D01*
X37216059Y-20793064D02*
X37323202Y-20828778D01*
X37323202Y-20828778D02*
X37394631Y-20900207D01*
X37394631Y-20900207D02*
X37430345Y-20971635D01*
X37430345Y-20971635D02*
X37466059Y-21114492D01*
X37466059Y-21114492D02*
X37466059Y-21221635D01*
X37466059Y-21221635D02*
X37430345Y-21364492D01*
X37430345Y-21364492D02*
X37394631Y-21435921D01*
X37394631Y-21435921D02*
X37323202Y-21507350D01*
X37323202Y-21507350D02*
X37216059Y-21543064D01*
X37216059Y-21543064D02*
X37037488Y-21543064D01*
X38108917Y-20793064D02*
X37966059Y-20793064D01*
X37966059Y-20793064D02*
X37894631Y-20828778D01*
X37894631Y-20828778D02*
X37858917Y-20864492D01*
X37858917Y-20864492D02*
X37787488Y-20971635D01*
X37787488Y-20971635D02*
X37751774Y-21114492D01*
X37751774Y-21114492D02*
X37751774Y-21400207D01*
X37751774Y-21400207D02*
X37787488Y-21471635D01*
X37787488Y-21471635D02*
X37823202Y-21507350D01*
X37823202Y-21507350D02*
X37894631Y-21543064D01*
X37894631Y-21543064D02*
X38037488Y-21543064D01*
X38037488Y-21543064D02*
X38108917Y-21507350D01*
X38108917Y-21507350D02*
X38144631Y-21471635D01*
X38144631Y-21471635D02*
X38180345Y-21400207D01*
X38180345Y-21400207D02*
X38180345Y-21221635D01*
X38180345Y-21221635D02*
X38144631Y-21150207D01*
X38144631Y-21150207D02*
X38108917Y-21114492D01*
X38108917Y-21114492D02*
X38037488Y-21078778D01*
X38037488Y-21078778D02*
X37894631Y-21078778D01*
X37894631Y-21078778D02*
X37823202Y-21114492D01*
X37823202Y-21114492D02*
X37787488Y-21150207D01*
X37787488Y-21150207D02*
X37751774Y-21221635D01*
D12*
X17318200Y-19243332D02*
X17194391Y-19329999D01*
X17318200Y-19391904D02*
X17058200Y-19391904D01*
X17058200Y-19391904D02*
X17058200Y-19292856D01*
X17058200Y-19292856D02*
X17070581Y-19268094D01*
X17070581Y-19268094D02*
X17082962Y-19255713D01*
X17082962Y-19255713D02*
X17107724Y-19243332D01*
X17107724Y-19243332D02*
X17144867Y-19243332D01*
X17144867Y-19243332D02*
X17169629Y-19255713D01*
X17169629Y-19255713D02*
X17182010Y-19268094D01*
X17182010Y-19268094D02*
X17194391Y-19292856D01*
X17194391Y-19292856D02*
X17194391Y-19391904D01*
X17058200Y-19020475D02*
X17058200Y-19069999D01*
X17058200Y-19069999D02*
X17070581Y-19094761D01*
X17070581Y-19094761D02*
X17082962Y-19107142D01*
X17082962Y-19107142D02*
X17120105Y-19131904D01*
X17120105Y-19131904D02*
X17169629Y-19144285D01*
X17169629Y-19144285D02*
X17268677Y-19144285D01*
X17268677Y-19144285D02*
X17293439Y-19131904D01*
X17293439Y-19131904D02*
X17305820Y-19119523D01*
X17305820Y-19119523D02*
X17318200Y-19094761D01*
X17318200Y-19094761D02*
X17318200Y-19045237D01*
X17318200Y-19045237D02*
X17305820Y-19020475D01*
X17305820Y-19020475D02*
X17293439Y-19008094D01*
X17293439Y-19008094D02*
X17268677Y-18995713D01*
X17268677Y-18995713D02*
X17206772Y-18995713D01*
X17206772Y-18995713D02*
X17182010Y-19008094D01*
X17182010Y-19008094D02*
X17169629Y-19020475D01*
X17169629Y-19020475D02*
X17157248Y-19045237D01*
X17157248Y-19045237D02*
X17157248Y-19094761D01*
X17157248Y-19094761D02*
X17169629Y-19119523D01*
X17169629Y-19119523D02*
X17182010Y-19131904D01*
X17182010Y-19131904D02*
X17206772Y-19144285D01*
X24432857Y-2218200D02*
X24346190Y-2094391D01*
X24284285Y-2218200D02*
X24284285Y-1958200D01*
X24284285Y-1958200D02*
X24383333Y-1958200D01*
X24383333Y-1958200D02*
X24408095Y-1970581D01*
X24408095Y-1970581D02*
X24420476Y-1982962D01*
X24420476Y-1982962D02*
X24432857Y-2007724D01*
X24432857Y-2007724D02*
X24432857Y-2044867D01*
X24432857Y-2044867D02*
X24420476Y-2069629D01*
X24420476Y-2069629D02*
X24408095Y-2082010D01*
X24408095Y-2082010D02*
X24383333Y-2094391D01*
X24383333Y-2094391D02*
X24284285Y-2094391D01*
X24680476Y-2218200D02*
X24531904Y-2218200D01*
X24606190Y-2218200D02*
X24606190Y-1958200D01*
X24606190Y-1958200D02*
X24581428Y-1995343D01*
X24581428Y-1995343D02*
X24556666Y-2020105D01*
X24556666Y-2020105D02*
X24531904Y-2032486D01*
X24829047Y-2069629D02*
X24804285Y-2057248D01*
X24804285Y-2057248D02*
X24791904Y-2044867D01*
X24791904Y-2044867D02*
X24779523Y-2020105D01*
X24779523Y-2020105D02*
X24779523Y-2007724D01*
X24779523Y-2007724D02*
X24791904Y-1982962D01*
X24791904Y-1982962D02*
X24804285Y-1970581D01*
X24804285Y-1970581D02*
X24829047Y-1958200D01*
X24829047Y-1958200D02*
X24878571Y-1958200D01*
X24878571Y-1958200D02*
X24903333Y-1970581D01*
X24903333Y-1970581D02*
X24915714Y-1982962D01*
X24915714Y-1982962D02*
X24928095Y-2007724D01*
X24928095Y-2007724D02*
X24928095Y-2020105D01*
X24928095Y-2020105D02*
X24915714Y-2044867D01*
X24915714Y-2044867D02*
X24903333Y-2057248D01*
X24903333Y-2057248D02*
X24878571Y-2069629D01*
X24878571Y-2069629D02*
X24829047Y-2069629D01*
X24829047Y-2069629D02*
X24804285Y-2082010D01*
X24804285Y-2082010D02*
X24791904Y-2094391D01*
X24791904Y-2094391D02*
X24779523Y-2119153D01*
X24779523Y-2119153D02*
X24779523Y-2168677D01*
X24779523Y-2168677D02*
X24791904Y-2193439D01*
X24791904Y-2193439D02*
X24804285Y-2205820D01*
X24804285Y-2205820D02*
X24829047Y-2218200D01*
X24829047Y-2218200D02*
X24878571Y-2218200D01*
X24878571Y-2218200D02*
X24903333Y-2205820D01*
X24903333Y-2205820D02*
X24915714Y-2193439D01*
X24915714Y-2193439D02*
X24928095Y-2168677D01*
X24928095Y-2168677D02*
X24928095Y-2119153D01*
X24928095Y-2119153D02*
X24915714Y-2094391D01*
X24915714Y-2094391D02*
X24903333Y-2082010D01*
X24903333Y-2082010D02*
X24878571Y-2069629D01*
D10*
X3738095Y-4954819D02*
X3738095Y-3954819D01*
X3738095Y-4431009D02*
X4309523Y-4431009D01*
X4309523Y-4954819D02*
X4309523Y-3954819D01*
X5309523Y-4954819D02*
X4738095Y-4954819D01*
X5023809Y-4954819D02*
X5023809Y-3954819D01*
X5023809Y-3954819D02*
X4928571Y-4097676D01*
X4928571Y-4097676D02*
X4833333Y-4192914D01*
X4833333Y-4192914D02*
X4738095Y-4240533D01*
D16*
%TO.C,J1*%
X6650000Y-10530000D02*
X-650000Y-10530000D01*
X6650000Y-10530000D02*
X6650000Y-19470000D01*
X-650000Y-10530000D02*
X-650000Y-19470000D01*
X6650000Y-19470000D02*
X-650000Y-19470000D01*
%TO.C,R2*%
X10787500Y-10000000D02*
X10787500Y-8400000D01*
X11612500Y-10000000D02*
X10787500Y-10000000D01*
X10787500Y-8400000D02*
X11612500Y-8400000D01*
X11612500Y-8400000D02*
X11612500Y-10000000D01*
%TO.C,R26*%
X33475000Y-5230000D02*
X34525000Y-5230000D01*
X33475000Y-5770000D02*
X33475000Y-5230000D01*
X34525000Y-5230000D02*
X34525000Y-5770000D01*
X34525000Y-5770000D02*
X33475000Y-5770000D01*
%TO.C,U4*%
X25900000Y-2125000D02*
X26150000Y-1875000D01*
X25900000Y-3325000D02*
X25900000Y-2125000D01*
X26150000Y-1875000D02*
X26900000Y-1875000D01*
X26900000Y-1875000D02*
X26900000Y-3325000D01*
X26900000Y-3325000D02*
X25900000Y-3325000D01*
%TO.C,U1*%
X21400000Y-27800000D02*
X20400000Y-28800000D01*
X21400000Y-24800000D02*
X21400000Y-27800000D01*
X20400000Y-28800000D02*
X17400000Y-28800000D01*
X17400000Y-28800000D02*
X17400000Y-24800000D01*
X17400000Y-24800000D02*
X21400000Y-24800000D01*
%TO.C,D7*%
X40150000Y-25700000D02*
X40150000Y-23100000D01*
X40150000Y-25700000D02*
X35850000Y-25700000D01*
X40150000Y-23100000D02*
X35850000Y-23100000D01*
X39440180Y-25700480D02*
X39440180Y-23099520D01*
X39440180Y-23099520D02*
X39363980Y-23099520D01*
X39363980Y-23099520D02*
X39361440Y-25700480D01*
X39361440Y-25700480D02*
X39440180Y-25700480D01*
X35850000Y-25700000D02*
X35850000Y-23100000D01*
%TO.C,C2*%
X24700000Y-28250000D02*
X23700000Y-28250000D01*
X24700000Y-27750000D02*
X24700000Y-28250000D01*
X23700000Y-28250000D02*
X23700000Y-27750000D01*
X23700000Y-27750000D02*
X24700000Y-27750000D01*
%TO.C,R21*%
X27675000Y-6430000D02*
X28725000Y-6430000D01*
X27675000Y-6970000D02*
X27675000Y-6430000D01*
X28725000Y-6430000D02*
X28725000Y-6970000D01*
X28725000Y-6970000D02*
X27675000Y-6970000D01*
%TO.C,R9*%
X41125000Y-19270000D02*
X40075000Y-19270000D01*
X41125000Y-18730000D02*
X41125000Y-19270000D01*
X40075000Y-19270000D02*
X40075000Y-18730000D01*
X40075000Y-18730000D02*
X41125000Y-18730000D01*
%TO.C,C1*%
X15300000Y-26950000D02*
X16300000Y-26950000D01*
X15300000Y-27450000D02*
X15300000Y-26950000D01*
X16300000Y-26950000D02*
X16300000Y-27450000D01*
X16300000Y-27450000D02*
X15300000Y-27450000D01*
%TO.C,C8*%
X25100000Y-10150000D02*
X24100000Y-10150000D01*
X25100000Y-9650000D02*
X25100000Y-10150000D01*
X24100000Y-10150000D02*
X24100000Y-9650000D01*
X24100000Y-9650000D02*
X25100000Y-9650000D01*
%TO.C,R15*%
X24075000Y-8630000D02*
X25125000Y-8630000D01*
X24075000Y-9170000D02*
X24075000Y-8630000D01*
X25125000Y-8630000D02*
X25125000Y-9170000D01*
X25125000Y-9170000D02*
X24075000Y-9170000D01*
%TO.C,D8*%
X38100000Y-26350000D02*
X39100000Y-26350000D01*
X38100000Y-26850000D02*
X38100000Y-26350000D01*
X38200000Y-26850000D02*
X38200000Y-26350000D01*
X38300000Y-26850000D02*
X38300000Y-26350000D01*
X39100000Y-26350000D02*
X39100000Y-26850000D01*
X39100000Y-26850000D02*
X38100000Y-26850000D01*
%TO.C,R14*%
X41125000Y-26870000D02*
X40075000Y-26870000D01*
X41125000Y-26330000D02*
X41125000Y-26870000D01*
X40075000Y-26870000D02*
X40075000Y-26330000D01*
X40075000Y-26330000D02*
X41125000Y-26330000D01*
%TO.C,D9*%
X36500000Y-5750000D02*
X35500000Y-5750000D01*
X36500000Y-5250000D02*
X36500000Y-5750000D01*
X36400000Y-5250000D02*
X36400000Y-5750000D01*
X36300000Y-5250000D02*
X36300000Y-5750000D01*
X35500000Y-5750000D02*
X35500000Y-5250000D01*
X35500000Y-5250000D02*
X36500000Y-5250000D01*
%TO.C,C4*%
X14250000Y-18700000D02*
X14250000Y-19700000D01*
X13750000Y-18700000D02*
X14250000Y-18700000D01*
X14250000Y-19700000D02*
X13750000Y-19700000D01*
X13750000Y-19700000D02*
X13750000Y-18700000D01*
%TO.C,D2*%
X8550000Y-22900000D02*
X8550000Y-21900000D01*
X9050000Y-22900000D02*
X8550000Y-22900000D01*
X9050000Y-22800000D02*
X8550000Y-22800000D01*
X9050000Y-22700000D02*
X8550000Y-22700000D01*
X8550000Y-21900000D02*
X9050000Y-21900000D01*
X9050000Y-21900000D02*
X9050000Y-22900000D01*
%TO.C,R27*%
X33475000Y-10230000D02*
X34525000Y-10230000D01*
X33475000Y-10770000D02*
X33475000Y-10230000D01*
X34525000Y-10230000D02*
X34525000Y-10770000D01*
X34525000Y-10770000D02*
X33475000Y-10770000D01*
%TO.C,U2*%
X14500000Y-13500000D02*
X15500000Y-12500000D01*
X14500000Y-17500000D02*
X14500000Y-13500000D01*
X15500000Y-12500000D02*
X19500000Y-12500000D01*
X19500000Y-12500000D02*
X19500000Y-17500000D01*
X19500000Y-17500000D02*
X14500000Y-17500000D01*
%TO.C,R24*%
X43480000Y-23100000D02*
X43480000Y-22050000D01*
X44020000Y-23100000D02*
X43480000Y-23100000D01*
X43480000Y-22050000D02*
X44020000Y-22050000D01*
X44020000Y-22050000D02*
X44020000Y-23100000D01*
%TO.C,R11*%
X16130000Y-11125000D02*
X16130000Y-10075000D01*
X16670000Y-11125000D02*
X16130000Y-11125000D01*
X16130000Y-10075000D02*
X16670000Y-10075000D01*
X16670000Y-10075000D02*
X16670000Y-11125000D01*
%TO.C,R19*%
X25125000Y-12570000D02*
X24075000Y-12570000D01*
X25125000Y-12030000D02*
X25125000Y-12570000D01*
X24075000Y-12570000D02*
X24075000Y-12030000D01*
X24075000Y-12030000D02*
X25125000Y-12030000D01*
%TO.C,R20*%
X27675000Y-9630000D02*
X28725000Y-9630000D01*
X27675000Y-10170000D02*
X27675000Y-9630000D01*
X28725000Y-9630000D02*
X28725000Y-10170000D01*
X28725000Y-10170000D02*
X27675000Y-10170000D01*
%TO.C,R17*%
X25125000Y-5770000D02*
X24075000Y-5770000D01*
X25125000Y-5230000D02*
X25125000Y-5770000D01*
X24075000Y-5770000D02*
X24075000Y-5230000D01*
X24075000Y-5230000D02*
X25125000Y-5230000D01*
%TO.C,C5*%
X27700000Y-5250000D02*
X28700000Y-5250000D01*
X27700000Y-5750000D02*
X27700000Y-5250000D01*
X28700000Y-5250000D02*
X28700000Y-5750000D01*
X28700000Y-5750000D02*
X27700000Y-5750000D01*
%TO.C,R3*%
X12387500Y-10000000D02*
X12387500Y-8400000D01*
X13212500Y-10000000D02*
X12387500Y-10000000D01*
X12387500Y-8400000D02*
X13212500Y-8400000D01*
X13212500Y-8400000D02*
X13212500Y-10000000D01*
%TO.C,U3*%
X25900000Y-5525000D02*
X26150000Y-5275000D01*
X25900000Y-6725000D02*
X25900000Y-5525000D01*
X26150000Y-5275000D02*
X26900000Y-5275000D01*
X26900000Y-5275000D02*
X26900000Y-6725000D01*
X26900000Y-6725000D02*
X25900000Y-6725000D01*
%TO.C,R7*%
X28675000Y-20930000D02*
X29725000Y-20930000D01*
X28675000Y-21470000D02*
X28675000Y-20930000D01*
X29725000Y-20930000D02*
X29725000Y-21470000D01*
X29725000Y-21470000D02*
X28675000Y-21470000D01*
%TO.C,J2*%
X53545000Y-20075000D02*
X52275000Y-21345000D01*
X53545000Y-8645000D02*
X53545000Y-20075000D01*
X52275000Y-21345000D02*
X48465000Y-21345000D01*
X48465000Y-21345000D02*
X48465000Y-8645000D01*
X48465000Y-8645000D02*
X53545000Y-8645000D01*
%TO.C,Q4*%
X34350000Y-12875000D02*
X34675000Y-12550000D01*
X34350000Y-15450000D02*
X34350000Y-12875000D01*
X34675000Y-12550000D02*
X35650000Y-12550000D01*
X35650000Y-12550000D02*
X35650000Y-15450000D01*
X35650000Y-15450000D02*
X34350000Y-15450000D01*
%TO.C,R22*%
X27675000Y-2830000D02*
X28725000Y-2830000D01*
X27675000Y-3370000D02*
X27675000Y-2830000D01*
X28725000Y-2830000D02*
X28725000Y-3370000D01*
X28725000Y-3370000D02*
X27675000Y-3370000D01*
%TO.C,D10*%
X36500000Y-10750000D02*
X35500000Y-10750000D01*
X36500000Y-10250000D02*
X36500000Y-10750000D01*
X36400000Y-10250000D02*
X36400000Y-10750000D01*
X36300000Y-10250000D02*
X36300000Y-10750000D01*
X35500000Y-10750000D02*
X35500000Y-10250000D01*
X35500000Y-10250000D02*
X36500000Y-10250000D01*
%TO.C,C7*%
X27700000Y-12050000D02*
X28700000Y-12050000D01*
X27700000Y-12550000D02*
X27700000Y-12050000D01*
X28700000Y-12050000D02*
X28700000Y-12550000D01*
X28700000Y-12550000D02*
X27700000Y-12550000D01*
%TO.C,R23*%
X27675000Y-13030000D02*
X28725000Y-13030000D01*
X27675000Y-13570000D02*
X27675000Y-13030000D01*
X28725000Y-13030000D02*
X28725000Y-13570000D01*
X28725000Y-13570000D02*
X27675000Y-13570000D01*
%TO.C,Q3*%
X34350000Y-16375000D02*
X34675000Y-16050000D01*
X34350000Y-18950000D02*
X34350000Y-16375000D01*
X34675000Y-16050000D02*
X35650000Y-16050000D01*
X35650000Y-16050000D02*
X35650000Y-18950000D01*
X35650000Y-18950000D02*
X34350000Y-18950000D01*
%TO.C,D3*%
X9050000Y-19900000D02*
X9050000Y-20900000D01*
X8550000Y-19900000D02*
X9050000Y-19900000D01*
X8550000Y-20000000D02*
X9050000Y-20000000D01*
X8550000Y-20100000D02*
X9050000Y-20100000D01*
X9050000Y-20900000D02*
X8550000Y-20900000D01*
X8550000Y-20900000D02*
X8550000Y-19900000D01*
%TO.C,R4*%
X24725000Y-27270000D02*
X23675000Y-27270000D01*
X24725000Y-26730000D02*
X24725000Y-27270000D01*
X23675000Y-27270000D02*
X23675000Y-26730000D01*
X23675000Y-26730000D02*
X24725000Y-26730000D01*
%TO.C,R12*%
X17530000Y-11125000D02*
X17530000Y-10075000D01*
X18070000Y-11125000D02*
X17530000Y-11125000D01*
X17530000Y-10075000D02*
X18070000Y-10075000D01*
X18070000Y-10075000D02*
X18070000Y-11125000D01*
%TO.C,D5*%
X19500000Y-23850000D02*
X18500000Y-23850000D01*
X19500000Y-23350000D02*
X19500000Y-23850000D01*
X19400000Y-23350000D02*
X19400000Y-23850000D01*
X19300000Y-23350000D02*
X19300000Y-23850000D01*
X18500000Y-23850000D02*
X18500000Y-23350000D01*
X18500000Y-23350000D02*
X19500000Y-23350000D01*
%TO.C,C3*%
X16050000Y-18700000D02*
X16050000Y-19700000D01*
X15550000Y-18700000D02*
X16050000Y-18700000D01*
X16050000Y-19700000D02*
X15550000Y-19700000D01*
X15550000Y-19700000D02*
X15550000Y-18700000D01*
%TO.C,Q2*%
X31750000Y-23675000D02*
X32075000Y-23350000D01*
X31750000Y-26250000D02*
X31750000Y-23675000D01*
X32075000Y-23350000D02*
X33050000Y-23350000D01*
X33050000Y-23350000D02*
X33050000Y-26250000D01*
X33050000Y-26250000D02*
X31750000Y-26250000D01*
%TO.C,R10*%
X16475000Y-23330000D02*
X17525000Y-23330000D01*
X16475000Y-23870000D02*
X16475000Y-23330000D01*
X17525000Y-23330000D02*
X17525000Y-23870000D01*
X17525000Y-23870000D02*
X16475000Y-23870000D01*
%TO.C,U6*%
X26900000Y-9875000D02*
X26650000Y-10125000D01*
X26900000Y-8675000D02*
X26900000Y-9875000D01*
X26650000Y-10125000D02*
X25900000Y-10125000D01*
X25900000Y-10125000D02*
X25900000Y-8675000D01*
X25900000Y-8675000D02*
X26900000Y-8675000D01*
%TO.C,R5*%
X23675000Y-25730000D02*
X24725000Y-25730000D01*
X23675000Y-26270000D02*
X23675000Y-25730000D01*
X24725000Y-25730000D02*
X24725000Y-26270000D01*
X24725000Y-26270000D02*
X23675000Y-26270000D01*
%TO.C,R16*%
X24075000Y-2830000D02*
X25125000Y-2830000D01*
X24075000Y-3370000D02*
X24075000Y-2830000D01*
X25125000Y-2830000D02*
X25125000Y-3370000D01*
X25125000Y-3370000D02*
X24075000Y-3370000D01*
%TO.C,Q1*%
X31750000Y-20275000D02*
X32075000Y-19950000D01*
X31750000Y-22850000D02*
X31750000Y-20275000D01*
X32075000Y-19950000D02*
X33050000Y-19950000D01*
X33050000Y-19950000D02*
X33050000Y-22850000D01*
X33050000Y-22850000D02*
X31750000Y-22850000D01*
%TO.C,U5*%
X25900000Y-12325000D02*
X26150000Y-12075000D01*
X25900000Y-13525000D02*
X25900000Y-12325000D01*
X26150000Y-12075000D02*
X26900000Y-12075000D01*
X26900000Y-12075000D02*
X26900000Y-13525000D01*
X26900000Y-13525000D02*
X25900000Y-13525000D01*
%TO.C,C6*%
X27700000Y-1850000D02*
X28700000Y-1850000D01*
X27700000Y-2350000D02*
X27700000Y-1850000D01*
X28700000Y-1850000D02*
X28700000Y-2350000D01*
X28700000Y-2350000D02*
X27700000Y-2350000D01*
%TO.C,C9*%
X37425000Y-16250000D02*
X38425000Y-16250000D01*
X37425000Y-16750000D02*
X37425000Y-16250000D01*
X38425000Y-16250000D02*
X38425000Y-16750000D01*
X38425000Y-16750000D02*
X37425000Y-16750000D01*
%TO.C,R13*%
X14730000Y-11125000D02*
X14730000Y-10075000D01*
X15270000Y-11125000D02*
X14730000Y-11125000D01*
X14730000Y-10075000D02*
X15270000Y-10075000D01*
X15270000Y-10075000D02*
X15270000Y-11125000D01*
%TO.C,R1*%
X8875000Y-5130000D02*
X9925000Y-5130000D01*
X8875000Y-5670000D02*
X8875000Y-5130000D01*
X9925000Y-5130000D02*
X9925000Y-5670000D01*
X9925000Y-5670000D02*
X8875000Y-5670000D01*
%TO.C,D4*%
X38100000Y-18750000D02*
X39100000Y-18750000D01*
X38100000Y-19250000D02*
X38100000Y-18750000D01*
X38200000Y-19250000D02*
X38200000Y-18750000D01*
X38300000Y-19250000D02*
X38300000Y-18750000D01*
X39100000Y-18750000D02*
X39100000Y-19250000D01*
X39100000Y-19250000D02*
X38100000Y-19250000D01*
%TO.C,D1*%
X9900000Y-6650000D02*
X8900000Y-6650000D01*
X9900000Y-6150000D02*
X9900000Y-6650000D01*
X9800000Y-6150000D02*
X9800000Y-6650000D01*
X9700000Y-6150000D02*
X9700000Y-6650000D01*
X8900000Y-6650000D02*
X8900000Y-6150000D01*
X8900000Y-6150000D02*
X9900000Y-6150000D01*
%TO.C,R8*%
X28675000Y-24530000D02*
X29725000Y-24530000D01*
X28675000Y-25070000D02*
X28675000Y-24530000D01*
X29725000Y-24530000D02*
X29725000Y-25070000D01*
X29725000Y-25070000D02*
X28675000Y-25070000D01*
%TO.C,R25*%
X33475000Y-11430000D02*
X34525000Y-11430000D01*
X33475000Y-11970000D02*
X33475000Y-11430000D01*
X34525000Y-11430000D02*
X34525000Y-11970000D01*
X34525000Y-11970000D02*
X33475000Y-11970000D01*
%TO.C,L1*%
X8800000Y-10000000D02*
X8800000Y-8000000D01*
X10000000Y-10000000D02*
X8800000Y-10000000D01*
X8800000Y-8000000D02*
X10000000Y-8000000D01*
X10000000Y-8000000D02*
X10000000Y-10000000D01*
%TO.C,D6*%
X40150000Y-22500000D02*
X40150000Y-19900000D01*
X40150000Y-22500000D02*
X35850000Y-22500000D01*
X40150000Y-19900000D02*
X35850000Y-19900000D01*
X39440180Y-22500480D02*
X39440180Y-19899520D01*
X39440180Y-19899520D02*
X39363980Y-19899520D01*
X39363980Y-19899520D02*
X39361440Y-22500480D01*
X39361440Y-22500480D02*
X39440180Y-22500480D01*
X35850000Y-22500000D02*
X35850000Y-19900000D01*
%TO.C,R6*%
X17470000Y-18675000D02*
X17470000Y-19725000D01*
X16930000Y-18675000D02*
X17470000Y-18675000D01*
X17470000Y-19725000D02*
X16930000Y-19725000D01*
X16930000Y-19725000D02*
X16930000Y-18675000D01*
%TO.C,R18*%
X25125000Y-2370000D02*
X24075000Y-2370000D01*
X25125000Y-1830000D02*
X25125000Y-2370000D01*
X24075000Y-2370000D02*
X24075000Y-1830000D01*
X24075000Y-1830000D02*
X25125000Y-1830000D01*
%TD*%
M02*
