M48
; DRILL file {KiCad 7.0.10} date Mon 22 Jan 2024 01:51:18 PM PST
; FORMAT={-:-/ absolute / metric / decimal}
; #@! TF.CreationDate,2024-01-22T13:51:18-08:00
; #@! TF.GenerationSoftware,Kicad,Pcbnew,7.0.10
; #@! TF.FileFunction,Plated,1,2,PTH
FMAT,2
METRIC
; #@! TA.AperFunction,Plated,PTH,ViaDrill
T1C0.400
; #@! TA.AperFunction,Plated,PTH,ComponentDrill
T2C0.600
; #@! TA.AperFunction,Plated,PTH,ComponentDrill
T3C1.000
; #@! TA.AperFunction,Plated,PTH,ComponentDrill
T4C3.200
%
G90
G05
T1
X7.6Y-7.0
X7.6Y-8.2
X7.8Y-10.0
X8.6Y-17.4
X8.8Y-19.0
X8.8Y-23.6
X11.2Y-5.8
X11.2Y-7.0
X12.8Y-5.8
X12.8Y-7.0
X13.35Y-14.175
X13.8Y-25.0
X14.0Y-20.8
X14.4Y-27.2
X15.0Y-18.8
X15.2Y-20.6
X15.2Y-23.6
X16.0Y-14.0
X16.0Y-16.0
X16.4Y-20.8
X18.0Y-14.0
X18.0Y-16.0
X18.8Y-25.8
X18.8Y-27.8
X19.475Y-22.6
X20.0Y-25.8
X20.0Y-27.8
X21.325Y-21.3
X22.4Y-25.0
X22.9Y-2.1
X23.0Y-3.1
X23.0Y-9.9
X23.2Y-5.4
X23.2Y-7.5
X23.2Y-12.4
X23.2Y-14.3
X25.08Y-10.7
X25.6Y-26.0
X25.6Y-27.91
X26.0Y-14.1
X26.1Y-4.1
X26.1Y-7.3
X26.6Y-27.6
X26.7Y-11.5
X27.2Y-8.4
X27.6Y-27.6
X27.8Y-1.1
X27.8Y-4.7
X29.6Y-8.1
X29.7Y-9.9
X29.8Y-1.871
X29.8Y-5.5
X29.8Y-12.3
X29.8Y-14.5
X35.0Y-22.8
X35.0Y-26.2
X36.0Y-22.8
X36.0Y-26.2
X37.2Y-19.0
X38.199Y-27.496
X39.25Y-16.5
X42.6Y-26.5
X42.6Y-27.7
T3
X49.735Y-9.915
X49.735Y-12.455
X49.735Y-14.995
X49.735Y-17.535
X49.735Y-20.075
X52.275Y-9.915
X52.275Y-12.455
X52.275Y-14.995
X52.275Y-17.535
X52.275Y-20.075
T4
X4.5Y-4.5
X4.5Y-25.5
X50.5Y-4.5
X50.5Y-25.5
T2
G00X2.25Y-10.68
M15
G01X1.65Y-10.68
M16
G05
G00X2.25Y-19.32
M15
G01X1.65Y-19.32
M16
G05
G00X6.68Y-10.68
M15
G01X5.58Y-10.68
M16
G05
G00X6.68Y-19.32
M15
G01X5.58Y-19.32
M16
G05
M30
