%TF.GenerationSoftware,KiCad,Pcbnew,7.0.5*%
%TF.CreationDate,2023-08-08T23:00:51-07:00*%
%TF.ProjectId,esp32-prog,65737033-322d-4707-926f-672e6b696361,rev2*%
%TF.SameCoordinates,PX47868c0PY36d6160*%
%TF.FileFunction,Copper,L2,Bot*%
%TF.FilePolarity,Positive*%
%FSLAX46Y46*%
G04 Gerber Fmt 4.6, Leading zero omitted, Abs format (unit mm)*
G04 Created by KiCad (PCBNEW 7.0.5) date 2023-08-08 23:00:51*
%MOMM*%
%LPD*%
G01*
G04 APERTURE LIST*
%TA.AperFunction,ComponentPad*%
%ADD10O,2.100000X1.000000*%
%TD*%
%TA.AperFunction,ComponentPad*%
%ADD11O,1.600000X1.000000*%
%TD*%
%TA.AperFunction,ComponentPad*%
%ADD12C,5.700000*%
%TD*%
%TA.AperFunction,ComponentPad*%
%ADD13R,1.700000X1.700000*%
%TD*%
%TA.AperFunction,ComponentPad*%
%ADD14O,1.700000X1.700000*%
%TD*%
%TA.AperFunction,ViaPad*%
%ADD15C,0.800000*%
%TD*%
%TA.AperFunction,Conductor*%
%ADD16C,0.500000*%
%TD*%
%TA.AperFunction,Conductor*%
%ADD17C,0.203200*%
%TD*%
G04 APERTURE END LIST*
D10*
%TO.P,J1,S1,SHIELD*%
%TO.N,GND*%
X6130000Y-10680000D03*
D11*
X1950000Y-10680000D03*
D10*
X6130000Y-19320000D03*
D11*
X1950000Y-19320000D03*
%TD*%
D12*
%TO.P,H4,1,1*%
%TO.N,GND*%
X4500000Y-25500000D03*
%TD*%
%TO.P,H2,1,1*%
%TO.N,GND*%
X50500000Y-4500000D03*
%TD*%
%TO.P,H3,1,1*%
%TO.N,GND*%
X50500000Y-25500000D03*
%TD*%
D13*
%TO.P,J2,1,Pin_1*%
%TO.N,+5V*%
X52275000Y-20075000D03*
D14*
%TO.P,J2,2,Pin_2*%
%TO.N,+3.3V*%
X49735000Y-20075000D03*
%TO.P,J2,3,Pin_3*%
%TO.N,GND*%
X52275000Y-17535000D03*
%TO.P,J2,4,Pin_4*%
X49735000Y-17535000D03*
%TO.P,J2,5,Pin_5*%
%TO.N,/ESP_EN*%
X52275000Y-14995000D03*
%TO.P,J2,6,Pin_6*%
%TO.N,/ESP_BOOT*%
X49735000Y-14995000D03*
%TO.P,J2,7,Pin_7*%
%TO.N,/RXD*%
X52275000Y-12455000D03*
%TO.P,J2,8,Pin_8*%
%TO.N,/TXD*%
X49735000Y-12455000D03*
%TO.P,J2,9,Pin_9*%
%TO.N,unconnected-(J2-Pin_9-Pad9)*%
X52275000Y-9915000D03*
%TO.P,J2,10,Pin_10*%
%TO.N,unconnected-(J2-Pin_10-Pad10)*%
X49735000Y-9915000D03*
%TD*%
D12*
%TO.P,H1,1,1*%
%TO.N,GND*%
X4500000Y-4500000D03*
%TD*%
D15*
%TO.N,VBUS*%
X36000000Y-22800000D03*
X15200000Y-20600000D03*
X15000000Y-18800000D03*
X7600000Y-8200000D03*
X15200000Y-23600000D03*
X35000000Y-22800000D03*
X25080000Y-10700000D03*
X7600000Y-7000000D03*
X13800000Y-25000000D03*
%TO.N,GND*%
X27200000Y-8400000D03*
X29600000Y-8100000D03*
X29800000Y-5500000D03*
X16000000Y-14000000D03*
X20000000Y-25800000D03*
X18000000Y-14000000D03*
X8800000Y-19000000D03*
X12800000Y-7000000D03*
X39250000Y-16500000D03*
X16400000Y-20800000D03*
X14400000Y-26400000D03*
X21325000Y-21300000D03*
X29800000Y-14500000D03*
X29800000Y-1871400D03*
X23200000Y-5400000D03*
X26100000Y-7300000D03*
X22900000Y-2100000D03*
X26100000Y-4100000D03*
X16000000Y-16000000D03*
X18800000Y-25800000D03*
X23000000Y-3100000D03*
X25600000Y-26000000D03*
X38199490Y-27495545D03*
X18800000Y-27800000D03*
X29800000Y-12300000D03*
X14000000Y-20800000D03*
X23200000Y-7500000D03*
X18000000Y-16000000D03*
X29700000Y-9900000D03*
X11200000Y-7000000D03*
X8800000Y-23600000D03*
X25600000Y-27910000D03*
X20000000Y-27800000D03*
X22553213Y-26320600D03*
X37200000Y-19000000D03*
X23200000Y-14300000D03*
X13350000Y-14175000D03*
X19475000Y-22600000D03*
X26000000Y-14100000D03*
X23200000Y-12400000D03*
X12800000Y-5800000D03*
X11200000Y-5800000D03*
X23000000Y-9900000D03*
%TO.N,+3.3VA*%
X26600000Y-27600000D03*
X36000000Y-26200000D03*
X27600000Y-27600000D03*
X35000000Y-26200000D03*
%TO.N,+3.3V*%
X26700000Y-11500000D03*
X42600000Y-27700000D03*
X42600000Y-26500000D03*
X27800000Y-4700000D03*
X27800000Y-1100000D03*
%TO.N,Net-(J1-VBUS-PadA4)*%
X7800000Y-10000000D03*
X8600000Y-17400000D03*
%TD*%
D16*
%TO.N,VBUS*%
X37000000Y-24200000D02*
X36800000Y-24000000D01*
X15200000Y-19000000D02*
X15000000Y-18800000D01*
D17*
X25800000Y-20300000D02*
X25800000Y-17100000D01*
D16*
X700000Y-13900000D02*
X6600000Y-8000000D01*
D17*
X28600000Y-23100000D02*
X25800000Y-20300000D01*
D16*
X35000000Y-24000000D02*
X35000000Y-22800000D01*
X15200000Y-20600000D02*
X15200000Y-23600000D01*
X12800000Y-26000000D02*
X9666905Y-26000000D01*
X12800000Y-27400000D02*
X14600000Y-29200000D01*
D17*
X30000000Y-23100000D02*
X28600000Y-23100000D01*
D16*
X6800000Y-8200000D02*
X6600000Y-8000000D01*
D17*
X25080000Y-16380000D02*
X25080000Y-10700000D01*
D16*
X9666905Y-26000000D02*
X5866905Y-22200000D01*
X14600000Y-29200000D02*
X36600000Y-29200000D01*
X15200000Y-20600000D02*
X15200000Y-19000000D01*
X37000000Y-28800000D02*
X37000000Y-24200000D01*
X7600000Y-7000000D02*
X6600000Y-8000000D01*
D17*
X35000000Y-22800000D02*
X30300000Y-22800000D01*
D16*
X7600000Y-8200000D02*
X6800000Y-8200000D01*
D17*
X25800000Y-17100000D02*
X25080000Y-16380000D01*
D16*
X2500000Y-22200000D02*
X700000Y-20400000D01*
X12800000Y-26000000D02*
X12800000Y-27400000D01*
X15200000Y-23600000D02*
X12800000Y-26000000D01*
X700000Y-20400000D02*
X700000Y-13900000D01*
X36000000Y-22800000D02*
X36000000Y-24000000D01*
X5866905Y-22200000D02*
X2500000Y-22200000D01*
X36800000Y-24000000D02*
X36000000Y-24000000D01*
X36600000Y-29200000D02*
X37000000Y-28800000D01*
X36000000Y-24000000D02*
X35000000Y-24000000D01*
D17*
X30300000Y-22800000D02*
X30000000Y-23100000D01*
D16*
%TO.N,+3.3VA*%
X35000000Y-26200000D02*
X33800000Y-26200000D01*
X26600000Y-27600000D02*
X26600000Y-26400000D01*
X27600000Y-27600000D02*
X27600000Y-26400000D01*
X36000000Y-26200000D02*
X36000000Y-26800000D01*
X33800000Y-26200000D02*
X27800000Y-26200000D01*
X27800000Y-26200000D02*
X27600000Y-26400000D01*
X26600000Y-26400000D02*
X27600000Y-26400000D01*
X33800000Y-26800000D02*
X33800000Y-26200000D01*
X36000000Y-26800000D02*
X33800000Y-26800000D01*
%TO.N,+3.3V*%
X27000000Y-11500000D02*
X26700000Y-11500000D01*
X38800000Y-21300000D02*
X42600000Y-25100000D01*
X27800000Y-1100000D02*
X27800000Y-4700000D01*
X26700000Y-11500000D02*
X26700000Y-12200000D01*
X42600000Y-27700000D02*
X42600000Y-26500000D01*
X27800000Y-4700000D02*
X27800000Y-7100000D01*
X27800000Y-20700000D02*
X28400000Y-21300000D01*
X27800000Y-7100000D02*
X28400000Y-7700000D01*
X42600000Y-25100000D02*
X42600000Y-26500000D01*
X28400000Y-10100000D02*
X27000000Y-11500000D01*
X26700000Y-12200000D02*
X27800000Y-13300000D01*
X27800000Y-13300000D02*
X27800000Y-20700000D01*
X28400000Y-21300000D02*
X38800000Y-21300000D01*
X28400000Y-7700000D02*
X28400000Y-10100000D01*
%TO.N,Net-(J1-VBUS-PadA4)*%
X8600000Y-10800000D02*
X7800000Y-10000000D01*
X8600000Y-17400000D02*
X8600000Y-10800000D01*
%TD*%
%TA.AperFunction,Conductor*%
%TO.N,GND*%
G36*
X4458691Y-4519407D02*
G01*
X4494655Y-4568907D01*
X4499500Y-4599500D01*
X4499500Y-6062507D01*
X4480593Y-6120698D01*
X4431093Y-6156662D01*
X4400500Y-6161507D01*
X4382904Y-6161507D01*
X4368149Y-6160401D01*
X4136583Y-6125498D01*
X4122157Y-6122206D01*
X3898367Y-6053175D01*
X3884593Y-6047769D01*
X3673604Y-5946162D01*
X3660790Y-5938764D01*
X3467288Y-5806837D01*
X3455720Y-5797611D01*
X3284053Y-5638328D01*
X3273989Y-5627481D01*
X3127976Y-5444386D01*
X3119641Y-5432161D01*
X3002546Y-5229347D01*
X2996125Y-5216015D01*
X2910566Y-4998012D01*
X2906205Y-4983874D01*
X2883975Y-4886478D01*
X2854092Y-4755552D01*
X2851889Y-4740929D01*
X2850300Y-4719730D01*
X2843521Y-4629268D01*
X2841845Y-4606898D01*
X2856351Y-4547457D01*
X2903025Y-4507895D01*
X2940568Y-4500500D01*
X4400500Y-4500500D01*
X4458691Y-4519407D01*
G37*
%TD.AperFunction*%
%TA.AperFunction,Conductor*%
G36*
X6117623Y-4519407D02*
G01*
X6153587Y-4568907D01*
X6158155Y-4606899D01*
X6148110Y-4740930D01*
X6145905Y-4755561D01*
X6093794Y-4983874D01*
X6089433Y-4998012D01*
X6003874Y-5216015D01*
X5997453Y-5229347D01*
X5880358Y-5432161D01*
X5872023Y-5444386D01*
X5726010Y-5627481D01*
X5715946Y-5638328D01*
X5544279Y-5797611D01*
X5532711Y-5806837D01*
X5339209Y-5938764D01*
X5326395Y-5946162D01*
X5115406Y-6047769D01*
X5101632Y-6053175D01*
X4877842Y-6122206D01*
X4863416Y-6125498D01*
X4631851Y-6160401D01*
X4617096Y-6161507D01*
X4599500Y-6161507D01*
X4541309Y-6142600D01*
X4505345Y-6093100D01*
X4500500Y-6062507D01*
X4500500Y-4599500D01*
X4519407Y-4541309D01*
X4568907Y-4505345D01*
X4599500Y-4500500D01*
X6059432Y-4500500D01*
X6117623Y-4519407D01*
G37*
%TD.AperFunction*%
%TA.AperFunction,Conductor*%
G36*
X4458691Y-2857400D02*
G01*
X4494655Y-2906900D01*
X4499500Y-2937493D01*
X4499500Y-4400500D01*
X4480593Y-4458691D01*
X4431093Y-4494655D01*
X4400500Y-4499500D01*
X2940568Y-4499500D01*
X2882377Y-4480593D01*
X2846413Y-4431093D01*
X2841845Y-4393102D01*
X2845069Y-4350066D01*
X2851889Y-4259063D01*
X2854092Y-4244449D01*
X2906206Y-4016119D01*
X2910566Y-4001987D01*
X2965327Y-3862458D01*
X2996128Y-3783977D01*
X3002546Y-3770652D01*
X3119641Y-3567838D01*
X3127976Y-3555613D01*
X3273989Y-3372518D01*
X3284044Y-3361680D01*
X3455723Y-3202385D01*
X3467284Y-3193164D01*
X3660792Y-3061233D01*
X3673596Y-3053841D01*
X3884601Y-2952226D01*
X3898364Y-2946825D01*
X4122166Y-2877790D01*
X4136574Y-2874503D01*
X4368149Y-2839598D01*
X4382904Y-2838493D01*
X4400500Y-2838493D01*
X4458691Y-2857400D01*
G37*
%TD.AperFunction*%
%TA.AperFunction,Conductor*%
G36*
X4631850Y-2839598D02*
G01*
X4863422Y-2874502D01*
X4877836Y-2877791D01*
X5031147Y-2925082D01*
X5101632Y-2946824D01*
X5115402Y-2952228D01*
X5133783Y-2961080D01*
X5326395Y-3053837D01*
X5339209Y-3061235D01*
X5532711Y-3193162D01*
X5544279Y-3202388D01*
X5715946Y-3361671D01*
X5726010Y-3372518D01*
X5872023Y-3555613D01*
X5880358Y-3567838D01*
X5997453Y-3770652D01*
X6003874Y-3783984D01*
X6089433Y-4001987D01*
X6093794Y-4016125D01*
X6145905Y-4244438D01*
X6148110Y-4259069D01*
X6158155Y-4393101D01*
X6143650Y-4452542D01*
X6096976Y-4492105D01*
X6059432Y-4499500D01*
X4599500Y-4499500D01*
X4541309Y-4480593D01*
X4505345Y-4431093D01*
X4500500Y-4400500D01*
X4500500Y-2937493D01*
X4519407Y-2879302D01*
X4568907Y-2843338D01*
X4599500Y-2838493D01*
X4617096Y-2838493D01*
X4631850Y-2839598D01*
G37*
%TD.AperFunction*%
%TA.AperFunction,Conductor*%
G36*
X50501074Y-547D02*
G01*
X50522532Y-1483D01*
X50694462Y-8990D01*
X50694462Y-9035D01*
X50694709Y-9001D01*
X50694825Y-9006D01*
X50896037Y-18309D01*
X50900165Y-18676D01*
X51101485Y-45180D01*
X51123987Y-48319D01*
X51296564Y-72393D01*
X51300374Y-73080D01*
X51499689Y-117267D01*
X51690606Y-162170D01*
X51694084Y-163127D01*
X51889213Y-224650D01*
X52074937Y-286899D01*
X52078106Y-288084D01*
X52266971Y-366315D01*
X52267936Y-366728D01*
X52361925Y-408228D01*
X52446503Y-445573D01*
X52449366Y-446949D01*
X52630753Y-541373D01*
X52631914Y-541997D01*
X52802340Y-636924D01*
X52804838Y-638414D01*
X52977372Y-748330D01*
X52978701Y-749207D01*
X53046245Y-795476D01*
X53139567Y-859403D01*
X53141713Y-860959D01*
X53304033Y-985512D01*
X53305509Y-986691D01*
X53455471Y-1111218D01*
X53457249Y-1112768D01*
X53608127Y-1251023D01*
X53609654Y-1252485D01*
X53747513Y-1390344D01*
X53748978Y-1391874D01*
X53887226Y-1542745D01*
X53888780Y-1544527D01*
X54013307Y-1694489D01*
X54014496Y-1695978D01*
X54139028Y-1858271D01*
X54140595Y-1860431D01*
X54250778Y-2021278D01*
X54251688Y-2022656D01*
X54361584Y-2195160D01*
X54363081Y-2197670D01*
X54457963Y-2368014D01*
X54458625Y-2369245D01*
X54553049Y-2550632D01*
X54554425Y-2553495D01*
X54633261Y-2732041D01*
X54633711Y-2733092D01*
X54711905Y-2921869D01*
X54713107Y-2925082D01*
X54775345Y-3110774D01*
X54836864Y-3305889D01*
X54837837Y-3309430D01*
X54850405Y-3362862D01*
X54882734Y-3500316D01*
X54926911Y-3699585D01*
X54927610Y-3703462D01*
X54954821Y-3898540D01*
X54981320Y-4099814D01*
X54981691Y-4103991D01*
X54991017Y-4305730D01*
X54991051Y-4306493D01*
X54991052Y-4306531D01*
X54999453Y-4498926D01*
X54999500Y-4501086D01*
X54999500Y-25498913D01*
X54999453Y-25501073D01*
X54991003Y-25694591D01*
X54981691Y-25896007D01*
X54981320Y-25900184D01*
X54954821Y-26101458D01*
X54927610Y-26296536D01*
X54926911Y-26300413D01*
X54882734Y-26499682D01*
X54837841Y-26690556D01*
X54836864Y-26694109D01*
X54775345Y-26889224D01*
X54713107Y-27074916D01*
X54711905Y-27078129D01*
X54633711Y-27266906D01*
X54633261Y-27267957D01*
X54554425Y-27446503D01*
X54553049Y-27449366D01*
X54458625Y-27630753D01*
X54457963Y-27631984D01*
X54363081Y-27802328D01*
X54361584Y-27804838D01*
X54251688Y-27977342D01*
X54250778Y-27978720D01*
X54140595Y-28139567D01*
X54139028Y-28141727D01*
X54014496Y-28304020D01*
X54013307Y-28305509D01*
X53888780Y-28455471D01*
X53887193Y-28457291D01*
X53749007Y-28608094D01*
X53747513Y-28609654D01*
X53609654Y-28747513D01*
X53608094Y-28749007D01*
X53457291Y-28887193D01*
X53455471Y-28888780D01*
X53305509Y-29013307D01*
X53304020Y-29014496D01*
X53141727Y-29139028D01*
X53139567Y-29140595D01*
X52978720Y-29250778D01*
X52977342Y-29251688D01*
X52804838Y-29361584D01*
X52802328Y-29363081D01*
X52631984Y-29457963D01*
X52630753Y-29458625D01*
X52449366Y-29553049D01*
X52446503Y-29554425D01*
X52267957Y-29633261D01*
X52266906Y-29633711D01*
X52078129Y-29711905D01*
X52074916Y-29713107D01*
X51889224Y-29775345D01*
X51694109Y-29836864D01*
X51690556Y-29837841D01*
X51499682Y-29882734D01*
X51300413Y-29926911D01*
X51296536Y-29927610D01*
X51101458Y-29954821D01*
X50900184Y-29981320D01*
X50896007Y-29981691D01*
X50694591Y-29991003D01*
X50501074Y-29999453D01*
X50498914Y-29999500D01*
X4501086Y-29999500D01*
X4498926Y-29999453D01*
X4306531Y-29991052D01*
X4306493Y-29991051D01*
X4305931Y-29991026D01*
X4305556Y-29991009D01*
X4305535Y-29991009D01*
X4305535Y-29991008D01*
X4103991Y-29981691D01*
X4099814Y-29981320D01*
X3898540Y-29954821D01*
X3703462Y-29927610D01*
X3699585Y-29926911D01*
X3500316Y-29882734D01*
X3309430Y-29837837D01*
X3305889Y-29836864D01*
X3110774Y-29775345D01*
X2925082Y-29713107D01*
X2921869Y-29711905D01*
X2733092Y-29633711D01*
X2732041Y-29633261D01*
X2553495Y-29554425D01*
X2550632Y-29553049D01*
X2369245Y-29458625D01*
X2368037Y-29457975D01*
X2274771Y-29406026D01*
X2197670Y-29363081D01*
X2195160Y-29361584D01*
X2022656Y-29251688D01*
X2021278Y-29250778D01*
X1860431Y-29140595D01*
X1858271Y-29139028D01*
X1695978Y-29014496D01*
X1694489Y-29013307D01*
X1544527Y-28888780D01*
X1542745Y-28887226D01*
X1391874Y-28748978D01*
X1390344Y-28747513D01*
X1252485Y-28609654D01*
X1251023Y-28608127D01*
X1112768Y-28457249D01*
X1111218Y-28455471D01*
X986691Y-28305509D01*
X985502Y-28304020D01*
X938174Y-28242341D01*
X860959Y-28141713D01*
X859403Y-28139567D01*
X855951Y-28134528D01*
X749207Y-27978701D01*
X748330Y-27977372D01*
X638414Y-27804838D01*
X636924Y-27802340D01*
X541997Y-27631914D01*
X541373Y-27630753D01*
X446949Y-27449366D01*
X445573Y-27446503D01*
X366737Y-27267957D01*
X366315Y-27266971D01*
X288084Y-27078106D01*
X286899Y-27074937D01*
X224650Y-26889213D01*
X163127Y-26694084D01*
X162170Y-26690606D01*
X117265Y-26499682D01*
X73080Y-26300374D01*
X72393Y-26296564D01*
X45177Y-26101458D01*
X44109Y-26093346D01*
X18676Y-25900167D01*
X18309Y-25896035D01*
X8990Y-25694460D01*
X7433Y-25658807D01*
X547Y-25501073D01*
X500Y-25498915D01*
X500Y-20407437D01*
X9274Y-20380430D01*
X8868Y-20379975D01*
X7642Y-20374138D01*
X188675Y-20374138D01*
X198248Y-20400374D01*
X199374Y-20416118D01*
X199500Y-20419651D01*
X199500Y-20435799D01*
X201798Y-20451788D01*
X202176Y-20455301D01*
X205908Y-20507483D01*
X208533Y-20514520D01*
X213764Y-20535014D01*
X214834Y-20542454D01*
X214835Y-20542458D01*
X236569Y-20590049D01*
X237921Y-20593314D01*
X256202Y-20642327D01*
X256203Y-20642328D01*
X256204Y-20642331D01*
X259918Y-20647293D01*
X260708Y-20648348D01*
X271501Y-20666538D01*
X274623Y-20673373D01*
X308888Y-20712917D01*
X311080Y-20715636D01*
X320779Y-20728593D01*
X320781Y-20728595D01*
X332211Y-20740026D01*
X334610Y-20742603D01*
X346927Y-20756817D01*
X368873Y-20782144D01*
X375183Y-20786199D01*
X391666Y-20799480D01*
X2100518Y-22508332D01*
X2113796Y-22524810D01*
X2117856Y-22531127D01*
X2117857Y-22531129D01*
X2157394Y-22565387D01*
X2159982Y-22567796D01*
X2171406Y-22579220D01*
X2171412Y-22579225D01*
X2171417Y-22579229D01*
X2184338Y-22588900D01*
X2187090Y-22591118D01*
X2226627Y-22625377D01*
X2233456Y-22628495D01*
X2251657Y-22639294D01*
X2257669Y-22643795D01*
X2306691Y-22662079D01*
X2309942Y-22663426D01*
X2357543Y-22685165D01*
X2364977Y-22686233D01*
X2385484Y-22691467D01*
X2392517Y-22694091D01*
X2444711Y-22697823D01*
X2448177Y-22698195D01*
X2464201Y-22700500D01*
X2480358Y-22700500D01*
X2483890Y-22700626D01*
X2486844Y-22700837D01*
X2536073Y-22704358D01*
X2543410Y-22702761D01*
X2564453Y-22700500D01*
X5618583Y-22700500D01*
X5676774Y-22719407D01*
X5688587Y-22729496D01*
X9267423Y-26308332D01*
X9280701Y-26324810D01*
X9284761Y-26331127D01*
X9284762Y-26331129D01*
X9324299Y-26365387D01*
X9326887Y-26367796D01*
X9338312Y-26379221D01*
X9351250Y-26388906D01*
X9354002Y-26391124D01*
X9393529Y-26425375D01*
X9393530Y-26425375D01*
X9393532Y-26425377D01*
X9400359Y-26428495D01*
X9418556Y-26439291D01*
X9424574Y-26443796D01*
X9473602Y-26462081D01*
X9476846Y-26463425D01*
X9524448Y-26485165D01*
X9531883Y-26486233D01*
X9552389Y-26491468D01*
X9559422Y-26494091D01*
X9611634Y-26497825D01*
X9615101Y-26498198D01*
X9631106Y-26500500D01*
X9647253Y-26500500D01*
X9650786Y-26500626D01*
X9655776Y-26500982D01*
X9702978Y-26504359D01*
X9709375Y-26502967D01*
X9710315Y-26502763D01*
X9731361Y-26500500D01*
X12200500Y-26500500D01*
X12258691Y-26519407D01*
X12294655Y-26568907D01*
X12299500Y-26599500D01*
X12299500Y-27335542D01*
X12297238Y-27356585D01*
X12295641Y-27363926D01*
X12299374Y-27416118D01*
X12299500Y-27419651D01*
X12299500Y-27435799D01*
X12301798Y-27451788D01*
X12302176Y-27455301D01*
X12305908Y-27507483D01*
X12308533Y-27514520D01*
X12313764Y-27535014D01*
X12314834Y-27542454D01*
X12314835Y-27542458D01*
X12336569Y-27590049D01*
X12337921Y-27593314D01*
X12356202Y-27642327D01*
X12356203Y-27642328D01*
X12356204Y-27642331D01*
X12358074Y-27644829D01*
X12360708Y-27648348D01*
X12371501Y-27666538D01*
X12374623Y-27673373D01*
X12408888Y-27712917D01*
X12411080Y-27715636D01*
X12420779Y-27728593D01*
X12420781Y-27728595D01*
X12432211Y-27740026D01*
X12434610Y-27742603D01*
X12446927Y-27756817D01*
X12468873Y-27782144D01*
X12475183Y-27786199D01*
X12491666Y-27799480D01*
X14200518Y-29508332D01*
X14213796Y-29524810D01*
X14217856Y-29531127D01*
X14217857Y-29531129D01*
X14257394Y-29565387D01*
X14259982Y-29567796D01*
X14271406Y-29579220D01*
X14271412Y-29579225D01*
X14271417Y-29579229D01*
X14284338Y-29588900D01*
X14287090Y-29591118D01*
X14326627Y-29625377D01*
X14333456Y-29628495D01*
X14351657Y-29639294D01*
X14357669Y-29643795D01*
X14406691Y-29662079D01*
X14409942Y-29663426D01*
X14457543Y-29685165D01*
X14464977Y-29686233D01*
X14485484Y-29691467D01*
X14492517Y-29694091D01*
X14544711Y-29697823D01*
X14548177Y-29698195D01*
X14564201Y-29700500D01*
X14580358Y-29700500D01*
X14583890Y-29700626D01*
X14586844Y-29700837D01*
X14636073Y-29704358D01*
X14643410Y-29702761D01*
X14664453Y-29700500D01*
X36535544Y-29700500D01*
X36556590Y-29702763D01*
X36557830Y-29703032D01*
X36563927Y-29704359D01*
X36611412Y-29700962D01*
X36616119Y-29700626D01*
X36619652Y-29700500D01*
X36635799Y-29700500D01*
X36651799Y-29698199D01*
X36655272Y-29697824D01*
X36707483Y-29694091D01*
X36714515Y-29691467D01*
X36735022Y-29686233D01*
X36742457Y-29685165D01*
X36790049Y-29663429D01*
X36793295Y-29662084D01*
X36842331Y-29643796D01*
X36848341Y-29639296D01*
X36866549Y-29628492D01*
X36873373Y-29625377D01*
X36912917Y-29591110D01*
X36915642Y-29588914D01*
X36928593Y-29579221D01*
X36940042Y-29567770D01*
X36942579Y-29565408D01*
X36982143Y-29531128D01*
X36986203Y-29524810D01*
X36999477Y-29508335D01*
X37308335Y-29199477D01*
X37324811Y-29186202D01*
X37331128Y-29182143D01*
X37365395Y-29142594D01*
X37367783Y-29140029D01*
X37379220Y-29128594D01*
X37388915Y-29115640D01*
X37391106Y-29112921D01*
X37425377Y-29073373D01*
X37428494Y-29066546D01*
X37439294Y-29048341D01*
X37443795Y-29042331D01*
X37462091Y-28993274D01*
X37463413Y-28990084D01*
X37485165Y-28942457D01*
X37486232Y-28935027D01*
X37491470Y-28914510D01*
X37492280Y-28912335D01*
X37494091Y-28907483D01*
X37497823Y-28855287D01*
X37498200Y-28851791D01*
X37500500Y-28835799D01*
X37500500Y-28819641D01*
X37500626Y-28816108D01*
X37504358Y-28763925D01*
X37502763Y-28756595D01*
X37500500Y-28735555D01*
X37500500Y-24264456D01*
X37502763Y-24243408D01*
X37504359Y-24236073D01*
X37500626Y-24183880D01*
X37500500Y-24180347D01*
X37500500Y-24164201D01*
X37498198Y-24148196D01*
X37497825Y-24144729D01*
X37494091Y-24092517D01*
X37491468Y-24085484D01*
X37486233Y-24064975D01*
X37485165Y-24057543D01*
X37463425Y-24009941D01*
X37462077Y-24006685D01*
X37443796Y-23957670D01*
X37443796Y-23957669D01*
X37439291Y-23951651D01*
X37428495Y-23933454D01*
X37425377Y-23926627D01*
X37425375Y-23926625D01*
X37425375Y-23926624D01*
X37391124Y-23887097D01*
X37388906Y-23884345D01*
X37379222Y-23871409D01*
X37379221Y-23871407D01*
X37367796Y-23859982D01*
X37365387Y-23857394D01*
X37331129Y-23817857D01*
X37331127Y-23817856D01*
X37324810Y-23813796D01*
X37308332Y-23800518D01*
X37199480Y-23691666D01*
X37186199Y-23675183D01*
X37182144Y-23668873D01*
X37182143Y-23668872D01*
X37142603Y-23634610D01*
X37140026Y-23632211D01*
X37128595Y-23620781D01*
X37128593Y-23620779D01*
X37115636Y-23611080D01*
X37112917Y-23608888D01*
X37073373Y-23574623D01*
X37066538Y-23571501D01*
X37048348Y-23560708D01*
X37047293Y-23559918D01*
X37042331Y-23556204D01*
X37042328Y-23556203D01*
X37042327Y-23556202D01*
X36993314Y-23537921D01*
X36990049Y-23536569D01*
X36942458Y-23514835D01*
X36942454Y-23514834D01*
X36935014Y-23513764D01*
X36914520Y-23508533D01*
X36907482Y-23505908D01*
X36907483Y-23505908D01*
X36855301Y-23502176D01*
X36851788Y-23501798D01*
X36835800Y-23499500D01*
X36835799Y-23499500D01*
X36819652Y-23499500D01*
X36816119Y-23499374D01*
X36786240Y-23497237D01*
X36763927Y-23495641D01*
X36763926Y-23495641D01*
X36763925Y-23495641D01*
X36756590Y-23497237D01*
X36735544Y-23499500D01*
X36648083Y-23499500D01*
X36589892Y-23480593D01*
X36553928Y-23431093D01*
X36550779Y-23382256D01*
X36561352Y-23325866D01*
X36623365Y-22995121D01*
X36628099Y-22978274D01*
X36636237Y-22956818D01*
X36646501Y-22872278D01*
X36646979Y-22869178D01*
X36649610Y-22855154D01*
X36651238Y-22843565D01*
X36651986Y-22835612D01*
X36652578Y-22823305D01*
X36652878Y-22819762D01*
X36655278Y-22800000D01*
X36636237Y-22643182D01*
X36580220Y-22495477D01*
X36535351Y-22430473D01*
X36490484Y-22365471D01*
X36372241Y-22260718D01*
X36372240Y-22260717D01*
X36254385Y-22198861D01*
X36232364Y-22187303D01*
X36078987Y-22149500D01*
X36078985Y-22149500D01*
X35921015Y-22149500D01*
X35921012Y-22149500D01*
X35767635Y-22187303D01*
X35627755Y-22260719D01*
X35565648Y-22315741D01*
X35509554Y-22340176D01*
X35449810Y-22326972D01*
X35434352Y-22315741D01*
X35372244Y-22260719D01*
X35232364Y-22187303D01*
X35078987Y-22149500D01*
X35078985Y-22149500D01*
X34921015Y-22149500D01*
X34921012Y-22149500D01*
X34767638Y-22187303D01*
X34767627Y-22187307D01*
X34762688Y-22189899D01*
X34742866Y-22196909D01*
X34743030Y-22197448D01*
X34738381Y-22198858D01*
X34155298Y-22440365D01*
X34117414Y-22447900D01*
X30346791Y-22447900D01*
X30326476Y-22445793D01*
X30314753Y-22443335D01*
X30314752Y-22443335D01*
X30281177Y-22447520D01*
X30275053Y-22447900D01*
X30270819Y-22447900D01*
X30250259Y-22451330D01*
X30248237Y-22451625D01*
X30198144Y-22457870D01*
X30191093Y-22459969D01*
X30184090Y-22462373D01*
X30139699Y-22486395D01*
X30137883Y-22487329D01*
X30092576Y-22509480D01*
X30086525Y-22513801D01*
X30080747Y-22518298D01*
X30046550Y-22555445D01*
X30045134Y-22556920D01*
X29883153Y-22718903D01*
X29828637Y-22746681D01*
X29813149Y-22747900D01*
X28786852Y-22747900D01*
X28728661Y-22728993D01*
X28716848Y-22718904D01*
X26181096Y-20183151D01*
X26153319Y-20128634D01*
X26152100Y-20113147D01*
X26152100Y-17146791D01*
X26154207Y-17126473D01*
X26156665Y-17114752D01*
X26152479Y-17081183D01*
X26152099Y-17075051D01*
X26152100Y-17070825D01*
X26152099Y-17070824D01*
X26152100Y-17070822D01*
X26148664Y-17050235D01*
X26148371Y-17048220D01*
X26142128Y-16998139D01*
X26140028Y-16991085D01*
X26137628Y-16984095D01*
X26137627Y-16984093D01*
X26137627Y-16984092D01*
X26113597Y-16939688D01*
X26112695Y-16937937D01*
X26090519Y-16892574D01*
X26090517Y-16892572D01*
X26086224Y-16886560D01*
X26081700Y-16880747D01*
X26081699Y-16880745D01*
X26081696Y-16880742D01*
X26044577Y-16846571D01*
X26043101Y-16845155D01*
X25461095Y-16263150D01*
X25433318Y-16208633D01*
X25432099Y-16193158D01*
X25432099Y-11582581D01*
X25439634Y-11544698D01*
X25458147Y-11500001D01*
X26044722Y-11500001D01*
X26063763Y-11656818D01*
X26084508Y-11711521D01*
X26090181Y-11734385D01*
X26091354Y-11743800D01*
X26091355Y-11743808D01*
X26194466Y-12054687D01*
X26199500Y-12085853D01*
X26199500Y-12135542D01*
X26197238Y-12156585D01*
X26195641Y-12163926D01*
X26199374Y-12216118D01*
X26199500Y-12219651D01*
X26199500Y-12235799D01*
X26201798Y-12251788D01*
X26202176Y-12255301D01*
X26205908Y-12307483D01*
X26208533Y-12314520D01*
X26213764Y-12335014D01*
X26214834Y-12342454D01*
X26214835Y-12342458D01*
X26236569Y-12390049D01*
X26237921Y-12393314D01*
X26256202Y-12442327D01*
X26256203Y-12442328D01*
X26256204Y-12442331D01*
X26259918Y-12447293D01*
X26260708Y-12448348D01*
X26271501Y-12466538D01*
X26274623Y-12473373D01*
X26308888Y-12512917D01*
X26311080Y-12515636D01*
X26320779Y-12528593D01*
X26320781Y-12528595D01*
X26332211Y-12540026D01*
X26334610Y-12542603D01*
X26368872Y-12582143D01*
X26368873Y-12582144D01*
X26375183Y-12586199D01*
X26391665Y-12599479D01*
X27270504Y-13478318D01*
X27298280Y-13532834D01*
X27299499Y-13548321D01*
X27299499Y-20635542D01*
X27297238Y-20656579D01*
X27295641Y-20663921D01*
X27295640Y-20663925D01*
X27299374Y-20716118D01*
X27299500Y-20719651D01*
X27299500Y-20735799D01*
X27301798Y-20751788D01*
X27302176Y-20755301D01*
X27305908Y-20807483D01*
X27308533Y-20814520D01*
X27313764Y-20835014D01*
X27314834Y-20842454D01*
X27314835Y-20842458D01*
X27336569Y-20890049D01*
X27337921Y-20893314D01*
X27356202Y-20942327D01*
X27356203Y-20942328D01*
X27356204Y-20942331D01*
X27359918Y-20947293D01*
X27360708Y-20948348D01*
X27371501Y-20966538D01*
X27374623Y-20973373D01*
X27408888Y-21012917D01*
X27411080Y-21015636D01*
X27420779Y-21028593D01*
X27420781Y-21028595D01*
X27432211Y-21040026D01*
X27434610Y-21042603D01*
X27453452Y-21064347D01*
X27468873Y-21082144D01*
X27475183Y-21086199D01*
X27491666Y-21099480D01*
X28000518Y-21608332D01*
X28013796Y-21624810D01*
X28017856Y-21631127D01*
X28017857Y-21631129D01*
X28057394Y-21665387D01*
X28059982Y-21667796D01*
X28071407Y-21679221D01*
X28073240Y-21680593D01*
X28084345Y-21688906D01*
X28087097Y-21691124D01*
X28126624Y-21725375D01*
X28126625Y-21725375D01*
X28126627Y-21725377D01*
X28133454Y-21728495D01*
X28151651Y-21739291D01*
X28157669Y-21743796D01*
X28206697Y-21762081D01*
X28209941Y-21763425D01*
X28257543Y-21785165D01*
X28264978Y-21786233D01*
X28285484Y-21791468D01*
X28292517Y-21794091D01*
X28344729Y-21797825D01*
X28348196Y-21798198D01*
X28364201Y-21800500D01*
X28380348Y-21800500D01*
X28383881Y-21800626D01*
X28388871Y-21800982D01*
X28436073Y-21804359D01*
X28442470Y-21802967D01*
X28443410Y-21802763D01*
X28464456Y-21800500D01*
X38551678Y-21800500D01*
X38609869Y-21819407D01*
X38621682Y-21829496D01*
X42070504Y-25278318D01*
X42098281Y-25332835D01*
X42099500Y-25348322D01*
X42099500Y-25640383D01*
X42097804Y-25658628D01*
X41976631Y-26304880D01*
X41971896Y-26321734D01*
X41963763Y-26343182D01*
X41963763Y-26343184D01*
X41963762Y-26343184D01*
X41953503Y-26427673D01*
X41953016Y-26430825D01*
X41950391Y-26444829D01*
X41950382Y-26444885D01*
X41948762Y-26456416D01*
X41948760Y-26456436D01*
X41948015Y-26464360D01*
X41948010Y-26464421D01*
X41947421Y-26476686D01*
X41947117Y-26480272D01*
X41944722Y-26499998D01*
X41944722Y-26500002D01*
X41951126Y-26552745D01*
X41951484Y-26559253D01*
X41951466Y-26560895D01*
X41951467Y-26560910D01*
X41953017Y-26569174D01*
X41953503Y-26572319D01*
X41963763Y-26656818D01*
X41971896Y-26678264D01*
X41976630Y-26695117D01*
X42047553Y-27073373D01*
X42049125Y-27081754D01*
X42049125Y-27118243D01*
X41976632Y-27504878D01*
X41971897Y-27521732D01*
X41964697Y-27540719D01*
X41963763Y-27543183D01*
X41963762Y-27543184D01*
X41953503Y-27627673D01*
X41953016Y-27630825D01*
X41950391Y-27644829D01*
X41950382Y-27644885D01*
X41948762Y-27656416D01*
X41948760Y-27656436D01*
X41948015Y-27664360D01*
X41948010Y-27664421D01*
X41947421Y-27676686D01*
X41947117Y-27680272D01*
X41944722Y-27699998D01*
X41944722Y-27700002D01*
X41963762Y-27856816D01*
X41963763Y-27856818D01*
X42009472Y-27977342D01*
X42019780Y-28004523D01*
X42109515Y-28134528D01*
X42109516Y-28134529D01*
X42109517Y-28134530D01*
X42227760Y-28239283D01*
X42367635Y-28312696D01*
X42521015Y-28350500D01*
X42521018Y-28350500D01*
X42678982Y-28350500D01*
X42678985Y-28350500D01*
X42832365Y-28312696D01*
X42972240Y-28239283D01*
X43090483Y-28134530D01*
X43180220Y-28004523D01*
X43236237Y-27856818D01*
X43255278Y-27700000D01*
X43248871Y-27647238D01*
X43248514Y-27640719D01*
X43248532Y-27639094D01*
X43246981Y-27630825D01*
X43246498Y-27627702D01*
X43236237Y-27543182D01*
X43228102Y-27521732D01*
X43223366Y-27504878D01*
X43150872Y-27118239D01*
X43150872Y-27081758D01*
X43223365Y-26695121D01*
X43228099Y-26678274D01*
X43236237Y-26656818D01*
X43246501Y-26572278D01*
X43246981Y-26569174D01*
X43249610Y-26555154D01*
X43251238Y-26543565D01*
X43251986Y-26535612D01*
X43252578Y-26523305D01*
X43252878Y-26519762D01*
X43255278Y-26500000D01*
X43248871Y-26447238D01*
X43248514Y-26440719D01*
X43248532Y-26439094D01*
X43246981Y-26430825D01*
X43246498Y-26427702D01*
X43236237Y-26343182D01*
X43228102Y-26321732D01*
X43223366Y-26304880D01*
X43158627Y-25959600D01*
X43102230Y-25658807D01*
X43102882Y-25658684D01*
X43100500Y-25640435D01*
X43100500Y-25434528D01*
X43100500Y-25164446D01*
X43102763Y-25143407D01*
X43104359Y-25136073D01*
X43100626Y-25083880D01*
X43100500Y-25080347D01*
X43100500Y-25064201D01*
X43098198Y-25048196D01*
X43097825Y-25044729D01*
X43094091Y-24992517D01*
X43091468Y-24985484D01*
X43086233Y-24964975D01*
X43085165Y-24957543D01*
X43063425Y-24909941D01*
X43062077Y-24906685D01*
X43043796Y-24857670D01*
X43043796Y-24857669D01*
X43039291Y-24851651D01*
X43028495Y-24833454D01*
X43025377Y-24826627D01*
X43025375Y-24826625D01*
X43025375Y-24826624D01*
X42991124Y-24787097D01*
X42988906Y-24784345D01*
X42979222Y-24771409D01*
X42979221Y-24771407D01*
X42967796Y-24759982D01*
X42965387Y-24757394D01*
X42931129Y-24717857D01*
X42931127Y-24717856D01*
X42924810Y-24713796D01*
X42908332Y-24700518D01*
X39199480Y-20991666D01*
X39186199Y-20975183D01*
X39182144Y-20968873D01*
X39168420Y-20956981D01*
X39142603Y-20934610D01*
X39140026Y-20932211D01*
X39128595Y-20920781D01*
X39128593Y-20920779D01*
X39115636Y-20911080D01*
X39112917Y-20908888D01*
X39073373Y-20874623D01*
X39066538Y-20871501D01*
X39048348Y-20860708D01*
X39047293Y-20859918D01*
X39042331Y-20856204D01*
X39042328Y-20856203D01*
X39042327Y-20856202D01*
X38993314Y-20837921D01*
X38990049Y-20836569D01*
X38942458Y-20814835D01*
X38942454Y-20814834D01*
X38935014Y-20813764D01*
X38914520Y-20808533D01*
X38907482Y-20805908D01*
X38907483Y-20805908D01*
X38855301Y-20802176D01*
X38851788Y-20801798D01*
X38835800Y-20799500D01*
X38835799Y-20799500D01*
X38819652Y-20799500D01*
X38816119Y-20799374D01*
X38786240Y-20797237D01*
X38763927Y-20795641D01*
X38763926Y-20795641D01*
X38763925Y-20795641D01*
X38756590Y-20797237D01*
X38735544Y-20799500D01*
X28648322Y-20799500D01*
X28590131Y-20780593D01*
X28578318Y-20770504D01*
X28329495Y-20521681D01*
X28301718Y-20467164D01*
X28300499Y-20451689D01*
X28300499Y-20075000D01*
X48629785Y-20075000D01*
X48648603Y-20278083D01*
X48704418Y-20474250D01*
X48795327Y-20656821D01*
X48918236Y-20819579D01*
X49068959Y-20956981D01*
X49242363Y-21064348D01*
X49432544Y-21138024D01*
X49633024Y-21175500D01*
X49836976Y-21175500D01*
X50037456Y-21138024D01*
X50227637Y-21064348D01*
X50401041Y-20956981D01*
X50409059Y-20949672D01*
X51174499Y-20949672D01*
X51174501Y-20949684D01*
X51189033Y-21022736D01*
X51189035Y-21022742D01*
X51244397Y-21105599D01*
X51244399Y-21105601D01*
X51327260Y-21160966D01*
X51382808Y-21172015D01*
X51400315Y-21175498D01*
X51400320Y-21175498D01*
X51400326Y-21175500D01*
X51400327Y-21175500D01*
X53149673Y-21175500D01*
X53149674Y-21175500D01*
X53222740Y-21160966D01*
X53305601Y-21105601D01*
X53360966Y-21022740D01*
X53375500Y-20949674D01*
X53375500Y-19200326D01*
X53360966Y-19127260D01*
X53327204Y-19076731D01*
X53305602Y-19044400D01*
X53305599Y-19044397D01*
X53222742Y-18989035D01*
X53222740Y-18989034D01*
X53222737Y-18989033D01*
X53222736Y-18989033D01*
X53149684Y-18974501D01*
X53149674Y-18974500D01*
X51400326Y-18974500D01*
X51400325Y-18974500D01*
X51400315Y-18974501D01*
X51327263Y-18989033D01*
X51327257Y-18989035D01*
X51244400Y-19044397D01*
X51244397Y-19044400D01*
X51189035Y-19127257D01*
X51189033Y-19127263D01*
X51174501Y-19200315D01*
X51174499Y-19200327D01*
X51174499Y-20949672D01*
X50409059Y-20949672D01*
X50551764Y-20819579D01*
X50674673Y-20656821D01*
X50765582Y-20474250D01*
X50821397Y-20278083D01*
X50840215Y-20075000D01*
X50821397Y-19871917D01*
X50765582Y-19675750D01*
X50674673Y-19493179D01*
X50551764Y-19330421D01*
X50401041Y-19193019D01*
X50227637Y-19085652D01*
X50037456Y-19011976D01*
X50037455Y-19011975D01*
X50037453Y-19011975D01*
X49836976Y-18974500D01*
X49633024Y-18974500D01*
X49432546Y-19011975D01*
X49370342Y-19036073D01*
X49242363Y-19085652D01*
X49175164Y-19127260D01*
X49068959Y-19193019D01*
X48918237Y-19330420D01*
X48795328Y-19493177D01*
X48795323Y-19493186D01*
X48723292Y-19637845D01*
X48704418Y-19675750D01*
X48648603Y-19871917D01*
X48629785Y-20075000D01*
X28300499Y-20075000D01*
X28300499Y-14995000D01*
X48629785Y-14995000D01*
X48648603Y-15198083D01*
X48704418Y-15394250D01*
X48795327Y-15576821D01*
X48918236Y-15739579D01*
X49068959Y-15876981D01*
X49242363Y-15984348D01*
X49432544Y-16058024D01*
X49633024Y-16095500D01*
X49836976Y-16095500D01*
X50037456Y-16058024D01*
X50227637Y-15984348D01*
X50401041Y-15876981D01*
X50551764Y-15739579D01*
X50674673Y-15576821D01*
X50765582Y-15394250D01*
X50821397Y-15198083D01*
X50840215Y-14995000D01*
X51169785Y-14995000D01*
X51188603Y-15198083D01*
X51244418Y-15394250D01*
X51335327Y-15576821D01*
X51458236Y-15739579D01*
X51608959Y-15876981D01*
X51782363Y-15984348D01*
X51972544Y-16058024D01*
X52173024Y-16095500D01*
X52376976Y-16095500D01*
X52577456Y-16058024D01*
X52767637Y-15984348D01*
X52941041Y-15876981D01*
X53091764Y-15739579D01*
X53214673Y-15576821D01*
X53305582Y-15394250D01*
X53361397Y-15198083D01*
X53380215Y-14995000D01*
X53361397Y-14791917D01*
X53305582Y-14595750D01*
X53214673Y-14413179D01*
X53091764Y-14250421D01*
X52941041Y-14113019D01*
X52767637Y-14005652D01*
X52577456Y-13931976D01*
X52577455Y-13931975D01*
X52577453Y-13931975D01*
X52376976Y-13894500D01*
X52173024Y-13894500D01*
X51972546Y-13931975D01*
X51961968Y-13936073D01*
X51782363Y-14005652D01*
X51665005Y-14078317D01*
X51608959Y-14113019D01*
X51458237Y-14250420D01*
X51335328Y-14413177D01*
X51335323Y-14413186D01*
X51244419Y-14595747D01*
X51244418Y-14595750D01*
X51188603Y-14791917D01*
X51169785Y-14995000D01*
X50840215Y-14995000D01*
X50821397Y-14791917D01*
X50765582Y-14595750D01*
X50674673Y-14413179D01*
X50551764Y-14250421D01*
X50401041Y-14113019D01*
X50227637Y-14005652D01*
X50037456Y-13931976D01*
X50037455Y-13931975D01*
X50037453Y-13931975D01*
X49836976Y-13894500D01*
X49633024Y-13894500D01*
X49432546Y-13931975D01*
X49421968Y-13936073D01*
X49242363Y-14005652D01*
X49125005Y-14078317D01*
X49068959Y-14113019D01*
X48918237Y-14250420D01*
X48795328Y-14413177D01*
X48795323Y-14413186D01*
X48704419Y-14595747D01*
X48704418Y-14595750D01*
X48648603Y-14791917D01*
X48629785Y-14995000D01*
X28300499Y-14995000D01*
X28300499Y-13364456D01*
X28302762Y-13343410D01*
X28304359Y-13336073D01*
X28300626Y-13283880D01*
X28300500Y-13280347D01*
X28300500Y-13264201D01*
X28298198Y-13248196D01*
X28297825Y-13244729D01*
X28294091Y-13192517D01*
X28291468Y-13185484D01*
X28286233Y-13164975D01*
X28285165Y-13157543D01*
X28263425Y-13109941D01*
X28262077Y-13106685D01*
X28243796Y-13057670D01*
X28243796Y-13057669D01*
X28239291Y-13051651D01*
X28228495Y-13033454D01*
X28225377Y-13026627D01*
X28225375Y-13026625D01*
X28225375Y-13026624D01*
X28191124Y-12987097D01*
X28188906Y-12984345D01*
X28179222Y-12971409D01*
X28179221Y-12971407D01*
X28167796Y-12959982D01*
X28165387Y-12957394D01*
X28131129Y-12917857D01*
X28131127Y-12917856D01*
X28124810Y-12913796D01*
X28108332Y-12900518D01*
X27662814Y-12455000D01*
X48629785Y-12455000D01*
X48648603Y-12658083D01*
X48704418Y-12854250D01*
X48795327Y-13036821D01*
X48918236Y-13199579D01*
X49068959Y-13336981D01*
X49242363Y-13444348D01*
X49432544Y-13518024D01*
X49633024Y-13555500D01*
X49836976Y-13555500D01*
X50037456Y-13518024D01*
X50227637Y-13444348D01*
X50401041Y-13336981D01*
X50551764Y-13199579D01*
X50674673Y-13036821D01*
X50765582Y-12854250D01*
X50821397Y-12658083D01*
X50840215Y-12455000D01*
X51169785Y-12455000D01*
X51188603Y-12658083D01*
X51244418Y-12854250D01*
X51335327Y-13036821D01*
X51458236Y-13199579D01*
X51608959Y-13336981D01*
X51782363Y-13444348D01*
X51972544Y-13518024D01*
X52173024Y-13555500D01*
X52376976Y-13555500D01*
X52577456Y-13518024D01*
X52767637Y-13444348D01*
X52941041Y-13336981D01*
X53091764Y-13199579D01*
X53214673Y-13036821D01*
X53305582Y-12854250D01*
X53361397Y-12658083D01*
X53380215Y-12455000D01*
X53361397Y-12251917D01*
X53305582Y-12055750D01*
X53214673Y-11873179D01*
X53091764Y-11710421D01*
X52941041Y-11573019D01*
X52767637Y-11465652D01*
X52577456Y-11391976D01*
X52577455Y-11391975D01*
X52577453Y-11391975D01*
X52376976Y-11354500D01*
X52173024Y-11354500D01*
X51972546Y-11391975D01*
X51902632Y-11419059D01*
X51782363Y-11465652D01*
X51608959Y-11573019D01*
X51458236Y-11710421D01*
X51449028Y-11722614D01*
X51335328Y-11873177D01*
X51335323Y-11873186D01*
X51244947Y-12054687D01*
X51244418Y-12055750D01*
X51188603Y-12251917D01*
X51169785Y-12455000D01*
X50840215Y-12455000D01*
X50821397Y-12251917D01*
X50765582Y-12055750D01*
X50674673Y-11873179D01*
X50551764Y-11710421D01*
X50401041Y-11573019D01*
X50227637Y-11465652D01*
X50037456Y-11391976D01*
X50037455Y-11391975D01*
X50037453Y-11391975D01*
X49836976Y-11354500D01*
X49633024Y-11354500D01*
X49432546Y-11391975D01*
X49362632Y-11419059D01*
X49242363Y-11465652D01*
X49068959Y-11573019D01*
X48918236Y-11710421D01*
X48909028Y-11722614D01*
X48795328Y-11873177D01*
X48795323Y-11873186D01*
X48704947Y-12054687D01*
X48704418Y-12055750D01*
X48648603Y-12251917D01*
X48629785Y-12455000D01*
X27662814Y-12455000D01*
X27273457Y-12065643D01*
X27245680Y-12011126D01*
X27255251Y-11950694D01*
X27278625Y-11920825D01*
X27312924Y-11891105D01*
X27315638Y-11888917D01*
X27328593Y-11879221D01*
X27340042Y-11867770D01*
X27342579Y-11865408D01*
X27382143Y-11831128D01*
X27386202Y-11824811D01*
X27399477Y-11808335D01*
X27669474Y-11538338D01*
X27672547Y-11535515D01*
X27700078Y-11512304D01*
X27704189Y-11508685D01*
X27706935Y-11506160D01*
X27714682Y-11498733D01*
X27720545Y-11489957D01*
X27732850Y-11474962D01*
X28708335Y-10499477D01*
X28724811Y-10486202D01*
X28731128Y-10482143D01*
X28765408Y-10442579D01*
X28767770Y-10440042D01*
X28779221Y-10428593D01*
X28788914Y-10415642D01*
X28791110Y-10412917D01*
X28825377Y-10373373D01*
X28828492Y-10366549D01*
X28839296Y-10348342D01*
X28839921Y-10347506D01*
X28843796Y-10342331D01*
X28862084Y-10293295D01*
X28863432Y-10290043D01*
X28874654Y-10265471D01*
X28885165Y-10242457D01*
X28886233Y-10235022D01*
X28891467Y-10214515D01*
X28894091Y-10207483D01*
X28897824Y-10155272D01*
X28898199Y-10151799D01*
X28900500Y-10135799D01*
X28900500Y-10119651D01*
X28900626Y-10116118D01*
X28900765Y-10114160D01*
X28904359Y-10063927D01*
X28902762Y-10056585D01*
X28900500Y-10035542D01*
X28900500Y-9915000D01*
X48629785Y-9915000D01*
X48648603Y-10118083D01*
X48704418Y-10314250D01*
X48795327Y-10496821D01*
X48918236Y-10659579D01*
X49068959Y-10796981D01*
X49242363Y-10904348D01*
X49432544Y-10978024D01*
X49633024Y-11015500D01*
X49836976Y-11015500D01*
X50037456Y-10978024D01*
X50227637Y-10904348D01*
X50401041Y-10796981D01*
X50551764Y-10659579D01*
X50674673Y-10496821D01*
X50765582Y-10314250D01*
X50821397Y-10118083D01*
X50840215Y-9915000D01*
X51169785Y-9915000D01*
X51188603Y-10118083D01*
X51244418Y-10314250D01*
X51335327Y-10496821D01*
X51458236Y-10659579D01*
X51608959Y-10796981D01*
X51782363Y-10904348D01*
X51972544Y-10978024D01*
X52173024Y-11015500D01*
X52376976Y-11015500D01*
X52577456Y-10978024D01*
X52767637Y-10904348D01*
X52941041Y-10796981D01*
X53091764Y-10659579D01*
X53214673Y-10496821D01*
X53305582Y-10314250D01*
X53361397Y-10118083D01*
X53380215Y-9915000D01*
X53361397Y-9711917D01*
X53305582Y-9515750D01*
X53214673Y-9333179D01*
X53091764Y-9170421D01*
X52941041Y-9033019D01*
X52767637Y-8925652D01*
X52577456Y-8851976D01*
X52577455Y-8851975D01*
X52577453Y-8851975D01*
X52376976Y-8814500D01*
X52173024Y-8814500D01*
X51972546Y-8851975D01*
X51902632Y-8879059D01*
X51782363Y-8925652D01*
X51608958Y-9033018D01*
X51608959Y-9033019D01*
X51458237Y-9170420D01*
X51335328Y-9333177D01*
X51335323Y-9333186D01*
X51244419Y-9515747D01*
X51244418Y-9515750D01*
X51235552Y-9546910D01*
X51188603Y-9711917D01*
X51170261Y-9909868D01*
X51169785Y-9915000D01*
X50840215Y-9915000D01*
X50821397Y-9711917D01*
X50765582Y-9515750D01*
X50674673Y-9333179D01*
X50551764Y-9170421D01*
X50401041Y-9033019D01*
X50227637Y-8925652D01*
X50037456Y-8851976D01*
X50037455Y-8851975D01*
X50037453Y-8851975D01*
X49836976Y-8814500D01*
X49633024Y-8814500D01*
X49432546Y-8851975D01*
X49362632Y-8879059D01*
X49242363Y-8925652D01*
X49068959Y-9033018D01*
X49068959Y-9033019D01*
X48918237Y-9170420D01*
X48795328Y-9333177D01*
X48795323Y-9333186D01*
X48704419Y-9515747D01*
X48704418Y-9515750D01*
X48695552Y-9546910D01*
X48648603Y-9711917D01*
X48630261Y-9909868D01*
X48629785Y-9915000D01*
X28900500Y-9915000D01*
X28900500Y-7764456D01*
X28902763Y-7743408D01*
X28904359Y-7736073D01*
X28900626Y-7683880D01*
X28900500Y-7680347D01*
X28900500Y-7664201D01*
X28899999Y-7660717D01*
X28898198Y-7648196D01*
X28897825Y-7644729D01*
X28894091Y-7592517D01*
X28891468Y-7585484D01*
X28886233Y-7564975D01*
X28885165Y-7557543D01*
X28863425Y-7509941D01*
X28862077Y-7506685D01*
X28861087Y-7504031D01*
X28843796Y-7457669D01*
X28839291Y-7451651D01*
X28828495Y-7433454D01*
X28825377Y-7426627D01*
X28825375Y-7426625D01*
X28825375Y-7426624D01*
X28791124Y-7387097D01*
X28788906Y-7384345D01*
X28779221Y-7371407D01*
X28767796Y-7359982D01*
X28765387Y-7357394D01*
X28731129Y-7317857D01*
X28731127Y-7317856D01*
X28724810Y-7313796D01*
X28708332Y-7300517D01*
X28329496Y-6921680D01*
X28301719Y-6867164D01*
X28300500Y-6851677D01*
X28300500Y-5559616D01*
X28302196Y-5541372D01*
X28361440Y-5225397D01*
X28423367Y-4895117D01*
X28428099Y-4878274D01*
X28436237Y-4856818D01*
X28446501Y-4772278D01*
X28446981Y-4769174D01*
X28449610Y-4755154D01*
X28451238Y-4743565D01*
X28451986Y-4735612D01*
X28452578Y-4723305D01*
X28452878Y-4719762D01*
X28455278Y-4700000D01*
X28448871Y-4647238D01*
X28448514Y-4640719D01*
X28448532Y-4639094D01*
X28446981Y-4630825D01*
X28446498Y-4627702D01*
X28436237Y-4543182D01*
X28428102Y-4521732D01*
X28423366Y-4504880D01*
X28347418Y-4099814D01*
X28302230Y-3858807D01*
X28302882Y-3858684D01*
X28300500Y-3840435D01*
X28300500Y-1959616D01*
X28302196Y-1941372D01*
X28348477Y-1694533D01*
X28423367Y-1295117D01*
X28428099Y-1278274D01*
X28436237Y-1256818D01*
X28446501Y-1172278D01*
X28446981Y-1169174D01*
X28449610Y-1155154D01*
X28451238Y-1143565D01*
X28451986Y-1135612D01*
X28452578Y-1123305D01*
X28452878Y-1119762D01*
X28455278Y-1100000D01*
X28436237Y-943182D01*
X28380220Y-795477D01*
X28335351Y-730473D01*
X28290484Y-665471D01*
X28172241Y-560718D01*
X28172240Y-560717D01*
X28064565Y-504204D01*
X28032364Y-487303D01*
X27878987Y-449500D01*
X27878985Y-449500D01*
X27721015Y-449500D01*
X27721012Y-449500D01*
X27567635Y-487303D01*
X27427758Y-560718D01*
X27309515Y-665471D01*
X27219780Y-795476D01*
X27163763Y-943182D01*
X27163762Y-943183D01*
X27144722Y-1099998D01*
X27144722Y-1100001D01*
X27151126Y-1152745D01*
X27151484Y-1159253D01*
X27151466Y-1160895D01*
X27151467Y-1160910D01*
X27153017Y-1169174D01*
X27153503Y-1172319D01*
X27161484Y-1238056D01*
X27163763Y-1256819D01*
X27163763Y-1256820D01*
X27171894Y-1278261D01*
X27176630Y-1295117D01*
X27297770Y-1941191D01*
X27297094Y-1941317D01*
X27299499Y-1959559D01*
X27299499Y-3840383D01*
X27297803Y-3858628D01*
X27176631Y-4504880D01*
X27171896Y-4521734D01*
X27163763Y-4543182D01*
X27163763Y-4543184D01*
X27163762Y-4543184D01*
X27153503Y-4627673D01*
X27153016Y-4630825D01*
X27150391Y-4644829D01*
X27150382Y-4644885D01*
X27148762Y-4656416D01*
X27148760Y-4656436D01*
X27148015Y-4664360D01*
X27148010Y-4664421D01*
X27147421Y-4676686D01*
X27147117Y-4680272D01*
X27144722Y-4699998D01*
X27144722Y-4700002D01*
X27151126Y-4752745D01*
X27151484Y-4759253D01*
X27151466Y-4760895D01*
X27151467Y-4760910D01*
X27153017Y-4769174D01*
X27153505Y-4772332D01*
X27163763Y-4856819D01*
X27163763Y-4856820D01*
X27171894Y-4878261D01*
X27176630Y-4895117D01*
X27297770Y-5541194D01*
X27297099Y-5541319D01*
X27299500Y-5559566D01*
X27299500Y-7035542D01*
X27297238Y-7056585D01*
X27295641Y-7063926D01*
X27299374Y-7116118D01*
X27299500Y-7119651D01*
X27299500Y-7135799D01*
X27301798Y-7151788D01*
X27302176Y-7155301D01*
X27305908Y-7207483D01*
X27308533Y-7214520D01*
X27313764Y-7235014D01*
X27314834Y-7242454D01*
X27314835Y-7242458D01*
X27336569Y-7290049D01*
X27337921Y-7293314D01*
X27356202Y-7342327D01*
X27356203Y-7342328D01*
X27356204Y-7342331D01*
X27359918Y-7347293D01*
X27360708Y-7348348D01*
X27371501Y-7366538D01*
X27374623Y-7373373D01*
X27408888Y-7412917D01*
X27411080Y-7415636D01*
X27420779Y-7428593D01*
X27420781Y-7428595D01*
X27432211Y-7440026D01*
X27434610Y-7442603D01*
X27468872Y-7482143D01*
X27468873Y-7482144D01*
X27475183Y-7486199D01*
X27491665Y-7499480D01*
X27870503Y-7878317D01*
X27898281Y-7932834D01*
X27899500Y-7948321D01*
X27899500Y-9851677D01*
X27880593Y-9909868D01*
X27870504Y-9921681D01*
X27085405Y-10706779D01*
X27041205Y-10732353D01*
X26489209Y-10881381D01*
X26480110Y-10884154D01*
X26477530Y-10884864D01*
X26467637Y-10887302D01*
X26467636Y-10887302D01*
X26327758Y-10960718D01*
X26209515Y-11065471D01*
X26119780Y-11195476D01*
X26063763Y-11343182D01*
X26063762Y-11343183D01*
X26044722Y-11499998D01*
X26044722Y-11500001D01*
X25458147Y-11500001D01*
X25681138Y-10961628D01*
X25684695Y-10943796D01*
X25689208Y-10928084D01*
X25716237Y-10856818D01*
X25735278Y-10700000D01*
X25734369Y-10692517D01*
X25718973Y-10565714D01*
X25716237Y-10543182D01*
X25660220Y-10395477D01*
X25588556Y-10291653D01*
X25570484Y-10265471D01*
X25544508Y-10242458D01*
X25452240Y-10160717D01*
X25367265Y-10116118D01*
X25312364Y-10087303D01*
X25158987Y-10049500D01*
X25158985Y-10049500D01*
X25001015Y-10049500D01*
X25001012Y-10049500D01*
X24847635Y-10087303D01*
X24707758Y-10160718D01*
X24589515Y-10265471D01*
X24499780Y-10395476D01*
X24443763Y-10543182D01*
X24443762Y-10543183D01*
X24424722Y-10699998D01*
X24424722Y-10700001D01*
X24443762Y-10856816D01*
X24443764Y-10856821D01*
X24470809Y-10928135D01*
X24475339Y-10943923D01*
X24478680Y-10960717D01*
X24478861Y-10961626D01*
X24717729Y-11538338D01*
X24720364Y-11544698D01*
X24727899Y-11582582D01*
X24727899Y-16333209D01*
X24725793Y-16353519D01*
X24723335Y-16365244D01*
X24727520Y-16398817D01*
X24727900Y-16404946D01*
X24727900Y-16409177D01*
X24731331Y-16429744D01*
X24731625Y-16431765D01*
X24737869Y-16481852D01*
X24739978Y-16488932D01*
X24742372Y-16495907D01*
X24766390Y-16540288D01*
X24767321Y-16542097D01*
X24775491Y-16558807D01*
X24789483Y-16587428D01*
X24793783Y-16593450D01*
X24798299Y-16599251D01*
X24798301Y-16599255D01*
X24835433Y-16633437D01*
X24836909Y-16634854D01*
X25418904Y-17216848D01*
X25446681Y-17271365D01*
X25447900Y-17286852D01*
X25447900Y-20253209D01*
X25445793Y-20273524D01*
X25443335Y-20285246D01*
X25447520Y-20318817D01*
X25447900Y-20324946D01*
X25447900Y-20329177D01*
X25451331Y-20349744D01*
X25451625Y-20351765D01*
X25457869Y-20401852D01*
X25459978Y-20408932D01*
X25462372Y-20415907D01*
X25486390Y-20460288D01*
X25487326Y-20462106D01*
X25509483Y-20507428D01*
X25513783Y-20513450D01*
X25518299Y-20519251D01*
X25518301Y-20519255D01*
X25555433Y-20553437D01*
X25556909Y-20554854D01*
X28317942Y-23315886D01*
X28330818Y-23331742D01*
X28337369Y-23341769D01*
X28364056Y-23362540D01*
X28368655Y-23366600D01*
X28371657Y-23369601D01*
X28371660Y-23369604D01*
X28388650Y-23381735D01*
X28390263Y-23382938D01*
X28429675Y-23413613D01*
X28430105Y-23413947D01*
X28436585Y-23417454D01*
X28443218Y-23420696D01*
X28443221Y-23420698D01*
X28465680Y-23427384D01*
X28491587Y-23435097D01*
X28493536Y-23435721D01*
X28541245Y-23452100D01*
X28541247Y-23452100D01*
X28548529Y-23453315D01*
X28555838Y-23454226D01*
X28555845Y-23454228D01*
X28606297Y-23452141D01*
X28608309Y-23452100D01*
X29953209Y-23452100D01*
X29973524Y-23454207D01*
X29978523Y-23455254D01*
X29985248Y-23456665D01*
X30018822Y-23452479D01*
X30024947Y-23452100D01*
X30029173Y-23452100D01*
X30029178Y-23452100D01*
X30049771Y-23448662D01*
X30051736Y-23448376D01*
X30101857Y-23442129D01*
X30101860Y-23442127D01*
X30108925Y-23440023D01*
X30115900Y-23437628D01*
X30115908Y-23437627D01*
X30160331Y-23413585D01*
X30162054Y-23412698D01*
X30207426Y-23390518D01*
X30207427Y-23390516D01*
X30213476Y-23386197D01*
X30219252Y-23381701D01*
X30219252Y-23381700D01*
X30219255Y-23381699D01*
X30253476Y-23344523D01*
X30254842Y-23343100D01*
X30416847Y-23181096D01*
X30471365Y-23153319D01*
X30486851Y-23152100D01*
X34117418Y-23152100D01*
X34155302Y-23159635D01*
X34379172Y-23252360D01*
X34425698Y-23292096D01*
X34438592Y-23325580D01*
X34479325Y-23542818D01*
X34496319Y-23633453D01*
X34497771Y-23641194D01*
X34497095Y-23641320D01*
X34499500Y-23659562D01*
X34499500Y-24071957D01*
X34499501Y-24071968D01*
X34507693Y-24099872D01*
X34510694Y-24113663D01*
X34514835Y-24142458D01*
X34526917Y-24168913D01*
X34531852Y-24182146D01*
X34540046Y-24210051D01*
X34540047Y-24210054D01*
X34555772Y-24234523D01*
X34562539Y-24246915D01*
X34574623Y-24273373D01*
X34593669Y-24295353D01*
X34602126Y-24306651D01*
X34617857Y-24331128D01*
X34639846Y-24350182D01*
X34649823Y-24360160D01*
X34668872Y-24382143D01*
X34668874Y-24382144D01*
X34668877Y-24382147D01*
X34693336Y-24397865D01*
X34704647Y-24406332D01*
X34726624Y-24425375D01*
X34726625Y-24425375D01*
X34726627Y-24425377D01*
X34749381Y-24435768D01*
X34753080Y-24437458D01*
X34765474Y-24444225D01*
X34789947Y-24459953D01*
X34817853Y-24468146D01*
X34831079Y-24473079D01*
X34857543Y-24485165D01*
X34886337Y-24489304D01*
X34900132Y-24492306D01*
X34928039Y-24500500D01*
X34964201Y-24500500D01*
X35928039Y-24500500D01*
X35964201Y-24500500D01*
X36400500Y-24500500D01*
X36458691Y-24519407D01*
X36494655Y-24568907D01*
X36499500Y-24599500D01*
X36499500Y-25563742D01*
X36480593Y-25621933D01*
X36431093Y-25657897D01*
X36369907Y-25657897D01*
X36354492Y-25651402D01*
X36232364Y-25587303D01*
X36078987Y-25549500D01*
X36078985Y-25549500D01*
X35921015Y-25549500D01*
X35921012Y-25549500D01*
X35767635Y-25587303D01*
X35627758Y-25660718D01*
X35565647Y-25715742D01*
X35509552Y-25740176D01*
X35449808Y-25726972D01*
X35434350Y-25715741D01*
X35372241Y-25660718D01*
X35372240Y-25660717D01*
X35280745Y-25612696D01*
X35232364Y-25587303D01*
X35078987Y-25549500D01*
X35078985Y-25549500D01*
X34921015Y-25549500D01*
X34851188Y-25566710D01*
X34831535Y-25571554D01*
X34828815Y-25572144D01*
X34175763Y-25694591D01*
X34158803Y-25697771D01*
X34158679Y-25697113D01*
X34140434Y-25699500D01*
X27864456Y-25699500D01*
X27843410Y-25697237D01*
X27836074Y-25695641D01*
X27836073Y-25695641D01*
X27815874Y-25697085D01*
X27783881Y-25699374D01*
X27780348Y-25699500D01*
X27764200Y-25699500D01*
X27748212Y-25701798D01*
X27744700Y-25702176D01*
X27692517Y-25705908D01*
X27685471Y-25708536D01*
X27664985Y-25713764D01*
X27657547Y-25714834D01*
X27657544Y-25714834D01*
X27657543Y-25714835D01*
X27657542Y-25714835D01*
X27657540Y-25714836D01*
X27609959Y-25736565D01*
X27606695Y-25737917D01*
X27557671Y-25756202D01*
X27557669Y-25756203D01*
X27551646Y-25760712D01*
X27533463Y-25771500D01*
X27526626Y-25774622D01*
X27487097Y-25808874D01*
X27484348Y-25811089D01*
X27471407Y-25820778D01*
X27459986Y-25832199D01*
X27457401Y-25834606D01*
X27412507Y-25873507D01*
X27410742Y-25871470D01*
X27368536Y-25896925D01*
X27346106Y-25899500D01*
X26528038Y-25899500D01*
X26500129Y-25907693D01*
X26486337Y-25910694D01*
X26457541Y-25914835D01*
X26431082Y-25926918D01*
X26417853Y-25931852D01*
X26389951Y-25940045D01*
X26389944Y-25940048D01*
X26365469Y-25955776D01*
X26353080Y-25962541D01*
X26326628Y-25974622D01*
X26304650Y-25993666D01*
X26293346Y-26002128D01*
X26268870Y-26017858D01*
X26249821Y-26039840D01*
X26239840Y-26049821D01*
X26217858Y-26068870D01*
X26202128Y-26093346D01*
X26193666Y-26104650D01*
X26174622Y-26126628D01*
X26162541Y-26153080D01*
X26155776Y-26165469D01*
X26140048Y-26189944D01*
X26140045Y-26189951D01*
X26131852Y-26217853D01*
X26126918Y-26231082D01*
X26114835Y-26257541D01*
X26110694Y-26286337D01*
X26107693Y-26300129D01*
X26099500Y-26328037D01*
X26099500Y-26740383D01*
X26097804Y-26758628D01*
X25976631Y-27404880D01*
X25971896Y-27421734D01*
X25963763Y-27443182D01*
X25963763Y-27443184D01*
X25963762Y-27443184D01*
X25953503Y-27527673D01*
X25953016Y-27530825D01*
X25950391Y-27544829D01*
X25950382Y-27544885D01*
X25948762Y-27556416D01*
X25948760Y-27556436D01*
X25948015Y-27564360D01*
X25948010Y-27564421D01*
X25947421Y-27576686D01*
X25947117Y-27580272D01*
X25944722Y-27599998D01*
X25944722Y-27600002D01*
X25963762Y-27756816D01*
X25963763Y-27756818D01*
X25979943Y-27799480D01*
X26019780Y-27904523D01*
X26109515Y-28034528D01*
X26109516Y-28034529D01*
X26109517Y-28034530D01*
X26227760Y-28139283D01*
X26367635Y-28212696D01*
X26521015Y-28250500D01*
X26521018Y-28250500D01*
X26678982Y-28250500D01*
X26678985Y-28250500D01*
X26832365Y-28212696D01*
X26972240Y-28139283D01*
X27034351Y-28084257D01*
X27090445Y-28059823D01*
X27150189Y-28073026D01*
X27165648Y-28084257D01*
X27227760Y-28139283D01*
X27367635Y-28212696D01*
X27521015Y-28250500D01*
X27521018Y-28250500D01*
X27678982Y-28250500D01*
X27678985Y-28250500D01*
X27832365Y-28212696D01*
X27972240Y-28139283D01*
X28090483Y-28034530D01*
X28180220Y-27904523D01*
X28236237Y-27756818D01*
X28250531Y-27639093D01*
X28255278Y-27600001D01*
X28255278Y-27599999D01*
X28250954Y-27564387D01*
X28248871Y-27547238D01*
X28248514Y-27540719D01*
X28248532Y-27539094D01*
X28246981Y-27530825D01*
X28246498Y-27527702D01*
X28236237Y-27443182D01*
X28228102Y-27421732D01*
X28223366Y-27404880D01*
X28178796Y-27167165D01*
X28113281Y-26817744D01*
X28121140Y-26757066D01*
X28163165Y-26712596D01*
X28210585Y-26700500D01*
X33200500Y-26700500D01*
X33258691Y-26719407D01*
X33294655Y-26768907D01*
X33299500Y-26799500D01*
X33299500Y-26871957D01*
X33299501Y-26871968D01*
X33307693Y-26899872D01*
X33310694Y-26913663D01*
X33314835Y-26942458D01*
X33326917Y-26968913D01*
X33331852Y-26982146D01*
X33340046Y-27010051D01*
X33340047Y-27010054D01*
X33355772Y-27034523D01*
X33362539Y-27046915D01*
X33374623Y-27073373D01*
X33393669Y-27095353D01*
X33402126Y-27106651D01*
X33417857Y-27131128D01*
X33439846Y-27150182D01*
X33449823Y-27160160D01*
X33468872Y-27182143D01*
X33468874Y-27182144D01*
X33468877Y-27182147D01*
X33493336Y-27197865D01*
X33504647Y-27206332D01*
X33526624Y-27225375D01*
X33526625Y-27225375D01*
X33526627Y-27225377D01*
X33549381Y-27235768D01*
X33553080Y-27237458D01*
X33565474Y-27244225D01*
X33589947Y-27259953D01*
X33617853Y-27268146D01*
X33631079Y-27273079D01*
X33657543Y-27285165D01*
X33686337Y-27289304D01*
X33700132Y-27292306D01*
X33728039Y-27300500D01*
X33728041Y-27300500D01*
X36071960Y-27300500D01*
X36071961Y-27300500D01*
X36099873Y-27292304D01*
X36113656Y-27289305D01*
X36142457Y-27285165D01*
X36168920Y-27273078D01*
X36182135Y-27268149D01*
X36210053Y-27259953D01*
X36234527Y-27244224D01*
X36246914Y-27237460D01*
X36273373Y-27225377D01*
X36295353Y-27206330D01*
X36306659Y-27197867D01*
X36331128Y-27182143D01*
X36331131Y-27182138D01*
X36335669Y-27178208D01*
X36392029Y-27154391D01*
X36451624Y-27168250D01*
X36491691Y-27214492D01*
X36499499Y-27253028D01*
X36499499Y-28551678D01*
X36480592Y-28609869D01*
X36470503Y-28621681D01*
X36421682Y-28670503D01*
X36367166Y-28698281D01*
X36351678Y-28699500D01*
X14848322Y-28699500D01*
X14790131Y-28680593D01*
X14778318Y-28670504D01*
X13329496Y-27221682D01*
X13301719Y-27167165D01*
X13300500Y-27151678D01*
X13300500Y-26248322D01*
X13319407Y-26190131D01*
X13329496Y-26178318D01*
X13577956Y-25929858D01*
X13830713Y-25677100D01*
X13877024Y-25650983D01*
X13878984Y-25650500D01*
X13878985Y-25650500D01*
X14032365Y-25612696D01*
X14172240Y-25539283D01*
X14290483Y-25434530D01*
X14380220Y-25304523D01*
X14436237Y-25156818D01*
X14443899Y-25093709D01*
X14469682Y-25038223D01*
X14472146Y-25035666D01*
X14946080Y-24561732D01*
X14960175Y-24550036D01*
X14963376Y-24547845D01*
X14963380Y-24547844D01*
X15519508Y-24167335D01*
X15524420Y-24164380D01*
X15572240Y-24139283D01*
X15609711Y-24106084D01*
X15614586Y-24102281D01*
X15620338Y-24098348D01*
X15629676Y-24091311D01*
X15635825Y-24086220D01*
X15653090Y-24070543D01*
X15653093Y-24070537D01*
X15657008Y-24066008D01*
X15657427Y-24066370D01*
X15667350Y-24055022D01*
X15690483Y-24034530D01*
X15780220Y-23904523D01*
X15836237Y-23756818D01*
X15853931Y-23611094D01*
X15855278Y-23600001D01*
X15855278Y-23599999D01*
X15848872Y-23547244D01*
X15848514Y-23540719D01*
X15848532Y-23539094D01*
X15846982Y-23530832D01*
X15846498Y-23527702D01*
X15836237Y-23443182D01*
X15828102Y-23421732D01*
X15823366Y-23404880D01*
X15746540Y-22995131D01*
X15702230Y-22758807D01*
X15702882Y-22758684D01*
X15700500Y-22740435D01*
X15700500Y-21459616D01*
X15702196Y-21441372D01*
X15754771Y-21160964D01*
X15823367Y-20795117D01*
X15828099Y-20778274D01*
X15836237Y-20756818D01*
X15846501Y-20672278D01*
X15846981Y-20669174D01*
X15849610Y-20655154D01*
X15851238Y-20643565D01*
X15851986Y-20635612D01*
X15852578Y-20623305D01*
X15852878Y-20619762D01*
X15855278Y-20600000D01*
X15848871Y-20547238D01*
X15848514Y-20540719D01*
X15848532Y-20539094D01*
X15846981Y-20530825D01*
X15846498Y-20527702D01*
X15836237Y-20443182D01*
X15828102Y-20421732D01*
X15823366Y-20404880D01*
X15761515Y-20075000D01*
X15702230Y-19758807D01*
X15702882Y-19758684D01*
X15700500Y-19740435D01*
X15700500Y-19539214D01*
X15700910Y-19532854D01*
X15701548Y-19527918D01*
X15704070Y-19508440D01*
X15700613Y-19457399D01*
X15700500Y-19454054D01*
X15700500Y-19064456D01*
X15702763Y-19043408D01*
X15704359Y-19036073D01*
X15700626Y-18983880D01*
X15700500Y-18980347D01*
X15700500Y-18964201D01*
X15699438Y-18956817D01*
X15698198Y-18948196D01*
X15697825Y-18944729D01*
X15694091Y-18892517D01*
X15691468Y-18885484D01*
X15686233Y-18864975D01*
X15685165Y-18857543D01*
X15682200Y-18851052D01*
X15663431Y-18809952D01*
X15662078Y-18806687D01*
X15657301Y-18793879D01*
X15651783Y-18771221D01*
X15636237Y-18643183D01*
X15636237Y-18643182D01*
X15580220Y-18495477D01*
X15490483Y-18365470D01*
X15372240Y-18260717D01*
X15302302Y-18224010D01*
X15232364Y-18187303D01*
X15078987Y-18149500D01*
X15078985Y-18149500D01*
X14921015Y-18149500D01*
X14921012Y-18149500D01*
X14767635Y-18187303D01*
X14627758Y-18260718D01*
X14509515Y-18365471D01*
X14419780Y-18495476D01*
X14363763Y-18643182D01*
X14363762Y-18643183D01*
X14345464Y-18793886D01*
X14344722Y-18800000D01*
X14362505Y-18946461D01*
X14363763Y-18956817D01*
X14408723Y-19075371D01*
X14409676Y-19078126D01*
X14412438Y-19086943D01*
X14413009Y-19087988D01*
X14415852Y-19094167D01*
X14419778Y-19104520D01*
X14419781Y-19104524D01*
X14429135Y-19118077D01*
X14431840Y-19122469D01*
X14612928Y-19454054D01*
X14687387Y-19590394D01*
X14699500Y-19637845D01*
X14699500Y-19740383D01*
X14697804Y-19758628D01*
X14576631Y-20404880D01*
X14571896Y-20421734D01*
X14563763Y-20443182D01*
X14563763Y-20443184D01*
X14563762Y-20443184D01*
X14553503Y-20527673D01*
X14553016Y-20530825D01*
X14550391Y-20544829D01*
X14550382Y-20544885D01*
X14548762Y-20556416D01*
X14548760Y-20556436D01*
X14548015Y-20564360D01*
X14548010Y-20564421D01*
X14547421Y-20576686D01*
X14547117Y-20580272D01*
X14544722Y-20599998D01*
X14544722Y-20600002D01*
X14551126Y-20652745D01*
X14551484Y-20659253D01*
X14551466Y-20660895D01*
X14551467Y-20660910D01*
X14553017Y-20669174D01*
X14553503Y-20672319D01*
X14558765Y-20715654D01*
X14563763Y-20756819D01*
X14563763Y-20756820D01*
X14571894Y-20778261D01*
X14576630Y-20795117D01*
X14697770Y-21441194D01*
X14697099Y-21441319D01*
X14699500Y-21459566D01*
X14699500Y-22740383D01*
X14697804Y-22758628D01*
X14591446Y-23325866D01*
X14575848Y-23363524D01*
X14391162Y-23633453D01*
X14264992Y-23817857D01*
X14250059Y-23839682D01*
X14249505Y-23839303D01*
X14238295Y-23853890D01*
X13769288Y-24322897D01*
X13722976Y-24349016D01*
X13567636Y-24387303D01*
X13427758Y-24460718D01*
X13309515Y-24565471D01*
X13219780Y-24695476D01*
X13163763Y-24843182D01*
X13163763Y-24843183D01*
X13156100Y-24906288D01*
X13130316Y-24961775D01*
X13127826Y-24964357D01*
X12621682Y-25470503D01*
X12567165Y-25498281D01*
X12551678Y-25499500D01*
X9915227Y-25499500D01*
X9857036Y-25480593D01*
X9845223Y-25470504D01*
X6266385Y-21891666D01*
X6253104Y-21875183D01*
X6249049Y-21868873D01*
X6249048Y-21868872D01*
X6209508Y-21834610D01*
X6206931Y-21832211D01*
X6195500Y-21820781D01*
X6195498Y-21820779D01*
X6182541Y-21811080D01*
X6179822Y-21808888D01*
X6140278Y-21774623D01*
X6133443Y-21771501D01*
X6115253Y-21760708D01*
X6114198Y-21759918D01*
X6109236Y-21756204D01*
X6109233Y-21756203D01*
X6109232Y-21756202D01*
X6060219Y-21737921D01*
X6056954Y-21736569D01*
X6009363Y-21714835D01*
X6009359Y-21714834D01*
X6001919Y-21713764D01*
X5981425Y-21708533D01*
X5974387Y-21705908D01*
X5974388Y-21705908D01*
X5922206Y-21702176D01*
X5918693Y-21701798D01*
X5902705Y-21699500D01*
X5902704Y-21699500D01*
X5886557Y-21699500D01*
X5883024Y-21699374D01*
X5853145Y-21697237D01*
X5830832Y-21695641D01*
X5830831Y-21695641D01*
X5830830Y-21695641D01*
X5823495Y-21697237D01*
X5802449Y-21699500D01*
X2748322Y-21699500D01*
X2690131Y-21680593D01*
X2678318Y-21670504D01*
X1229496Y-20221682D01*
X1201719Y-20167165D01*
X1200500Y-20151678D01*
X1200500Y-17890000D01*
X5019534Y-17890000D01*
X5039313Y-18040236D01*
X5097302Y-18180233D01*
X5189549Y-18300451D01*
X5309767Y-18392698D01*
X5449764Y-18450687D01*
X5562280Y-18465500D01*
X5562281Y-18465500D01*
X5637719Y-18465500D01*
X5637720Y-18465500D01*
X5750236Y-18450687D01*
X5890233Y-18392698D01*
X6010451Y-18300451D01*
X6102698Y-18180233D01*
X6160687Y-18040236D01*
X6180466Y-17890000D01*
X6160687Y-17739764D01*
X6102698Y-17599767D01*
X6010451Y-17479549D01*
X5890233Y-17387302D01*
X5868949Y-17378486D01*
X5787695Y-17344829D01*
X5750236Y-17329313D01*
X5750234Y-17329312D01*
X5750232Y-17329312D01*
X5637720Y-17314500D01*
X5562280Y-17314500D01*
X5562279Y-17314500D01*
X5449767Y-17329312D01*
X5449761Y-17329314D01*
X5309768Y-17387301D01*
X5189551Y-17479547D01*
X5189547Y-17479551D01*
X5097301Y-17599768D01*
X5039314Y-17739761D01*
X5039312Y-17739767D01*
X5019534Y-17889999D01*
X5019534Y-17890000D01*
X1200500Y-17890000D01*
X1200500Y-14148321D01*
X1219407Y-14090130D01*
X1229490Y-14078323D01*
X3197813Y-12110000D01*
X5019534Y-12110000D01*
X5038217Y-12251917D01*
X5039313Y-12260236D01*
X5061798Y-12314520D01*
X5093083Y-12390049D01*
X5097302Y-12400233D01*
X5189549Y-12520451D01*
X5309767Y-12612698D01*
X5449764Y-12670687D01*
X5562280Y-12685500D01*
X5562281Y-12685500D01*
X5637719Y-12685500D01*
X5637720Y-12685500D01*
X5750236Y-12670687D01*
X5890233Y-12612698D01*
X6010451Y-12520451D01*
X6102698Y-12400233D01*
X6160687Y-12260236D01*
X6180466Y-12110000D01*
X6160687Y-11959764D01*
X6102698Y-11819767D01*
X6010451Y-11699549D01*
X5890233Y-11607302D01*
X5750236Y-11549313D01*
X5750234Y-11549312D01*
X5750232Y-11549312D01*
X5637720Y-11534500D01*
X5562280Y-11534500D01*
X5562279Y-11534500D01*
X5449767Y-11549312D01*
X5449761Y-11549314D01*
X5309768Y-11607301D01*
X5189551Y-11699547D01*
X5189547Y-11699551D01*
X5097301Y-11819768D01*
X5039314Y-11959761D01*
X5039312Y-11959767D01*
X5019534Y-12109999D01*
X5019534Y-12110000D01*
X3197813Y-12110000D01*
X5307811Y-10000001D01*
X7144722Y-10000001D01*
X7163762Y-10156816D01*
X7163763Y-10156818D01*
X7214899Y-10291653D01*
X7219780Y-10304523D01*
X7309517Y-10434530D01*
X7309517Y-10434531D01*
X7351143Y-10471407D01*
X7367841Y-10486200D01*
X7378011Y-10495209D01*
X7380563Y-10497638D01*
X7384486Y-10501649D01*
X7385407Y-10502279D01*
X7390290Y-10506088D01*
X7427757Y-10539281D01*
X7427758Y-10539281D01*
X7427760Y-10539283D01*
X7475562Y-10564371D01*
X7480499Y-10567342D01*
X7899187Y-10853812D01*
X8039685Y-10949942D01*
X8039296Y-10950509D01*
X8053889Y-10961703D01*
X8070504Y-10978318D01*
X8098281Y-11032835D01*
X8099500Y-11048322D01*
X8099500Y-16540383D01*
X8097804Y-16558628D01*
X7976631Y-17204880D01*
X7971896Y-17221734D01*
X7963763Y-17243182D01*
X7963763Y-17243184D01*
X7963762Y-17243184D01*
X7953503Y-17327673D01*
X7953016Y-17330825D01*
X7950391Y-17344829D01*
X7950382Y-17344885D01*
X7948762Y-17356416D01*
X7948760Y-17356436D01*
X7948015Y-17364360D01*
X7948010Y-17364421D01*
X7947421Y-17376686D01*
X7947117Y-17380272D01*
X7944722Y-17399998D01*
X7944722Y-17400002D01*
X7963762Y-17556816D01*
X7963763Y-17556818D01*
X7980052Y-17599768D01*
X8019780Y-17704523D01*
X8109515Y-17834528D01*
X8109516Y-17834529D01*
X8109517Y-17834530D01*
X8227760Y-17939283D01*
X8367635Y-18012696D01*
X8521015Y-18050500D01*
X8521018Y-18050500D01*
X8678982Y-18050500D01*
X8678985Y-18050500D01*
X8832365Y-18012696D01*
X8972240Y-17939283D01*
X9090483Y-17834530D01*
X9180220Y-17704523D01*
X9236237Y-17556818D01*
X9255278Y-17400000D01*
X9248871Y-17347238D01*
X9248514Y-17340719D01*
X9248532Y-17339094D01*
X9246981Y-17330825D01*
X9246498Y-17327702D01*
X9236237Y-17243182D01*
X9228102Y-17221732D01*
X9223366Y-17204880D01*
X9164810Y-16892574D01*
X9102230Y-16558807D01*
X9102882Y-16558684D01*
X9100500Y-16540435D01*
X9100500Y-10864456D01*
X9102763Y-10843408D01*
X9104359Y-10836073D01*
X9100626Y-10783880D01*
X9100500Y-10780347D01*
X9100500Y-10764201D01*
X9098198Y-10748196D01*
X9097825Y-10744729D01*
X9094091Y-10692517D01*
X9091468Y-10685484D01*
X9086233Y-10664975D01*
X9085165Y-10657543D01*
X9063425Y-10609941D01*
X9062077Y-10606685D01*
X9046796Y-10565714D01*
X9043796Y-10557669D01*
X9039291Y-10551651D01*
X9028495Y-10533454D01*
X9025377Y-10526627D01*
X9025375Y-10526625D01*
X9025375Y-10526624D01*
X8991124Y-10487097D01*
X8988906Y-10484345D01*
X8979222Y-10471409D01*
X8979221Y-10471407D01*
X8967796Y-10459982D01*
X8965387Y-10457394D01*
X8931129Y-10417857D01*
X8931127Y-10417856D01*
X8924810Y-10413796D01*
X8908332Y-10400518D01*
X8761737Y-10253923D01*
X8750035Y-10239823D01*
X8747845Y-10236623D01*
X8747844Y-10236619D01*
X8390158Y-9713846D01*
X8383263Y-9700641D01*
X8383002Y-9700779D01*
X8380222Y-9695482D01*
X8380220Y-9695477D01*
X8380216Y-9695472D01*
X8380215Y-9695469D01*
X8290487Y-9565475D01*
X8290484Y-9565472D01*
X8290483Y-9565470D01*
X8290480Y-9565467D01*
X8290478Y-9565465D01*
X8283082Y-9558913D01*
X8276709Y-9553267D01*
X8272891Y-9549495D01*
X8270544Y-9546910D01*
X8270540Y-9546907D01*
X8269108Y-9545945D01*
X8263879Y-9541902D01*
X8234359Y-9515750D01*
X8172240Y-9460717D01*
X8102302Y-9424010D01*
X8032364Y-9387303D01*
X7878987Y-9349500D01*
X7878985Y-9349500D01*
X7721015Y-9349500D01*
X7721012Y-9349500D01*
X7567635Y-9387303D01*
X7427758Y-9460718D01*
X7309515Y-9565471D01*
X7219780Y-9695476D01*
X7163763Y-9843182D01*
X7163762Y-9843183D01*
X7144722Y-9999998D01*
X7144722Y-10000001D01*
X5307811Y-10000001D01*
X6590141Y-8717671D01*
X6644656Y-8689896D01*
X6685300Y-8693975D01*
X6685603Y-8692587D01*
X6692514Y-8694090D01*
X6692517Y-8694091D01*
X6735431Y-8697160D01*
X6757575Y-8702266D01*
X6757784Y-8701551D01*
X6762448Y-8702909D01*
X6762458Y-8702913D01*
X7428830Y-8827857D01*
X7431475Y-8828430D01*
X7521015Y-8850500D01*
X7547245Y-8850500D01*
X7553015Y-8850837D01*
X7556411Y-8851234D01*
X7556434Y-8851238D01*
X7564387Y-8851986D01*
X7580201Y-8852747D01*
X7587669Y-8853107D01*
X7587669Y-8853106D01*
X7587671Y-8853107D01*
X7590710Y-8852510D01*
X7591507Y-8852354D01*
X7610578Y-8850500D01*
X7678982Y-8850500D01*
X7678985Y-8850500D01*
X7832365Y-8812696D01*
X7972240Y-8739283D01*
X8090483Y-8634530D01*
X8180220Y-8504523D01*
X8236237Y-8356818D01*
X8255278Y-8200000D01*
X8236237Y-8043182D01*
X8180220Y-7895477D01*
X8090483Y-7765470D01*
X7998386Y-7683880D01*
X7987349Y-7674102D01*
X7956330Y-7621362D01*
X7962235Y-7560462D01*
X7987350Y-7525896D01*
X8009711Y-7506086D01*
X8014593Y-7502278D01*
X8015786Y-7501461D01*
X8020338Y-7498348D01*
X8029676Y-7491311D01*
X8035825Y-7486220D01*
X8053090Y-7470543D01*
X8053093Y-7470537D01*
X8057008Y-7466008D01*
X8057427Y-7466370D01*
X8067350Y-7455022D01*
X8090483Y-7434530D01*
X8180220Y-7304523D01*
X8236237Y-7156818D01*
X8255212Y-7000541D01*
X8255278Y-7000001D01*
X8255278Y-6999998D01*
X8236237Y-6843183D01*
X8236237Y-6843182D01*
X8180220Y-6695477D01*
X8090483Y-6565470D01*
X7972240Y-6460717D01*
X7902302Y-6424010D01*
X7832364Y-6387303D01*
X7678987Y-6349500D01*
X7678985Y-6349500D01*
X7521015Y-6349500D01*
X7521012Y-6349500D01*
X7367635Y-6387303D01*
X7227758Y-6460718D01*
X7109515Y-6565471D01*
X7019779Y-6695478D01*
X7016998Y-6700778D01*
X7016737Y-6700641D01*
X7009841Y-6713842D01*
X6734602Y-7116118D01*
X6653253Y-7235014D01*
X6650059Y-7239682D01*
X6649557Y-7239339D01*
X6638294Y-7253889D01*
X6271407Y-7620778D01*
X391665Y-13500519D01*
X375194Y-13513793D01*
X368872Y-13517856D01*
X368868Y-13517859D01*
X334606Y-13557401D01*
X332199Y-13559986D01*
X320778Y-13571407D01*
X311089Y-13584348D01*
X308874Y-13587097D01*
X274622Y-13626626D01*
X271500Y-13633463D01*
X260712Y-13651646D01*
X256203Y-13657669D01*
X256202Y-13657671D01*
X237917Y-13706695D01*
X236565Y-13709959D01*
X214836Y-13757540D01*
X214834Y-13757547D01*
X213764Y-13764985D01*
X208536Y-13785471D01*
X205908Y-13792517D01*
X202176Y-13844700D01*
X201798Y-13848212D01*
X199500Y-13864200D01*
X199500Y-13880347D01*
X199374Y-13883880D01*
X198248Y-13899624D01*
X188946Y-13922541D01*
X196238Y-13938815D01*
X197238Y-13943412D01*
X199500Y-13964456D01*
X199500Y-20335542D01*
X197238Y-20356586D01*
X196238Y-20361183D01*
X188675Y-20374138D01*
X7642Y-20374138D01*
X500Y-20340139D01*
X500Y-13959859D01*
X10734Y-13928360D01*
X500Y-13892562D01*
X500Y-4501084D01*
X524Y-4500000D01*
X1999459Y-4500000D01*
X1999616Y-4500382D01*
X1999617Y-4500383D01*
X1999901Y-4500500D01*
X2736338Y-4500500D01*
X2794529Y-4519407D01*
X2830493Y-4568907D01*
X2835060Y-4592100D01*
X2837727Y-4627677D01*
X2846831Y-4749169D01*
X2846833Y-4749179D01*
X2876295Y-4878264D01*
X2902434Y-4992784D01*
X2993723Y-5225385D01*
X2993725Y-5225389D01*
X2993729Y-5225397D01*
X2996010Y-5229347D01*
X3118660Y-5441782D01*
X3118664Y-5441787D01*
X3118666Y-5441790D01*
X3274449Y-5637137D01*
X3274455Y-5637143D01*
X3457617Y-5807092D01*
X3457619Y-5807093D01*
X3457624Y-5807098D01*
X3664080Y-5947857D01*
X3766476Y-5997168D01*
X3889205Y-6056272D01*
X3889207Y-6056272D01*
X3889208Y-6056273D01*
X4127980Y-6129924D01*
X4375063Y-6167166D01*
X4400500Y-6167166D01*
X4458691Y-6186073D01*
X4494655Y-6235573D01*
X4499500Y-6266165D01*
X4499500Y-7000099D01*
X4499617Y-7000383D01*
X4500000Y-7000541D01*
X4500383Y-7000383D01*
X4500500Y-7000099D01*
X4500500Y-6266165D01*
X4519407Y-6207975D01*
X4568907Y-6172011D01*
X4599500Y-6167166D01*
X4624932Y-6167166D01*
X4624937Y-6167166D01*
X4872020Y-6129924D01*
X5110792Y-6056273D01*
X5335921Y-5947857D01*
X5542376Y-5807098D01*
X5725546Y-5637141D01*
X5725550Y-5637137D01*
X5879263Y-5444386D01*
X5881340Y-5441782D01*
X6006277Y-5225385D01*
X6097566Y-4992784D01*
X6153168Y-4749175D01*
X6164939Y-4592101D01*
X6188142Y-4535487D01*
X6240191Y-4503322D01*
X6263662Y-4500500D01*
X7000097Y-4500500D01*
X7000099Y-4500500D01*
X7000383Y-4500383D01*
X7000541Y-4500000D01*
X7000383Y-4499617D01*
X7000099Y-4499500D01*
X7000097Y-4499500D01*
X6263662Y-4499500D01*
X6205471Y-4480593D01*
X6169507Y-4431093D01*
X6164939Y-4407898D01*
X6163830Y-4393101D01*
X6153168Y-4250825D01*
X6097566Y-4007216D01*
X6006277Y-3774615D01*
X6006273Y-3774608D01*
X6006270Y-3774602D01*
X5886894Y-3567838D01*
X5881340Y-3558218D01*
X5879263Y-3555613D01*
X5725550Y-3362862D01*
X5725544Y-3362856D01*
X5542382Y-3192907D01*
X5542379Y-3192905D01*
X5542376Y-3192902D01*
X5335921Y-3052143D01*
X5110792Y-2943727D01*
X4962525Y-2897993D01*
X4872024Y-2870077D01*
X4872021Y-2870076D01*
X4872020Y-2870076D01*
X4872015Y-2870075D01*
X4872014Y-2870075D01*
X4624940Y-2832834D01*
X4624937Y-2832834D01*
X4599500Y-2832834D01*
X4541309Y-2813927D01*
X4505345Y-2764427D01*
X4500500Y-2733834D01*
X4500500Y-1999903D01*
X4500500Y-1999901D01*
X4500383Y-1999617D01*
X4500382Y-1999616D01*
X4500000Y-1999459D01*
X4499617Y-1999616D01*
X4499500Y-1999902D01*
X4499500Y-2733834D01*
X4480593Y-2792025D01*
X4431093Y-2827989D01*
X4400500Y-2832834D01*
X4375059Y-2832834D01*
X4127985Y-2870075D01*
X4127975Y-2870077D01*
X3889205Y-2943727D01*
X3664087Y-3052139D01*
X3664083Y-3052141D01*
X3664080Y-3052143D01*
X3457624Y-3192902D01*
X3457617Y-3192907D01*
X3274455Y-3362856D01*
X3274449Y-3362862D01*
X3118666Y-3558209D01*
X3118656Y-3558224D01*
X2993729Y-3774602D01*
X2993725Y-3774610D01*
X2993723Y-3774614D01*
X2993723Y-3774615D01*
X2904487Y-4001987D01*
X2902432Y-4007222D01*
X2846833Y-4250820D01*
X2846831Y-4250830D01*
X2835061Y-4407898D01*
X2811858Y-4464513D01*
X2759809Y-4496678D01*
X2736338Y-4499500D01*
X1999901Y-4499500D01*
X1999711Y-4499578D01*
X1999616Y-4499617D01*
X1999459Y-4500000D01*
X524Y-4500000D01*
X547Y-4498925D01*
X8990Y-4305544D01*
X9015Y-4305545D01*
X9001Y-4305298D01*
X18309Y-4103958D01*
X18676Y-4099836D01*
X45185Y-3898478D01*
X72394Y-3703426D01*
X73078Y-3699634D01*
X117274Y-3500275D01*
X162174Y-3309379D01*
X163122Y-3305929D01*
X224665Y-3110739D01*
X286905Y-2925043D01*
X288076Y-2921912D01*
X366345Y-2732954D01*
X366699Y-2732127D01*
X445580Y-2553478D01*
X446941Y-2550647D01*
X541404Y-2369187D01*
X541966Y-2368141D01*
X636941Y-2197628D01*
X638397Y-2195187D01*
X748368Y-2022567D01*
X749170Y-2021352D01*
X859427Y-1860397D01*
X860933Y-1858321D01*
X985553Y-1695913D01*
X986655Y-1694533D01*
X1111255Y-1544484D01*
X1112731Y-1542790D01*
X1251066Y-1391824D01*
X1252462Y-1390367D01*
X1390367Y-1252462D01*
X1391824Y-1251066D01*
X1542790Y-1112731D01*
X1544484Y-1111255D01*
X1694533Y-986655D01*
X1695913Y-985553D01*
X1858321Y-860933D01*
X1860397Y-859427D01*
X2021352Y-749170D01*
X2022567Y-748368D01*
X2195187Y-638397D01*
X2197628Y-636941D01*
X2368141Y-541966D01*
X2369187Y-541404D01*
X2550647Y-446941D01*
X2553478Y-445580D01*
X2732127Y-366699D01*
X2732954Y-366345D01*
X2921912Y-288076D01*
X2925043Y-286905D01*
X3110739Y-224665D01*
X3305929Y-163122D01*
X3309379Y-162174D01*
X3500275Y-117274D01*
X3699634Y-73078D01*
X3703426Y-72394D01*
X3898380Y-45198D01*
X4099838Y-18675D01*
X4103958Y-18309D01*
X4305283Y-9002D01*
X4305538Y-9072D01*
X4305535Y-8990D01*
X4482546Y-1262D01*
X4498926Y-547D01*
X4501085Y-500D01*
X50498915Y-500D01*
X50501074Y-547D01*
G37*
%TD.AperFunction*%
%TD*%
%TA.AperFunction,Conductor*%
%TO.N,VBUS*%
G36*
X35385939Y-22799964D02*
G01*
X35394202Y-22803412D01*
X35397608Y-22811693D01*
X35397408Y-22813820D01*
X35251790Y-23590456D01*
X35246897Y-23597956D01*
X35240290Y-23600000D01*
X34759710Y-23600000D01*
X34751437Y-23596573D01*
X34748210Y-23590456D01*
X34602591Y-22813820D01*
X34604435Y-22805057D01*
X34611935Y-22800164D01*
X34614052Y-22799964D01*
X35000000Y-22799000D01*
X35385939Y-22799964D01*
G37*
%TD.AperFunction*%
%TD*%
%TA.AperFunction,Conductor*%
%TO.N,VBUS*%
G36*
X15585939Y-20599964D02*
G01*
X15594202Y-20603412D01*
X15597608Y-20611693D01*
X15597408Y-20613820D01*
X15451790Y-21390456D01*
X15446897Y-21397956D01*
X15440290Y-21400000D01*
X14959710Y-21400000D01*
X14951437Y-21396573D01*
X14948210Y-21390456D01*
X14802591Y-20613820D01*
X14804435Y-20605057D01*
X14811935Y-20600164D01*
X14814052Y-20599964D01*
X15200000Y-20599000D01*
X15585939Y-20599964D01*
G37*
%TD.AperFunction*%
%TD*%
%TA.AperFunction,Conductor*%
%TO.N,VBUS*%
G36*
X15448563Y-22803427D02*
G01*
X15451790Y-22809544D01*
X15597408Y-23586179D01*
X15595564Y-23594942D01*
X15588064Y-23599835D01*
X15585937Y-23600035D01*
X15200000Y-23600999D01*
X14814062Y-23600035D01*
X14805797Y-23596587D01*
X14802391Y-23588306D01*
X14802591Y-23586179D01*
X14948210Y-22809544D01*
X14953103Y-22802044D01*
X14959710Y-22800000D01*
X15440290Y-22800000D01*
X15448563Y-22803427D01*
G37*
%TD.AperFunction*%
%TD*%
%TA.AperFunction,Conductor*%
%TO.N,VBUS*%
G36*
X25438778Y-10848581D02*
G01*
X25445096Y-10854928D01*
X25445085Y-10863857D01*
X25184592Y-11492777D01*
X25178261Y-11499109D01*
X25173783Y-11500000D01*
X24986217Y-11500000D01*
X24977944Y-11496573D01*
X24975408Y-11492777D01*
X24714914Y-10863855D01*
X24714914Y-10854902D01*
X24721220Y-10848581D01*
X25075500Y-10700875D01*
X25084449Y-10700855D01*
X25438778Y-10848581D01*
G37*
%TD.AperFunction*%
%TD*%
%TA.AperFunction,Conductor*%
%TO.N,VBUS*%
G36*
X15448563Y-19803427D02*
G01*
X15451790Y-19809544D01*
X15597408Y-20586179D01*
X15595564Y-20594942D01*
X15588064Y-20599835D01*
X15585937Y-20600035D01*
X15200000Y-20600999D01*
X14814062Y-20600035D01*
X14805797Y-20596587D01*
X14802391Y-20588306D01*
X14802591Y-20586179D01*
X14948210Y-19809544D01*
X14953103Y-19802044D01*
X14959710Y-19800000D01*
X15440290Y-19800000D01*
X15448563Y-19803427D01*
G37*
%TD.AperFunction*%
%TD*%
%TA.AperFunction,Conductor*%
%TO.N,VBUS*%
G36*
X15389094Y-18799972D02*
G01*
X15397358Y-18803420D01*
X15400736Y-18810880D01*
X15410537Y-18955575D01*
X15449154Y-19525706D01*
X15446294Y-19534192D01*
X15438272Y-19538170D01*
X15437481Y-19538197D01*
X14956941Y-19538197D01*
X14948668Y-19534770D01*
X14946673Y-19532105D01*
X14636677Y-18964479D01*
X14635719Y-18955575D01*
X14641337Y-18948603D01*
X14642443Y-18948072D01*
X14997829Y-18799904D01*
X15002350Y-18799005D01*
X15389094Y-18799972D01*
G37*
%TD.AperFunction*%
%TD*%
%TA.AperFunction,Conductor*%
%TO.N,VBUS*%
G36*
X7325479Y-6725713D02*
G01*
X7327124Y-6727075D01*
X7600728Y-6999314D01*
X7872924Y-7272875D01*
X7876330Y-7281156D01*
X7872882Y-7289421D01*
X7871237Y-7290783D01*
X7219104Y-7736978D01*
X7210341Y-7738822D01*
X7204224Y-7735595D01*
X6864404Y-7395775D01*
X6860977Y-7387502D01*
X6863021Y-7380895D01*
X7309217Y-6728761D01*
X7316716Y-6723869D01*
X7325479Y-6725713D01*
G37*
%TD.AperFunction*%
%TD*%
%TA.AperFunction,Conductor*%
%TO.N,VBUS*%
G36*
X34851418Y-22441221D02*
G01*
X34999123Y-22795498D01*
X34999144Y-22804452D01*
X34999123Y-22804502D01*
X34851418Y-23158778D01*
X34845071Y-23165096D01*
X34836142Y-23165085D01*
X34207223Y-22904591D01*
X34200891Y-22898260D01*
X34200000Y-22893782D01*
X34200000Y-22706217D01*
X34203427Y-22697944D01*
X34207221Y-22695408D01*
X34836145Y-22434914D01*
X34845097Y-22434914D01*
X34851418Y-22441221D01*
G37*
%TD.AperFunction*%
%TD*%
%TA.AperFunction,Conductor*%
%TO.N,VBUS*%
G36*
X7594942Y-7804435D02*
G01*
X7599835Y-7811935D01*
X7600035Y-7814062D01*
X7601000Y-8200029D01*
X7600035Y-8585937D01*
X7596587Y-8594202D01*
X7588306Y-8597608D01*
X7586179Y-8597408D01*
X6809544Y-8451789D01*
X6802044Y-8446896D01*
X6800000Y-8440289D01*
X6800000Y-7959710D01*
X6803427Y-7951437D01*
X6809542Y-7948210D01*
X7586180Y-7802591D01*
X7594942Y-7804435D01*
G37*
%TD.AperFunction*%
%TD*%
%TA.AperFunction,Conductor*%
%TO.N,VBUS*%
G36*
X14925479Y-23325713D02*
G01*
X14927124Y-23327075D01*
X15200728Y-23599314D01*
X15472924Y-23872875D01*
X15476330Y-23881156D01*
X15472882Y-23889421D01*
X15471237Y-23890783D01*
X14819104Y-24336978D01*
X14810341Y-24338822D01*
X14804224Y-24335595D01*
X14464404Y-23995775D01*
X14460977Y-23987502D01*
X14463021Y-23980895D01*
X14909217Y-23328761D01*
X14916716Y-23323869D01*
X14925479Y-23325713D01*
G37*
%TD.AperFunction*%
%TD*%
%TA.AperFunction,Conductor*%
%TO.N,VBUS*%
G36*
X36385939Y-22799964D02*
G01*
X36394202Y-22803412D01*
X36397608Y-22811693D01*
X36397408Y-22813820D01*
X36251790Y-23590456D01*
X36246897Y-23597956D01*
X36240290Y-23600000D01*
X35759710Y-23600000D01*
X35751437Y-23596573D01*
X35748210Y-23590456D01*
X35602591Y-22813820D01*
X35604435Y-22805057D01*
X35611935Y-22800164D01*
X35614052Y-22799964D01*
X36000000Y-22799000D01*
X36385939Y-22799964D01*
G37*
%TD.AperFunction*%
%TD*%
%TA.AperFunction,Conductor*%
%TO.N,+3.3VA*%
G36*
X34994942Y-25804435D02*
G01*
X34999835Y-25811935D01*
X35000035Y-25814062D01*
X35001000Y-26200029D01*
X35000035Y-26585937D01*
X34996587Y-26594202D01*
X34988306Y-26597608D01*
X34986179Y-26597408D01*
X34209544Y-26451789D01*
X34202044Y-26446896D01*
X34200000Y-26440289D01*
X34200000Y-25959710D01*
X34203427Y-25951437D01*
X34209542Y-25948210D01*
X34986180Y-25802591D01*
X34994942Y-25804435D01*
G37*
%TD.AperFunction*%
%TD*%
%TA.AperFunction,Conductor*%
%TO.N,+3.3VA*%
G36*
X26848563Y-26803427D02*
G01*
X26851790Y-26809544D01*
X26997408Y-27586179D01*
X26995564Y-27594942D01*
X26988064Y-27599835D01*
X26985937Y-27600035D01*
X26600000Y-27600999D01*
X26214062Y-27600035D01*
X26205797Y-27596587D01*
X26202391Y-27588306D01*
X26202591Y-27586179D01*
X26348210Y-26809544D01*
X26353103Y-26802044D01*
X26359710Y-26800000D01*
X26840290Y-26800000D01*
X26848563Y-26803427D01*
G37*
%TD.AperFunction*%
%TD*%
%TA.AperFunction,Conductor*%
%TO.N,+3.3VA*%
G36*
X27848563Y-26803427D02*
G01*
X27851790Y-26809544D01*
X27997408Y-27586179D01*
X27995564Y-27594942D01*
X27988064Y-27599835D01*
X27985937Y-27600035D01*
X27600000Y-27600999D01*
X27214062Y-27600035D01*
X27205797Y-27596587D01*
X27202391Y-27588306D01*
X27202591Y-27586179D01*
X27348210Y-26809544D01*
X27353103Y-26802044D01*
X27359710Y-26800000D01*
X27840290Y-26800000D01*
X27848563Y-26803427D01*
G37*
%TD.AperFunction*%
%TD*%
%TA.AperFunction,Conductor*%
%TO.N,+3.3VA*%
G36*
X36002723Y-26202996D02*
G01*
X36006523Y-26205543D01*
X36275235Y-26475208D01*
X36278647Y-26483487D01*
X36275856Y-26491050D01*
X35820609Y-27025792D01*
X35812636Y-27029870D01*
X35804116Y-27027117D01*
X35800038Y-27019144D01*
X35800000Y-27018208D01*
X35800000Y-26549999D01*
X35641010Y-26365340D01*
X35638209Y-26356834D01*
X35642242Y-26348840D01*
X35645405Y-26346894D01*
X35993769Y-26202987D01*
X36002723Y-26202996D01*
G37*
%TD.AperFunction*%
%TD*%
%TA.AperFunction,Conductor*%
%TO.N,+3.3V*%
G36*
X28048563Y-3903427D02*
G01*
X28051790Y-3909544D01*
X28197408Y-4686179D01*
X28195564Y-4694942D01*
X28188064Y-4699835D01*
X28185937Y-4700035D01*
X27800000Y-4700999D01*
X27414062Y-4700035D01*
X27405797Y-4696587D01*
X27402391Y-4688306D01*
X27402591Y-4686179D01*
X27548210Y-3909544D01*
X27553103Y-3902044D01*
X27559710Y-3900000D01*
X28040290Y-3900000D01*
X28048563Y-3903427D01*
G37*
%TD.AperFunction*%
%TD*%
%TA.AperFunction,Conductor*%
%TO.N,+3.3V*%
G36*
X28185939Y-1099964D02*
G01*
X28194202Y-1103412D01*
X28197608Y-1111693D01*
X28197408Y-1113820D01*
X28051790Y-1890456D01*
X28046897Y-1897956D01*
X28040290Y-1900000D01*
X27559710Y-1900000D01*
X27551437Y-1896573D01*
X27548210Y-1890456D01*
X27402591Y-1113820D01*
X27404435Y-1105057D01*
X27411935Y-1100164D01*
X27414052Y-1099964D01*
X27800000Y-1099000D01*
X28185939Y-1099964D01*
G37*
%TD.AperFunction*%
%TD*%
%TA.AperFunction,Conductor*%
%TO.N,+3.3V*%
G36*
X26703803Y-11501166D02*
G01*
X27060005Y-11649108D01*
X27066331Y-11655446D01*
X27066793Y-11663035D01*
X26948309Y-12090963D01*
X26945306Y-12096114D01*
X26607342Y-12434078D01*
X26599069Y-12437505D01*
X26590796Y-12434078D01*
X26587964Y-12429488D01*
X26475684Y-12090963D01*
X26333865Y-11663375D01*
X26334513Y-11654446D01*
X26340467Y-11648895D01*
X26694800Y-11501165D01*
X26703752Y-11501145D01*
X26703803Y-11501166D01*
G37*
%TD.AperFunction*%
%TD*%
%TA.AperFunction,Conductor*%
%TO.N,+3.3V*%
G36*
X42848563Y-26903427D02*
G01*
X42851790Y-26909544D01*
X42997408Y-27686179D01*
X42995564Y-27694942D01*
X42988064Y-27699835D01*
X42985937Y-27700035D01*
X42600000Y-27700999D01*
X42214062Y-27700035D01*
X42205797Y-27696587D01*
X42202391Y-27688306D01*
X42202591Y-27686179D01*
X42348210Y-26909544D01*
X42353103Y-26902044D01*
X42359710Y-26900000D01*
X42840290Y-26900000D01*
X42848563Y-26903427D01*
G37*
%TD.AperFunction*%
%TD*%
%TA.AperFunction,Conductor*%
%TO.N,+3.3V*%
G36*
X42985939Y-26499964D02*
G01*
X42994202Y-26503412D01*
X42997608Y-26511693D01*
X42997408Y-26513820D01*
X42851790Y-27290456D01*
X42846897Y-27297956D01*
X42840290Y-27300000D01*
X42359710Y-27300000D01*
X42351437Y-27296573D01*
X42348210Y-27290456D01*
X42202591Y-26513820D01*
X42204435Y-26505057D01*
X42211935Y-26500164D01*
X42214052Y-26499964D01*
X42600000Y-26499000D01*
X42985939Y-26499964D01*
G37*
%TD.AperFunction*%
%TD*%
%TA.AperFunction,Conductor*%
%TO.N,+3.3V*%
G36*
X28185939Y-4699964D02*
G01*
X28194202Y-4703412D01*
X28197608Y-4711693D01*
X28197408Y-4713820D01*
X28051790Y-5490456D01*
X28046897Y-5497956D01*
X28040290Y-5500000D01*
X27559710Y-5500000D01*
X27551437Y-5496573D01*
X27548210Y-5490456D01*
X27402591Y-4713820D01*
X27404435Y-4705057D01*
X27411935Y-4700164D01*
X27414052Y-4699964D01*
X27800000Y-4699000D01*
X28185939Y-4699964D01*
G37*
%TD.AperFunction*%
%TD*%
%TA.AperFunction,Conductor*%
%TO.N,+3.3V*%
G36*
X42848563Y-25703427D02*
G01*
X42851790Y-25709544D01*
X42997408Y-26486179D01*
X42995564Y-26494942D01*
X42988064Y-26499835D01*
X42985937Y-26500035D01*
X42600000Y-26500999D01*
X42214062Y-26500035D01*
X42205797Y-26496587D01*
X42202391Y-26488306D01*
X42202591Y-26486179D01*
X42348210Y-25709544D01*
X42353103Y-25702044D01*
X42359710Y-25700000D01*
X42840290Y-25700000D01*
X42848563Y-25703427D01*
G37*
%TD.AperFunction*%
%TD*%
%TA.AperFunction,Conductor*%
%TO.N,+3.3V*%
G36*
X27191820Y-10959888D02*
G01*
X27194262Y-10961759D01*
X27534020Y-11301517D01*
X27537447Y-11309790D01*
X27534020Y-11318063D01*
X27533289Y-11318735D01*
X26991038Y-11775933D01*
X26982504Y-11778646D01*
X26975244Y-11775282D01*
X26700964Y-11502369D01*
X26698396Y-11498527D01*
X26551982Y-11142733D01*
X26552003Y-11133779D01*
X26558350Y-11127461D01*
X26559744Y-11126987D01*
X27182940Y-10958736D01*
X27191820Y-10959888D01*
G37*
%TD.AperFunction*%
%TD*%
%TA.AperFunction,Conductor*%
%TO.N,Net-(J1-VBUS-PadA4)*%
G36*
X8089421Y-9727117D02*
G01*
X8090783Y-9728762D01*
X8536978Y-10380895D01*
X8538822Y-10389658D01*
X8535595Y-10395775D01*
X8195775Y-10735595D01*
X8187502Y-10739022D01*
X8180895Y-10736978D01*
X7528762Y-10290783D01*
X7523869Y-10283283D01*
X7525713Y-10274520D01*
X7527075Y-10272875D01*
X7799272Y-9999314D01*
X8072875Y-9727075D01*
X8081156Y-9723669D01*
X8089421Y-9727117D01*
G37*
%TD.AperFunction*%
%TD*%
%TA.AperFunction,Conductor*%
%TO.N,Net-(J1-VBUS-PadA4)*%
G36*
X8848563Y-16603427D02*
G01*
X8851790Y-16609544D01*
X8997408Y-17386179D01*
X8995564Y-17394942D01*
X8988064Y-17399835D01*
X8985937Y-17400035D01*
X8600000Y-17400999D01*
X8214062Y-17400035D01*
X8205797Y-17396587D01*
X8202391Y-17388306D01*
X8202591Y-17386179D01*
X8348210Y-16609544D01*
X8353103Y-16602044D01*
X8359710Y-16600000D01*
X8840290Y-16600000D01*
X8848563Y-16603427D01*
G37*
%TD.AperFunction*%
%TD*%
M02*
