%TF.GenerationSoftware,KiCad,Pcbnew,7.0.5*%
%TF.CreationDate,2023-08-08T23:00:51-07:00*%
%TF.ProjectId,esp32-prog,65737033-322d-4707-926f-672e6b696361,rev2*%
%TF.SameCoordinates,PX47868c0PY36d6160*%
%TF.FileFunction,Legend,Bot*%
%TF.FilePolarity,Positive*%
%FSLAX46Y46*%
G04 Gerber Fmt 4.6, Leading zero omitted, Abs format (unit mm)*
G04 Created by KiCad (PCBNEW 7.0.5) date 2023-08-08 23:00:51*
%MOMM*%
%LPD*%
G01*
G04 APERTURE LIST*
%ADD10C,0.150000*%
G04 APERTURE END LIST*
D10*
X32282268Y-21907200D02*
X32377506Y-21954819D01*
X32377506Y-21954819D02*
X32567982Y-21954819D01*
X32567982Y-21954819D02*
X32663220Y-21907200D01*
X32663220Y-21907200D02*
X32710839Y-21811961D01*
X32710839Y-21811961D02*
X32710839Y-21431009D01*
X32710839Y-21431009D02*
X32663220Y-21335771D01*
X32663220Y-21335771D02*
X32567982Y-21288152D01*
X32567982Y-21288152D02*
X32377506Y-21288152D01*
X32377506Y-21288152D02*
X32282268Y-21335771D01*
X32282268Y-21335771D02*
X32234649Y-21431009D01*
X32234649Y-21431009D02*
X32234649Y-21526247D01*
X32234649Y-21526247D02*
X32710839Y-21621485D01*
X31853696Y-21907200D02*
X31758458Y-21954819D01*
X31758458Y-21954819D02*
X31567982Y-21954819D01*
X31567982Y-21954819D02*
X31472744Y-21907200D01*
X31472744Y-21907200D02*
X31425125Y-21811961D01*
X31425125Y-21811961D02*
X31425125Y-21764342D01*
X31425125Y-21764342D02*
X31472744Y-21669104D01*
X31472744Y-21669104D02*
X31567982Y-21621485D01*
X31567982Y-21621485D02*
X31710839Y-21621485D01*
X31710839Y-21621485D02*
X31806077Y-21573866D01*
X31806077Y-21573866D02*
X31853696Y-21478628D01*
X31853696Y-21478628D02*
X31853696Y-21431009D01*
X31853696Y-21431009D02*
X31806077Y-21335771D01*
X31806077Y-21335771D02*
X31710839Y-21288152D01*
X31710839Y-21288152D02*
X31567982Y-21288152D01*
X31567982Y-21288152D02*
X31472744Y-21335771D01*
X30996553Y-21288152D02*
X30996553Y-22288152D01*
X30996553Y-21335771D02*
X30901315Y-21288152D01*
X30901315Y-21288152D02*
X30710839Y-21288152D01*
X30710839Y-21288152D02*
X30615601Y-21335771D01*
X30615601Y-21335771D02*
X30567982Y-21383390D01*
X30567982Y-21383390D02*
X30520363Y-21478628D01*
X30520363Y-21478628D02*
X30520363Y-21764342D01*
X30520363Y-21764342D02*
X30567982Y-21859580D01*
X30567982Y-21859580D02*
X30615601Y-21907200D01*
X30615601Y-21907200D02*
X30710839Y-21954819D01*
X30710839Y-21954819D02*
X30901315Y-21954819D01*
X30901315Y-21954819D02*
X30996553Y-21907200D01*
X30187029Y-20954819D02*
X29567982Y-20954819D01*
X29567982Y-20954819D02*
X29901315Y-21335771D01*
X29901315Y-21335771D02*
X29758458Y-21335771D01*
X29758458Y-21335771D02*
X29663220Y-21383390D01*
X29663220Y-21383390D02*
X29615601Y-21431009D01*
X29615601Y-21431009D02*
X29567982Y-21526247D01*
X29567982Y-21526247D02*
X29567982Y-21764342D01*
X29567982Y-21764342D02*
X29615601Y-21859580D01*
X29615601Y-21859580D02*
X29663220Y-21907200D01*
X29663220Y-21907200D02*
X29758458Y-21954819D01*
X29758458Y-21954819D02*
X30044172Y-21954819D01*
X30044172Y-21954819D02*
X30139410Y-21907200D01*
X30139410Y-21907200D02*
X30187029Y-21859580D01*
X29187029Y-21050057D02*
X29139410Y-21002438D01*
X29139410Y-21002438D02*
X29044172Y-20954819D01*
X29044172Y-20954819D02*
X28806077Y-20954819D01*
X28806077Y-20954819D02*
X28710839Y-21002438D01*
X28710839Y-21002438D02*
X28663220Y-21050057D01*
X28663220Y-21050057D02*
X28615601Y-21145295D01*
X28615601Y-21145295D02*
X28615601Y-21240533D01*
X28615601Y-21240533D02*
X28663220Y-21383390D01*
X28663220Y-21383390D02*
X29234648Y-21954819D01*
X29234648Y-21954819D02*
X28615601Y-21954819D01*
X28187029Y-21573866D02*
X27425125Y-21573866D01*
X26948934Y-21288152D02*
X26948934Y-22288152D01*
X26948934Y-21335771D02*
X26853696Y-21288152D01*
X26853696Y-21288152D02*
X26663220Y-21288152D01*
X26663220Y-21288152D02*
X26567982Y-21335771D01*
X26567982Y-21335771D02*
X26520363Y-21383390D01*
X26520363Y-21383390D02*
X26472744Y-21478628D01*
X26472744Y-21478628D02*
X26472744Y-21764342D01*
X26472744Y-21764342D02*
X26520363Y-21859580D01*
X26520363Y-21859580D02*
X26567982Y-21907200D01*
X26567982Y-21907200D02*
X26663220Y-21954819D01*
X26663220Y-21954819D02*
X26853696Y-21954819D01*
X26853696Y-21954819D02*
X26948934Y-21907200D01*
X26044172Y-21954819D02*
X26044172Y-21288152D01*
X26044172Y-21478628D02*
X25996553Y-21383390D01*
X25996553Y-21383390D02*
X25948934Y-21335771D01*
X25948934Y-21335771D02*
X25853696Y-21288152D01*
X25853696Y-21288152D02*
X25758458Y-21288152D01*
X25282267Y-21954819D02*
X25377505Y-21907200D01*
X25377505Y-21907200D02*
X25425124Y-21859580D01*
X25425124Y-21859580D02*
X25472743Y-21764342D01*
X25472743Y-21764342D02*
X25472743Y-21478628D01*
X25472743Y-21478628D02*
X25425124Y-21383390D01*
X25425124Y-21383390D02*
X25377505Y-21335771D01*
X25377505Y-21335771D02*
X25282267Y-21288152D01*
X25282267Y-21288152D02*
X25139410Y-21288152D01*
X25139410Y-21288152D02*
X25044172Y-21335771D01*
X25044172Y-21335771D02*
X24996553Y-21383390D01*
X24996553Y-21383390D02*
X24948934Y-21478628D01*
X24948934Y-21478628D02*
X24948934Y-21764342D01*
X24948934Y-21764342D02*
X24996553Y-21859580D01*
X24996553Y-21859580D02*
X25044172Y-21907200D01*
X25044172Y-21907200D02*
X25139410Y-21954819D01*
X25139410Y-21954819D02*
X25282267Y-21954819D01*
X24091791Y-21288152D02*
X24091791Y-22097676D01*
X24091791Y-22097676D02*
X24139410Y-22192914D01*
X24139410Y-22192914D02*
X24187029Y-22240533D01*
X24187029Y-22240533D02*
X24282267Y-22288152D01*
X24282267Y-22288152D02*
X24425124Y-22288152D01*
X24425124Y-22288152D02*
X24520362Y-22240533D01*
X24091791Y-21907200D02*
X24187029Y-21954819D01*
X24187029Y-21954819D02*
X24377505Y-21954819D01*
X24377505Y-21954819D02*
X24472743Y-21907200D01*
X24472743Y-21907200D02*
X24520362Y-21859580D01*
X24520362Y-21859580D02*
X24567981Y-21764342D01*
X24567981Y-21764342D02*
X24567981Y-21478628D01*
X24567981Y-21478628D02*
X24520362Y-21383390D01*
X24520362Y-21383390D02*
X24472743Y-21335771D01*
X24472743Y-21335771D02*
X24377505Y-21288152D01*
X24377505Y-21288152D02*
X24187029Y-21288152D01*
X24187029Y-21288152D02*
X24091791Y-21335771D01*
X23615600Y-21573866D02*
X22853696Y-21573866D01*
X22425124Y-21050057D02*
X22377505Y-21002438D01*
X22377505Y-21002438D02*
X22282267Y-20954819D01*
X22282267Y-20954819D02*
X22044172Y-20954819D01*
X22044172Y-20954819D02*
X21948934Y-21002438D01*
X21948934Y-21002438D02*
X21901315Y-21050057D01*
X21901315Y-21050057D02*
X21853696Y-21145295D01*
X21853696Y-21145295D02*
X21853696Y-21240533D01*
X21853696Y-21240533D02*
X21901315Y-21383390D01*
X21901315Y-21383390D02*
X22472743Y-21954819D01*
X22472743Y-21954819D02*
X21853696Y-21954819D01*
X21234648Y-20954819D02*
X21139410Y-20954819D01*
X21139410Y-20954819D02*
X21044172Y-21002438D01*
X21044172Y-21002438D02*
X20996553Y-21050057D01*
X20996553Y-21050057D02*
X20948934Y-21145295D01*
X20948934Y-21145295D02*
X20901315Y-21335771D01*
X20901315Y-21335771D02*
X20901315Y-21573866D01*
X20901315Y-21573866D02*
X20948934Y-21764342D01*
X20948934Y-21764342D02*
X20996553Y-21859580D01*
X20996553Y-21859580D02*
X21044172Y-21907200D01*
X21044172Y-21907200D02*
X21139410Y-21954819D01*
X21139410Y-21954819D02*
X21234648Y-21954819D01*
X21234648Y-21954819D02*
X21329886Y-21907200D01*
X21329886Y-21907200D02*
X21377505Y-21859580D01*
X21377505Y-21859580D02*
X21425124Y-21764342D01*
X21425124Y-21764342D02*
X21472743Y-21573866D01*
X21472743Y-21573866D02*
X21472743Y-21335771D01*
X21472743Y-21335771D02*
X21425124Y-21145295D01*
X21425124Y-21145295D02*
X21377505Y-21050057D01*
X21377505Y-21050057D02*
X21329886Y-21002438D01*
X21329886Y-21002438D02*
X21234648Y-20954819D01*
X20520362Y-21050057D02*
X20472743Y-21002438D01*
X20472743Y-21002438D02*
X20377505Y-20954819D01*
X20377505Y-20954819D02*
X20139410Y-20954819D01*
X20139410Y-20954819D02*
X20044172Y-21002438D01*
X20044172Y-21002438D02*
X19996553Y-21050057D01*
X19996553Y-21050057D02*
X19948934Y-21145295D01*
X19948934Y-21145295D02*
X19948934Y-21240533D01*
X19948934Y-21240533D02*
X19996553Y-21383390D01*
X19996553Y-21383390D02*
X20567981Y-21954819D01*
X20567981Y-21954819D02*
X19948934Y-21954819D01*
X19615600Y-20954819D02*
X18996553Y-20954819D01*
X18996553Y-20954819D02*
X19329886Y-21335771D01*
X19329886Y-21335771D02*
X19187029Y-21335771D01*
X19187029Y-21335771D02*
X19091791Y-21383390D01*
X19091791Y-21383390D02*
X19044172Y-21431009D01*
X19044172Y-21431009D02*
X18996553Y-21526247D01*
X18996553Y-21526247D02*
X18996553Y-21764342D01*
X18996553Y-21764342D02*
X19044172Y-21859580D01*
X19044172Y-21859580D02*
X19091791Y-21907200D01*
X19091791Y-21907200D02*
X19187029Y-21954819D01*
X19187029Y-21954819D02*
X19472743Y-21954819D01*
X19472743Y-21954819D02*
X19567981Y-21907200D01*
X19567981Y-21907200D02*
X19615600Y-21859580D01*
X18377505Y-20954819D02*
X18282267Y-20954819D01*
X18282267Y-20954819D02*
X18187029Y-21002438D01*
X18187029Y-21002438D02*
X18139410Y-21050057D01*
X18139410Y-21050057D02*
X18091791Y-21145295D01*
X18091791Y-21145295D02*
X18044172Y-21335771D01*
X18044172Y-21335771D02*
X18044172Y-21573866D01*
X18044172Y-21573866D02*
X18091791Y-21764342D01*
X18091791Y-21764342D02*
X18139410Y-21859580D01*
X18139410Y-21859580D02*
X18187029Y-21907200D01*
X18187029Y-21907200D02*
X18282267Y-21954819D01*
X18282267Y-21954819D02*
X18377505Y-21954819D01*
X18377505Y-21954819D02*
X18472743Y-21907200D01*
X18472743Y-21907200D02*
X18520362Y-21859580D01*
X18520362Y-21859580D02*
X18567981Y-21764342D01*
X18567981Y-21764342D02*
X18615600Y-21573866D01*
X18615600Y-21573866D02*
X18615600Y-21335771D01*
X18615600Y-21335771D02*
X18567981Y-21145295D01*
X18567981Y-21145295D02*
X18520362Y-21050057D01*
X18520362Y-21050057D02*
X18472743Y-21002438D01*
X18472743Y-21002438D02*
X18377505Y-20954819D01*
X17710838Y-20954819D02*
X17044172Y-20954819D01*
X17044172Y-20954819D02*
X17472743Y-21954819D01*
X16710838Y-21050057D02*
X16663219Y-21002438D01*
X16663219Y-21002438D02*
X16567981Y-20954819D01*
X16567981Y-20954819D02*
X16329886Y-20954819D01*
X16329886Y-20954819D02*
X16234648Y-21002438D01*
X16234648Y-21002438D02*
X16187029Y-21050057D01*
X16187029Y-21050057D02*
X16139410Y-21145295D01*
X16139410Y-21145295D02*
X16139410Y-21240533D01*
X16139410Y-21240533D02*
X16187029Y-21383390D01*
X16187029Y-21383390D02*
X16758457Y-21954819D01*
X16758457Y-21954819D02*
X16139410Y-21954819D01*
X15234648Y-20954819D02*
X15710838Y-20954819D01*
X15710838Y-20954819D02*
X15758457Y-21431009D01*
X15758457Y-21431009D02*
X15710838Y-21383390D01*
X15710838Y-21383390D02*
X15615600Y-21335771D01*
X15615600Y-21335771D02*
X15377505Y-21335771D01*
X15377505Y-21335771D02*
X15282267Y-21383390D01*
X15282267Y-21383390D02*
X15234648Y-21431009D01*
X15234648Y-21431009D02*
X15187029Y-21526247D01*
X15187029Y-21526247D02*
X15187029Y-21764342D01*
X15187029Y-21764342D02*
X15234648Y-21859580D01*
X15234648Y-21859580D02*
X15282267Y-21907200D01*
X15282267Y-21907200D02*
X15377505Y-21954819D01*
X15377505Y-21954819D02*
X15615600Y-21954819D01*
X15615600Y-21954819D02*
X15710838Y-21907200D01*
X15710838Y-21907200D02*
X15758457Y-21859580D01*
X14758457Y-21573866D02*
X13996553Y-21573866D01*
X13520362Y-21954819D02*
X13520362Y-21288152D01*
X13520362Y-21478628D02*
X13472743Y-21383390D01*
X13472743Y-21383390D02*
X13425124Y-21335771D01*
X13425124Y-21335771D02*
X13329886Y-21288152D01*
X13329886Y-21288152D02*
X13234648Y-21288152D01*
X12520362Y-21907200D02*
X12615600Y-21954819D01*
X12615600Y-21954819D02*
X12806076Y-21954819D01*
X12806076Y-21954819D02*
X12901314Y-21907200D01*
X12901314Y-21907200D02*
X12948933Y-21811961D01*
X12948933Y-21811961D02*
X12948933Y-21431009D01*
X12948933Y-21431009D02*
X12901314Y-21335771D01*
X12901314Y-21335771D02*
X12806076Y-21288152D01*
X12806076Y-21288152D02*
X12615600Y-21288152D01*
X12615600Y-21288152D02*
X12520362Y-21335771D01*
X12520362Y-21335771D02*
X12472743Y-21431009D01*
X12472743Y-21431009D02*
X12472743Y-21526247D01*
X12472743Y-21526247D02*
X12948933Y-21621485D01*
X12139409Y-21288152D02*
X11901314Y-21954819D01*
X11901314Y-21954819D02*
X11663219Y-21288152D01*
X11329885Y-21050057D02*
X11282266Y-21002438D01*
X11282266Y-21002438D02*
X11187028Y-20954819D01*
X11187028Y-20954819D02*
X10948933Y-20954819D01*
X10948933Y-20954819D02*
X10853695Y-21002438D01*
X10853695Y-21002438D02*
X10806076Y-21050057D01*
X10806076Y-21050057D02*
X10758457Y-21145295D01*
X10758457Y-21145295D02*
X10758457Y-21240533D01*
X10758457Y-21240533D02*
X10806076Y-21383390D01*
X10806076Y-21383390D02*
X11377504Y-21954819D01*
X11377504Y-21954819D02*
X10758457Y-21954819D01*
X32663220Y-18954819D02*
X32663220Y-18288152D01*
X32663220Y-18383390D02*
X32615601Y-18335771D01*
X32615601Y-18335771D02*
X32520363Y-18288152D01*
X32520363Y-18288152D02*
X32377506Y-18288152D01*
X32377506Y-18288152D02*
X32282268Y-18335771D01*
X32282268Y-18335771D02*
X32234649Y-18431009D01*
X32234649Y-18431009D02*
X32234649Y-18954819D01*
X32234649Y-18431009D02*
X32187030Y-18335771D01*
X32187030Y-18335771D02*
X32091792Y-18288152D01*
X32091792Y-18288152D02*
X31948935Y-18288152D01*
X31948935Y-18288152D02*
X31853696Y-18335771D01*
X31853696Y-18335771D02*
X31806077Y-18431009D01*
X31806077Y-18431009D02*
X31806077Y-18954819D01*
X30901316Y-18954819D02*
X30901316Y-18431009D01*
X30901316Y-18431009D02*
X30948935Y-18335771D01*
X30948935Y-18335771D02*
X31044173Y-18288152D01*
X31044173Y-18288152D02*
X31234649Y-18288152D01*
X31234649Y-18288152D02*
X31329887Y-18335771D01*
X30901316Y-18907200D02*
X30996554Y-18954819D01*
X30996554Y-18954819D02*
X31234649Y-18954819D01*
X31234649Y-18954819D02*
X31329887Y-18907200D01*
X31329887Y-18907200D02*
X31377506Y-18811961D01*
X31377506Y-18811961D02*
X31377506Y-18716723D01*
X31377506Y-18716723D02*
X31329887Y-18621485D01*
X31329887Y-18621485D02*
X31234649Y-18573866D01*
X31234649Y-18573866D02*
X30996554Y-18573866D01*
X30996554Y-18573866D02*
X30901316Y-18526247D01*
X30520363Y-18954819D02*
X29996554Y-18288152D01*
X30520363Y-18288152D02*
X29996554Y-18954819D01*
X29472744Y-18954819D02*
X29567982Y-18907200D01*
X29567982Y-18907200D02*
X29615601Y-18811961D01*
X29615601Y-18811961D02*
X29615601Y-17954819D01*
X28663220Y-18954819D02*
X28663220Y-18431009D01*
X28663220Y-18431009D02*
X28710839Y-18335771D01*
X28710839Y-18335771D02*
X28806077Y-18288152D01*
X28806077Y-18288152D02*
X28996553Y-18288152D01*
X28996553Y-18288152D02*
X29091791Y-18335771D01*
X28663220Y-18907200D02*
X28758458Y-18954819D01*
X28758458Y-18954819D02*
X28996553Y-18954819D01*
X28996553Y-18954819D02*
X29091791Y-18907200D01*
X29091791Y-18907200D02*
X29139410Y-18811961D01*
X29139410Y-18811961D02*
X29139410Y-18716723D01*
X29139410Y-18716723D02*
X29091791Y-18621485D01*
X29091791Y-18621485D02*
X28996553Y-18573866D01*
X28996553Y-18573866D02*
X28758458Y-18573866D01*
X28758458Y-18573866D02*
X28663220Y-18526247D01*
X28187029Y-18954819D02*
X28187029Y-17954819D01*
X28187029Y-18335771D02*
X28091791Y-18288152D01*
X28091791Y-18288152D02*
X27901315Y-18288152D01*
X27901315Y-18288152D02*
X27806077Y-18335771D01*
X27806077Y-18335771D02*
X27758458Y-18383390D01*
X27758458Y-18383390D02*
X27710839Y-18478628D01*
X27710839Y-18478628D02*
X27710839Y-18764342D01*
X27710839Y-18764342D02*
X27758458Y-18859580D01*
X27758458Y-18859580D02*
X27806077Y-18907200D01*
X27806077Y-18907200D02*
X27901315Y-18954819D01*
X27901315Y-18954819D02*
X28091791Y-18954819D01*
X28091791Y-18954819D02*
X28187029Y-18907200D01*
X27282267Y-18859580D02*
X27234648Y-18907200D01*
X27234648Y-18907200D02*
X27282267Y-18954819D01*
X27282267Y-18954819D02*
X27329886Y-18907200D01*
X27329886Y-18907200D02*
X27282267Y-18859580D01*
X27282267Y-18859580D02*
X27282267Y-18954819D01*
X26806077Y-18954819D02*
X26806077Y-18288152D01*
X26806077Y-17954819D02*
X26853696Y-18002438D01*
X26853696Y-18002438D02*
X26806077Y-18050057D01*
X26806077Y-18050057D02*
X26758458Y-18002438D01*
X26758458Y-18002438D02*
X26806077Y-17954819D01*
X26806077Y-17954819D02*
X26806077Y-18050057D01*
X26187030Y-18954819D02*
X26282268Y-18907200D01*
X26282268Y-18907200D02*
X26329887Y-18859580D01*
X26329887Y-18859580D02*
X26377506Y-18764342D01*
X26377506Y-18764342D02*
X26377506Y-18478628D01*
X26377506Y-18478628D02*
X26329887Y-18383390D01*
X26329887Y-18383390D02*
X26282268Y-18335771D01*
X26282268Y-18335771D02*
X26187030Y-18288152D01*
X26187030Y-18288152D02*
X26044173Y-18288152D01*
X26044173Y-18288152D02*
X25948935Y-18335771D01*
X25948935Y-18335771D02*
X25901316Y-18383390D01*
X25901316Y-18383390D02*
X25853697Y-18478628D01*
X25853697Y-18478628D02*
X25853697Y-18764342D01*
X25853697Y-18764342D02*
X25901316Y-18859580D01*
X25901316Y-18859580D02*
X25948935Y-18907200D01*
X25948935Y-18907200D02*
X26044173Y-18954819D01*
X26044173Y-18954819D02*
X26187030Y-18954819D01*
X32663220Y-19454819D02*
X32663220Y-20264342D01*
X32663220Y-20264342D02*
X32615601Y-20359580D01*
X32615601Y-20359580D02*
X32567982Y-20407200D01*
X32567982Y-20407200D02*
X32472744Y-20454819D01*
X32472744Y-20454819D02*
X32282268Y-20454819D01*
X32282268Y-20454819D02*
X32187030Y-20407200D01*
X32187030Y-20407200D02*
X32139411Y-20359580D01*
X32139411Y-20359580D02*
X32091792Y-20264342D01*
X32091792Y-20264342D02*
X32091792Y-19454819D01*
X31663220Y-20407200D02*
X31520363Y-20454819D01*
X31520363Y-20454819D02*
X31282268Y-20454819D01*
X31282268Y-20454819D02*
X31187030Y-20407200D01*
X31187030Y-20407200D02*
X31139411Y-20359580D01*
X31139411Y-20359580D02*
X31091792Y-20264342D01*
X31091792Y-20264342D02*
X31091792Y-20169104D01*
X31091792Y-20169104D02*
X31139411Y-20073866D01*
X31139411Y-20073866D02*
X31187030Y-20026247D01*
X31187030Y-20026247D02*
X31282268Y-19978628D01*
X31282268Y-19978628D02*
X31472744Y-19931009D01*
X31472744Y-19931009D02*
X31567982Y-19883390D01*
X31567982Y-19883390D02*
X31615601Y-19835771D01*
X31615601Y-19835771D02*
X31663220Y-19740533D01*
X31663220Y-19740533D02*
X31663220Y-19645295D01*
X31663220Y-19645295D02*
X31615601Y-19550057D01*
X31615601Y-19550057D02*
X31567982Y-19502438D01*
X31567982Y-19502438D02*
X31472744Y-19454819D01*
X31472744Y-19454819D02*
X31234649Y-19454819D01*
X31234649Y-19454819D02*
X31091792Y-19502438D01*
X30329887Y-19931009D02*
X30187030Y-19978628D01*
X30187030Y-19978628D02*
X30139411Y-20026247D01*
X30139411Y-20026247D02*
X30091792Y-20121485D01*
X30091792Y-20121485D02*
X30091792Y-20264342D01*
X30091792Y-20264342D02*
X30139411Y-20359580D01*
X30139411Y-20359580D02*
X30187030Y-20407200D01*
X30187030Y-20407200D02*
X30282268Y-20454819D01*
X30282268Y-20454819D02*
X30663220Y-20454819D01*
X30663220Y-20454819D02*
X30663220Y-19454819D01*
X30663220Y-19454819D02*
X30329887Y-19454819D01*
X30329887Y-19454819D02*
X30234649Y-19502438D01*
X30234649Y-19502438D02*
X30187030Y-19550057D01*
X30187030Y-19550057D02*
X30139411Y-19645295D01*
X30139411Y-19645295D02*
X30139411Y-19740533D01*
X30139411Y-19740533D02*
X30187030Y-19835771D01*
X30187030Y-19835771D02*
X30234649Y-19883390D01*
X30234649Y-19883390D02*
X30329887Y-19931009D01*
X30329887Y-19931009D02*
X30663220Y-19931009D01*
X28901315Y-19931009D02*
X28567982Y-19931009D01*
X28425125Y-20454819D02*
X28901315Y-20454819D01*
X28901315Y-20454819D02*
X28901315Y-19454819D01*
X28901315Y-19454819D02*
X28425125Y-19454819D01*
X28044172Y-20407200D02*
X27901315Y-20454819D01*
X27901315Y-20454819D02*
X27663220Y-20454819D01*
X27663220Y-20454819D02*
X27567982Y-20407200D01*
X27567982Y-20407200D02*
X27520363Y-20359580D01*
X27520363Y-20359580D02*
X27472744Y-20264342D01*
X27472744Y-20264342D02*
X27472744Y-20169104D01*
X27472744Y-20169104D02*
X27520363Y-20073866D01*
X27520363Y-20073866D02*
X27567982Y-20026247D01*
X27567982Y-20026247D02*
X27663220Y-19978628D01*
X27663220Y-19978628D02*
X27853696Y-19931009D01*
X27853696Y-19931009D02*
X27948934Y-19883390D01*
X27948934Y-19883390D02*
X27996553Y-19835771D01*
X27996553Y-19835771D02*
X28044172Y-19740533D01*
X28044172Y-19740533D02*
X28044172Y-19645295D01*
X28044172Y-19645295D02*
X27996553Y-19550057D01*
X27996553Y-19550057D02*
X27948934Y-19502438D01*
X27948934Y-19502438D02*
X27853696Y-19454819D01*
X27853696Y-19454819D02*
X27615601Y-19454819D01*
X27615601Y-19454819D02*
X27472744Y-19502438D01*
X27044172Y-20454819D02*
X27044172Y-19454819D01*
X27044172Y-19454819D02*
X26663220Y-19454819D01*
X26663220Y-19454819D02*
X26567982Y-19502438D01*
X26567982Y-19502438D02*
X26520363Y-19550057D01*
X26520363Y-19550057D02*
X26472744Y-19645295D01*
X26472744Y-19645295D02*
X26472744Y-19788152D01*
X26472744Y-19788152D02*
X26520363Y-19883390D01*
X26520363Y-19883390D02*
X26567982Y-19931009D01*
X26567982Y-19931009D02*
X26663220Y-19978628D01*
X26663220Y-19978628D02*
X27044172Y-19978628D01*
X26139410Y-19454819D02*
X25520363Y-19454819D01*
X25520363Y-19454819D02*
X25853696Y-19835771D01*
X25853696Y-19835771D02*
X25710839Y-19835771D01*
X25710839Y-19835771D02*
X25615601Y-19883390D01*
X25615601Y-19883390D02*
X25567982Y-19931009D01*
X25567982Y-19931009D02*
X25520363Y-20026247D01*
X25520363Y-20026247D02*
X25520363Y-20264342D01*
X25520363Y-20264342D02*
X25567982Y-20359580D01*
X25567982Y-20359580D02*
X25615601Y-20407200D01*
X25615601Y-20407200D02*
X25710839Y-20454819D01*
X25710839Y-20454819D02*
X25996553Y-20454819D01*
X25996553Y-20454819D02*
X26091791Y-20407200D01*
X26091791Y-20407200D02*
X26139410Y-20359580D01*
X25139410Y-19550057D02*
X25091791Y-19502438D01*
X25091791Y-19502438D02*
X24996553Y-19454819D01*
X24996553Y-19454819D02*
X24758458Y-19454819D01*
X24758458Y-19454819D02*
X24663220Y-19502438D01*
X24663220Y-19502438D02*
X24615601Y-19550057D01*
X24615601Y-19550057D02*
X24567982Y-19645295D01*
X24567982Y-19645295D02*
X24567982Y-19740533D01*
X24567982Y-19740533D02*
X24615601Y-19883390D01*
X24615601Y-19883390D02*
X25187029Y-20454819D01*
X25187029Y-20454819D02*
X24567982Y-20454819D01*
X24091791Y-20407200D02*
X24091791Y-20454819D01*
X24091791Y-20454819D02*
X24139410Y-20550057D01*
X24139410Y-20550057D02*
X24187029Y-20597676D01*
X23044172Y-19454819D02*
X22472744Y-19454819D01*
X22758458Y-20454819D02*
X22758458Y-19454819D01*
X21710839Y-20454819D02*
X21710839Y-19931009D01*
X21710839Y-19931009D02*
X21758458Y-19835771D01*
X21758458Y-19835771D02*
X21853696Y-19788152D01*
X21853696Y-19788152D02*
X22044172Y-19788152D01*
X22044172Y-19788152D02*
X22139410Y-19835771D01*
X21710839Y-20407200D02*
X21806077Y-20454819D01*
X21806077Y-20454819D02*
X22044172Y-20454819D01*
X22044172Y-20454819D02*
X22139410Y-20407200D01*
X22139410Y-20407200D02*
X22187029Y-20311961D01*
X22187029Y-20311961D02*
X22187029Y-20216723D01*
X22187029Y-20216723D02*
X22139410Y-20121485D01*
X22139410Y-20121485D02*
X22044172Y-20073866D01*
X22044172Y-20073866D02*
X21806077Y-20073866D01*
X21806077Y-20073866D02*
X21710839Y-20026247D01*
X20806077Y-19788152D02*
X20806077Y-20597676D01*
X20806077Y-20597676D02*
X20853696Y-20692914D01*
X20853696Y-20692914D02*
X20901315Y-20740533D01*
X20901315Y-20740533D02*
X20996553Y-20788152D01*
X20996553Y-20788152D02*
X21139410Y-20788152D01*
X21139410Y-20788152D02*
X21234648Y-20740533D01*
X20806077Y-20407200D02*
X20901315Y-20454819D01*
X20901315Y-20454819D02*
X21091791Y-20454819D01*
X21091791Y-20454819D02*
X21187029Y-20407200D01*
X21187029Y-20407200D02*
X21234648Y-20359580D01*
X21234648Y-20359580D02*
X21282267Y-20264342D01*
X21282267Y-20264342D02*
X21282267Y-19978628D01*
X21282267Y-19978628D02*
X21234648Y-19883390D01*
X21234648Y-19883390D02*
X21187029Y-19835771D01*
X21187029Y-19835771D02*
X21091791Y-19788152D01*
X21091791Y-19788152D02*
X20901315Y-19788152D01*
X20901315Y-19788152D02*
X20806077Y-19835771D01*
X19758458Y-20359580D02*
X19806077Y-20407200D01*
X19806077Y-20407200D02*
X19948934Y-20454819D01*
X19948934Y-20454819D02*
X20044172Y-20454819D01*
X20044172Y-20454819D02*
X20187029Y-20407200D01*
X20187029Y-20407200D02*
X20282267Y-20311961D01*
X20282267Y-20311961D02*
X20329886Y-20216723D01*
X20329886Y-20216723D02*
X20377505Y-20026247D01*
X20377505Y-20026247D02*
X20377505Y-19883390D01*
X20377505Y-19883390D02*
X20329886Y-19692914D01*
X20329886Y-19692914D02*
X20282267Y-19597676D01*
X20282267Y-19597676D02*
X20187029Y-19502438D01*
X20187029Y-19502438D02*
X20044172Y-19454819D01*
X20044172Y-19454819D02*
X19948934Y-19454819D01*
X19948934Y-19454819D02*
X19806077Y-19502438D01*
X19806077Y-19502438D02*
X19758458Y-19550057D01*
X19187029Y-20454819D02*
X19282267Y-20407200D01*
X19282267Y-20407200D02*
X19329886Y-20359580D01*
X19329886Y-20359580D02*
X19377505Y-20264342D01*
X19377505Y-20264342D02*
X19377505Y-19978628D01*
X19377505Y-19978628D02*
X19329886Y-19883390D01*
X19329886Y-19883390D02*
X19282267Y-19835771D01*
X19282267Y-19835771D02*
X19187029Y-19788152D01*
X19187029Y-19788152D02*
X19044172Y-19788152D01*
X19044172Y-19788152D02*
X18948934Y-19835771D01*
X18948934Y-19835771D02*
X18901315Y-19883390D01*
X18901315Y-19883390D02*
X18853696Y-19978628D01*
X18853696Y-19978628D02*
X18853696Y-20264342D01*
X18853696Y-20264342D02*
X18901315Y-20359580D01*
X18901315Y-20359580D02*
X18948934Y-20407200D01*
X18948934Y-20407200D02*
X19044172Y-20454819D01*
X19044172Y-20454819D02*
X19187029Y-20454819D01*
X18425124Y-19788152D02*
X18425124Y-20454819D01*
X18425124Y-19883390D02*
X18377505Y-19835771D01*
X18377505Y-19835771D02*
X18282267Y-19788152D01*
X18282267Y-19788152D02*
X18139410Y-19788152D01*
X18139410Y-19788152D02*
X18044172Y-19835771D01*
X18044172Y-19835771D02*
X17996553Y-19931009D01*
X17996553Y-19931009D02*
X17996553Y-20454819D01*
X17520362Y-19788152D02*
X17520362Y-20454819D01*
X17520362Y-19883390D02*
X17472743Y-19835771D01*
X17472743Y-19835771D02*
X17377505Y-19788152D01*
X17377505Y-19788152D02*
X17234648Y-19788152D01*
X17234648Y-19788152D02*
X17139410Y-19835771D01*
X17139410Y-19835771D02*
X17091791Y-19931009D01*
X17091791Y-19931009D02*
X17091791Y-20454819D01*
X16234648Y-20407200D02*
X16329886Y-20454819D01*
X16329886Y-20454819D02*
X16520362Y-20454819D01*
X16520362Y-20454819D02*
X16615600Y-20407200D01*
X16615600Y-20407200D02*
X16663219Y-20311961D01*
X16663219Y-20311961D02*
X16663219Y-19931009D01*
X16663219Y-19931009D02*
X16615600Y-19835771D01*
X16615600Y-19835771D02*
X16520362Y-19788152D01*
X16520362Y-19788152D02*
X16329886Y-19788152D01*
X16329886Y-19788152D02*
X16234648Y-19835771D01*
X16234648Y-19835771D02*
X16187029Y-19931009D01*
X16187029Y-19931009D02*
X16187029Y-20026247D01*
X16187029Y-20026247D02*
X16663219Y-20121485D01*
X15329886Y-20407200D02*
X15425124Y-20454819D01*
X15425124Y-20454819D02*
X15615600Y-20454819D01*
X15615600Y-20454819D02*
X15710838Y-20407200D01*
X15710838Y-20407200D02*
X15758457Y-20359580D01*
X15758457Y-20359580D02*
X15806076Y-20264342D01*
X15806076Y-20264342D02*
X15806076Y-19978628D01*
X15806076Y-19978628D02*
X15758457Y-19883390D01*
X15758457Y-19883390D02*
X15710838Y-19835771D01*
X15710838Y-19835771D02*
X15615600Y-19788152D01*
X15615600Y-19788152D02*
X15425124Y-19788152D01*
X15425124Y-19788152D02*
X15329886Y-19835771D01*
X15044171Y-19788152D02*
X14663219Y-19788152D01*
X14901314Y-19454819D02*
X14901314Y-20311961D01*
X14901314Y-20311961D02*
X14853695Y-20407200D01*
X14853695Y-20407200D02*
X14758457Y-20454819D01*
X14758457Y-20454819D02*
X14663219Y-20454819D01*
X13139409Y-20454819D02*
X13139409Y-19931009D01*
X13139409Y-19931009D02*
X13187028Y-19835771D01*
X13187028Y-19835771D02*
X13282266Y-19788152D01*
X13282266Y-19788152D02*
X13472742Y-19788152D01*
X13472742Y-19788152D02*
X13567980Y-19835771D01*
X13139409Y-20407200D02*
X13234647Y-20454819D01*
X13234647Y-20454819D02*
X13472742Y-20454819D01*
X13472742Y-20454819D02*
X13567980Y-20407200D01*
X13567980Y-20407200D02*
X13615599Y-20311961D01*
X13615599Y-20311961D02*
X13615599Y-20216723D01*
X13615599Y-20216723D02*
X13567980Y-20121485D01*
X13567980Y-20121485D02*
X13472742Y-20073866D01*
X13472742Y-20073866D02*
X13234647Y-20073866D01*
X13234647Y-20073866D02*
X13139409Y-20026247D01*
X12234647Y-20454819D02*
X12234647Y-19454819D01*
X12234647Y-20407200D02*
X12329885Y-20454819D01*
X12329885Y-20454819D02*
X12520361Y-20454819D01*
X12520361Y-20454819D02*
X12615599Y-20407200D01*
X12615599Y-20407200D02*
X12663218Y-20359580D01*
X12663218Y-20359580D02*
X12710837Y-20264342D01*
X12710837Y-20264342D02*
X12710837Y-19978628D01*
X12710837Y-19978628D02*
X12663218Y-19883390D01*
X12663218Y-19883390D02*
X12615599Y-19835771D01*
X12615599Y-19835771D02*
X12520361Y-19788152D01*
X12520361Y-19788152D02*
X12329885Y-19788152D01*
X12329885Y-19788152D02*
X12234647Y-19835771D01*
X11329885Y-20454819D02*
X11329885Y-19931009D01*
X11329885Y-19931009D02*
X11377504Y-19835771D01*
X11377504Y-19835771D02*
X11472742Y-19788152D01*
X11472742Y-19788152D02*
X11663218Y-19788152D01*
X11663218Y-19788152D02*
X11758456Y-19835771D01*
X11329885Y-20407200D02*
X11425123Y-20454819D01*
X11425123Y-20454819D02*
X11663218Y-20454819D01*
X11663218Y-20454819D02*
X11758456Y-20407200D01*
X11758456Y-20407200D02*
X11806075Y-20311961D01*
X11806075Y-20311961D02*
X11806075Y-20216723D01*
X11806075Y-20216723D02*
X11758456Y-20121485D01*
X11758456Y-20121485D02*
X11663218Y-20073866D01*
X11663218Y-20073866D02*
X11425123Y-20073866D01*
X11425123Y-20073866D02*
X11329885Y-20026247D01*
X10853694Y-19788152D02*
X10853694Y-20788152D01*
X10853694Y-19835771D02*
X10758456Y-19788152D01*
X10758456Y-19788152D02*
X10567980Y-19788152D01*
X10567980Y-19788152D02*
X10472742Y-19835771D01*
X10472742Y-19835771D02*
X10425123Y-19883390D01*
X10425123Y-19883390D02*
X10377504Y-19978628D01*
X10377504Y-19978628D02*
X10377504Y-20264342D01*
X10377504Y-20264342D02*
X10425123Y-20359580D01*
X10425123Y-20359580D02*
X10472742Y-20407200D01*
X10472742Y-20407200D02*
X10567980Y-20454819D01*
X10567980Y-20454819D02*
X10758456Y-20454819D01*
X10758456Y-20454819D02*
X10853694Y-20407200D01*
X10091789Y-19788152D02*
X9710837Y-19788152D01*
X9948932Y-19454819D02*
X9948932Y-20311961D01*
X9948932Y-20311961D02*
X9901313Y-20407200D01*
X9901313Y-20407200D02*
X9806075Y-20454819D01*
X9806075Y-20454819D02*
X9710837Y-20454819D01*
X8996551Y-20407200D02*
X9091789Y-20454819D01*
X9091789Y-20454819D02*
X9282265Y-20454819D01*
X9282265Y-20454819D02*
X9377503Y-20407200D01*
X9377503Y-20407200D02*
X9425122Y-20311961D01*
X9425122Y-20311961D02*
X9425122Y-19931009D01*
X9425122Y-19931009D02*
X9377503Y-19835771D01*
X9377503Y-19835771D02*
X9282265Y-19788152D01*
X9282265Y-19788152D02*
X9091789Y-19788152D01*
X9091789Y-19788152D02*
X8996551Y-19835771D01*
X8996551Y-19835771D02*
X8948932Y-19931009D01*
X8948932Y-19931009D02*
X8948932Y-20026247D01*
X8948932Y-20026247D02*
X9425122Y-20121485D01*
X8520360Y-20454819D02*
X8520360Y-19788152D01*
X8520360Y-19978628D02*
X8472741Y-19883390D01*
X8472741Y-19883390D02*
X8425122Y-19835771D01*
X8425122Y-19835771D02*
X8329884Y-19788152D01*
X8329884Y-19788152D02*
X8234646Y-19788152D01*
%TO.C,G\u002A\u002A\u002A*%
G36*
X17220531Y-17287755D02*
G01*
X14032246Y-17287755D01*
X14032246Y-16763120D01*
X15280991Y-16733178D01*
X16529736Y-16703237D01*
X16587464Y-12611605D01*
X17220531Y-12611605D01*
X17220531Y-17287755D01*
G37*
G36*
X45089550Y-11201452D02*
G01*
X46127644Y-12235650D01*
X46127644Y-17762195D01*
X45093445Y-18800289D01*
X44059247Y-19838383D01*
X38426426Y-19838383D01*
X37388332Y-18804184D01*
X36350238Y-17769986D01*
X36350238Y-12243441D01*
X37384437Y-11205347D01*
X38418635Y-10167253D01*
X44051456Y-10167253D01*
X45089550Y-11201452D01*
G37*
G36*
X35371938Y-16611642D02*
G01*
X35686961Y-16675784D01*
X35854250Y-16774035D01*
X35908538Y-16915145D01*
X35826251Y-17119433D01*
X35772247Y-17162129D01*
X35518496Y-17243598D01*
X35146942Y-17289633D01*
X34723061Y-17300234D01*
X34312329Y-17275401D01*
X33980222Y-17215134D01*
X33792217Y-17119433D01*
X33715421Y-16982887D01*
X33764218Y-16774035D01*
X33875733Y-16696175D01*
X34161076Y-16623877D01*
X34546933Y-16585689D01*
X34971241Y-16581611D01*
X35371938Y-16611642D01*
G37*
G36*
X35371938Y-15336329D02*
G01*
X35686961Y-15400470D01*
X35854250Y-15498722D01*
X35908538Y-15639831D01*
X35826251Y-15844119D01*
X35772247Y-15886815D01*
X35518496Y-15968284D01*
X35146942Y-16014319D01*
X34723061Y-16024920D01*
X34312329Y-16000087D01*
X33980222Y-15939820D01*
X33792217Y-15844119D01*
X33715421Y-15707573D01*
X33764218Y-15498722D01*
X33875733Y-15420861D01*
X34161076Y-15348563D01*
X34546933Y-15310375D01*
X34971241Y-15306297D01*
X35371938Y-15336329D01*
G37*
G36*
X35371938Y-12785701D02*
G01*
X35686961Y-12849843D01*
X35854250Y-12948094D01*
X35908538Y-13089203D01*
X35826251Y-13293491D01*
X35772247Y-13336187D01*
X35518496Y-13417656D01*
X35146942Y-13463692D01*
X34723061Y-13474293D01*
X34312329Y-13449460D01*
X33980222Y-13389193D01*
X33792217Y-13293491D01*
X33715421Y-13156946D01*
X33764218Y-12948094D01*
X33875733Y-12870233D01*
X34161076Y-12797935D01*
X34546933Y-12759747D01*
X34971241Y-12755669D01*
X35371938Y-12785701D01*
G37*
G36*
X39470939Y-7543239D02*
G01*
X39481082Y-7547430D01*
X39563280Y-7623326D01*
X39613267Y-7788800D01*
X39638090Y-8084747D01*
X39644799Y-8552063D01*
X39643341Y-8743533D01*
X39629964Y-9142074D01*
X39605604Y-9433465D01*
X39573948Y-9565022D01*
X39479546Y-9608182D01*
X39257144Y-9635873D01*
X39157068Y-9624711D01*
X39020609Y-9532593D01*
X38941565Y-9321862D01*
X38911511Y-8962020D01*
X38922024Y-8422568D01*
X38964065Y-7983267D01*
X39065591Y-7658826D01*
X39231809Y-7516539D01*
X39470939Y-7543239D01*
G37*
G36*
X35048629Y-13995183D02*
G01*
X35506457Y-14032664D01*
X35782661Y-14125943D01*
X35897788Y-14285885D01*
X35872383Y-14523353D01*
X35833981Y-14613271D01*
X35750867Y-14682832D01*
X35586364Y-14717502D01*
X35296841Y-14725349D01*
X34838666Y-14714436D01*
X34763594Y-14711957D01*
X34310969Y-14688464D01*
X34021482Y-14649917D01*
X33851584Y-14587347D01*
X33757728Y-14491782D01*
X33741941Y-14464058D01*
X33721179Y-14259204D01*
X33903351Y-14111931D01*
X34286751Y-14023007D01*
X34869671Y-13993195D01*
X35048629Y-13995183D01*
G37*
G36*
X42012187Y-20384056D02*
G01*
X42099853Y-20464447D01*
X42158562Y-20626932D01*
X42187613Y-20911588D01*
X42195426Y-21363413D01*
X42180837Y-21832209D01*
X42136835Y-22187991D01*
X42067895Y-22367755D01*
X41994995Y-22427127D01*
X41823460Y-22495287D01*
X41818511Y-22495257D01*
X41645144Y-22435528D01*
X41531873Y-22244051D01*
X41470166Y-21894830D01*
X41451493Y-21361871D01*
X41451495Y-21353817D01*
X41459025Y-20907674D01*
X41487130Y-20627481D01*
X41544599Y-20467631D01*
X41640221Y-20382514D01*
X41742040Y-20344291D01*
X42012187Y-20384056D01*
G37*
G36*
X39439627Y-20373714D02*
G01*
X39483392Y-20400317D01*
X39567468Y-20496226D01*
X39616412Y-20667437D01*
X39639198Y-20959646D01*
X39644799Y-21418552D01*
X39643416Y-21603623D01*
X39630113Y-22001543D01*
X39605714Y-22292788D01*
X39573948Y-22424436D01*
X39478599Y-22477910D01*
X39242775Y-22479033D01*
X39028397Y-22367755D01*
X39011973Y-22347610D01*
X38939304Y-22127614D01*
X38901244Y-21777662D01*
X38896420Y-21365374D01*
X38923461Y-20958372D01*
X38980998Y-20624274D01*
X39067660Y-20430704D01*
X39225575Y-20327343D01*
X39439627Y-20373714D01*
G37*
G36*
X47592003Y-13993244D02*
G01*
X47996162Y-14002855D01*
X48325097Y-14025897D01*
X48510165Y-14057703D01*
X48538442Y-14072381D01*
X48649455Y-14240896D01*
X48678561Y-14477115D01*
X48607421Y-14666277D01*
X48575261Y-14680196D01*
X48370548Y-14709340D01*
X48028332Y-14729559D01*
X47601536Y-14737128D01*
X47401711Y-14736430D01*
X47012573Y-14725258D01*
X46772490Y-14693438D01*
X46635764Y-14631995D01*
X46556698Y-14531956D01*
X46543792Y-14506612D01*
X46509545Y-14278101D01*
X46664485Y-14118091D01*
X47013449Y-14023987D01*
X47561271Y-13993195D01*
X47592003Y-13993244D01*
G37*
G36*
X47706777Y-15291109D02*
G01*
X48096160Y-15306293D01*
X48392399Y-15331029D01*
X48556395Y-15375507D01*
X48631484Y-15452634D01*
X48661001Y-15575318D01*
X48651836Y-15754560D01*
X48554725Y-15919088D01*
X48527843Y-15931166D01*
X48313148Y-15971194D01*
X47963386Y-15999580D01*
X47539542Y-16010814D01*
X47440043Y-16010814D01*
X47033225Y-16002216D01*
X46782091Y-15971990D01*
X46639097Y-15910290D01*
X46556698Y-15807270D01*
X46505641Y-15624067D01*
X46617657Y-15431334D01*
X46718763Y-15359340D01*
X46913666Y-15304674D01*
X47227610Y-15283913D01*
X47706777Y-15291109D01*
G37*
G36*
X47647911Y-16566480D02*
G01*
X47669752Y-16567164D01*
X48122000Y-16584483D01*
X48405319Y-16609729D01*
X48561639Y-16654662D01*
X48632890Y-16731043D01*
X48661001Y-16850632D01*
X48651836Y-17029874D01*
X48554725Y-17194402D01*
X48540468Y-17201736D01*
X48343012Y-17243973D01*
X48007053Y-17274144D01*
X47596532Y-17286128D01*
X47450941Y-17284953D01*
X46941496Y-17244486D01*
X46627986Y-17143624D01*
X46502916Y-16978459D01*
X46558791Y-16745083D01*
X46605132Y-16673873D01*
X46704986Y-16602604D01*
X46882078Y-16565866D01*
X47181392Y-16556284D01*
X47647911Y-16566480D01*
G37*
G36*
X47647911Y-12740539D02*
G01*
X47669752Y-12741222D01*
X48122000Y-12758541D01*
X48405319Y-12783788D01*
X48561639Y-12828721D01*
X48632890Y-12905102D01*
X48661001Y-13024691D01*
X48651836Y-13203932D01*
X48554725Y-13368461D01*
X48540468Y-13375795D01*
X48343012Y-13418031D01*
X48007053Y-13448202D01*
X47596532Y-13460187D01*
X47450941Y-13459011D01*
X46941496Y-13418545D01*
X46627986Y-13317683D01*
X46502916Y-13152518D01*
X46558791Y-12919142D01*
X46605132Y-12847931D01*
X46704986Y-12776662D01*
X46882078Y-12739925D01*
X47181392Y-12730343D01*
X47647911Y-12740539D01*
G37*
G36*
X43296881Y-7543239D02*
G01*
X43307023Y-7547430D01*
X43389221Y-7623326D01*
X43439208Y-7788800D01*
X43464032Y-8084747D01*
X43470740Y-8552063D01*
X43469194Y-8742883D01*
X43454908Y-9142687D01*
X43428864Y-9436037D01*
X43395010Y-9569901D01*
X43281759Y-9611348D01*
X43049613Y-9614183D01*
X43034965Y-9612456D01*
X42911824Y-9587380D01*
X42836502Y-9519922D01*
X42797248Y-9367539D01*
X42782313Y-9087690D01*
X42779945Y-8637832D01*
X42786451Y-8284668D01*
X42830111Y-7854794D01*
X42923240Y-7601686D01*
X43075581Y-7504713D01*
X43296881Y-7543239D01*
G37*
G36*
X43287501Y-20384056D02*
G01*
X43298629Y-20390589D01*
X43385511Y-20482402D01*
X43438009Y-20655481D01*
X43463844Y-20953491D01*
X43470740Y-21420093D01*
X43469374Y-21603772D01*
X43456087Y-22001555D01*
X43431680Y-22292768D01*
X43399889Y-22424436D01*
X43304540Y-22477910D01*
X43068717Y-22479033D01*
X42854338Y-22367755D01*
X42788206Y-22201007D01*
X42742904Y-21852720D01*
X42726807Y-21361871D01*
X42726808Y-21353817D01*
X42734339Y-20907674D01*
X42762444Y-20627481D01*
X42819913Y-20467631D01*
X42915535Y-20382514D01*
X43017354Y-20344291D01*
X43287501Y-20384056D01*
G37*
G36*
X40746253Y-7543239D02*
G01*
X40756396Y-7547430D01*
X40838594Y-7623326D01*
X40888580Y-7788800D01*
X40913404Y-8084747D01*
X40920113Y-8552063D01*
X40918566Y-8742883D01*
X40904280Y-9142687D01*
X40878237Y-9436037D01*
X40844383Y-9569901D01*
X40731131Y-9611348D01*
X40498985Y-9614183D01*
X40484338Y-9612456D01*
X40361197Y-9587380D01*
X40285874Y-9519922D01*
X40246621Y-9367539D01*
X40231685Y-9087690D01*
X40229318Y-8637832D01*
X40235823Y-8284668D01*
X40279483Y-7854794D01*
X40372612Y-7601686D01*
X40524954Y-7504713D01*
X40746253Y-7543239D01*
G37*
G36*
X40736874Y-20384056D02*
G01*
X40748001Y-20390589D01*
X40834884Y-20482402D01*
X40887381Y-20655481D01*
X40913217Y-20953491D01*
X40920113Y-21420093D01*
X40918747Y-21603772D01*
X40905459Y-22001555D01*
X40881052Y-22292768D01*
X40849262Y-22424436D01*
X40753913Y-22477910D01*
X40518089Y-22479033D01*
X40303711Y-22367755D01*
X40237579Y-22201007D01*
X40192276Y-21852720D01*
X40176179Y-21361871D01*
X40176181Y-21353817D01*
X40183711Y-20907674D01*
X40211817Y-20627481D01*
X40269285Y-20467631D01*
X40364907Y-20382514D01*
X40466726Y-20344291D01*
X40736874Y-20384056D01*
G37*
G36*
X42027104Y-7609232D02*
G01*
X42075457Y-7661846D01*
X42146759Y-7840056D01*
X42184422Y-8145968D01*
X42195426Y-8621549D01*
X42194614Y-8749880D01*
X42181213Y-9143153D01*
X42154762Y-9435009D01*
X42119696Y-9569901D01*
X42006445Y-9611348D01*
X41774299Y-9614183D01*
X41759651Y-9612456D01*
X41636511Y-9587380D01*
X41561188Y-9519922D01*
X41521934Y-9367539D01*
X41506999Y-9087690D01*
X41504631Y-8637832D01*
X41504631Y-8636467D01*
X41512135Y-8161528D01*
X41539367Y-7855874D01*
X41593500Y-7676707D01*
X41681706Y-7581233D01*
X41822816Y-7526945D01*
X42027104Y-7609232D01*
G37*
G36*
X32736849Y-17287755D02*
G01*
X32099192Y-17287755D01*
X32099192Y-13949687D01*
X31242362Y-15353031D01*
X31073342Y-15625887D01*
X30784321Y-16073545D01*
X30537577Y-16432037D01*
X30355042Y-16670076D01*
X30258648Y-16756375D01*
X30217689Y-16729417D01*
X30072087Y-16555151D01*
X29853134Y-16245941D01*
X29582590Y-15833169D01*
X29282215Y-15348216D01*
X28432665Y-13940057D01*
X28374129Y-17287755D01*
X27741870Y-17287755D01*
X27741870Y-12611605D01*
X28034129Y-12613407D01*
X28086953Y-12616312D01*
X28199534Y-12650399D01*
X28319366Y-12743232D01*
X28465884Y-12920086D01*
X28658523Y-13206240D01*
X28916721Y-13626968D01*
X29259913Y-14207549D01*
X29518059Y-14642776D01*
X29799150Y-15104004D01*
X30030623Y-15469722D01*
X30193683Y-15710353D01*
X30269537Y-15796324D01*
X30325502Y-15735146D01*
X30474801Y-15516921D01*
X30695719Y-15168839D01*
X30969441Y-14720669D01*
X31277149Y-14202181D01*
X31319357Y-14130169D01*
X31655862Y-13563195D01*
X31909891Y-13154723D01*
X32100018Y-12880040D01*
X32244821Y-12714435D01*
X32362875Y-12633194D01*
X32472755Y-12611605D01*
X32736849Y-12611605D01*
X32736849Y-17287755D01*
G37*
G36*
X13301711Y-15822574D02*
G01*
X13539991Y-16353885D01*
X13729039Y-16777413D01*
X13856060Y-17064532D01*
X13908258Y-17186622D01*
X13909731Y-17192306D01*
X13831065Y-17259908D01*
X13614658Y-17287755D01*
X13460512Y-17277279D01*
X13312549Y-17207635D01*
X13183654Y-17031773D01*
X13027131Y-16703237D01*
X12768629Y-16118718D01*
X10245418Y-16118718D01*
X10003148Y-16703237D01*
X9872078Y-17002084D01*
X9750820Y-17192252D01*
X9611480Y-17271745D01*
X9405832Y-17287755D01*
X9050785Y-17287755D01*
X9690557Y-15879596D01*
X9843914Y-15541930D01*
X10525133Y-15541930D01*
X10558018Y-15553450D01*
X10756681Y-15570877D01*
X11095234Y-15582872D01*
X11527348Y-15587337D01*
X12529562Y-15587337D01*
X12039611Y-14472843D01*
X11853553Y-14061480D01*
X11683213Y-13709034D01*
X11559041Y-13479194D01*
X11499553Y-13408454D01*
X11458059Y-13480739D01*
X11346284Y-13707734D01*
X11189638Y-14039769D01*
X11010743Y-14427312D01*
X10832223Y-14820832D01*
X10676699Y-15170796D01*
X10566795Y-15427673D01*
X10525133Y-15541930D01*
X9843914Y-15541930D01*
X9924553Y-15364376D01*
X10279665Y-14583316D01*
X10562808Y-13965624D01*
X10784705Y-13492188D01*
X10956075Y-13143899D01*
X11087639Y-12901645D01*
X11190119Y-12746316D01*
X11274234Y-12658802D01*
X11350706Y-12619992D01*
X11430255Y-12610776D01*
X11523602Y-12612042D01*
X11550801Y-12612184D01*
X11653793Y-12621061D01*
X11746326Y-12660692D01*
X11842352Y-12754374D01*
X11955824Y-12925405D01*
X12100693Y-13197084D01*
X12290912Y-13592709D01*
X12540434Y-14135576D01*
X12863209Y-14848985D01*
X13026995Y-15212100D01*
X13195853Y-15587337D01*
X13301711Y-15822574D01*
G37*
G36*
X8293334Y-15137511D02*
G01*
X8293334Y-17307685D01*
X6778899Y-17269096D01*
X6570993Y-17263196D01*
X5881671Y-17229116D01*
X5365018Y-17169477D01*
X4989553Y-17073620D01*
X4723797Y-16930888D01*
X4536269Y-16730623D01*
X4395490Y-16462166D01*
X4328344Y-16243225D01*
X4323776Y-15945282D01*
X4998774Y-15945282D01*
X5035289Y-16196125D01*
X5222198Y-16500782D01*
X5264891Y-16536278D01*
X5424323Y-16621826D01*
X5661903Y-16678844D01*
X6022416Y-16715379D01*
X6550650Y-16739479D01*
X7655677Y-16775722D01*
X7655677Y-15137511D01*
X6610133Y-15179506D01*
X6538801Y-15182539D01*
X5916238Y-15230940D01*
X5476512Y-15319270D01*
X5194063Y-15459673D01*
X5043336Y-15664295D01*
X4998774Y-15945282D01*
X4323776Y-15945282D01*
X4321439Y-15792880D01*
X4472469Y-15386089D01*
X4764047Y-15087692D01*
X4775585Y-15080479D01*
X4981265Y-14951820D01*
X5084922Y-14886841D01*
X5086718Y-14880113D01*
X5014990Y-14776083D01*
X4845800Y-14593816D01*
X4733179Y-14466283D01*
X4607616Y-14202855D01*
X4573669Y-13833781D01*
X4574606Y-13790457D01*
X5220228Y-13790457D01*
X5265937Y-14121745D01*
X5491349Y-14410586D01*
X5510384Y-14425292D01*
X5685912Y-14530134D01*
X5908178Y-14592714D01*
X6232332Y-14622974D01*
X6713524Y-14630852D01*
X7655677Y-14630852D01*
X7655677Y-13117632D01*
X6652075Y-13161527D01*
X6204148Y-13187713D01*
X5832822Y-13232757D01*
X5589913Y-13301594D01*
X5429899Y-13403227D01*
X5357997Y-13478586D01*
X5220228Y-13790457D01*
X4574606Y-13790457D01*
X4575597Y-13744603D01*
X4646217Y-13361646D01*
X4832050Y-13068324D01*
X5151605Y-12855677D01*
X5623396Y-12714746D01*
X6265933Y-12636573D01*
X7097728Y-12612197D01*
X8293334Y-12611605D01*
X8293334Y-13117632D01*
X8293334Y-15137511D01*
G37*
G36*
X26306204Y-15655842D02*
G01*
X26551265Y-16199963D01*
X26749470Y-16642797D01*
X26887054Y-16953636D01*
X26950250Y-17101772D01*
X26971223Y-17178144D01*
X26917757Y-17265756D01*
X26698269Y-17287755D01*
X26553592Y-17277787D01*
X26403527Y-17208171D01*
X26270564Y-17031991D01*
X26108260Y-16703237D01*
X25840658Y-16118718D01*
X23302958Y-16118718D01*
X23065719Y-16703237D01*
X22828480Y-17287755D01*
X21486056Y-17287755D01*
X20833920Y-16384408D01*
X20625401Y-16102032D01*
X20374589Y-15781188D01*
X20185843Y-15562128D01*
X20089024Y-15481061D01*
X20026590Y-15526917D01*
X19857803Y-15713966D01*
X19618943Y-16011827D01*
X19339938Y-16384408D01*
X19317448Y-16415342D01*
X19022559Y-16812233D01*
X18810702Y-17066862D01*
X18646948Y-17210286D01*
X18496370Y-17273564D01*
X18324038Y-17287755D01*
X18286256Y-17287434D01*
X18057792Y-17268547D01*
X17964464Y-17229489D01*
X17964538Y-17228586D01*
X18028820Y-17120985D01*
X18196383Y-16880479D01*
X18442354Y-16541920D01*
X18741861Y-16140159D01*
X19049276Y-15730291D01*
X19313149Y-15374464D01*
X19504707Y-15111738D01*
X19595879Y-14980234D01*
X19589085Y-14896863D01*
X19475626Y-14658576D01*
X19255583Y-14304884D01*
X18945593Y-13864335D01*
X18942027Y-13859493D01*
X18583004Y-13372204D01*
X18336854Y-13031322D01*
X18192454Y-12810907D01*
X18138680Y-12685018D01*
X18164407Y-12627715D01*
X18258510Y-12613058D01*
X18409866Y-12615108D01*
X18550660Y-12626102D01*
X18707932Y-12684512D01*
X18874548Y-12822461D01*
X19087221Y-13072035D01*
X19382661Y-13465317D01*
X19557893Y-13700359D01*
X19803473Y-14015515D01*
X19985929Y-14231732D01*
X20075018Y-14312023D01*
X20118933Y-14278599D01*
X20269632Y-14106915D01*
X20493709Y-13822260D01*
X20761160Y-13461814D01*
X21040100Y-13083434D01*
X21250108Y-12828756D01*
X21413333Y-12686670D01*
X21567147Y-12625010D01*
X21748924Y-12611605D01*
X21762455Y-12611578D01*
X21917607Y-12610952D01*
X22013272Y-12627728D01*
X22038720Y-12687794D01*
X21983222Y-12817038D01*
X21836048Y-13041349D01*
X21586469Y-13386614D01*
X21223754Y-13878723D01*
X20993385Y-14198566D01*
X20723833Y-14608235D01*
X20588160Y-14878188D01*
X20580363Y-15019066D01*
X20674768Y-15157102D01*
X20988516Y-15601127D01*
X21309674Y-16037210D01*
X21612378Y-16432114D01*
X21870763Y-16752607D01*
X22058966Y-16965452D01*
X22151122Y-17037417D01*
X22177973Y-17006966D01*
X22288232Y-16815712D01*
X22464745Y-16472905D01*
X22693799Y-16006201D01*
X22915604Y-15540087D01*
X23597100Y-15540087D01*
X23630724Y-15552184D01*
X23830491Y-15570265D01*
X24169980Y-15582707D01*
X24602947Y-15587337D01*
X25608793Y-15587337D01*
X25411105Y-15135663D01*
X25282667Y-14846236D01*
X25091233Y-14421494D01*
X24895781Y-13993195D01*
X24812080Y-13812298D01*
X24676942Y-13539462D01*
X24591515Y-13424539D01*
X24530620Y-13442443D01*
X24469075Y-13568090D01*
X24449979Y-13613620D01*
X24335207Y-13875694D01*
X24168375Y-14247227D01*
X23978553Y-14663308D01*
X23908211Y-14817088D01*
X23749107Y-15171842D01*
X23638535Y-15428626D01*
X23597100Y-15540087D01*
X22915604Y-15540087D01*
X22961681Y-15443257D01*
X23254678Y-14811729D01*
X23318717Y-14672045D01*
X23628821Y-13998090D01*
X23867394Y-13489910D01*
X24048681Y-13124126D01*
X24186926Y-12877358D01*
X24296374Y-12726225D01*
X24391269Y-12647348D01*
X24485856Y-12617347D01*
X24594380Y-12612842D01*
X24602760Y-12612880D01*
X24711020Y-12619399D01*
X24805922Y-12653453D01*
X24901892Y-12738774D01*
X25013357Y-12899090D01*
X25154742Y-13158134D01*
X25340475Y-13539636D01*
X25584981Y-14067325D01*
X25902687Y-14764934D01*
X26028052Y-15041139D01*
X26275206Y-15587337D01*
X26306204Y-15655842D01*
G37*
%TD*%
M02*
