%TF.GenerationSoftware,KiCad,Pcbnew,(6.0.9)*%
%TF.CreationDate,2022-11-09T13:04:19-08:00*%
%TF.ProjectId,esp32-prog,65737033-322d-4707-926f-672e6b696361,rev?*%
%TF.SameCoordinates,PX8f0d180PY2d4cae0*%
%TF.FileFunction,AssemblyDrawing,Top*%
%FSLAX46Y46*%
G04 Gerber Fmt 4.6, Leading zero omitted, Abs format (unit mm)*
G04 Created by KiCad (PCBNEW (6.0.9)) date 2022-11-09 13:04:19*
%MOMM*%
%LPD*%
G01*
G04 APERTURE LIST*
%ADD10C,0.150000*%
%ADD11C,0.075000*%
%ADD12C,0.120000*%
%ADD13C,0.080000*%
%ADD14C,0.060000*%
%ADD15C,0.040000*%
%ADD16C,0.050000*%
%ADD17C,0.100000*%
G04 APERTURE END LIST*
D10*
%TO.C,J2*%
X50202380Y-15333333D02*
X50916666Y-15333333D01*
X51059523Y-15380952D01*
X51154761Y-15476190D01*
X51202380Y-15619047D01*
X51202380Y-15714285D01*
X50297619Y-14904761D02*
X50250000Y-14857142D01*
X50202380Y-14761904D01*
X50202380Y-14523809D01*
X50250000Y-14428571D01*
X50297619Y-14380952D01*
X50392857Y-14333333D01*
X50488095Y-14333333D01*
X50630952Y-14380952D01*
X51202380Y-14952380D01*
X51202380Y-14333333D01*
D11*
%TO.C,U6*%
X28752790Y-12920352D02*
X29157552Y-12920352D01*
X29205171Y-12896542D01*
X29228980Y-12872733D01*
X29252790Y-12825114D01*
X29252790Y-12729876D01*
X29228980Y-12682257D01*
X29205171Y-12658447D01*
X29157552Y-12634638D01*
X28752790Y-12634638D01*
X28752790Y-12182257D02*
X28752790Y-12277495D01*
X28776600Y-12325114D01*
X28800409Y-12348923D01*
X28871838Y-12396542D01*
X28967076Y-12420352D01*
X29157552Y-12420352D01*
X29205171Y-12396542D01*
X29228980Y-12372733D01*
X29252790Y-12325114D01*
X29252790Y-12229876D01*
X29228980Y-12182257D01*
X29205171Y-12158447D01*
X29157552Y-12134638D01*
X29038504Y-12134638D01*
X28990885Y-12158447D01*
X28967076Y-12182257D01*
X28943266Y-12229876D01*
X28943266Y-12325114D01*
X28967076Y-12372733D01*
X28990885Y-12396542D01*
X29038504Y-12420352D01*
%TO.C,U7*%
X28752790Y-23715352D02*
X29157552Y-23715352D01*
X29205171Y-23691542D01*
X29228980Y-23667733D01*
X29252790Y-23620114D01*
X29252790Y-23524876D01*
X29228980Y-23477257D01*
X29205171Y-23453447D01*
X29157552Y-23429638D01*
X28752790Y-23429638D01*
X28752790Y-23239161D02*
X28752790Y-22905828D01*
X29252790Y-23120114D01*
%TO.C,U5*%
X28752790Y-16476352D02*
X29157552Y-16476352D01*
X29205171Y-16452542D01*
X29228980Y-16428733D01*
X29252790Y-16381114D01*
X29252790Y-16285876D01*
X29228980Y-16238257D01*
X29205171Y-16214447D01*
X29157552Y-16190638D01*
X28752790Y-16190638D01*
X28752790Y-15714447D02*
X28752790Y-15952542D01*
X28990885Y-15976352D01*
X28967076Y-15952542D01*
X28943266Y-15904923D01*
X28943266Y-15785876D01*
X28967076Y-15738257D01*
X28990885Y-15714447D01*
X29038504Y-15690638D01*
X29157552Y-15690638D01*
X29205171Y-15714447D01*
X29228980Y-15738257D01*
X29252790Y-15785876D01*
X29252790Y-15904923D01*
X29228980Y-15952542D01*
X29205171Y-15976352D01*
%TO.C,U4*%
X28752790Y-20032352D02*
X29157552Y-20032352D01*
X29205171Y-20008542D01*
X29228980Y-19984733D01*
X29252790Y-19937114D01*
X29252790Y-19841876D01*
X29228980Y-19794257D01*
X29205171Y-19770447D01*
X29157552Y-19746638D01*
X28752790Y-19746638D01*
X28919457Y-19294257D02*
X29252790Y-19294257D01*
X28728980Y-19413304D02*
X29086123Y-19532352D01*
X29086123Y-19222828D01*
D12*
%TO.C,C5*%
X27614266Y-8653114D02*
X27576171Y-8691209D01*
X27461885Y-8729304D01*
X27385695Y-8729304D01*
X27271409Y-8691209D01*
X27195219Y-8615019D01*
X27157123Y-8538828D01*
X27119028Y-8386447D01*
X27119028Y-8272161D01*
X27157123Y-8119780D01*
X27195219Y-8043590D01*
X27271409Y-7967400D01*
X27385695Y-7929304D01*
X27461885Y-7929304D01*
X27576171Y-7967400D01*
X27614266Y-8005495D01*
X28338076Y-7929304D02*
X27957123Y-7929304D01*
X27919028Y-8310257D01*
X27957123Y-8272161D01*
X28033314Y-8234066D01*
X28223790Y-8234066D01*
X28299980Y-8272161D01*
X28338076Y-8310257D01*
X28376171Y-8386447D01*
X28376171Y-8576923D01*
X28338076Y-8653114D01*
X28299980Y-8691209D01*
X28223790Y-8729304D01*
X28033314Y-8729304D01*
X27957123Y-8691209D01*
X27919028Y-8653114D01*
D13*
%TO.C,L1*%
X7496666Y-11743190D02*
X7258571Y-11743190D01*
X7258571Y-11243190D01*
X7925238Y-11743190D02*
X7639523Y-11743190D01*
X7782380Y-11743190D02*
X7782380Y-11243190D01*
X7734761Y-11314619D01*
X7687142Y-11362238D01*
X7639523Y-11386047D01*
D14*
%TO.C,C1*%
X10844857Y-6529066D02*
X10863904Y-6548114D01*
X10882952Y-6605257D01*
X10882952Y-6643352D01*
X10863904Y-6700495D01*
X10825809Y-6738590D01*
X10787714Y-6757638D01*
X10711523Y-6776685D01*
X10654380Y-6776685D01*
X10578190Y-6757638D01*
X10540095Y-6738590D01*
X10502000Y-6700495D01*
X10482952Y-6643352D01*
X10482952Y-6605257D01*
X10502000Y-6548114D01*
X10521047Y-6529066D01*
X10882952Y-6148114D02*
X10882952Y-6376685D01*
X10882952Y-6262400D02*
X10482952Y-6262400D01*
X10540095Y-6300495D01*
X10578190Y-6338590D01*
X10597238Y-6376685D01*
D15*
%TO.C,R10*%
X40920819Y-14353142D02*
X40797009Y-14439809D01*
X40920819Y-14501714D02*
X40660819Y-14501714D01*
X40660819Y-14402666D01*
X40673200Y-14377904D01*
X40685580Y-14365523D01*
X40710342Y-14353142D01*
X40747485Y-14353142D01*
X40772247Y-14365523D01*
X40784628Y-14377904D01*
X40797009Y-14402666D01*
X40797009Y-14501714D01*
X40920819Y-14105523D02*
X40920819Y-14254095D01*
X40920819Y-14179809D02*
X40660819Y-14179809D01*
X40697961Y-14204571D01*
X40722723Y-14229333D01*
X40735104Y-14254095D01*
X40660819Y-13944571D02*
X40660819Y-13919809D01*
X40673200Y-13895047D01*
X40685580Y-13882666D01*
X40710342Y-13870285D01*
X40759866Y-13857904D01*
X40821771Y-13857904D01*
X40871295Y-13870285D01*
X40896057Y-13882666D01*
X40908438Y-13895047D01*
X40920819Y-13919809D01*
X40920819Y-13944571D01*
X40908438Y-13969333D01*
X40896057Y-13981714D01*
X40871295Y-13994095D01*
X40821771Y-14006476D01*
X40759866Y-14006476D01*
X40710342Y-13994095D01*
X40685580Y-13981714D01*
X40673200Y-13969333D01*
X40660819Y-13944571D01*
D10*
%TO.C,SW1*%
X30014580Y-3627085D02*
X30062200Y-3674704D01*
X30109819Y-3769942D01*
X30109819Y-4008038D01*
X30062200Y-4103276D01*
X30014580Y-4150895D01*
X29919342Y-4198514D01*
X29824104Y-4198514D01*
X29681247Y-4150895D01*
X29109819Y-3579466D01*
X29109819Y-4198514D01*
X31128866Y-5117561D02*
X31271723Y-5165180D01*
X31509819Y-5165180D01*
X31605057Y-5117561D01*
X31652676Y-5069942D01*
X31700295Y-4974704D01*
X31700295Y-4879466D01*
X31652676Y-4784228D01*
X31605057Y-4736609D01*
X31509819Y-4688990D01*
X31319342Y-4641371D01*
X31224104Y-4593752D01*
X31176485Y-4546133D01*
X31128866Y-4450895D01*
X31128866Y-4355657D01*
X31176485Y-4260419D01*
X31224104Y-4212800D01*
X31319342Y-4165180D01*
X31557438Y-4165180D01*
X31700295Y-4212800D01*
X32033628Y-4165180D02*
X32271723Y-5165180D01*
X32462200Y-4450895D01*
X32652676Y-5165180D01*
X32890771Y-4165180D01*
X33795533Y-5165180D02*
X33224104Y-5165180D01*
X33509819Y-5165180D02*
X33509819Y-4165180D01*
X33414580Y-4308038D01*
X33319342Y-4403276D01*
X33224104Y-4450895D01*
X29109819Y-2998514D02*
X29109819Y-2427085D01*
X29109819Y-2712800D02*
X30109819Y-2712800D01*
X29966961Y-2617561D01*
X29871723Y-2522323D01*
X29824104Y-2427085D01*
X34509819Y-1693752D02*
X34509819Y-1884228D01*
X34462200Y-1979466D01*
X34366961Y-2074704D01*
X34176485Y-2122323D01*
X33843152Y-2122323D01*
X33652676Y-2074704D01*
X33557438Y-1979466D01*
X33509819Y-1884228D01*
X33509819Y-1693752D01*
X33557438Y-1598514D01*
X33652676Y-1503276D01*
X33843152Y-1455657D01*
X34176485Y-1455657D01*
X34366961Y-1503276D01*
X34462200Y-1598514D01*
X34509819Y-1693752D01*
X33509819Y-2550895D02*
X34509819Y-2550895D01*
X33509819Y-3122323D01*
X34509819Y-3122323D01*
D15*
%TO.C,R2*%
X37786666Y-3957619D02*
X37700000Y-3833809D01*
X37638095Y-3957619D02*
X37638095Y-3697619D01*
X37737142Y-3697619D01*
X37761904Y-3710000D01*
X37774285Y-3722380D01*
X37786666Y-3747142D01*
X37786666Y-3784285D01*
X37774285Y-3809047D01*
X37761904Y-3821428D01*
X37737142Y-3833809D01*
X37638095Y-3833809D01*
X37885714Y-3722380D02*
X37898095Y-3710000D01*
X37922857Y-3697619D01*
X37984761Y-3697619D01*
X38009523Y-3710000D01*
X38021904Y-3722380D01*
X38034285Y-3747142D01*
X38034285Y-3771904D01*
X38021904Y-3809047D01*
X37873333Y-3957619D01*
X38034285Y-3957619D01*
D14*
%TO.C,C10*%
X32477857Y-22562857D02*
X32458809Y-22581904D01*
X32401666Y-22600952D01*
X32363571Y-22600952D01*
X32306428Y-22581904D01*
X32268333Y-22543809D01*
X32249285Y-22505714D01*
X32230238Y-22429523D01*
X32230238Y-22372380D01*
X32249285Y-22296190D01*
X32268333Y-22258095D01*
X32306428Y-22220000D01*
X32363571Y-22200952D01*
X32401666Y-22200952D01*
X32458809Y-22220000D01*
X32477857Y-22239047D01*
X32858809Y-22600952D02*
X32630238Y-22600952D01*
X32744523Y-22600952D02*
X32744523Y-22200952D01*
X32706428Y-22258095D01*
X32668333Y-22296190D01*
X32630238Y-22315238D01*
X33106428Y-22200952D02*
X33144523Y-22200952D01*
X33182619Y-22220000D01*
X33201666Y-22239047D01*
X33220714Y-22277142D01*
X33239761Y-22353333D01*
X33239761Y-22448571D01*
X33220714Y-22524761D01*
X33201666Y-22562857D01*
X33182619Y-22581904D01*
X33144523Y-22600952D01*
X33106428Y-22600952D01*
X33068333Y-22581904D01*
X33049285Y-22562857D01*
X33030238Y-22524761D01*
X33011190Y-22448571D01*
X33011190Y-22353333D01*
X33030238Y-22277142D01*
X33049285Y-22239047D01*
X33068333Y-22220000D01*
X33106428Y-22200952D01*
D10*
%TO.C,H4*%
X3738095Y-25952380D02*
X3738095Y-24952380D01*
X3738095Y-25428571D02*
X4309523Y-25428571D01*
X4309523Y-25952380D02*
X4309523Y-24952380D01*
X5214285Y-25285714D02*
X5214285Y-25952380D01*
X4976190Y-24904761D02*
X4738095Y-25619047D01*
X5357142Y-25619047D01*
%TO.C,H2*%
X49738095Y-4952380D02*
X49738095Y-3952380D01*
X49738095Y-4428571D02*
X50309523Y-4428571D01*
X50309523Y-4952380D02*
X50309523Y-3952380D01*
X50738095Y-4047619D02*
X50785714Y-4000000D01*
X50880952Y-3952380D01*
X51119047Y-3952380D01*
X51214285Y-4000000D01*
X51261904Y-4047619D01*
X51309523Y-4142857D01*
X51309523Y-4238095D01*
X51261904Y-4380952D01*
X50690476Y-4952380D01*
X51309523Y-4952380D01*
D14*
%TO.C,D3*%
X39962261Y-5752552D02*
X39962261Y-5352552D01*
X40057500Y-5352552D01*
X40114642Y-5371600D01*
X40152738Y-5409695D01*
X40171785Y-5447790D01*
X40190833Y-5523980D01*
X40190833Y-5581123D01*
X40171785Y-5657314D01*
X40152738Y-5695409D01*
X40114642Y-5733504D01*
X40057500Y-5752552D01*
X39962261Y-5752552D01*
X40324166Y-5352552D02*
X40571785Y-5352552D01*
X40438452Y-5504933D01*
X40495595Y-5504933D01*
X40533690Y-5523980D01*
X40552738Y-5543028D01*
X40571785Y-5581123D01*
X40571785Y-5676361D01*
X40552738Y-5714457D01*
X40533690Y-5733504D01*
X40495595Y-5752552D01*
X40381309Y-5752552D01*
X40343214Y-5733504D01*
X40324166Y-5714457D01*
D15*
%TO.C,R4*%
X37736666Y-5217619D02*
X37650000Y-5093809D01*
X37588095Y-5217619D02*
X37588095Y-4957619D01*
X37687142Y-4957619D01*
X37711904Y-4970000D01*
X37724285Y-4982380D01*
X37736666Y-5007142D01*
X37736666Y-5044285D01*
X37724285Y-5069047D01*
X37711904Y-5081428D01*
X37687142Y-5093809D01*
X37588095Y-5093809D01*
X37959523Y-5044285D02*
X37959523Y-5217619D01*
X37897619Y-4945238D02*
X37835714Y-5130952D01*
X37996666Y-5130952D01*
%TO.C,R12*%
X40895419Y-16283542D02*
X40771609Y-16370209D01*
X40895419Y-16432114D02*
X40635419Y-16432114D01*
X40635419Y-16333066D01*
X40647800Y-16308304D01*
X40660180Y-16295923D01*
X40684942Y-16283542D01*
X40722085Y-16283542D01*
X40746847Y-16295923D01*
X40759228Y-16308304D01*
X40771609Y-16333066D01*
X40771609Y-16432114D01*
X40895419Y-16035923D02*
X40895419Y-16184495D01*
X40895419Y-16110209D02*
X40635419Y-16110209D01*
X40672561Y-16134971D01*
X40697323Y-16159733D01*
X40709704Y-16184495D01*
X40660180Y-15936876D02*
X40647800Y-15924495D01*
X40635419Y-15899733D01*
X40635419Y-15837828D01*
X40647800Y-15813066D01*
X40660180Y-15800685D01*
X40684942Y-15788304D01*
X40709704Y-15788304D01*
X40746847Y-15800685D01*
X40895419Y-15949257D01*
X40895419Y-15788304D01*
%TO.C,R9*%
X25935266Y-11641019D02*
X25848600Y-11517209D01*
X25786695Y-11641019D02*
X25786695Y-11381019D01*
X25885742Y-11381019D01*
X25910504Y-11393400D01*
X25922885Y-11405780D01*
X25935266Y-11430542D01*
X25935266Y-11467685D01*
X25922885Y-11492447D01*
X25910504Y-11504828D01*
X25885742Y-11517209D01*
X25786695Y-11517209D01*
X26059076Y-11641019D02*
X26108600Y-11641019D01*
X26133361Y-11628638D01*
X26145742Y-11616257D01*
X26170504Y-11579114D01*
X26182885Y-11529590D01*
X26182885Y-11430542D01*
X26170504Y-11405780D01*
X26158123Y-11393400D01*
X26133361Y-11381019D01*
X26083838Y-11381019D01*
X26059076Y-11393400D01*
X26046695Y-11405780D01*
X26034314Y-11430542D01*
X26034314Y-11492447D01*
X26046695Y-11517209D01*
X26059076Y-11529590D01*
X26083838Y-11541971D01*
X26133361Y-11541971D01*
X26158123Y-11529590D01*
X26170504Y-11517209D01*
X26182885Y-11492447D01*
%TO.C,R6*%
X25935266Y-22436019D02*
X25848600Y-22312209D01*
X25786695Y-22436019D02*
X25786695Y-22176019D01*
X25885742Y-22176019D01*
X25910504Y-22188400D01*
X25922885Y-22200780D01*
X25935266Y-22225542D01*
X25935266Y-22262685D01*
X25922885Y-22287447D01*
X25910504Y-22299828D01*
X25885742Y-22312209D01*
X25786695Y-22312209D01*
X26158123Y-22176019D02*
X26108600Y-22176019D01*
X26083838Y-22188400D01*
X26071457Y-22200780D01*
X26046695Y-22237923D01*
X26034314Y-22287447D01*
X26034314Y-22386495D01*
X26046695Y-22411257D01*
X26059076Y-22423638D01*
X26083838Y-22436019D01*
X26133361Y-22436019D01*
X26158123Y-22423638D01*
X26170504Y-22411257D01*
X26182885Y-22386495D01*
X26182885Y-22324590D01*
X26170504Y-22299828D01*
X26158123Y-22287447D01*
X26133361Y-22275066D01*
X26083838Y-22275066D01*
X26059076Y-22287447D01*
X26046695Y-22299828D01*
X26034314Y-22324590D01*
D10*
%TO.C,H3*%
X49738095Y-25952380D02*
X49738095Y-24952380D01*
X49738095Y-25428571D02*
X50309523Y-25428571D01*
X50309523Y-25952380D02*
X50309523Y-24952380D01*
X50690476Y-24952380D02*
X51309523Y-24952380D01*
X50976190Y-25333333D01*
X51119047Y-25333333D01*
X51214285Y-25380952D01*
X51261904Y-25428571D01*
X51309523Y-25523809D01*
X51309523Y-25761904D01*
X51261904Y-25857142D01*
X51214285Y-25904761D01*
X51119047Y-25952380D01*
X50833333Y-25952380D01*
X50738095Y-25904761D01*
X50690476Y-25857142D01*
D15*
%TO.C,R7*%
X25935266Y-18753019D02*
X25848600Y-18629209D01*
X25786695Y-18753019D02*
X25786695Y-18493019D01*
X25885742Y-18493019D01*
X25910504Y-18505400D01*
X25922885Y-18517780D01*
X25935266Y-18542542D01*
X25935266Y-18579685D01*
X25922885Y-18604447D01*
X25910504Y-18616828D01*
X25885742Y-18629209D01*
X25786695Y-18629209D01*
X26021933Y-18493019D02*
X26195266Y-18493019D01*
X26083838Y-18753019D01*
D10*
%TO.C,J1*%
X2256380Y-15333333D02*
X2970666Y-15333333D01*
X3113523Y-15380952D01*
X3208761Y-15476190D01*
X3256380Y-15619047D01*
X3256380Y-15714285D01*
X3256380Y-14333333D02*
X3256380Y-14904761D01*
X3256380Y-14619047D02*
X2256380Y-14619047D01*
X2399238Y-14714285D01*
X2494476Y-14809523D01*
X2542095Y-14904761D01*
D14*
%TO.C,C7*%
X32617533Y-11742457D02*
X32598485Y-11761504D01*
X32541342Y-11780552D01*
X32503247Y-11780552D01*
X32446104Y-11761504D01*
X32408009Y-11723409D01*
X32388961Y-11685314D01*
X32369914Y-11609123D01*
X32369914Y-11551980D01*
X32388961Y-11475790D01*
X32408009Y-11437695D01*
X32446104Y-11399600D01*
X32503247Y-11380552D01*
X32541342Y-11380552D01*
X32598485Y-11399600D01*
X32617533Y-11418647D01*
X32750866Y-11380552D02*
X33017533Y-11380552D01*
X32846104Y-11780552D01*
D12*
%TO.C,C2*%
X24322714Y-5782933D02*
X24360809Y-5821028D01*
X24398904Y-5935314D01*
X24398904Y-6011504D01*
X24360809Y-6125790D01*
X24284619Y-6201980D01*
X24208428Y-6240076D01*
X24056047Y-6278171D01*
X23941761Y-6278171D01*
X23789380Y-6240076D01*
X23713190Y-6201980D01*
X23637000Y-6125790D01*
X23598904Y-6011504D01*
X23598904Y-5935314D01*
X23637000Y-5821028D01*
X23675095Y-5782933D01*
X23675095Y-5478171D02*
X23637000Y-5440076D01*
X23598904Y-5363885D01*
X23598904Y-5173409D01*
X23637000Y-5097219D01*
X23675095Y-5059123D01*
X23751285Y-5021028D01*
X23827476Y-5021028D01*
X23941761Y-5059123D01*
X24398904Y-5516266D01*
X24398904Y-5021028D01*
D15*
%TO.C,R11*%
X45442019Y-14353142D02*
X45318209Y-14439809D01*
X45442019Y-14501714D02*
X45182019Y-14501714D01*
X45182019Y-14402666D01*
X45194400Y-14377904D01*
X45206780Y-14365523D01*
X45231542Y-14353142D01*
X45268685Y-14353142D01*
X45293447Y-14365523D01*
X45305828Y-14377904D01*
X45318209Y-14402666D01*
X45318209Y-14501714D01*
X45442019Y-14105523D02*
X45442019Y-14254095D01*
X45442019Y-14179809D02*
X45182019Y-14179809D01*
X45219161Y-14204571D01*
X45243923Y-14229333D01*
X45256304Y-14254095D01*
X45442019Y-13857904D02*
X45442019Y-14006476D01*
X45442019Y-13932190D02*
X45182019Y-13932190D01*
X45219161Y-13956952D01*
X45243923Y-13981714D01*
X45256304Y-14006476D01*
D16*
%TO.C,Q2*%
X43239038Y-17137476D02*
X43223800Y-17167952D01*
X43193323Y-17198428D01*
X43147609Y-17244142D01*
X43132371Y-17274619D01*
X43132371Y-17305095D01*
X43208561Y-17289857D02*
X43193323Y-17320333D01*
X43162847Y-17350809D01*
X43101895Y-17366047D01*
X42995228Y-17366047D01*
X42934276Y-17350809D01*
X42903800Y-17320333D01*
X42888561Y-17289857D01*
X42888561Y-17228904D01*
X42903800Y-17198428D01*
X42934276Y-17167952D01*
X42995228Y-17152714D01*
X43101895Y-17152714D01*
X43162847Y-17167952D01*
X43193323Y-17198428D01*
X43208561Y-17228904D01*
X43208561Y-17289857D01*
X42919038Y-17030809D02*
X42903800Y-17015571D01*
X42888561Y-16985095D01*
X42888561Y-16908904D01*
X42903800Y-16878428D01*
X42919038Y-16863190D01*
X42949514Y-16847952D01*
X42979990Y-16847952D01*
X43025704Y-16863190D01*
X43208561Y-17046047D01*
X43208561Y-16847952D01*
D14*
%TO.C,C9*%
X32642933Y-18854457D02*
X32623885Y-18873504D01*
X32566742Y-18892552D01*
X32528647Y-18892552D01*
X32471504Y-18873504D01*
X32433409Y-18835409D01*
X32414361Y-18797314D01*
X32395314Y-18721123D01*
X32395314Y-18663980D01*
X32414361Y-18587790D01*
X32433409Y-18549695D01*
X32471504Y-18511600D01*
X32528647Y-18492552D01*
X32566742Y-18492552D01*
X32623885Y-18511600D01*
X32642933Y-18530647D01*
X32833409Y-18892552D02*
X32909600Y-18892552D01*
X32947695Y-18873504D01*
X32966742Y-18854457D01*
X33004838Y-18797314D01*
X33023885Y-18721123D01*
X33023885Y-18568742D01*
X33004838Y-18530647D01*
X32985790Y-18511600D01*
X32947695Y-18492552D01*
X32871504Y-18492552D01*
X32833409Y-18511600D01*
X32814361Y-18530647D01*
X32795314Y-18568742D01*
X32795314Y-18663980D01*
X32814361Y-18702076D01*
X32833409Y-18721123D01*
X32871504Y-18740171D01*
X32947695Y-18740171D01*
X32985790Y-18721123D01*
X33004838Y-18702076D01*
X33023885Y-18663980D01*
D16*
%TO.C,Q1*%
X43239038Y-13225876D02*
X43223800Y-13256352D01*
X43193323Y-13286828D01*
X43147609Y-13332542D01*
X43132371Y-13363019D01*
X43132371Y-13393495D01*
X43208561Y-13378257D02*
X43193323Y-13408733D01*
X43162847Y-13439209D01*
X43101895Y-13454447D01*
X42995228Y-13454447D01*
X42934276Y-13439209D01*
X42903800Y-13408733D01*
X42888561Y-13378257D01*
X42888561Y-13317304D01*
X42903800Y-13286828D01*
X42934276Y-13256352D01*
X42995228Y-13241114D01*
X43101895Y-13241114D01*
X43162847Y-13256352D01*
X43193323Y-13286828D01*
X43208561Y-13317304D01*
X43208561Y-13378257D01*
X43208561Y-12936352D02*
X43208561Y-13119209D01*
X43208561Y-13027780D02*
X42888561Y-13027780D01*
X42934276Y-13058257D01*
X42964752Y-13088733D01*
X42979990Y-13119209D01*
D12*
%TO.C,U1*%
X15521704Y-4938323D02*
X16169323Y-4938323D01*
X16245514Y-4900228D01*
X16283609Y-4862133D01*
X16321704Y-4785942D01*
X16321704Y-4633561D01*
X16283609Y-4557371D01*
X16245514Y-4519276D01*
X16169323Y-4481180D01*
X15521704Y-4481180D01*
X16321704Y-3681180D02*
X16321704Y-4138323D01*
X16321704Y-3909752D02*
X15521704Y-3909752D01*
X15635990Y-3985942D01*
X15712180Y-4062133D01*
X15750276Y-4138323D01*
D14*
%TO.C,D2*%
X40014761Y-2520952D02*
X40014761Y-2120952D01*
X40110000Y-2120952D01*
X40167142Y-2140000D01*
X40205238Y-2178095D01*
X40224285Y-2216190D01*
X40243333Y-2292380D01*
X40243333Y-2349523D01*
X40224285Y-2425714D01*
X40205238Y-2463809D01*
X40167142Y-2501904D01*
X40110000Y-2520952D01*
X40014761Y-2520952D01*
X40395714Y-2159047D02*
X40414761Y-2140000D01*
X40452857Y-2120952D01*
X40548095Y-2120952D01*
X40586190Y-2140000D01*
X40605238Y-2159047D01*
X40624285Y-2197142D01*
X40624285Y-2235238D01*
X40605238Y-2292380D01*
X40376666Y-2520952D01*
X40624285Y-2520952D01*
D15*
%TO.C,R3*%
X37786666Y-2447619D02*
X37700000Y-2323809D01*
X37638095Y-2447619D02*
X37638095Y-2187619D01*
X37737142Y-2187619D01*
X37761904Y-2200000D01*
X37774285Y-2212380D01*
X37786666Y-2237142D01*
X37786666Y-2274285D01*
X37774285Y-2299047D01*
X37761904Y-2311428D01*
X37737142Y-2323809D01*
X37638095Y-2323809D01*
X37873333Y-2187619D02*
X38034285Y-2187619D01*
X37947619Y-2286666D01*
X37984761Y-2286666D01*
X38009523Y-2299047D01*
X38021904Y-2311428D01*
X38034285Y-2336190D01*
X38034285Y-2398095D01*
X38021904Y-2422857D01*
X38009523Y-2435238D01*
X37984761Y-2447619D01*
X37910476Y-2447619D01*
X37885714Y-2435238D01*
X37873333Y-2422857D01*
%TO.C,R5*%
X12876666Y-9917619D02*
X12790000Y-9793809D01*
X12728095Y-9917619D02*
X12728095Y-9657619D01*
X12827142Y-9657619D01*
X12851904Y-9670000D01*
X12864285Y-9682380D01*
X12876666Y-9707142D01*
X12876666Y-9744285D01*
X12864285Y-9769047D01*
X12851904Y-9781428D01*
X12827142Y-9793809D01*
X12728095Y-9793809D01*
X13111904Y-9657619D02*
X12988095Y-9657619D01*
X12975714Y-9781428D01*
X12988095Y-9769047D01*
X13012857Y-9756666D01*
X13074761Y-9756666D01*
X13099523Y-9769047D01*
X13111904Y-9781428D01*
X13124285Y-9806190D01*
X13124285Y-9868095D01*
X13111904Y-9892857D01*
X13099523Y-9905238D01*
X13074761Y-9917619D01*
X13012857Y-9917619D01*
X12988095Y-9905238D01*
X12975714Y-9892857D01*
D12*
%TO.C,C3*%
X21909714Y-5782933D02*
X21947809Y-5821028D01*
X21985904Y-5935314D01*
X21985904Y-6011504D01*
X21947809Y-6125790D01*
X21871619Y-6201980D01*
X21795428Y-6240076D01*
X21643047Y-6278171D01*
X21528761Y-6278171D01*
X21376380Y-6240076D01*
X21300190Y-6201980D01*
X21224000Y-6125790D01*
X21185904Y-6011504D01*
X21185904Y-5935314D01*
X21224000Y-5821028D01*
X21262095Y-5782933D01*
X21185904Y-5516266D02*
X21185904Y-5021028D01*
X21490666Y-5287695D01*
X21490666Y-5173409D01*
X21528761Y-5097219D01*
X21566857Y-5059123D01*
X21643047Y-5021028D01*
X21833523Y-5021028D01*
X21909714Y-5059123D01*
X21947809Y-5097219D01*
X21985904Y-5173409D01*
X21985904Y-5401980D01*
X21947809Y-5478171D01*
X21909714Y-5516266D01*
D14*
%TO.C,C8*%
X32617533Y-15298457D02*
X32598485Y-15317504D01*
X32541342Y-15336552D01*
X32503247Y-15336552D01*
X32446104Y-15317504D01*
X32408009Y-15279409D01*
X32388961Y-15241314D01*
X32369914Y-15165123D01*
X32369914Y-15107980D01*
X32388961Y-15031790D01*
X32408009Y-14993695D01*
X32446104Y-14955600D01*
X32503247Y-14936552D01*
X32541342Y-14936552D01*
X32598485Y-14955600D01*
X32617533Y-14974647D01*
X32846104Y-15107980D02*
X32808009Y-15088933D01*
X32788961Y-15069885D01*
X32769914Y-15031790D01*
X32769914Y-15012742D01*
X32788961Y-14974647D01*
X32808009Y-14955600D01*
X32846104Y-14936552D01*
X32922295Y-14936552D01*
X32960390Y-14955600D01*
X32979438Y-14974647D01*
X32998485Y-15012742D01*
X32998485Y-15031790D01*
X32979438Y-15069885D01*
X32960390Y-15088933D01*
X32922295Y-15107980D01*
X32846104Y-15107980D01*
X32808009Y-15127028D01*
X32788961Y-15146076D01*
X32769914Y-15184171D01*
X32769914Y-15260361D01*
X32788961Y-15298457D01*
X32808009Y-15317504D01*
X32846104Y-15336552D01*
X32922295Y-15336552D01*
X32960390Y-15317504D01*
X32979438Y-15298457D01*
X32998485Y-15260361D01*
X32998485Y-15184171D01*
X32979438Y-15146076D01*
X32960390Y-15127028D01*
X32922295Y-15107980D01*
D10*
%TO.C,U3*%
X17780733Y-12910733D02*
X17780733Y-13704066D01*
X17827400Y-13797400D01*
X17874066Y-13844066D01*
X17967400Y-13890733D01*
X18154066Y-13890733D01*
X18247400Y-13844066D01*
X18294066Y-13797400D01*
X18340733Y-13704066D01*
X18340733Y-12910733D01*
X18714066Y-12910733D02*
X19320733Y-12910733D01*
X18994066Y-13284066D01*
X19134066Y-13284066D01*
X19227400Y-13330733D01*
X19274066Y-13377400D01*
X19320733Y-13470733D01*
X19320733Y-13704066D01*
X19274066Y-13797400D01*
X19227400Y-13844066D01*
X19134066Y-13890733D01*
X18854066Y-13890733D01*
X18760733Y-13844066D01*
X18714066Y-13797400D01*
D14*
%TO.C,C6*%
X23782333Y-8891257D02*
X23763285Y-8910304D01*
X23706142Y-8929352D01*
X23668047Y-8929352D01*
X23610904Y-8910304D01*
X23572809Y-8872209D01*
X23553761Y-8834114D01*
X23534714Y-8757923D01*
X23534714Y-8700780D01*
X23553761Y-8624590D01*
X23572809Y-8586495D01*
X23610904Y-8548400D01*
X23668047Y-8529352D01*
X23706142Y-8529352D01*
X23763285Y-8548400D01*
X23782333Y-8567447D01*
X24125190Y-8529352D02*
X24049000Y-8529352D01*
X24010904Y-8548400D01*
X23991857Y-8567447D01*
X23953761Y-8624590D01*
X23934714Y-8700780D01*
X23934714Y-8853161D01*
X23953761Y-8891257D01*
X23972809Y-8910304D01*
X24010904Y-8929352D01*
X24087095Y-8929352D01*
X24125190Y-8910304D01*
X24144238Y-8891257D01*
X24163285Y-8853161D01*
X24163285Y-8757923D01*
X24144238Y-8719828D01*
X24125190Y-8700780D01*
X24087095Y-8681733D01*
X24010904Y-8681733D01*
X23972809Y-8700780D01*
X23953761Y-8719828D01*
X23934714Y-8757923D01*
%TO.C,U2*%
X7233952Y-14996761D02*
X7557761Y-14996761D01*
X7595857Y-14977714D01*
X7614904Y-14958666D01*
X7633952Y-14920571D01*
X7633952Y-14844380D01*
X7614904Y-14806285D01*
X7595857Y-14787238D01*
X7557761Y-14768190D01*
X7233952Y-14768190D01*
X7272047Y-14596761D02*
X7253000Y-14577714D01*
X7233952Y-14539619D01*
X7233952Y-14444380D01*
X7253000Y-14406285D01*
X7272047Y-14387238D01*
X7310142Y-14368190D01*
X7348238Y-14368190D01*
X7405380Y-14387238D01*
X7633952Y-14615809D01*
X7633952Y-14368190D01*
D15*
%TO.C,R1*%
X23284666Y-10237619D02*
X23198000Y-10113809D01*
X23136095Y-10237619D02*
X23136095Y-9977619D01*
X23235142Y-9977619D01*
X23259904Y-9990000D01*
X23272285Y-10002380D01*
X23284666Y-10027142D01*
X23284666Y-10064285D01*
X23272285Y-10089047D01*
X23259904Y-10101428D01*
X23235142Y-10113809D01*
X23136095Y-10113809D01*
X23532285Y-10237619D02*
X23383714Y-10237619D01*
X23458000Y-10237619D02*
X23458000Y-9977619D01*
X23433238Y-10014761D01*
X23408476Y-10039523D01*
X23383714Y-10051904D01*
D14*
%TO.C,D1*%
X40014761Y-4110952D02*
X40014761Y-3710952D01*
X40110000Y-3710952D01*
X40167142Y-3730000D01*
X40205238Y-3768095D01*
X40224285Y-3806190D01*
X40243333Y-3882380D01*
X40243333Y-3939523D01*
X40224285Y-4015714D01*
X40205238Y-4053809D01*
X40167142Y-4091904D01*
X40110000Y-4110952D01*
X40014761Y-4110952D01*
X40624285Y-4110952D02*
X40395714Y-4110952D01*
X40510000Y-4110952D02*
X40510000Y-3710952D01*
X40471904Y-3768095D01*
X40433809Y-3806190D01*
X40395714Y-3825238D01*
%TO.C,C4*%
X13177533Y-12675857D02*
X13158485Y-12694904D01*
X13101342Y-12713952D01*
X13063247Y-12713952D01*
X13006104Y-12694904D01*
X12968009Y-12656809D01*
X12948961Y-12618714D01*
X12929914Y-12542523D01*
X12929914Y-12485380D01*
X12948961Y-12409190D01*
X12968009Y-12371095D01*
X13006104Y-12333000D01*
X13063247Y-12313952D01*
X13101342Y-12313952D01*
X13158485Y-12333000D01*
X13177533Y-12352047D01*
X13520390Y-12447285D02*
X13520390Y-12713952D01*
X13425152Y-12294904D02*
X13329914Y-12580619D01*
X13577533Y-12580619D01*
D15*
%TO.C,R13*%
X45442019Y-16306942D02*
X45318209Y-16393609D01*
X45442019Y-16455514D02*
X45182019Y-16455514D01*
X45182019Y-16356466D01*
X45194400Y-16331704D01*
X45206780Y-16319323D01*
X45231542Y-16306942D01*
X45268685Y-16306942D01*
X45293447Y-16319323D01*
X45305828Y-16331704D01*
X45318209Y-16356466D01*
X45318209Y-16455514D01*
X45442019Y-16059323D02*
X45442019Y-16207895D01*
X45442019Y-16133609D02*
X45182019Y-16133609D01*
X45219161Y-16158371D01*
X45243923Y-16183133D01*
X45256304Y-16207895D01*
X45182019Y-15972657D02*
X45182019Y-15811704D01*
X45281066Y-15898371D01*
X45281066Y-15861228D01*
X45293447Y-15836466D01*
X45305828Y-15824085D01*
X45330590Y-15811704D01*
X45392495Y-15811704D01*
X45417257Y-15824085D01*
X45429638Y-15836466D01*
X45442019Y-15861228D01*
X45442019Y-15935514D01*
X45429638Y-15960276D01*
X45417257Y-15972657D01*
%TO.C,R8*%
X25935266Y-15197019D02*
X25848600Y-15073209D01*
X25786695Y-15197019D02*
X25786695Y-14937019D01*
X25885742Y-14937019D01*
X25910504Y-14949400D01*
X25922885Y-14961780D01*
X25935266Y-14986542D01*
X25935266Y-15023685D01*
X25922885Y-15048447D01*
X25910504Y-15060828D01*
X25885742Y-15073209D01*
X25786695Y-15073209D01*
X26083838Y-15048447D02*
X26059076Y-15036066D01*
X26046695Y-15023685D01*
X26034314Y-14998923D01*
X26034314Y-14986542D01*
X26046695Y-14961780D01*
X26059076Y-14949400D01*
X26083838Y-14937019D01*
X26133361Y-14937019D01*
X26158123Y-14949400D01*
X26170504Y-14961780D01*
X26182885Y-14986542D01*
X26182885Y-14998923D01*
X26170504Y-15023685D01*
X26158123Y-15036066D01*
X26133361Y-15048447D01*
X26083838Y-15048447D01*
X26059076Y-15060828D01*
X26046695Y-15073209D01*
X26034314Y-15097971D01*
X26034314Y-15147495D01*
X26046695Y-15172257D01*
X26059076Y-15184638D01*
X26083838Y-15197019D01*
X26133361Y-15197019D01*
X26158123Y-15184638D01*
X26170504Y-15172257D01*
X26182885Y-15147495D01*
X26182885Y-15097971D01*
X26170504Y-15073209D01*
X26158123Y-15060828D01*
X26133361Y-15048447D01*
D10*
%TO.C,H1*%
X3738095Y-4952380D02*
X3738095Y-3952380D01*
X3738095Y-4428571D02*
X4309523Y-4428571D01*
X4309523Y-4952380D02*
X4309523Y-3952380D01*
X5309523Y-4952380D02*
X4738095Y-4952380D01*
X5023809Y-4952380D02*
X5023809Y-3952380D01*
X4928571Y-4095238D01*
X4833333Y-4190476D01*
X4738095Y-4238095D01*
D17*
%TO.C,J2*%
X52455000Y-17322500D02*
X51602500Y-18175000D01*
X49045000Y-11825000D02*
X52455000Y-11825000D01*
X49045000Y-18175000D02*
X49045000Y-11825000D01*
X51602500Y-18175000D02*
X49045000Y-18175000D01*
X52455000Y-11825000D02*
X52455000Y-17322500D01*
%TO.C,U6*%
X29701600Y-11439400D02*
X29701600Y-13639400D01*
X28851600Y-11439400D02*
X28351600Y-11939400D01*
X29701600Y-11439400D02*
X28851600Y-11439400D01*
X29701600Y-13639400D02*
X28351600Y-13639400D01*
X28351600Y-11939400D02*
X28351600Y-13639400D01*
%TO.C,U7*%
X29701600Y-22234400D02*
X29701600Y-24434400D01*
X28851600Y-22234400D02*
X28351600Y-22734400D01*
X29701600Y-22234400D02*
X28851600Y-22234400D01*
X29701600Y-24434400D02*
X28351600Y-24434400D01*
X28351600Y-22734400D02*
X28351600Y-24434400D01*
%TO.C,U5*%
X29701600Y-14995400D02*
X29701600Y-17195400D01*
X28851600Y-14995400D02*
X28351600Y-15495400D01*
X29701600Y-14995400D02*
X28851600Y-14995400D01*
X29701600Y-17195400D02*
X28351600Y-17195400D01*
X28351600Y-15495400D02*
X28351600Y-17195400D01*
%TO.C,U4*%
X29701600Y-18551400D02*
X29701600Y-20751400D01*
X28851600Y-18551400D02*
X28351600Y-19051400D01*
X29701600Y-18551400D02*
X28851600Y-18551400D01*
X29701600Y-20751400D02*
X28351600Y-20751400D01*
X28351600Y-19051400D02*
X28351600Y-20751400D01*
%TO.C,C5*%
X26147600Y-9167400D02*
X26147600Y-7567400D01*
X29347600Y-7567400D02*
X29347600Y-9167400D01*
X26147600Y-7567400D02*
X29347600Y-7567400D01*
X29347600Y-9167400D02*
X26147600Y-9167400D01*
%TO.C,L1*%
X8580000Y-10917000D02*
X8580000Y-12117000D01*
X8580000Y-12117000D02*
X6580000Y-12117000D01*
X6580000Y-12117000D02*
X6580000Y-10917000D01*
X6580000Y-10917000D02*
X8580000Y-10917000D01*
%TO.C,C1*%
X11102000Y-7262400D02*
X10302000Y-7262400D01*
X10302000Y-7262400D02*
X10302000Y-5662400D01*
X10302000Y-5662400D02*
X11102000Y-5662400D01*
X11102000Y-5662400D02*
X11102000Y-7262400D01*
%TO.C,R10*%
X41073200Y-14711000D02*
X40533200Y-14711000D01*
X40533200Y-14711000D02*
X40533200Y-13661000D01*
X41073200Y-13661000D02*
X41073200Y-14711000D01*
X40533200Y-13661000D02*
X41073200Y-13661000D01*
%TO.C,R2*%
X37305000Y-4110000D02*
X37305000Y-3570000D01*
X38355000Y-3570000D02*
X38355000Y-4110000D01*
X38355000Y-4110000D02*
X37305000Y-4110000D01*
X37305000Y-3570000D02*
X38355000Y-3570000D01*
%TO.C,C10*%
X31935000Y-22820000D02*
X31935000Y-22020000D01*
X33535000Y-22820000D02*
X31935000Y-22820000D01*
X31935000Y-22020000D02*
X33535000Y-22020000D01*
X33535000Y-22020000D02*
X33535000Y-22820000D01*
%TO.C,D3*%
X41057500Y-5671600D02*
X41057500Y-5171600D01*
X41057500Y-5171600D02*
X39457500Y-5171600D01*
X40757500Y-5971600D02*
X41057500Y-5671600D01*
X39457500Y-5971600D02*
X40757500Y-5971600D01*
X39457500Y-5171600D02*
X39457500Y-5971600D01*
%TO.C,R4*%
X37255000Y-4830000D02*
X38305000Y-4830000D01*
X38305000Y-4830000D02*
X38305000Y-5370000D01*
X37255000Y-5370000D02*
X37255000Y-4830000D01*
X38305000Y-5370000D02*
X37255000Y-5370000D01*
%TO.C,R12*%
X40507800Y-15591400D02*
X41047800Y-15591400D01*
X41047800Y-15591400D02*
X41047800Y-16641400D01*
X41047800Y-16641400D02*
X40507800Y-16641400D01*
X40507800Y-16641400D02*
X40507800Y-15591400D01*
%TO.C,R9*%
X25453600Y-11253400D02*
X26503600Y-11253400D01*
X25453600Y-11793400D02*
X25453600Y-11253400D01*
X26503600Y-11793400D02*
X25453600Y-11793400D01*
X26503600Y-11253400D02*
X26503600Y-11793400D01*
%TO.C,R6*%
X26503600Y-22588400D02*
X25453600Y-22588400D01*
X25453600Y-22588400D02*
X25453600Y-22048400D01*
X26503600Y-22048400D02*
X26503600Y-22588400D01*
X25453600Y-22048400D02*
X26503600Y-22048400D01*
%TO.C,R7*%
X25453600Y-18365400D02*
X26503600Y-18365400D01*
X25453600Y-18905400D02*
X25453600Y-18365400D01*
X26503600Y-18905400D02*
X25453600Y-18905400D01*
X26503600Y-18365400D02*
X26503600Y-18905400D01*
%TO.C,J1*%
X-696000Y-11350000D02*
X3304000Y-11350000D01*
X4304000Y-12350000D02*
X4304000Y-18650000D01*
X4304000Y-18650000D02*
X-696000Y-18650000D01*
X-696000Y-18650000D02*
X-696000Y-11350000D01*
X3304000Y-11350000D02*
X4304000Y-12350000D01*
%TO.C,C7*%
X33484200Y-11999600D02*
X31884200Y-11999600D01*
X31884200Y-11199600D02*
X33484200Y-11199600D01*
X33484200Y-11199600D02*
X33484200Y-11999600D01*
X31884200Y-11999600D02*
X31884200Y-11199600D01*
%TO.C,C2*%
X24837000Y-7249600D02*
X23237000Y-7249600D01*
X23237000Y-7249600D02*
X23237000Y-4049600D01*
X23237000Y-4049600D02*
X24837000Y-4049600D01*
X24837000Y-4049600D02*
X24837000Y-7249600D01*
%TO.C,R11*%
X45594400Y-13661000D02*
X45594400Y-14711000D01*
X45594400Y-14711000D02*
X45054400Y-14711000D01*
X45054400Y-14711000D02*
X45054400Y-13661000D01*
X45054400Y-13661000D02*
X45594400Y-13661000D01*
%TO.C,Q2*%
X44513800Y-17757000D02*
X41613800Y-17757000D01*
X41613800Y-16457000D02*
X44188800Y-16457000D01*
X44513800Y-16782000D02*
X44513800Y-17757000D01*
X44188800Y-16457000D02*
X44513800Y-16782000D01*
X41613800Y-17757000D02*
X41613800Y-16457000D01*
%TO.C,C9*%
X31909600Y-18311600D02*
X33509600Y-18311600D01*
X33509600Y-19111600D02*
X31909600Y-19111600D01*
X33509600Y-18311600D02*
X33509600Y-19111600D01*
X31909600Y-19111600D02*
X31909600Y-18311600D01*
%TO.C,Q1*%
X44513800Y-13845400D02*
X41938800Y-13845400D01*
X41613800Y-13520400D02*
X41613800Y-12545400D01*
X41938800Y-13845400D02*
X41613800Y-13520400D01*
X41613800Y-12545400D02*
X44513800Y-12545400D01*
X44513800Y-12545400D02*
X44513800Y-13845400D01*
%TO.C,U1*%
X17809800Y-978800D02*
X17809800Y-7678800D01*
X14109800Y-1978800D02*
X15109800Y-978800D01*
X15109800Y-978800D02*
X17809800Y-978800D01*
X14109800Y-7678800D02*
X17809800Y-7678800D01*
X14109800Y-1978800D02*
X14109800Y-7678800D01*
%TO.C,D2*%
X39510000Y-1940000D02*
X39510000Y-2740000D01*
X40810000Y-2740000D02*
X41110000Y-2440000D01*
X41110000Y-2440000D02*
X41110000Y-1940000D01*
X39510000Y-2740000D02*
X40810000Y-2740000D01*
X41110000Y-1940000D02*
X39510000Y-1940000D01*
%TO.C,R3*%
X37305000Y-2600000D02*
X37305000Y-2060000D01*
X38355000Y-2060000D02*
X38355000Y-2600000D01*
X38355000Y-2600000D02*
X37305000Y-2600000D01*
X37305000Y-2060000D02*
X38355000Y-2060000D01*
%TO.C,R5*%
X12395000Y-10070000D02*
X12395000Y-9530000D01*
X13445000Y-9530000D02*
X13445000Y-10070000D01*
X13445000Y-10070000D02*
X12395000Y-10070000D01*
X12395000Y-9530000D02*
X13445000Y-9530000D01*
%TO.C,C3*%
X22424000Y-7249600D02*
X20824000Y-7249600D01*
X20824000Y-7249600D02*
X20824000Y-4049600D01*
X20824000Y-4049600D02*
X22424000Y-4049600D01*
X22424000Y-4049600D02*
X22424000Y-7249600D01*
%TO.C,C8*%
X31884200Y-14755600D02*
X33484200Y-14755600D01*
X31884200Y-15555600D02*
X31884200Y-14755600D01*
X33484200Y-15555600D02*
X31884200Y-15555600D01*
X33484200Y-14755600D02*
X33484200Y-15555600D01*
%TO.C,U3*%
X20477400Y-18397400D02*
X16577400Y-18397400D01*
X16577400Y-9472400D02*
X17552400Y-8497400D01*
X20477400Y-8497400D02*
X20477400Y-18397400D01*
X17552400Y-8497400D02*
X20477400Y-8497400D01*
X16577400Y-18397400D02*
X16577400Y-9472400D01*
%TO.C,C6*%
X23049000Y-8348400D02*
X24649000Y-8348400D01*
X23049000Y-9148400D02*
X23049000Y-8348400D01*
X24649000Y-9148400D02*
X23049000Y-9148400D01*
X24649000Y-8348400D02*
X24649000Y-9148400D01*
%TO.C,U2*%
X8903000Y-13892000D02*
X8903000Y-15492000D01*
X8903000Y-15492000D02*
X6403000Y-15492000D01*
X6003000Y-15092000D02*
X6003000Y-13892000D01*
X6003000Y-13892000D02*
X8903000Y-13892000D01*
X6403000Y-15492000D02*
X6003000Y-15092000D01*
%TO.C,R1*%
X23853000Y-10390000D02*
X22803000Y-10390000D01*
X22803000Y-10390000D02*
X22803000Y-9850000D01*
X23853000Y-9850000D02*
X23853000Y-10390000D01*
X22803000Y-9850000D02*
X23853000Y-9850000D01*
%TO.C,D1*%
X41110000Y-3530000D02*
X39510000Y-3530000D01*
X41110000Y-4030000D02*
X41110000Y-3530000D01*
X39510000Y-4330000D02*
X40810000Y-4330000D01*
X40810000Y-4330000D02*
X41110000Y-4030000D01*
X39510000Y-3530000D02*
X39510000Y-4330000D01*
%TO.C,C4*%
X12444200Y-12933000D02*
X12444200Y-12133000D01*
X14044200Y-12933000D02*
X12444200Y-12933000D01*
X12444200Y-12133000D02*
X14044200Y-12133000D01*
X14044200Y-12133000D02*
X14044200Y-12933000D01*
%TO.C,R13*%
X45594400Y-15614800D02*
X45594400Y-16664800D01*
X45594400Y-16664800D02*
X45054400Y-16664800D01*
X45054400Y-15614800D02*
X45594400Y-15614800D01*
X45054400Y-16664800D02*
X45054400Y-15614800D01*
%TO.C,R8*%
X26503600Y-15349400D02*
X25453600Y-15349400D01*
X25453600Y-15349400D02*
X25453600Y-14809400D01*
X25453600Y-14809400D02*
X26503600Y-14809400D01*
X26503600Y-14809400D02*
X26503600Y-15349400D01*
%TD*%
M02*
