M48
; DRILL file {KiCad (6.0.9)} date Wed 09 Nov 2022 01:04:21 PM PST
; FORMAT={-:-/ absolute / metric / decimal}
; #@! TF.CreationDate,2022-11-09T13:04:21-08:00
; #@! TF.GenerationSoftware,Kicad,Pcbnew,(6.0.9)
; #@! TF.FileFunction,Plated,1,2,PTH
FMAT,2
METRIC
; #@! TA.AperFunction,Plated,PTH,ViaDrill
T1C0.400
; #@! TA.AperFunction,Plated,PTH,ComponentDrill
T2C0.500
; #@! TA.AperFunction,Plated,PTH,ComponentDrill
T3C0.550
; #@! TA.AperFunction,Plated,PTH,ComponentDrill
T4C0.650
; #@! TA.AperFunction,Plated,PTH,ComponentDrill
T5C3.200
%
G90
G05
T1
X3.443Y-16.545
X5.091Y-16.368
X7.453Y-16.978
X10.628Y-4.837
X11.238Y-2.094
X11.56Y-9.89
X11.644Y-12.558
X14.641Y-2.043
X14.692Y-9.002
X21.601Y-6.208
X24.09Y-6.259
X24.56Y-10.2
X25.115Y-11.244
X25.171Y-8.74
X25.521Y-14.394
X25.674Y-17.95
X26.241Y-13.193
X26.639Y-24.185
X26.791Y-17.035
X26.842Y-20.642
X28.25Y-8.25
X29.221Y-6.869
X29.221Y-9.663
X34.143Y-11.506
X34.143Y-18.756
X34.259Y-22.369
X38.72Y-13.828
X42.063Y-3.845
X42.164Y-5.47
X44.273Y-18.743
X44.512Y-17.848
X46.34Y-19.721
X46.645Y-14.844
X47.653Y-18.443
X47.827Y-17.345
X48.563Y-19.291
X50.696Y-19.575
X52.431Y-13.803
X52.69Y-16.419
X53.11Y-19.61
X53.25Y-14.25
X53.587Y-15.172
T4
X50.115Y-12.46
X50.115Y-13.73
X50.115Y-15.0
X50.115Y-16.27
X50.115Y-17.54
X51.385Y-12.46
X51.385Y-13.73
X51.385Y-15.0
X51.385Y-16.27
X51.385Y-17.54
T5
X4.5Y-4.5
X4.5Y-25.5
X50.5Y-4.5
X50.5Y-25.5
T2
G00X1.779Y-11.5
M15
G01X1.129Y-11.5
M16
G05
G00X1.779Y-18.5
M15
G01X1.129Y-18.5
M16
G05
T3
G00X4.154Y-12.35
M15
G01X4.154Y-12.65
M16
G05
G00X4.154Y-17.35
M15
G01X4.154Y-17.65
M16
G05
T0
M30
