%TF.GenerationSoftware,KiCad,Pcbnew,(6.0.9)*%
%TF.CreationDate,2022-11-08T23:36:55-08:00*%
%TF.ProjectId,esp32-prog,65737033-322d-4707-926f-672e6b696361,rev?*%
%TF.SameCoordinates,PX8f0d180PY2d4cae0*%
%TF.FileFunction,Legend,Top*%
%TF.FilePolarity,Positive*%
%FSLAX46Y46*%
G04 Gerber Fmt 4.6, Leading zero omitted, Abs format (unit mm)*
G04 Created by KiCad (PCBNEW (6.0.9)) date 2022-11-08 23:36:55*
%MOMM*%
%LPD*%
G01*
G04 APERTURE LIST*
%ADD10C,0.150000*%
%ADD11C,0.120000*%
G04 APERTURE END LIST*
D10*
X49600000Y-20400000D02*
X49600000Y-19700000D01*
X48900000Y-19700000D02*
X49600000Y-20400000D01*
X49600000Y-19700000D02*
X48900000Y-19700000D01*
X48800000Y-20500000D02*
X44550000Y-20500000D01*
X49600000Y-19700000D02*
X48800000Y-20500000D01*
X41804761Y-21856190D02*
X41804761Y-22046666D01*
X41852380Y-22046666D02*
X41852380Y-21856190D01*
X41900000Y-21808571D02*
X41900000Y-22094285D01*
X41947619Y-22046666D02*
X41947619Y-21856190D01*
X41995238Y-21856190D02*
X41995238Y-22046666D01*
X41804761Y-21999047D02*
X41900000Y-22094285D01*
X41995238Y-21999047D01*
X41804761Y-21903809D02*
X41900000Y-21808571D01*
X41995238Y-21903809D01*
X41804761Y-21856190D02*
X41900000Y-21808571D01*
X41995238Y-21856190D01*
X42042857Y-21951428D01*
X41995238Y-22046666D01*
X41900000Y-22094285D01*
X41804761Y-22046666D01*
X41757142Y-21951428D01*
X41804761Y-21856190D01*
X41804761Y-23466190D02*
X41804761Y-23656666D01*
X41852380Y-23656666D02*
X41852380Y-23466190D01*
X41900000Y-23418571D02*
X41900000Y-23704285D01*
X41947619Y-23656666D02*
X41947619Y-23466190D01*
X41995238Y-23466190D02*
X41995238Y-23656666D01*
X41804761Y-23609047D02*
X41900000Y-23704285D01*
X41995238Y-23609047D01*
X41804761Y-23513809D02*
X41900000Y-23418571D01*
X41995238Y-23513809D01*
X41804761Y-23466190D02*
X41900000Y-23418571D01*
X41995238Y-23466190D01*
X42042857Y-23561428D01*
X41995238Y-23656666D01*
X41900000Y-23704285D01*
X41804761Y-23656666D01*
X41757142Y-23561428D01*
X41804761Y-23466190D01*
X41804761Y-25076190D02*
X41804761Y-25266666D01*
X41852380Y-25266666D02*
X41852380Y-25076190D01*
X41900000Y-25028571D02*
X41900000Y-25314285D01*
X41947619Y-25266666D02*
X41947619Y-25076190D01*
X41995238Y-25076190D02*
X41995238Y-25266666D01*
X41804761Y-25219047D02*
X41900000Y-25314285D01*
X41995238Y-25219047D01*
X41804761Y-25123809D02*
X41900000Y-25028571D01*
X41995238Y-25123809D01*
X41804761Y-25076190D02*
X41900000Y-25028571D01*
X41995238Y-25076190D01*
X42042857Y-25171428D01*
X41995238Y-25266666D01*
X41900000Y-25314285D01*
X41804761Y-25266666D01*
X41757142Y-25171428D01*
X41804761Y-25076190D01*
X41804761Y-26686190D02*
X41804761Y-26876666D01*
X41852380Y-26876666D02*
X41852380Y-26686190D01*
X41900000Y-26638571D02*
X41900000Y-26924285D01*
X41947619Y-26876666D02*
X41947619Y-26686190D01*
X41995238Y-26686190D02*
X41995238Y-26876666D01*
X41804761Y-26829047D02*
X41900000Y-26924285D01*
X41995238Y-26829047D01*
X41804761Y-26733809D02*
X41900000Y-26638571D01*
X41995238Y-26733809D01*
X41804761Y-26686190D02*
X41900000Y-26638571D01*
X41995238Y-26686190D01*
X42042857Y-26781428D01*
X41995238Y-26876666D01*
X41900000Y-26924285D01*
X41804761Y-26876666D01*
X41757142Y-26781428D01*
X41804761Y-26686190D01*
X41804761Y-28296190D02*
X41804761Y-28486666D01*
X41852380Y-28486666D02*
X41852380Y-28296190D01*
X41900000Y-28248571D02*
X41900000Y-28534285D01*
X41947619Y-28486666D02*
X41947619Y-28296190D01*
X41995238Y-28296190D02*
X41995238Y-28486666D01*
X41804761Y-28439047D02*
X41900000Y-28534285D01*
X41995238Y-28439047D01*
X41804761Y-28343809D02*
X41900000Y-28248571D01*
X41995238Y-28343809D01*
X41804761Y-28296190D02*
X41900000Y-28248571D01*
X41995238Y-28296190D01*
X42042857Y-28391428D01*
X41995238Y-28486666D01*
X41900000Y-28534285D01*
X41804761Y-28486666D01*
X41757142Y-28391428D01*
X41804761Y-28296190D01*
X40704761Y-21856190D02*
X40704761Y-22046666D01*
X40752380Y-22046666D02*
X40752380Y-21856190D01*
X40800000Y-21808571D02*
X40800000Y-22094285D01*
X40847619Y-22046666D02*
X40847619Y-21856190D01*
X40895238Y-21856190D02*
X40895238Y-22046666D01*
X40704761Y-21999047D02*
X40800000Y-22094285D01*
X40895238Y-21999047D01*
X40704761Y-21903809D02*
X40800000Y-21808571D01*
X40895238Y-21903809D01*
X40704761Y-21856190D02*
X40800000Y-21808571D01*
X40895238Y-21856190D01*
X40942857Y-21951428D01*
X40895238Y-22046666D01*
X40800000Y-22094285D01*
X40704761Y-22046666D01*
X40657142Y-21951428D01*
X40704761Y-21856190D01*
X40704761Y-23466190D02*
X40704761Y-23656666D01*
X40752380Y-23656666D02*
X40752380Y-23466190D01*
X40800000Y-23418571D02*
X40800000Y-23704285D01*
X40847619Y-23656666D02*
X40847619Y-23466190D01*
X40895238Y-23466190D02*
X40895238Y-23656666D01*
X40704761Y-23609047D02*
X40800000Y-23704285D01*
X40895238Y-23609047D01*
X40704761Y-23513809D02*
X40800000Y-23418571D01*
X40895238Y-23513809D01*
X40704761Y-23466190D02*
X40800000Y-23418571D01*
X40895238Y-23466190D01*
X40942857Y-23561428D01*
X40895238Y-23656666D01*
X40800000Y-23704285D01*
X40704761Y-23656666D01*
X40657142Y-23561428D01*
X40704761Y-23466190D01*
X40704761Y-25076190D02*
X40704761Y-25266666D01*
X40752380Y-25266666D02*
X40752380Y-25076190D01*
X40800000Y-25028571D02*
X40800000Y-25314285D01*
X40847619Y-25266666D02*
X40847619Y-25076190D01*
X40895238Y-25076190D02*
X40895238Y-25266666D01*
X40704761Y-25219047D02*
X40800000Y-25314285D01*
X40895238Y-25219047D01*
X40704761Y-25123809D02*
X40800000Y-25028571D01*
X40895238Y-25123809D01*
X40704761Y-25076190D02*
X40800000Y-25028571D01*
X40895238Y-25076190D01*
X40942857Y-25171428D01*
X40895238Y-25266666D01*
X40800000Y-25314285D01*
X40704761Y-25266666D01*
X40657142Y-25171428D01*
X40704761Y-25076190D01*
X40704761Y-26686190D02*
X40704761Y-26876666D01*
X40752380Y-26876666D02*
X40752380Y-26686190D01*
X40800000Y-26638571D02*
X40800000Y-26924285D01*
X40847619Y-26876666D02*
X40847619Y-26686190D01*
X40895238Y-26686190D02*
X40895238Y-26876666D01*
X40704761Y-26829047D02*
X40800000Y-26924285D01*
X40895238Y-26829047D01*
X40704761Y-26733809D02*
X40800000Y-26638571D01*
X40895238Y-26733809D01*
X40704761Y-26686190D02*
X40800000Y-26638571D01*
X40895238Y-26686190D01*
X40942857Y-26781428D01*
X40895238Y-26876666D01*
X40800000Y-26924285D01*
X40704761Y-26876666D01*
X40657142Y-26781428D01*
X40704761Y-26686190D01*
X40704761Y-28296190D02*
X40704761Y-28486666D01*
X40752380Y-28486666D02*
X40752380Y-28296190D01*
X40800000Y-28248571D02*
X40800000Y-28534285D01*
X40847619Y-28486666D02*
X40847619Y-28296190D01*
X40895238Y-28296190D02*
X40895238Y-28486666D01*
X40704761Y-28439047D02*
X40800000Y-28534285D01*
X40895238Y-28439047D01*
X40704761Y-28343809D02*
X40800000Y-28248571D01*
X40895238Y-28343809D01*
X40704761Y-28296190D02*
X40800000Y-28248571D01*
X40895238Y-28296190D01*
X40942857Y-28391428D01*
X40895238Y-28486666D01*
X40800000Y-28534285D01*
X40704761Y-28486666D01*
X40657142Y-28391428D01*
X40704761Y-28296190D01*
X38300000Y-21100000D02*
X44300000Y-21100000D01*
X38819047Y-20652380D02*
X38819047Y-19652380D01*
X39200000Y-19652380D01*
X39295238Y-19700000D01*
X39342857Y-19747619D01*
X39390476Y-19842857D01*
X39390476Y-19985714D01*
X39342857Y-20080952D01*
X39295238Y-20128571D01*
X39200000Y-20176190D01*
X38819047Y-20176190D01*
X39819047Y-20652380D02*
X39819047Y-19985714D01*
X39819047Y-19652380D02*
X39771428Y-19700000D01*
X39819047Y-19747619D01*
X39866666Y-19700000D01*
X39819047Y-19652380D01*
X39819047Y-19747619D01*
X40295238Y-19985714D02*
X40295238Y-20652380D01*
X40295238Y-20080952D02*
X40342857Y-20033333D01*
X40438095Y-19985714D01*
X40580952Y-19985714D01*
X40676190Y-20033333D01*
X40723809Y-20128571D01*
X40723809Y-20652380D01*
X41342857Y-20652380D02*
X41247619Y-20604761D01*
X41200000Y-20557142D01*
X41152380Y-20461904D01*
X41152380Y-20176190D01*
X41200000Y-20080952D01*
X41247619Y-20033333D01*
X41342857Y-19985714D01*
X41485714Y-19985714D01*
X41580952Y-20033333D01*
X41628571Y-20080952D01*
X41676190Y-20176190D01*
X41676190Y-20461904D01*
X41628571Y-20557142D01*
X41580952Y-20604761D01*
X41485714Y-20652380D01*
X41342857Y-20652380D01*
X42533333Y-19985714D02*
X42533333Y-20652380D01*
X42104761Y-19985714D02*
X42104761Y-20509523D01*
X42152380Y-20604761D01*
X42247619Y-20652380D01*
X42390476Y-20652380D01*
X42485714Y-20604761D01*
X42533333Y-20557142D01*
X42866666Y-19985714D02*
X43247619Y-19985714D01*
X43009523Y-19652380D02*
X43009523Y-20509523D01*
X43057142Y-20604761D01*
X43152380Y-20652380D01*
X43247619Y-20652380D01*
X43580952Y-20557142D02*
X43628571Y-20604761D01*
X43580952Y-20652380D01*
X43533333Y-20604761D01*
X43580952Y-20557142D01*
X43580952Y-20652380D01*
X43580952Y-20033333D02*
X43628571Y-20080952D01*
X43580952Y-20128571D01*
X43533333Y-20080952D01*
X43580952Y-20033333D01*
X43580952Y-20128571D01*
X42535595Y-22482380D02*
X42535595Y-21482380D01*
X43107023Y-22482380D01*
X43107023Y-21482380D01*
X44154642Y-22387142D02*
X44107023Y-22434761D01*
X43964166Y-22482380D01*
X43868928Y-22482380D01*
X43726071Y-22434761D01*
X43630833Y-22339523D01*
X43583214Y-22244285D01*
X43535595Y-22053809D01*
X43535595Y-21910952D01*
X43583214Y-21720476D01*
X43630833Y-21625238D01*
X43726071Y-21530000D01*
X43868928Y-21482380D01*
X43964166Y-21482380D01*
X44107023Y-21530000D01*
X44154642Y-21577619D01*
X43107023Y-24092380D02*
X42773690Y-23616190D01*
X42535595Y-24092380D02*
X42535595Y-23092380D01*
X42916547Y-23092380D01*
X43011785Y-23140000D01*
X43059404Y-23187619D01*
X43107023Y-23282857D01*
X43107023Y-23425714D01*
X43059404Y-23520952D01*
X43011785Y-23568571D01*
X42916547Y-23616190D01*
X42535595Y-23616190D01*
X43440357Y-23092380D02*
X44107023Y-24092380D01*
X44107023Y-23092380D02*
X43440357Y-24092380D01*
X42535595Y-25178571D02*
X42868928Y-25178571D01*
X43011785Y-25702380D02*
X42535595Y-25702380D01*
X42535595Y-24702380D01*
X43011785Y-24702380D01*
X43440357Y-25702380D02*
X43440357Y-24702380D01*
X44011785Y-25702380D01*
X44011785Y-24702380D01*
X43059404Y-26360000D02*
X42964166Y-26312380D01*
X42821309Y-26312380D01*
X42678452Y-26360000D01*
X42583214Y-26455238D01*
X42535595Y-26550476D01*
X42487976Y-26740952D01*
X42487976Y-26883809D01*
X42535595Y-27074285D01*
X42583214Y-27169523D01*
X42678452Y-27264761D01*
X42821309Y-27312380D01*
X42916547Y-27312380D01*
X43059404Y-27264761D01*
X43107023Y-27217142D01*
X43107023Y-26883809D01*
X42916547Y-26883809D01*
X43535595Y-27312380D02*
X43535595Y-26312380D01*
X44107023Y-27312380D01*
X44107023Y-26312380D01*
X44583214Y-27312380D02*
X44583214Y-26312380D01*
X44821309Y-26312380D01*
X44964166Y-26360000D01*
X45059404Y-26455238D01*
X45107023Y-26550476D01*
X45154642Y-26740952D01*
X45154642Y-26883809D01*
X45107023Y-27074285D01*
X45059404Y-27169523D01*
X44964166Y-27264761D01*
X44821309Y-27312380D01*
X44583214Y-27312380D01*
X43011785Y-27922380D02*
X42535595Y-27922380D01*
X42487976Y-28398571D01*
X42535595Y-28350952D01*
X42630833Y-28303333D01*
X42868928Y-28303333D01*
X42964166Y-28350952D01*
X43011785Y-28398571D01*
X43059404Y-28493809D01*
X43059404Y-28731904D01*
X43011785Y-28827142D01*
X42964166Y-28874761D01*
X42868928Y-28922380D01*
X42630833Y-28922380D01*
X42535595Y-28874761D01*
X42487976Y-28827142D01*
X43345119Y-27922380D02*
X43678452Y-28922380D01*
X44011785Y-27922380D01*
X38542976Y-22482380D02*
X38542976Y-21482380D01*
X39114404Y-22482380D01*
X39114404Y-21482380D01*
X40162023Y-22387142D02*
X40114404Y-22434761D01*
X39971547Y-22482380D01*
X39876309Y-22482380D01*
X39733452Y-22434761D01*
X39638214Y-22339523D01*
X39590595Y-22244285D01*
X39542976Y-22053809D01*
X39542976Y-21910952D01*
X39590595Y-21720476D01*
X39638214Y-21625238D01*
X39733452Y-21530000D01*
X39876309Y-21482380D01*
X39971547Y-21482380D01*
X40114404Y-21530000D01*
X40162023Y-21577619D01*
X38733452Y-23092380D02*
X39304880Y-23092380D01*
X39019166Y-24092380D02*
X39019166Y-23092380D01*
X39542976Y-23092380D02*
X40209642Y-24092380D01*
X40209642Y-23092380D02*
X39542976Y-24092380D01*
X37066785Y-25178571D02*
X37209642Y-25226190D01*
X37257261Y-25273809D01*
X37304880Y-25369047D01*
X37304880Y-25511904D01*
X37257261Y-25607142D01*
X37209642Y-25654761D01*
X37114404Y-25702380D01*
X36733452Y-25702380D01*
X36733452Y-24702380D01*
X37066785Y-24702380D01*
X37162023Y-24750000D01*
X37209642Y-24797619D01*
X37257261Y-24892857D01*
X37257261Y-24988095D01*
X37209642Y-25083333D01*
X37162023Y-25130952D01*
X37066785Y-25178571D01*
X36733452Y-25178571D01*
X37923928Y-24702380D02*
X38114404Y-24702380D01*
X38209642Y-24750000D01*
X38304880Y-24845238D01*
X38352500Y-25035714D01*
X38352500Y-25369047D01*
X38304880Y-25559523D01*
X38209642Y-25654761D01*
X38114404Y-25702380D01*
X37923928Y-25702380D01*
X37828690Y-25654761D01*
X37733452Y-25559523D01*
X37685833Y-25369047D01*
X37685833Y-25035714D01*
X37733452Y-24845238D01*
X37828690Y-24750000D01*
X37923928Y-24702380D01*
X38971547Y-24702380D02*
X39162023Y-24702380D01*
X39257261Y-24750000D01*
X39352500Y-24845238D01*
X39400119Y-25035714D01*
X39400119Y-25369047D01*
X39352500Y-25559523D01*
X39257261Y-25654761D01*
X39162023Y-25702380D01*
X38971547Y-25702380D01*
X38876309Y-25654761D01*
X38781071Y-25559523D01*
X38733452Y-25369047D01*
X38733452Y-25035714D01*
X38781071Y-24845238D01*
X38876309Y-24750000D01*
X38971547Y-24702380D01*
X39685833Y-24702380D02*
X40257261Y-24702380D01*
X39971547Y-25702380D02*
X39971547Y-24702380D01*
X38066785Y-26360000D02*
X37971547Y-26312380D01*
X37828690Y-26312380D01*
X37685833Y-26360000D01*
X37590595Y-26455238D01*
X37542976Y-26550476D01*
X37495357Y-26740952D01*
X37495357Y-26883809D01*
X37542976Y-27074285D01*
X37590595Y-27169523D01*
X37685833Y-27264761D01*
X37828690Y-27312380D01*
X37923928Y-27312380D01*
X38066785Y-27264761D01*
X38114404Y-27217142D01*
X38114404Y-26883809D01*
X37923928Y-26883809D01*
X38542976Y-27312380D02*
X38542976Y-26312380D01*
X39114404Y-27312380D01*
X39114404Y-26312380D01*
X39590595Y-27312380D02*
X39590595Y-26312380D01*
X39828690Y-26312380D01*
X39971547Y-26360000D01*
X40066785Y-26455238D01*
X40114404Y-26550476D01*
X40162023Y-26740952D01*
X40162023Y-26883809D01*
X40114404Y-27074285D01*
X40066785Y-27169523D01*
X39971547Y-27264761D01*
X39828690Y-27312380D01*
X39590595Y-27312380D01*
X37733452Y-27922380D02*
X38352500Y-27922380D01*
X38019166Y-28303333D01*
X38162023Y-28303333D01*
X38257261Y-28350952D01*
X38304880Y-28398571D01*
X38352500Y-28493809D01*
X38352500Y-28731904D01*
X38304880Y-28827142D01*
X38257261Y-28874761D01*
X38162023Y-28922380D01*
X37876309Y-28922380D01*
X37781071Y-28874761D01*
X37733452Y-28827142D01*
X38638214Y-27922380D02*
X38971547Y-28922380D01*
X39304880Y-27922380D01*
X39542976Y-27922380D02*
X40162023Y-27922380D01*
X39828690Y-28303333D01*
X39971547Y-28303333D01*
X40066785Y-28350952D01*
X40114404Y-28398571D01*
X40162023Y-28493809D01*
X40162023Y-28731904D01*
X40114404Y-28827142D01*
X40066785Y-28874761D01*
X39971547Y-28922380D01*
X39685833Y-28922380D01*
X39590595Y-28874761D01*
X39542976Y-28827142D01*
X10835595Y-25002380D02*
X10835595Y-24335714D01*
X10835595Y-24430952D02*
X10883214Y-24383333D01*
X10978452Y-24335714D01*
X11121309Y-24335714D01*
X11216547Y-24383333D01*
X11264166Y-24478571D01*
X11264166Y-25002380D01*
X11264166Y-24478571D02*
X11311785Y-24383333D01*
X11407023Y-24335714D01*
X11549880Y-24335714D01*
X11645119Y-24383333D01*
X11692738Y-24478571D01*
X11692738Y-25002380D01*
X12597500Y-25002380D02*
X12597500Y-24478571D01*
X12549880Y-24383333D01*
X12454642Y-24335714D01*
X12264166Y-24335714D01*
X12168928Y-24383333D01*
X12597500Y-24954761D02*
X12502261Y-25002380D01*
X12264166Y-25002380D01*
X12168928Y-24954761D01*
X12121309Y-24859523D01*
X12121309Y-24764285D01*
X12168928Y-24669047D01*
X12264166Y-24621428D01*
X12502261Y-24621428D01*
X12597500Y-24573809D01*
X12978452Y-25002380D02*
X13502261Y-24335714D01*
X12978452Y-24335714D02*
X13502261Y-25002380D01*
X14026071Y-25002380D02*
X13930833Y-24954761D01*
X13883214Y-24859523D01*
X13883214Y-24002380D01*
X14835595Y-25002380D02*
X14835595Y-24478571D01*
X14787976Y-24383333D01*
X14692738Y-24335714D01*
X14502261Y-24335714D01*
X14407023Y-24383333D01*
X14835595Y-24954761D02*
X14740357Y-25002380D01*
X14502261Y-25002380D01*
X14407023Y-24954761D01*
X14359404Y-24859523D01*
X14359404Y-24764285D01*
X14407023Y-24669047D01*
X14502261Y-24621428D01*
X14740357Y-24621428D01*
X14835595Y-24573809D01*
X15311785Y-25002380D02*
X15311785Y-24002380D01*
X15311785Y-24383333D02*
X15407023Y-24335714D01*
X15597500Y-24335714D01*
X15692738Y-24383333D01*
X15740357Y-24430952D01*
X15787976Y-24526190D01*
X15787976Y-24811904D01*
X15740357Y-24907142D01*
X15692738Y-24954761D01*
X15597500Y-25002380D01*
X15407023Y-25002380D01*
X15311785Y-24954761D01*
X16216547Y-24907142D02*
X16264166Y-24954761D01*
X16216547Y-25002380D01*
X16168928Y-24954761D01*
X16216547Y-24907142D01*
X16216547Y-25002380D01*
X16692738Y-25002380D02*
X16692738Y-24335714D01*
X16692738Y-24002380D02*
X16645119Y-24050000D01*
X16692738Y-24097619D01*
X16740357Y-24050000D01*
X16692738Y-24002380D01*
X16692738Y-24097619D01*
X17311785Y-25002380D02*
X17216547Y-24954761D01*
X17168928Y-24907142D01*
X17121309Y-24811904D01*
X17121309Y-24526190D01*
X17168928Y-24430952D01*
X17216547Y-24383333D01*
X17311785Y-24335714D01*
X17454642Y-24335714D01*
X17549880Y-24383333D01*
X17597500Y-24430952D01*
X17645119Y-24526190D01*
X17645119Y-24811904D01*
X17597500Y-24907142D01*
X17549880Y-24954761D01*
X17454642Y-25002380D01*
X17311785Y-25002380D01*
X10835595Y-25502380D02*
X10835595Y-26311904D01*
X10883214Y-26407142D01*
X10930833Y-26454761D01*
X11026071Y-26502380D01*
X11216547Y-26502380D01*
X11311785Y-26454761D01*
X11359404Y-26407142D01*
X11407023Y-26311904D01*
X11407023Y-25502380D01*
X11835595Y-26454761D02*
X11978452Y-26502380D01*
X12216547Y-26502380D01*
X12311785Y-26454761D01*
X12359404Y-26407142D01*
X12407023Y-26311904D01*
X12407023Y-26216666D01*
X12359404Y-26121428D01*
X12311785Y-26073809D01*
X12216547Y-26026190D01*
X12026071Y-25978571D01*
X11930833Y-25930952D01*
X11883214Y-25883333D01*
X11835595Y-25788095D01*
X11835595Y-25692857D01*
X11883214Y-25597619D01*
X11930833Y-25550000D01*
X12026071Y-25502380D01*
X12264166Y-25502380D01*
X12407023Y-25550000D01*
X13168928Y-25978571D02*
X13311785Y-26026190D01*
X13359404Y-26073809D01*
X13407023Y-26169047D01*
X13407023Y-26311904D01*
X13359404Y-26407142D01*
X13311785Y-26454761D01*
X13216547Y-26502380D01*
X12835595Y-26502380D01*
X12835595Y-25502380D01*
X13168928Y-25502380D01*
X13264166Y-25550000D01*
X13311785Y-25597619D01*
X13359404Y-25692857D01*
X13359404Y-25788095D01*
X13311785Y-25883333D01*
X13264166Y-25930952D01*
X13168928Y-25978571D01*
X12835595Y-25978571D01*
X14597500Y-25978571D02*
X14930833Y-25978571D01*
X15073690Y-26502380D02*
X14597500Y-26502380D01*
X14597500Y-25502380D01*
X15073690Y-25502380D01*
X15454642Y-26454761D02*
X15597500Y-26502380D01*
X15835595Y-26502380D01*
X15930833Y-26454761D01*
X15978452Y-26407142D01*
X16026071Y-26311904D01*
X16026071Y-26216666D01*
X15978452Y-26121428D01*
X15930833Y-26073809D01*
X15835595Y-26026190D01*
X15645119Y-25978571D01*
X15549880Y-25930952D01*
X15502261Y-25883333D01*
X15454642Y-25788095D01*
X15454642Y-25692857D01*
X15502261Y-25597619D01*
X15549880Y-25550000D01*
X15645119Y-25502380D01*
X15883214Y-25502380D01*
X16026071Y-25550000D01*
X16454642Y-26502380D02*
X16454642Y-25502380D01*
X16835595Y-25502380D01*
X16930833Y-25550000D01*
X16978452Y-25597619D01*
X17026071Y-25692857D01*
X17026071Y-25835714D01*
X16978452Y-25930952D01*
X16930833Y-25978571D01*
X16835595Y-26026190D01*
X16454642Y-26026190D01*
X17359404Y-25502380D02*
X17978452Y-25502380D01*
X17645119Y-25883333D01*
X17787976Y-25883333D01*
X17883214Y-25930952D01*
X17930833Y-25978571D01*
X17978452Y-26073809D01*
X17978452Y-26311904D01*
X17930833Y-26407142D01*
X17883214Y-26454761D01*
X17787976Y-26502380D01*
X17502261Y-26502380D01*
X17407023Y-26454761D01*
X17359404Y-26407142D01*
X18359404Y-25597619D02*
X18407023Y-25550000D01*
X18502261Y-25502380D01*
X18740357Y-25502380D01*
X18835595Y-25550000D01*
X18883214Y-25597619D01*
X18930833Y-25692857D01*
X18930833Y-25788095D01*
X18883214Y-25930952D01*
X18311785Y-26502380D01*
X18930833Y-26502380D01*
X19407023Y-26454761D02*
X19407023Y-26502380D01*
X19359404Y-26597619D01*
X19311785Y-26645238D01*
X20454642Y-25502380D02*
X21026071Y-25502380D01*
X20740357Y-26502380D02*
X20740357Y-25502380D01*
X21787976Y-26502380D02*
X21787976Y-25978571D01*
X21740357Y-25883333D01*
X21645119Y-25835714D01*
X21454642Y-25835714D01*
X21359404Y-25883333D01*
X21787976Y-26454761D02*
X21692738Y-26502380D01*
X21454642Y-26502380D01*
X21359404Y-26454761D01*
X21311785Y-26359523D01*
X21311785Y-26264285D01*
X21359404Y-26169047D01*
X21454642Y-26121428D01*
X21692738Y-26121428D01*
X21787976Y-26073809D01*
X22692738Y-25835714D02*
X22692738Y-26645238D01*
X22645119Y-26740476D01*
X22597500Y-26788095D01*
X22502261Y-26835714D01*
X22359404Y-26835714D01*
X22264166Y-26788095D01*
X22692738Y-26454761D02*
X22597500Y-26502380D01*
X22407023Y-26502380D01*
X22311785Y-26454761D01*
X22264166Y-26407142D01*
X22216547Y-26311904D01*
X22216547Y-26026190D01*
X22264166Y-25930952D01*
X22311785Y-25883333D01*
X22407023Y-25835714D01*
X22597500Y-25835714D01*
X22692738Y-25883333D01*
X23740357Y-26407142D02*
X23692738Y-26454761D01*
X23549880Y-26502380D01*
X23454642Y-26502380D01*
X23311785Y-26454761D01*
X23216547Y-26359523D01*
X23168928Y-26264285D01*
X23121309Y-26073809D01*
X23121309Y-25930952D01*
X23168928Y-25740476D01*
X23216547Y-25645238D01*
X23311785Y-25550000D01*
X23454642Y-25502380D01*
X23549880Y-25502380D01*
X23692738Y-25550000D01*
X23740357Y-25597619D01*
X24311785Y-26502380D02*
X24216547Y-26454761D01*
X24168928Y-26407142D01*
X24121309Y-26311904D01*
X24121309Y-26026190D01*
X24168928Y-25930952D01*
X24216547Y-25883333D01*
X24311785Y-25835714D01*
X24454642Y-25835714D01*
X24549880Y-25883333D01*
X24597500Y-25930952D01*
X24645119Y-26026190D01*
X24645119Y-26311904D01*
X24597500Y-26407142D01*
X24549880Y-26454761D01*
X24454642Y-26502380D01*
X24311785Y-26502380D01*
X25073690Y-25835714D02*
X25073690Y-26502380D01*
X25073690Y-25930952D02*
X25121309Y-25883333D01*
X25216547Y-25835714D01*
X25359404Y-25835714D01*
X25454642Y-25883333D01*
X25502261Y-25978571D01*
X25502261Y-26502380D01*
X25978452Y-25835714D02*
X25978452Y-26502380D01*
X25978452Y-25930952D02*
X26026071Y-25883333D01*
X26121309Y-25835714D01*
X26264166Y-25835714D01*
X26359404Y-25883333D01*
X26407023Y-25978571D01*
X26407023Y-26502380D01*
X27264166Y-26454761D02*
X27168928Y-26502380D01*
X26978452Y-26502380D01*
X26883214Y-26454761D01*
X26835595Y-26359523D01*
X26835595Y-25978571D01*
X26883214Y-25883333D01*
X26978452Y-25835714D01*
X27168928Y-25835714D01*
X27264166Y-25883333D01*
X27311785Y-25978571D01*
X27311785Y-26073809D01*
X26835595Y-26169047D01*
X28168928Y-26454761D02*
X28073690Y-26502380D01*
X27883214Y-26502380D01*
X27787976Y-26454761D01*
X27740357Y-26407142D01*
X27692738Y-26311904D01*
X27692738Y-26026190D01*
X27740357Y-25930952D01*
X27787976Y-25883333D01*
X27883214Y-25835714D01*
X28073690Y-25835714D01*
X28168928Y-25883333D01*
X28454642Y-25835714D02*
X28835595Y-25835714D01*
X28597500Y-25502380D02*
X28597500Y-26359523D01*
X28645119Y-26454761D01*
X28740357Y-26502380D01*
X28835595Y-26502380D01*
X30359404Y-26502380D02*
X30359404Y-25978571D01*
X30311785Y-25883333D01*
X30216547Y-25835714D01*
X30026071Y-25835714D01*
X29930833Y-25883333D01*
X30359404Y-26454761D02*
X30264166Y-26502380D01*
X30026071Y-26502380D01*
X29930833Y-26454761D01*
X29883214Y-26359523D01*
X29883214Y-26264285D01*
X29930833Y-26169047D01*
X30026071Y-26121428D01*
X30264166Y-26121428D01*
X30359404Y-26073809D01*
X31264166Y-26502380D02*
X31264166Y-25502380D01*
X31264166Y-26454761D02*
X31168928Y-26502380D01*
X30978452Y-26502380D01*
X30883214Y-26454761D01*
X30835595Y-26407142D01*
X30787976Y-26311904D01*
X30787976Y-26026190D01*
X30835595Y-25930952D01*
X30883214Y-25883333D01*
X30978452Y-25835714D01*
X31168928Y-25835714D01*
X31264166Y-25883333D01*
X32168928Y-26502380D02*
X32168928Y-25978571D01*
X32121309Y-25883333D01*
X32026071Y-25835714D01*
X31835595Y-25835714D01*
X31740357Y-25883333D01*
X32168928Y-26454761D02*
X32073690Y-26502380D01*
X31835595Y-26502380D01*
X31740357Y-26454761D01*
X31692738Y-26359523D01*
X31692738Y-26264285D01*
X31740357Y-26169047D01*
X31835595Y-26121428D01*
X32073690Y-26121428D01*
X32168928Y-26073809D01*
X32645119Y-25835714D02*
X32645119Y-26835714D01*
X32645119Y-25883333D02*
X32740357Y-25835714D01*
X32930833Y-25835714D01*
X33026071Y-25883333D01*
X33073690Y-25930952D01*
X33121309Y-26026190D01*
X33121309Y-26311904D01*
X33073690Y-26407142D01*
X33026071Y-26454761D01*
X32930833Y-26502380D01*
X32740357Y-26502380D01*
X32645119Y-26454761D01*
X33407023Y-25835714D02*
X33787976Y-25835714D01*
X33549880Y-25502380D02*
X33549880Y-26359523D01*
X33597500Y-26454761D01*
X33692738Y-26502380D01*
X33787976Y-26502380D01*
X34502261Y-26454761D02*
X34407023Y-26502380D01*
X34216547Y-26502380D01*
X34121309Y-26454761D01*
X34073690Y-26359523D01*
X34073690Y-25978571D01*
X34121309Y-25883333D01*
X34216547Y-25835714D01*
X34407023Y-25835714D01*
X34502261Y-25883333D01*
X34549880Y-25978571D01*
X34549880Y-26073809D01*
X34073690Y-26169047D01*
X34978452Y-26502380D02*
X34978452Y-25835714D01*
X34978452Y-26026190D02*
X35026071Y-25930952D01*
X35073690Y-25883333D01*
X35168928Y-25835714D01*
X35264166Y-25835714D01*
X10835595Y-27702380D02*
X10835595Y-27035714D01*
X10835595Y-27226190D02*
X10883214Y-27130952D01*
X10930833Y-27083333D01*
X11026071Y-27035714D01*
X11121309Y-27035714D01*
X11835595Y-27654761D02*
X11740357Y-27702380D01*
X11549880Y-27702380D01*
X11454642Y-27654761D01*
X11407023Y-27559523D01*
X11407023Y-27178571D01*
X11454642Y-27083333D01*
X11549880Y-27035714D01*
X11740357Y-27035714D01*
X11835595Y-27083333D01*
X11883214Y-27178571D01*
X11883214Y-27273809D01*
X11407023Y-27369047D01*
X12216547Y-27035714D02*
X12454642Y-27702380D01*
X12692738Y-27035714D01*
X13264166Y-26702380D02*
X13359404Y-26702380D01*
X13454642Y-26750000D01*
X13502261Y-26797619D01*
X13549880Y-26892857D01*
X13597500Y-27083333D01*
X13597500Y-27321428D01*
X13549880Y-27511904D01*
X13502261Y-27607142D01*
X13454642Y-27654761D01*
X13359404Y-27702380D01*
X13264166Y-27702380D01*
X13168928Y-27654761D01*
X13121309Y-27607142D01*
X13073690Y-27511904D01*
X13026071Y-27321428D01*
X13026071Y-27083333D01*
X13073690Y-26892857D01*
X13121309Y-26797619D01*
X13168928Y-26750000D01*
X13264166Y-26702380D01*
X18400400Y-7986400D02*
X22515200Y-7986400D01*
X40955600Y-6462400D02*
X40955600Y-10628000D01*
X36790000Y-5751200D02*
X36790000Y-1890400D01*
X22515200Y-7986400D02*
X22515200Y-9307200D01*
X42682800Y-1687200D02*
X42682800Y-6462400D01*
X38060000Y-7275200D02*
X38060000Y-5751200D01*
X42682800Y-6462400D02*
X40955600Y-6462400D01*
X38060000Y-5751200D02*
X36790000Y-5751200D01*
X38060000Y-11288400D02*
X38060000Y-7275200D01*
X43591923Y-1599580D02*
X43115733Y-1599580D01*
X43068114Y-2075771D01*
X43115733Y-2028152D01*
X43210971Y-1980533D01*
X43449066Y-1980533D01*
X43544304Y-2028152D01*
X43591923Y-2075771D01*
X43639542Y-2171009D01*
X43639542Y-2409104D01*
X43591923Y-2504342D01*
X43544304Y-2551961D01*
X43449066Y-2599580D01*
X43210971Y-2599580D01*
X43115733Y-2551961D01*
X43068114Y-2504342D01*
X43925257Y-1599580D02*
X44258590Y-2599580D01*
X44591923Y-1599580D01*
X43066666Y-4952380D02*
X43400000Y-5952380D01*
X43733333Y-4952380D01*
X44400000Y-5428571D02*
X44542857Y-5476190D01*
X44590476Y-5523809D01*
X44638095Y-5619047D01*
X44638095Y-5761904D01*
X44590476Y-5857142D01*
X44542857Y-5904761D01*
X44447619Y-5952380D01*
X44066666Y-5952380D01*
X44066666Y-4952380D01*
X44400000Y-4952380D01*
X44495238Y-5000000D01*
X44542857Y-5047619D01*
X44590476Y-5142857D01*
X44590476Y-5238095D01*
X44542857Y-5333333D01*
X44495238Y-5380952D01*
X44400000Y-5428571D01*
X44066666Y-5428571D01*
X45066666Y-4952380D02*
X45066666Y-5761904D01*
X45114285Y-5857142D01*
X45161904Y-5904761D01*
X45257142Y-5952380D01*
X45447619Y-5952380D01*
X45542857Y-5904761D01*
X45590476Y-5857142D01*
X45638095Y-5761904D01*
X45638095Y-4952380D01*
X46066666Y-5904761D02*
X46209523Y-5952380D01*
X46447619Y-5952380D01*
X46542857Y-5904761D01*
X46590476Y-5857142D01*
X46638095Y-5761904D01*
X46638095Y-5666666D01*
X46590476Y-5571428D01*
X46542857Y-5523809D01*
X46447619Y-5476190D01*
X46257142Y-5428571D01*
X46161904Y-5380952D01*
X46114285Y-5333333D01*
X46066666Y-5238095D01*
X46066666Y-5142857D01*
X46114285Y-5047619D01*
X46161904Y-5000000D01*
X46257142Y-4952380D01*
X46495238Y-4952380D01*
X46638095Y-5000000D01*
X43103104Y-3275980D02*
X43722152Y-3275980D01*
X43388819Y-3656933D01*
X43531676Y-3656933D01*
X43626914Y-3704552D01*
X43674533Y-3752171D01*
X43722152Y-3847409D01*
X43722152Y-4085504D01*
X43674533Y-4180742D01*
X43626914Y-4228361D01*
X43531676Y-4275980D01*
X43245961Y-4275980D01*
X43150723Y-4228361D01*
X43103104Y-4180742D01*
X44007866Y-3275980D02*
X44341200Y-4275980D01*
X44674533Y-3275980D01*
X44912628Y-3275980D02*
X45531676Y-3275980D01*
X45198342Y-3656933D01*
X45341200Y-3656933D01*
X45436438Y-3704552D01*
X45484057Y-3752171D01*
X45531676Y-3847409D01*
X45531676Y-4085504D01*
X45484057Y-4180742D01*
X45436438Y-4228361D01*
X45341200Y-4275980D01*
X45055485Y-4275980D01*
X44960247Y-4228361D01*
X44912628Y-4180742D01*
%TO.C,C5*%
X27580933Y-6874542D02*
X27533314Y-6922161D01*
X27390457Y-6969780D01*
X27295219Y-6969780D01*
X27152361Y-6922161D01*
X27057123Y-6826923D01*
X27009504Y-6731685D01*
X26961885Y-6541209D01*
X26961885Y-6398352D01*
X27009504Y-6207876D01*
X27057123Y-6112638D01*
X27152361Y-6017400D01*
X27295219Y-5969780D01*
X27390457Y-5969780D01*
X27533314Y-6017400D01*
X27580933Y-6065019D01*
X28485695Y-5969780D02*
X28009504Y-5969780D01*
X27961885Y-6445971D01*
X28009504Y-6398352D01*
X28104742Y-6350733D01*
X28342838Y-6350733D01*
X28438076Y-6398352D01*
X28485695Y-6445971D01*
X28533314Y-6541209D01*
X28533314Y-6779304D01*
X28485695Y-6874542D01*
X28438076Y-6922161D01*
X28342838Y-6969780D01*
X28104742Y-6969780D01*
X28009504Y-6922161D01*
X27961885Y-6874542D01*
%TO.C,L1*%
X7413333Y-10319380D02*
X6937142Y-10319380D01*
X6937142Y-9319380D01*
X8270476Y-10319380D02*
X7699047Y-10319380D01*
X7984761Y-10319380D02*
X7984761Y-9319380D01*
X7889523Y-9462238D01*
X7794285Y-9557476D01*
X7699047Y-9605095D01*
%TO.C,C1*%
X9629142Y-6629066D02*
X9676761Y-6676685D01*
X9724380Y-6819542D01*
X9724380Y-6914780D01*
X9676761Y-7057638D01*
X9581523Y-7152876D01*
X9486285Y-7200495D01*
X9295809Y-7248114D01*
X9152952Y-7248114D01*
X8962476Y-7200495D01*
X8867238Y-7152876D01*
X8772000Y-7057638D01*
X8724380Y-6914780D01*
X8724380Y-6819542D01*
X8772000Y-6676685D01*
X8819619Y-6629066D01*
X9724380Y-5676685D02*
X9724380Y-6248114D01*
X9724380Y-5962400D02*
X8724380Y-5962400D01*
X8867238Y-6057638D01*
X8962476Y-6152876D01*
X9010095Y-6248114D01*
%TO.C,U7*%
X31363495Y-23421780D02*
X31363495Y-24231304D01*
X31411114Y-24326542D01*
X31458733Y-24374161D01*
X31553971Y-24421780D01*
X31744447Y-24421780D01*
X31839685Y-24374161D01*
X31887304Y-24326542D01*
X31934923Y-24231304D01*
X31934923Y-23421780D01*
X32315876Y-23421780D02*
X32982542Y-23421780D01*
X32553971Y-24421780D01*
%TO.C,R10*%
X40052380Y-12942857D02*
X39576190Y-13276190D01*
X40052380Y-13514285D02*
X39052380Y-13514285D01*
X39052380Y-13133333D01*
X39100000Y-13038095D01*
X39147619Y-12990476D01*
X39242857Y-12942857D01*
X39385714Y-12942857D01*
X39480952Y-12990476D01*
X39528571Y-13038095D01*
X39576190Y-13133333D01*
X39576190Y-13514285D01*
X40052380Y-11990476D02*
X40052380Y-12561904D01*
X40052380Y-12276190D02*
X39052380Y-12276190D01*
X39195238Y-12371428D01*
X39290476Y-12466666D01*
X39338095Y-12561904D01*
X39052380Y-11371428D02*
X39052380Y-11276190D01*
X39100000Y-11180952D01*
X39147619Y-11133333D01*
X39242857Y-11085714D01*
X39433333Y-11038095D01*
X39671428Y-11038095D01*
X39861904Y-11085714D01*
X39957142Y-11133333D01*
X40004761Y-11180952D01*
X40052380Y-11276190D01*
X40052380Y-11371428D01*
X40004761Y-11466666D01*
X39957142Y-11514285D01*
X39861904Y-11561904D01*
X39671428Y-11609523D01*
X39433333Y-11609523D01*
X39242857Y-11561904D01*
X39147619Y-11514285D01*
X39100000Y-11466666D01*
X39052380Y-11371428D01*
%TO.C,SW1*%
X30966666Y-8104761D02*
X31109523Y-8152380D01*
X31347619Y-8152380D01*
X31442857Y-8104761D01*
X31490476Y-8057142D01*
X31538095Y-7961904D01*
X31538095Y-7866666D01*
X31490476Y-7771428D01*
X31442857Y-7723809D01*
X31347619Y-7676190D01*
X31157142Y-7628571D01*
X31061904Y-7580952D01*
X31014285Y-7533333D01*
X30966666Y-7438095D01*
X30966666Y-7342857D01*
X31014285Y-7247619D01*
X31061904Y-7200000D01*
X31157142Y-7152380D01*
X31395238Y-7152380D01*
X31538095Y-7200000D01*
X31871428Y-7152380D02*
X32109523Y-8152380D01*
X32300000Y-7438095D01*
X32490476Y-8152380D01*
X32728571Y-7152380D01*
X33633333Y-8152380D02*
X33061904Y-8152380D01*
X33347619Y-8152380D02*
X33347619Y-7152380D01*
X33252380Y-7295238D01*
X33157142Y-7390476D01*
X33061904Y-7438095D01*
X29932380Y-6762380D02*
X29932380Y-5762380D01*
X30313333Y-5762380D01*
X30408571Y-5810000D01*
X30456190Y-5857619D01*
X30503809Y-5952857D01*
X30503809Y-6095714D01*
X30456190Y-6190952D01*
X30408571Y-6238571D01*
X30313333Y-6286190D01*
X29932380Y-6286190D01*
X30837142Y-5762380D02*
X31075238Y-6762380D01*
X31265714Y-6048095D01*
X31456190Y-6762380D01*
X31694285Y-5762380D01*
X32646666Y-6762380D02*
X32313333Y-6286190D01*
X32075238Y-6762380D02*
X32075238Y-5762380D01*
X32456190Y-5762380D01*
X32551428Y-5810000D01*
X32599047Y-5857619D01*
X32646666Y-5952857D01*
X32646666Y-6095714D01*
X32599047Y-6190952D01*
X32551428Y-6238571D01*
X32456190Y-6286190D01*
X32075238Y-6286190D01*
X32837142Y-6857619D02*
X33599047Y-6857619D01*
X33789523Y-6714761D02*
X33932380Y-6762380D01*
X34170476Y-6762380D01*
X34265714Y-6714761D01*
X34313333Y-6667142D01*
X34360952Y-6571904D01*
X34360952Y-6476666D01*
X34313333Y-6381428D01*
X34265714Y-6333809D01*
X34170476Y-6286190D01*
X33980000Y-6238571D01*
X33884761Y-6190952D01*
X33837142Y-6143333D01*
X33789523Y-6048095D01*
X33789523Y-5952857D01*
X33837142Y-5857619D01*
X33884761Y-5810000D01*
X33980000Y-5762380D01*
X34218095Y-5762380D01*
X34360952Y-5810000D01*
X34789523Y-6238571D02*
X35122857Y-6238571D01*
X35265714Y-6762380D02*
X34789523Y-6762380D01*
X34789523Y-5762380D01*
X35265714Y-5762380D01*
X36170476Y-6762380D02*
X35694285Y-6762380D01*
X35694285Y-5762380D01*
X34541819Y-1677752D02*
X34541819Y-1868228D01*
X34494200Y-1963466D01*
X34398961Y-2058704D01*
X34208485Y-2106323D01*
X33875152Y-2106323D01*
X33684676Y-2058704D01*
X33589438Y-1963466D01*
X33541819Y-1868228D01*
X33541819Y-1677752D01*
X33589438Y-1582514D01*
X33684676Y-1487276D01*
X33875152Y-1439657D01*
X34208485Y-1439657D01*
X34398961Y-1487276D01*
X34494200Y-1582514D01*
X34541819Y-1677752D01*
X33541819Y-2534895D02*
X34541819Y-2534895D01*
X33541819Y-3106323D01*
X34541819Y-3106323D01*
%TO.C,R2*%
X38943333Y-8892380D02*
X38610000Y-8416190D01*
X38371904Y-8892380D02*
X38371904Y-7892380D01*
X38752857Y-7892380D01*
X38848095Y-7940000D01*
X38895714Y-7987619D01*
X38943333Y-8082857D01*
X38943333Y-8225714D01*
X38895714Y-8320952D01*
X38848095Y-8368571D01*
X38752857Y-8416190D01*
X38371904Y-8416190D01*
X39324285Y-7987619D02*
X39371904Y-7940000D01*
X39467142Y-7892380D01*
X39705238Y-7892380D01*
X39800476Y-7940000D01*
X39848095Y-7987619D01*
X39895714Y-8082857D01*
X39895714Y-8178095D01*
X39848095Y-8320952D01*
X39276666Y-8892380D01*
X39895714Y-8892380D01*
%TO.C,C10*%
X35546542Y-22827942D02*
X35498923Y-22875561D01*
X35356066Y-22923180D01*
X35260828Y-22923180D01*
X35117971Y-22875561D01*
X35022733Y-22780323D01*
X34975114Y-22685085D01*
X34927495Y-22494609D01*
X34927495Y-22351752D01*
X34975114Y-22161276D01*
X35022733Y-22066038D01*
X35117971Y-21970800D01*
X35260828Y-21923180D01*
X35356066Y-21923180D01*
X35498923Y-21970800D01*
X35546542Y-22018419D01*
X36498923Y-22923180D02*
X35927495Y-22923180D01*
X36213209Y-22923180D02*
X36213209Y-21923180D01*
X36117971Y-22066038D01*
X36022733Y-22161276D01*
X35927495Y-22208895D01*
X37117971Y-21923180D02*
X37213209Y-21923180D01*
X37308447Y-21970800D01*
X37356066Y-22018419D01*
X37403685Y-22113657D01*
X37451304Y-22304133D01*
X37451304Y-22542228D01*
X37403685Y-22732704D01*
X37356066Y-22827942D01*
X37308447Y-22875561D01*
X37213209Y-22923180D01*
X37117971Y-22923180D01*
X37022733Y-22875561D01*
X36975114Y-22827942D01*
X36927495Y-22732704D01*
X36879876Y-22542228D01*
X36879876Y-22304133D01*
X36927495Y-22113657D01*
X36975114Y-22018419D01*
X37022733Y-21970800D01*
X37117971Y-21923180D01*
%TO.C,H4*%
X3738095Y-22102380D02*
X3738095Y-21102380D01*
X3738095Y-21578571D02*
X4309523Y-21578571D01*
X4309523Y-22102380D02*
X4309523Y-21102380D01*
X5214285Y-21435714D02*
X5214285Y-22102380D01*
X4976190Y-21054761D02*
X4738095Y-21769047D01*
X5357142Y-21769047D01*
%TO.C,U6*%
X31363495Y-13083980D02*
X31363495Y-13893504D01*
X31411114Y-13988742D01*
X31458733Y-14036361D01*
X31553971Y-14083980D01*
X31744447Y-14083980D01*
X31839685Y-14036361D01*
X31887304Y-13988742D01*
X31934923Y-13893504D01*
X31934923Y-13083980D01*
X32839685Y-13083980D02*
X32649209Y-13083980D01*
X32553971Y-13131600D01*
X32506352Y-13179219D01*
X32411114Y-13322076D01*
X32363495Y-13512552D01*
X32363495Y-13893504D01*
X32411114Y-13988742D01*
X32458733Y-14036361D01*
X32553971Y-14083980D01*
X32744447Y-14083980D01*
X32839685Y-14036361D01*
X32887304Y-13988742D01*
X32934923Y-13893504D01*
X32934923Y-13655409D01*
X32887304Y-13560171D01*
X32839685Y-13512552D01*
X32744447Y-13464933D01*
X32553971Y-13464933D01*
X32458733Y-13512552D01*
X32411114Y-13560171D01*
X32363495Y-13655409D01*
%TO.C,H2*%
X49794895Y-9251580D02*
X49794895Y-8251580D01*
X49794895Y-8727771D02*
X50366323Y-8727771D01*
X50366323Y-9251580D02*
X50366323Y-8251580D01*
X50794895Y-8346819D02*
X50842514Y-8299200D01*
X50937752Y-8251580D01*
X51175847Y-8251580D01*
X51271085Y-8299200D01*
X51318704Y-8346819D01*
X51366323Y-8442057D01*
X51366323Y-8537295D01*
X51318704Y-8680152D01*
X50747276Y-9251580D01*
X51366323Y-9251580D01*
%TO.C,D3*%
X41291904Y-10362380D02*
X41291904Y-9362380D01*
X41530000Y-9362380D01*
X41672857Y-9410000D01*
X41768095Y-9505238D01*
X41815714Y-9600476D01*
X41863333Y-9790952D01*
X41863333Y-9933809D01*
X41815714Y-10124285D01*
X41768095Y-10219523D01*
X41672857Y-10314761D01*
X41530000Y-10362380D01*
X41291904Y-10362380D01*
X42196666Y-9362380D02*
X42815714Y-9362380D01*
X42482380Y-9743333D01*
X42625238Y-9743333D01*
X42720476Y-9790952D01*
X42768095Y-9838571D01*
X42815714Y-9933809D01*
X42815714Y-10171904D01*
X42768095Y-10267142D01*
X42720476Y-10314761D01*
X42625238Y-10362380D01*
X42339523Y-10362380D01*
X42244285Y-10314761D01*
X42196666Y-10267142D01*
%TO.C,R4*%
X38943333Y-10252380D02*
X38610000Y-9776190D01*
X38371904Y-10252380D02*
X38371904Y-9252380D01*
X38752857Y-9252380D01*
X38848095Y-9300000D01*
X38895714Y-9347619D01*
X38943333Y-9442857D01*
X38943333Y-9585714D01*
X38895714Y-9680952D01*
X38848095Y-9728571D01*
X38752857Y-9776190D01*
X38371904Y-9776190D01*
X39800476Y-9585714D02*
X39800476Y-10252380D01*
X39562380Y-9204761D02*
X39324285Y-9919047D01*
X39943333Y-9919047D01*
%TO.C,U4*%
X31363495Y-19738780D02*
X31363495Y-20548304D01*
X31411114Y-20643542D01*
X31458733Y-20691161D01*
X31553971Y-20738780D01*
X31744447Y-20738780D01*
X31839685Y-20691161D01*
X31887304Y-20643542D01*
X31934923Y-20548304D01*
X31934923Y-19738780D01*
X32839685Y-20072114D02*
X32839685Y-20738780D01*
X32601590Y-19691161D02*
X32363495Y-20405447D01*
X32982542Y-20405447D01*
%TO.C,R12*%
X40052380Y-16342857D02*
X39576190Y-16676190D01*
X40052380Y-16914285D02*
X39052380Y-16914285D01*
X39052380Y-16533333D01*
X39100000Y-16438095D01*
X39147619Y-16390476D01*
X39242857Y-16342857D01*
X39385714Y-16342857D01*
X39480952Y-16390476D01*
X39528571Y-16438095D01*
X39576190Y-16533333D01*
X39576190Y-16914285D01*
X40052380Y-15390476D02*
X40052380Y-15961904D01*
X40052380Y-15676190D02*
X39052380Y-15676190D01*
X39195238Y-15771428D01*
X39290476Y-15866666D01*
X39338095Y-15961904D01*
X39147619Y-15009523D02*
X39100000Y-14961904D01*
X39052380Y-14866666D01*
X39052380Y-14628571D01*
X39100000Y-14533333D01*
X39147619Y-14485714D01*
X39242857Y-14438095D01*
X39338095Y-14438095D01*
X39480952Y-14485714D01*
X40052380Y-15057142D01*
X40052380Y-14438095D01*
%TO.C,R9*%
X25811933Y-13145780D02*
X25478600Y-12669590D01*
X25240504Y-13145780D02*
X25240504Y-12145780D01*
X25621457Y-12145780D01*
X25716695Y-12193400D01*
X25764314Y-12241019D01*
X25811933Y-12336257D01*
X25811933Y-12479114D01*
X25764314Y-12574352D01*
X25716695Y-12621971D01*
X25621457Y-12669590D01*
X25240504Y-12669590D01*
X26288123Y-13145780D02*
X26478600Y-13145780D01*
X26573838Y-13098161D01*
X26621457Y-13050542D01*
X26716695Y-12907685D01*
X26764314Y-12717209D01*
X26764314Y-12336257D01*
X26716695Y-12241019D01*
X26669076Y-12193400D01*
X26573838Y-12145780D01*
X26383361Y-12145780D01*
X26288123Y-12193400D01*
X26240504Y-12241019D01*
X26192885Y-12336257D01*
X26192885Y-12574352D01*
X26240504Y-12669590D01*
X26288123Y-12717209D01*
X26383361Y-12764828D01*
X26573838Y-12764828D01*
X26669076Y-12717209D01*
X26716695Y-12669590D01*
X26764314Y-12574352D01*
%TO.C,R6*%
X25811933Y-23940780D02*
X25478600Y-23464590D01*
X25240504Y-23940780D02*
X25240504Y-22940780D01*
X25621457Y-22940780D01*
X25716695Y-22988400D01*
X25764314Y-23036019D01*
X25811933Y-23131257D01*
X25811933Y-23274114D01*
X25764314Y-23369352D01*
X25716695Y-23416971D01*
X25621457Y-23464590D01*
X25240504Y-23464590D01*
X26669076Y-22940780D02*
X26478600Y-22940780D01*
X26383361Y-22988400D01*
X26335742Y-23036019D01*
X26240504Y-23178876D01*
X26192885Y-23369352D01*
X26192885Y-23750304D01*
X26240504Y-23845542D01*
X26288123Y-23893161D01*
X26383361Y-23940780D01*
X26573838Y-23940780D01*
X26669076Y-23893161D01*
X26716695Y-23845542D01*
X26764314Y-23750304D01*
X26764314Y-23512209D01*
X26716695Y-23416971D01*
X26669076Y-23369352D01*
X26573838Y-23321733D01*
X26383361Y-23321733D01*
X26288123Y-23369352D01*
X26240504Y-23416971D01*
X26192885Y-23512209D01*
%TO.C,H3*%
X49738095Y-22102380D02*
X49738095Y-21102380D01*
X49738095Y-21578571D02*
X50309523Y-21578571D01*
X50309523Y-22102380D02*
X50309523Y-21102380D01*
X50690476Y-21102380D02*
X51309523Y-21102380D01*
X50976190Y-21483333D01*
X51119047Y-21483333D01*
X51214285Y-21530952D01*
X51261904Y-21578571D01*
X51309523Y-21673809D01*
X51309523Y-21911904D01*
X51261904Y-22007142D01*
X51214285Y-22054761D01*
X51119047Y-22102380D01*
X50833333Y-22102380D01*
X50738095Y-22054761D01*
X50690476Y-22007142D01*
%TO.C,R7*%
X25811933Y-20257780D02*
X25478600Y-19781590D01*
X25240504Y-20257780D02*
X25240504Y-19257780D01*
X25621457Y-19257780D01*
X25716695Y-19305400D01*
X25764314Y-19353019D01*
X25811933Y-19448257D01*
X25811933Y-19591114D01*
X25764314Y-19686352D01*
X25716695Y-19733971D01*
X25621457Y-19781590D01*
X25240504Y-19781590D01*
X26145266Y-19257780D02*
X26811933Y-19257780D01*
X26383361Y-20257780D01*
%TO.C,J1*%
X5352380Y-19033333D02*
X6066666Y-19033333D01*
X6209523Y-19080952D01*
X6304761Y-19176190D01*
X6352380Y-19319047D01*
X6352380Y-19414285D01*
X6352380Y-18033333D02*
X6352380Y-18604761D01*
X6352380Y-18319047D02*
X5352380Y-18319047D01*
X5495238Y-18414285D01*
X5590476Y-18509523D01*
X5638095Y-18604761D01*
%TO.C,U5*%
X31363495Y-16182780D02*
X31363495Y-16992304D01*
X31411114Y-17087542D01*
X31458733Y-17135161D01*
X31553971Y-17182780D01*
X31744447Y-17182780D01*
X31839685Y-17135161D01*
X31887304Y-17087542D01*
X31934923Y-16992304D01*
X31934923Y-16182780D01*
X32887304Y-16182780D02*
X32411114Y-16182780D01*
X32363495Y-16658971D01*
X32411114Y-16611352D01*
X32506352Y-16563733D01*
X32744447Y-16563733D01*
X32839685Y-16611352D01*
X32887304Y-16658971D01*
X32934923Y-16754209D01*
X32934923Y-16992304D01*
X32887304Y-17087542D01*
X32839685Y-17135161D01*
X32744447Y-17182780D01*
X32506352Y-17182780D01*
X32411114Y-17135161D01*
X32363495Y-17087542D01*
%TO.C,C7*%
X35971933Y-12007542D02*
X35924314Y-12055161D01*
X35781457Y-12102780D01*
X35686219Y-12102780D01*
X35543361Y-12055161D01*
X35448123Y-11959923D01*
X35400504Y-11864685D01*
X35352885Y-11674209D01*
X35352885Y-11531352D01*
X35400504Y-11340876D01*
X35448123Y-11245638D01*
X35543361Y-11150400D01*
X35686219Y-11102780D01*
X35781457Y-11102780D01*
X35924314Y-11150400D01*
X35971933Y-11198019D01*
X36305266Y-11102780D02*
X36971933Y-11102780D01*
X36543361Y-12102780D01*
%TO.C,C2*%
X24447142Y-2361866D02*
X24494761Y-2409485D01*
X24542380Y-2552342D01*
X24542380Y-2647580D01*
X24494761Y-2790438D01*
X24399523Y-2885676D01*
X24304285Y-2933295D01*
X24113809Y-2980914D01*
X23970952Y-2980914D01*
X23780476Y-2933295D01*
X23685238Y-2885676D01*
X23590000Y-2790438D01*
X23542380Y-2647580D01*
X23542380Y-2552342D01*
X23590000Y-2409485D01*
X23637619Y-2361866D01*
X23637619Y-1980914D02*
X23590000Y-1933295D01*
X23542380Y-1838057D01*
X23542380Y-1599961D01*
X23590000Y-1504723D01*
X23637619Y-1457104D01*
X23732857Y-1409485D01*
X23828095Y-1409485D01*
X23970952Y-1457104D01*
X24542380Y-2028533D01*
X24542380Y-1409485D01*
%TO.C,R11*%
X46995980Y-13506057D02*
X46519790Y-13839390D01*
X46995980Y-14077485D02*
X45995980Y-14077485D01*
X45995980Y-13696533D01*
X46043600Y-13601295D01*
X46091219Y-13553676D01*
X46186457Y-13506057D01*
X46329314Y-13506057D01*
X46424552Y-13553676D01*
X46472171Y-13601295D01*
X46519790Y-13696533D01*
X46519790Y-14077485D01*
X46995980Y-12553676D02*
X46995980Y-13125104D01*
X46995980Y-12839390D02*
X45995980Y-12839390D01*
X46138838Y-12934628D01*
X46234076Y-13029866D01*
X46281695Y-13125104D01*
X46995980Y-11601295D02*
X46995980Y-12172723D01*
X46995980Y-11887009D02*
X45995980Y-11887009D01*
X46138838Y-11982247D01*
X46234076Y-12077485D01*
X46281695Y-12172723D01*
%TO.C,Q2*%
X41147619Y-18295238D02*
X41100000Y-18390476D01*
X41004761Y-18485714D01*
X40861904Y-18628571D01*
X40814285Y-18723809D01*
X40814285Y-18819047D01*
X41052380Y-18771428D02*
X41004761Y-18866666D01*
X40909523Y-18961904D01*
X40719047Y-19009523D01*
X40385714Y-19009523D01*
X40195238Y-18961904D01*
X40100000Y-18866666D01*
X40052380Y-18771428D01*
X40052380Y-18580952D01*
X40100000Y-18485714D01*
X40195238Y-18390476D01*
X40385714Y-18342857D01*
X40719047Y-18342857D01*
X40909523Y-18390476D01*
X41004761Y-18485714D01*
X41052380Y-18580952D01*
X41052380Y-18771428D01*
X40147619Y-17961904D02*
X40100000Y-17914285D01*
X40052380Y-17819047D01*
X40052380Y-17580952D01*
X40100000Y-17485714D01*
X40147619Y-17438095D01*
X40242857Y-17390476D01*
X40338095Y-17390476D01*
X40480952Y-17438095D01*
X41052380Y-18009523D01*
X41052380Y-17390476D01*
%TO.C,C9*%
X35997333Y-19119542D02*
X35949714Y-19167161D01*
X35806857Y-19214780D01*
X35711619Y-19214780D01*
X35568761Y-19167161D01*
X35473523Y-19071923D01*
X35425904Y-18976685D01*
X35378285Y-18786209D01*
X35378285Y-18643352D01*
X35425904Y-18452876D01*
X35473523Y-18357638D01*
X35568761Y-18262400D01*
X35711619Y-18214780D01*
X35806857Y-18214780D01*
X35949714Y-18262400D01*
X35997333Y-18310019D01*
X36473523Y-19214780D02*
X36664000Y-19214780D01*
X36759238Y-19167161D01*
X36806857Y-19119542D01*
X36902095Y-18976685D01*
X36949714Y-18786209D01*
X36949714Y-18405257D01*
X36902095Y-18310019D01*
X36854476Y-18262400D01*
X36759238Y-18214780D01*
X36568761Y-18214780D01*
X36473523Y-18262400D01*
X36425904Y-18310019D01*
X36378285Y-18405257D01*
X36378285Y-18643352D01*
X36425904Y-18738590D01*
X36473523Y-18786209D01*
X36568761Y-18833828D01*
X36759238Y-18833828D01*
X36854476Y-18786209D01*
X36902095Y-18738590D01*
X36949714Y-18643352D01*
%TO.C,Q1*%
X43814761Y-11027619D02*
X43719523Y-10980000D01*
X43624285Y-10884761D01*
X43481428Y-10741904D01*
X43386190Y-10694285D01*
X43290952Y-10694285D01*
X43338571Y-10932380D02*
X43243333Y-10884761D01*
X43148095Y-10789523D01*
X43100476Y-10599047D01*
X43100476Y-10265714D01*
X43148095Y-10075238D01*
X43243333Y-9980000D01*
X43338571Y-9932380D01*
X43529047Y-9932380D01*
X43624285Y-9980000D01*
X43719523Y-10075238D01*
X43767142Y-10265714D01*
X43767142Y-10599047D01*
X43719523Y-10789523D01*
X43624285Y-10884761D01*
X43529047Y-10932380D01*
X43338571Y-10932380D01*
X44719523Y-10932380D02*
X44148095Y-10932380D01*
X44433809Y-10932380D02*
X44433809Y-9932380D01*
X44338571Y-10075238D01*
X44243333Y-10170476D01*
X44148095Y-10218095D01*
%TO.C,U1*%
X18756095Y-682380D02*
X18756095Y-1491904D01*
X18803714Y-1587142D01*
X18851333Y-1634761D01*
X18946571Y-1682380D01*
X19137047Y-1682380D01*
X19232285Y-1634761D01*
X19279904Y-1587142D01*
X19327523Y-1491904D01*
X19327523Y-682380D01*
X20327523Y-1682380D02*
X19756095Y-1682380D01*
X20041809Y-1682380D02*
X20041809Y-682380D01*
X19946571Y-825238D01*
X19851333Y-920476D01*
X19756095Y-968095D01*
%TO.C,D2*%
X41291904Y-7762380D02*
X41291904Y-6762380D01*
X41530000Y-6762380D01*
X41672857Y-6810000D01*
X41768095Y-6905238D01*
X41815714Y-7000476D01*
X41863333Y-7190952D01*
X41863333Y-7333809D01*
X41815714Y-7524285D01*
X41768095Y-7619523D01*
X41672857Y-7714761D01*
X41530000Y-7762380D01*
X41291904Y-7762380D01*
X42244285Y-6857619D02*
X42291904Y-6810000D01*
X42387142Y-6762380D01*
X42625238Y-6762380D01*
X42720476Y-6810000D01*
X42768095Y-6857619D01*
X42815714Y-6952857D01*
X42815714Y-7048095D01*
X42768095Y-7190952D01*
X42196666Y-7762380D01*
X42815714Y-7762380D01*
%TO.C,R3*%
X38923333Y-7592380D02*
X38590000Y-7116190D01*
X38351904Y-7592380D02*
X38351904Y-6592380D01*
X38732857Y-6592380D01*
X38828095Y-6640000D01*
X38875714Y-6687619D01*
X38923333Y-6782857D01*
X38923333Y-6925714D01*
X38875714Y-7020952D01*
X38828095Y-7068571D01*
X38732857Y-7116190D01*
X38351904Y-7116190D01*
X39256666Y-6592380D02*
X39875714Y-6592380D01*
X39542380Y-6973333D01*
X39685238Y-6973333D01*
X39780476Y-7020952D01*
X39828095Y-7068571D01*
X39875714Y-7163809D01*
X39875714Y-7401904D01*
X39828095Y-7497142D01*
X39780476Y-7544761D01*
X39685238Y-7592380D01*
X39399523Y-7592380D01*
X39304285Y-7544761D01*
X39256666Y-7497142D01*
%TO.C,R5*%
X12753333Y-9082380D02*
X12420000Y-8606190D01*
X12181904Y-9082380D02*
X12181904Y-8082380D01*
X12562857Y-8082380D01*
X12658095Y-8130000D01*
X12705714Y-8177619D01*
X12753333Y-8272857D01*
X12753333Y-8415714D01*
X12705714Y-8510952D01*
X12658095Y-8558571D01*
X12562857Y-8606190D01*
X12181904Y-8606190D01*
X13658095Y-8082380D02*
X13181904Y-8082380D01*
X13134285Y-8558571D01*
X13181904Y-8510952D01*
X13277142Y-8463333D01*
X13515238Y-8463333D01*
X13610476Y-8510952D01*
X13658095Y-8558571D01*
X13705714Y-8653809D01*
X13705714Y-8891904D01*
X13658095Y-8987142D01*
X13610476Y-9034761D01*
X13515238Y-9082380D01*
X13277142Y-9082380D01*
X13181904Y-9034761D01*
X13134285Y-8987142D01*
%TO.C,C3*%
X22110342Y-2311066D02*
X22157961Y-2358685D01*
X22205580Y-2501542D01*
X22205580Y-2596780D01*
X22157961Y-2739638D01*
X22062723Y-2834876D01*
X21967485Y-2882495D01*
X21777009Y-2930114D01*
X21634152Y-2930114D01*
X21443676Y-2882495D01*
X21348438Y-2834876D01*
X21253200Y-2739638D01*
X21205580Y-2596780D01*
X21205580Y-2501542D01*
X21253200Y-2358685D01*
X21300819Y-2311066D01*
X21205580Y-1977733D02*
X21205580Y-1358685D01*
X21586533Y-1692019D01*
X21586533Y-1549161D01*
X21634152Y-1453923D01*
X21681771Y-1406304D01*
X21777009Y-1358685D01*
X22015104Y-1358685D01*
X22110342Y-1406304D01*
X22157961Y-1453923D01*
X22205580Y-1549161D01*
X22205580Y-1834876D01*
X22157961Y-1930114D01*
X22110342Y-1977733D01*
%TO.C,C8*%
X35971933Y-15563542D02*
X35924314Y-15611161D01*
X35781457Y-15658780D01*
X35686219Y-15658780D01*
X35543361Y-15611161D01*
X35448123Y-15515923D01*
X35400504Y-15420685D01*
X35352885Y-15230209D01*
X35352885Y-15087352D01*
X35400504Y-14896876D01*
X35448123Y-14801638D01*
X35543361Y-14706400D01*
X35686219Y-14658780D01*
X35781457Y-14658780D01*
X35924314Y-14706400D01*
X35971933Y-14754019D01*
X36543361Y-15087352D02*
X36448123Y-15039733D01*
X36400504Y-14992114D01*
X36352885Y-14896876D01*
X36352885Y-14849257D01*
X36400504Y-14754019D01*
X36448123Y-14706400D01*
X36543361Y-14658780D01*
X36733838Y-14658780D01*
X36829076Y-14706400D01*
X36876695Y-14754019D01*
X36924314Y-14849257D01*
X36924314Y-14896876D01*
X36876695Y-14992114D01*
X36829076Y-15039733D01*
X36733838Y-15087352D01*
X36543361Y-15087352D01*
X36448123Y-15134971D01*
X36400504Y-15182590D01*
X36352885Y-15277828D01*
X36352885Y-15468304D01*
X36400504Y-15563542D01*
X36448123Y-15611161D01*
X36543361Y-15658780D01*
X36733838Y-15658780D01*
X36829076Y-15611161D01*
X36876695Y-15563542D01*
X36924314Y-15468304D01*
X36924314Y-15277828D01*
X36876695Y-15182590D01*
X36829076Y-15134971D01*
X36733838Y-15087352D01*
%TO.C,U3*%
X17740095Y-18919580D02*
X17740095Y-19729104D01*
X17787714Y-19824342D01*
X17835333Y-19871961D01*
X17930571Y-19919580D01*
X18121047Y-19919580D01*
X18216285Y-19871961D01*
X18263904Y-19824342D01*
X18311523Y-19729104D01*
X18311523Y-18919580D01*
X18692476Y-18919580D02*
X19311523Y-18919580D01*
X18978190Y-19300533D01*
X19121047Y-19300533D01*
X19216285Y-19348152D01*
X19263904Y-19395771D01*
X19311523Y-19491009D01*
X19311523Y-19729104D01*
X19263904Y-19824342D01*
X19216285Y-19871961D01*
X19121047Y-19919580D01*
X18835333Y-19919580D01*
X18740095Y-19871961D01*
X18692476Y-19824342D01*
%TO.C,C6*%
X18995733Y-7479942D02*
X18948114Y-7527561D01*
X18805257Y-7575180D01*
X18710019Y-7575180D01*
X18567161Y-7527561D01*
X18471923Y-7432323D01*
X18424304Y-7337085D01*
X18376685Y-7146609D01*
X18376685Y-7003752D01*
X18424304Y-6813276D01*
X18471923Y-6718038D01*
X18567161Y-6622800D01*
X18710019Y-6575180D01*
X18805257Y-6575180D01*
X18948114Y-6622800D01*
X18995733Y-6670419D01*
X19852876Y-6575180D02*
X19662400Y-6575180D01*
X19567161Y-6622800D01*
X19519542Y-6670419D01*
X19424304Y-6813276D01*
X19376685Y-7003752D01*
X19376685Y-7384704D01*
X19424304Y-7479942D01*
X19471923Y-7527561D01*
X19567161Y-7575180D01*
X19757638Y-7575180D01*
X19852876Y-7527561D01*
X19900495Y-7479942D01*
X19948114Y-7384704D01*
X19948114Y-7146609D01*
X19900495Y-7051371D01*
X19852876Y-7003752D01*
X19757638Y-6956133D01*
X19567161Y-6956133D01*
X19471923Y-7003752D01*
X19424304Y-7051371D01*
X19376685Y-7146609D01*
%TO.C,U2*%
X9572380Y-15555504D02*
X10381904Y-15555504D01*
X10477142Y-15507885D01*
X10524761Y-15460266D01*
X10572380Y-15365028D01*
X10572380Y-15174552D01*
X10524761Y-15079314D01*
X10477142Y-15031695D01*
X10381904Y-14984076D01*
X9572380Y-14984076D01*
X9667619Y-14555504D02*
X9620000Y-14507885D01*
X9572380Y-14412647D01*
X9572380Y-14174552D01*
X9620000Y-14079314D01*
X9667619Y-14031695D01*
X9762857Y-13984076D01*
X9858095Y-13984076D01*
X10000952Y-14031695D01*
X10572380Y-14603123D01*
X10572380Y-13984076D01*
%TO.C,R1*%
X25498133Y-10623180D02*
X25164800Y-10146990D01*
X24926704Y-10623180D02*
X24926704Y-9623180D01*
X25307657Y-9623180D01*
X25402895Y-9670800D01*
X25450514Y-9718419D01*
X25498133Y-9813657D01*
X25498133Y-9956514D01*
X25450514Y-10051752D01*
X25402895Y-10099371D01*
X25307657Y-10146990D01*
X24926704Y-10146990D01*
X26450514Y-10623180D02*
X25879085Y-10623180D01*
X26164800Y-10623180D02*
X26164800Y-9623180D01*
X26069561Y-9766038D01*
X25974323Y-9861276D01*
X25879085Y-9908895D01*
%TO.C,D1*%
X41241904Y-9072380D02*
X41241904Y-8072380D01*
X41480000Y-8072380D01*
X41622857Y-8120000D01*
X41718095Y-8215238D01*
X41765714Y-8310476D01*
X41813333Y-8500952D01*
X41813333Y-8643809D01*
X41765714Y-8834285D01*
X41718095Y-8929523D01*
X41622857Y-9024761D01*
X41480000Y-9072380D01*
X41241904Y-9072380D01*
X42765714Y-9072380D02*
X42194285Y-9072380D01*
X42480000Y-9072380D02*
X42480000Y-8072380D01*
X42384761Y-8215238D01*
X42289523Y-8310476D01*
X42194285Y-8358095D01*
%TO.C,C4*%
X13077533Y-11460142D02*
X13029914Y-11507761D01*
X12887057Y-11555380D01*
X12791819Y-11555380D01*
X12648961Y-11507761D01*
X12553723Y-11412523D01*
X12506104Y-11317285D01*
X12458485Y-11126809D01*
X12458485Y-10983952D01*
X12506104Y-10793476D01*
X12553723Y-10698238D01*
X12648961Y-10603000D01*
X12791819Y-10555380D01*
X12887057Y-10555380D01*
X13029914Y-10603000D01*
X13077533Y-10650619D01*
X13934676Y-10888714D02*
X13934676Y-11555380D01*
X13696580Y-10507761D02*
X13458485Y-11222047D01*
X14077533Y-11222047D01*
%TO.C,R13*%
X46945180Y-17417657D02*
X46468990Y-17750990D01*
X46945180Y-17989085D02*
X45945180Y-17989085D01*
X45945180Y-17608133D01*
X45992800Y-17512895D01*
X46040419Y-17465276D01*
X46135657Y-17417657D01*
X46278514Y-17417657D01*
X46373752Y-17465276D01*
X46421371Y-17512895D01*
X46468990Y-17608133D01*
X46468990Y-17989085D01*
X46945180Y-16465276D02*
X46945180Y-17036704D01*
X46945180Y-16750990D02*
X45945180Y-16750990D01*
X46088038Y-16846228D01*
X46183276Y-16941466D01*
X46230895Y-17036704D01*
X45945180Y-16131942D02*
X45945180Y-15512895D01*
X46326133Y-15846228D01*
X46326133Y-15703371D01*
X46373752Y-15608133D01*
X46421371Y-15560514D01*
X46516609Y-15512895D01*
X46754704Y-15512895D01*
X46849942Y-15560514D01*
X46897561Y-15608133D01*
X46945180Y-15703371D01*
X46945180Y-15989085D01*
X46897561Y-16084323D01*
X46849942Y-16131942D01*
%TO.C,R8*%
X25811933Y-16701780D02*
X25478600Y-16225590D01*
X25240504Y-16701780D02*
X25240504Y-15701780D01*
X25621457Y-15701780D01*
X25716695Y-15749400D01*
X25764314Y-15797019D01*
X25811933Y-15892257D01*
X25811933Y-16035114D01*
X25764314Y-16130352D01*
X25716695Y-16177971D01*
X25621457Y-16225590D01*
X25240504Y-16225590D01*
X26383361Y-16130352D02*
X26288123Y-16082733D01*
X26240504Y-16035114D01*
X26192885Y-15939876D01*
X26192885Y-15892257D01*
X26240504Y-15797019D01*
X26288123Y-15749400D01*
X26383361Y-15701780D01*
X26573838Y-15701780D01*
X26669076Y-15749400D01*
X26716695Y-15797019D01*
X26764314Y-15892257D01*
X26764314Y-15939876D01*
X26716695Y-16035114D01*
X26669076Y-16082733D01*
X26573838Y-16130352D01*
X26383361Y-16130352D01*
X26288123Y-16177971D01*
X26240504Y-16225590D01*
X26192885Y-16320828D01*
X26192885Y-16511304D01*
X26240504Y-16606542D01*
X26288123Y-16654161D01*
X26383361Y-16701780D01*
X26573838Y-16701780D01*
X26669076Y-16654161D01*
X26716695Y-16606542D01*
X26764314Y-16511304D01*
X26764314Y-16320828D01*
X26716695Y-16225590D01*
X26669076Y-16177971D01*
X26573838Y-16130352D01*
%TO.C,J2*%
X52052266Y-18919580D02*
X52052266Y-19633866D01*
X52004647Y-19776723D01*
X51909409Y-19871961D01*
X51766552Y-19919580D01*
X51671314Y-19919580D01*
X52480838Y-19014819D02*
X52528457Y-18967200D01*
X52623695Y-18919580D01*
X52861790Y-18919580D01*
X52957028Y-18967200D01*
X53004647Y-19014819D01*
X53052266Y-19110057D01*
X53052266Y-19205295D01*
X53004647Y-19348152D01*
X52433219Y-19919580D01*
X53052266Y-19919580D01*
%TO.C,H1*%
X3668495Y-9200780D02*
X3668495Y-8200780D01*
X3668495Y-8676971D02*
X4239923Y-8676971D01*
X4239923Y-9200780D02*
X4239923Y-8200780D01*
X5239923Y-9200780D02*
X4668495Y-9200780D01*
X4954209Y-9200780D02*
X4954209Y-8200780D01*
X4858971Y-8343638D01*
X4763733Y-8438876D01*
X4668495Y-8486495D01*
D11*
%TO.C,C5*%
X27036348Y-9277400D02*
X28458852Y-9277400D01*
X27036348Y-7457400D02*
X28458852Y-7457400D01*
%TO.C,L1*%
X7318748Y-12227000D02*
X7841252Y-12227000D01*
X7318748Y-10807000D02*
X7841252Y-10807000D01*
%TO.C,C1*%
X10192000Y-6602980D02*
X10192000Y-6321820D01*
X11212000Y-6602980D02*
X11212000Y-6321820D01*
%TO.C,U7*%
X29026600Y-24894400D02*
X28226600Y-24894400D01*
X29026600Y-21774400D02*
X29826600Y-21774400D01*
X29026600Y-21774400D02*
X27226600Y-21774400D01*
X29026600Y-24894400D02*
X29826600Y-24894400D01*
%TO.C,R10*%
X41183200Y-14032359D02*
X41183200Y-14339641D01*
X40423200Y-14032359D02*
X40423200Y-14339641D01*
%TO.C,SW1*%
X31462200Y-2062800D02*
X30712200Y-2062800D01*
X30712200Y-2062800D02*
X30712200Y-2562800D01*
X30712200Y-2562800D02*
X31462200Y-2562800D01*
X31462200Y-2562800D02*
X31462200Y-2062800D01*
G36*
X31462200Y-2062800D02*
G01*
X30712200Y-2062800D01*
X30712200Y-2562800D01*
X31462200Y-2562800D01*
X31462200Y-2062800D01*
G37*
X33212200Y-4062800D02*
X30712200Y-4062800D01*
X30712200Y-4062800D02*
X30712200Y-4562800D01*
X30712200Y-4562800D02*
X33212200Y-4562800D01*
X33212200Y-4562800D02*
X33212200Y-4062800D01*
X33212200Y-2562800D02*
X30712200Y-2562800D01*
X30712200Y-2562800D02*
X30712200Y-2062800D01*
X30712200Y-2062800D02*
X33212200Y-2062800D01*
X33212200Y-2062800D02*
X33212200Y-2562800D01*
X31462200Y-4062800D02*
X30712200Y-4062800D01*
X30712200Y-4062800D02*
X30712200Y-4562800D01*
X30712200Y-4562800D02*
X31462200Y-4562800D01*
X31462200Y-4562800D02*
X31462200Y-4062800D01*
G36*
X31462200Y-4062800D02*
G01*
X30712200Y-4062800D01*
X30712200Y-4562800D01*
X31462200Y-4562800D01*
X31462200Y-4062800D01*
G37*
%TO.C,R2*%
X37676359Y-3460000D02*
X37983641Y-3460000D01*
X37676359Y-4220000D02*
X37983641Y-4220000D01*
%TO.C,C10*%
X32594420Y-22930000D02*
X32875580Y-22930000D01*
X32594420Y-21910000D02*
X32875580Y-21910000D01*
%TO.C,U6*%
X29026600Y-10979400D02*
X27226600Y-10979400D01*
X29026600Y-14099400D02*
X29826600Y-14099400D01*
X29026600Y-14099400D02*
X28226600Y-14099400D01*
X29026600Y-10979400D02*
X29826600Y-10979400D01*
%TO.C,D3*%
X41742500Y-4836600D02*
X39457500Y-4836600D01*
X39457500Y-6306600D02*
X41742500Y-6306600D01*
X41742500Y-6306600D02*
X41742500Y-4836600D01*
%TO.C,R4*%
X37626359Y-5480000D02*
X37933641Y-5480000D01*
X37626359Y-4720000D02*
X37933641Y-4720000D01*
%TO.C,U4*%
X29026600Y-18091400D02*
X27226600Y-18091400D01*
X29026600Y-21211400D02*
X28226600Y-21211400D01*
X29026600Y-18091400D02*
X29826600Y-18091400D01*
X29026600Y-21211400D02*
X29826600Y-21211400D01*
%TO.C,R12*%
X40397800Y-16270041D02*
X40397800Y-15962759D01*
X41157800Y-16270041D02*
X41157800Y-15962759D01*
%TO.C,R9*%
X26132241Y-11903400D02*
X25824959Y-11903400D01*
X26132241Y-11143400D02*
X25824959Y-11143400D01*
%TO.C,R6*%
X26132241Y-21938400D02*
X25824959Y-21938400D01*
X26132241Y-22698400D02*
X25824959Y-22698400D01*
%TO.C,R7*%
X26132241Y-19015400D02*
X25824959Y-19015400D01*
X26132241Y-18255400D02*
X25824959Y-18255400D01*
%TO.C,J1*%
X2434000Y-11240000D02*
X4414000Y-11240000D01*
X4414000Y-11240000D02*
X4414000Y-11660000D01*
X2434000Y-18760000D02*
X4414000Y-18760000D01*
X4414000Y-18760000D02*
X4414000Y-18340000D01*
X4644000Y-13240000D02*
X5094000Y-13240000D01*
X5094000Y-13690000D02*
X5094000Y-13240000D01*
X464000Y-18760000D02*
X64000Y-18760000D01*
X64000Y-11240000D02*
X464000Y-11240000D01*
%TO.C,U5*%
X29026600Y-14535400D02*
X29826600Y-14535400D01*
X29026600Y-17655400D02*
X29826600Y-17655400D01*
X29026600Y-14535400D02*
X27226600Y-14535400D01*
X29026600Y-17655400D02*
X28226600Y-17655400D01*
%TO.C,C7*%
X32543620Y-11089600D02*
X32824780Y-11089600D01*
X32543620Y-12109600D02*
X32824780Y-12109600D01*
%TO.C,C2*%
X24947000Y-4938348D02*
X24947000Y-6360852D01*
X23127000Y-4938348D02*
X23127000Y-6360852D01*
%TO.C,R11*%
X45704400Y-14032359D02*
X45704400Y-14339641D01*
X44944400Y-14032359D02*
X44944400Y-14339641D01*
%TO.C,Q2*%
X44623800Y-17107000D02*
X44623800Y-15432000D01*
X44623800Y-17107000D02*
X44623800Y-17757000D01*
X41503800Y-17107000D02*
X41503800Y-17757000D01*
X41503800Y-17107000D02*
X41503800Y-16457000D01*
%TO.C,C9*%
X32569020Y-19221600D02*
X32850180Y-19221600D01*
X32569020Y-18201600D02*
X32850180Y-18201600D01*
%TO.C,Q1*%
X41503800Y-13195400D02*
X41503800Y-14870400D01*
X41503800Y-13195400D02*
X41503800Y-12545400D01*
X44623800Y-13195400D02*
X44623800Y-12545400D01*
X44623800Y-13195400D02*
X44623800Y-13845400D01*
%TO.C,U1*%
X14109800Y-7738800D02*
X17869800Y-7738800D01*
X11859800Y-918800D02*
X17869800Y-918800D01*
X17869800Y-7738800D02*
X17869800Y-6478800D01*
X17869800Y-918800D02*
X17869800Y-2178800D01*
%TO.C,D2*%
X41795000Y-1605000D02*
X39510000Y-1605000D01*
X41795000Y-3075000D02*
X41795000Y-1605000D01*
X39510000Y-3075000D02*
X41795000Y-3075000D01*
%TO.C,R3*%
X37676359Y-2710000D02*
X37983641Y-2710000D01*
X37676359Y-1950000D02*
X37983641Y-1950000D01*
%TO.C,R5*%
X12766359Y-9420000D02*
X13073641Y-9420000D01*
X12766359Y-10180000D02*
X13073641Y-10180000D01*
%TO.C,C3*%
X22534000Y-4938348D02*
X22534000Y-6360852D01*
X20714000Y-4938348D02*
X20714000Y-6360852D01*
%TO.C,C8*%
X32543620Y-15665600D02*
X32824780Y-15665600D01*
X32543620Y-14645600D02*
X32824780Y-14645600D01*
%TO.C,U3*%
X18527400Y-18507400D02*
X16577400Y-18507400D01*
X18527400Y-8387400D02*
X20477400Y-8387400D01*
X18527400Y-8387400D02*
X15077400Y-8387400D01*
X18527400Y-18507400D02*
X20477400Y-18507400D01*
%TO.C,C6*%
X23708420Y-8238400D02*
X23989580Y-8238400D01*
X23708420Y-9258400D02*
X23989580Y-9258400D01*
%TO.C,U2*%
X9013000Y-14692000D02*
X9013000Y-15492000D01*
X9013000Y-14692000D02*
X9013000Y-13892000D01*
X5893000Y-14692000D02*
X5893000Y-16492000D01*
X5893000Y-14692000D02*
X5893000Y-13892000D01*
%TO.C,R1*%
X23481641Y-10500000D02*
X23174359Y-10500000D01*
X23481641Y-9740000D02*
X23174359Y-9740000D01*
%TO.C,D1*%
X39510000Y-4665000D02*
X41795000Y-4665000D01*
X41795000Y-4665000D02*
X41795000Y-3195000D01*
X41795000Y-3195000D02*
X39510000Y-3195000D01*
%TO.C,C4*%
X13103620Y-12023000D02*
X13384780Y-12023000D01*
X13103620Y-13043000D02*
X13384780Y-13043000D01*
%TO.C,R13*%
X44944400Y-16293441D02*
X44944400Y-15986159D01*
X45704400Y-16293441D02*
X45704400Y-15986159D01*
%TO.C,R8*%
X26132241Y-14699400D02*
X25824959Y-14699400D01*
X26132241Y-15459400D02*
X25824959Y-15459400D01*
%TO.C,J2*%
X52515000Y-11775000D02*
X51692530Y-11775000D01*
X52515000Y-16790000D02*
X51948471Y-16790000D01*
X50625000Y-18245000D02*
X50422530Y-18245000D01*
X50625000Y-18113471D02*
X50625000Y-18245000D01*
X52515000Y-16790000D02*
X52515000Y-11775000D01*
X51077470Y-11775000D02*
X50422530Y-11775000D01*
X52515000Y-17550000D02*
X52515000Y-18310000D01*
X50821529Y-16790000D02*
X50678471Y-16790000D01*
X49807470Y-11775000D02*
X48985000Y-11775000D01*
X52515000Y-18310000D02*
X51385000Y-18310000D01*
X50625000Y-16843471D02*
X50625000Y-16986529D01*
X48985000Y-18245000D02*
X48985000Y-11775000D01*
X49807470Y-18245000D02*
X48985000Y-18245000D01*
%TD*%
M02*
