%TF.GenerationSoftware,KiCad,Pcbnew,(6.0.9)*%
%TF.CreationDate,2022-11-09T13:04:19-08:00*%
%TF.ProjectId,esp32-prog,65737033-322d-4707-926f-672e6b696361,rev?*%
%TF.SameCoordinates,PX8f0d180PY2d4cae0*%
%TF.FileFunction,Soldermask,Top*%
%TF.FilePolarity,Negative*%
%FSLAX46Y46*%
G04 Gerber Fmt 4.6, Leading zero omitted, Abs format (unit mm)*
G04 Created by KiCad (PCBNEW (6.0.9)) date 2022-11-09 13:04:19*
%MOMM*%
%LPD*%
G01*
G04 APERTURE LIST*
G04 Aperture macros list*
%AMRoundRect*
0 Rectangle with rounded corners*
0 $1 Rounding radius*
0 $2 $3 $4 $5 $6 $7 $8 $9 X,Y pos of 4 corners*
0 Add a 4 corners polygon primitive as box body*
4,1,4,$2,$3,$4,$5,$6,$7,$8,$9,$2,$3,0*
0 Add four circle primitives for the rounded corners*
1,1,$1+$1,$2,$3*
1,1,$1+$1,$4,$5*
1,1,$1+$1,$6,$7*
1,1,$1+$1,$8,$9*
0 Add four rect primitives between the rounded corners*
20,1,$1+$1,$2,$3,$4,$5,0*
20,1,$1+$1,$4,$5,$6,$7,0*
20,1,$1+$1,$6,$7,$8,$9,0*
20,1,$1+$1,$8,$9,$2,$3,0*%
G04 Aperture macros list end*
%ADD10R,1.000000X1.000000*%
%ADD11O,1.000000X1.000000*%
%ADD12R,0.650000X0.400000*%
%ADD13RoundRect,0.250000X-0.325000X-0.650000X0.325000X-0.650000X0.325000X0.650000X-0.325000X0.650000X0*%
%ADD14RoundRect,0.250000X-0.325000X-0.450000X0.325000X-0.450000X0.325000X0.450000X-0.325000X0.450000X0*%
%ADD15RoundRect,0.225000X0.250000X-0.225000X0.250000X0.225000X-0.250000X0.225000X-0.250000X-0.225000X0*%
%ADD16RoundRect,0.135000X-0.185000X0.135000X-0.185000X-0.135000X0.185000X-0.135000X0.185000X0.135000X0*%
%ADD17R,1.270000X0.760000*%
%ADD18RoundRect,0.135000X-0.135000X-0.185000X0.135000X-0.185000X0.135000X0.185000X-0.135000X0.185000X0*%
%ADD19RoundRect,0.225000X-0.225000X-0.250000X0.225000X-0.250000X0.225000X0.250000X-0.225000X0.250000X0*%
%ADD20C,5.700000*%
%ADD21RoundRect,0.218750X0.218750X0.256250X-0.218750X0.256250X-0.218750X-0.256250X0.218750X-0.256250X0*%
%ADD22RoundRect,0.135000X0.185000X-0.135000X0.185000X0.135000X-0.185000X0.135000X-0.185000X-0.135000X0*%
%ADD23RoundRect,0.135000X0.135000X0.185000X-0.135000X0.185000X-0.135000X-0.185000X0.135000X-0.185000X0*%
%ADD24R,1.350000X0.400000*%
%ADD25R,1.550000X1.500000*%
%ADD26O,1.550000X0.890000*%
%ADD27R,1.550000X1.200000*%
%ADD28O,0.950000X1.250000*%
%ADD29RoundRect,0.250000X-0.650000X0.325000X-0.650000X-0.325000X0.650000X-0.325000X0.650000X0.325000X0*%
%ADD30RoundRect,0.150000X-0.150000X0.587500X-0.150000X-0.587500X0.150000X-0.587500X0.150000X0.587500X0*%
%ADD31RoundRect,0.150000X0.150000X-0.587500X0.150000X0.587500X-0.150000X0.587500X-0.150000X-0.587500X0*%
%ADD32R,2.000000X1.500000*%
%ADD33R,2.000000X3.800000*%
%ADD34RoundRect,0.150000X-0.825000X-0.150000X0.825000X-0.150000X0.825000X0.150000X-0.825000X0.150000X0*%
%ADD35RoundRect,0.150000X0.150000X-0.512500X0.150000X0.512500X-0.150000X0.512500X-0.150000X-0.512500X0*%
G04 APERTURE END LIST*
D10*
%TO.C,J2*%
X51385000Y-17540000D03*
D11*
X50115000Y-17540000D03*
X51385000Y-16270000D03*
X50115000Y-16270000D03*
X51385000Y-15000000D03*
X50115000Y-15000000D03*
X51385000Y-13730000D03*
X50115000Y-13730000D03*
X51385000Y-12460000D03*
X50115000Y-12460000D03*
%TD*%
D12*
%TO.C,U6*%
X28076600Y-11889400D03*
X28076600Y-12539400D03*
X28076600Y-13189400D03*
X29976600Y-13189400D03*
X29976600Y-11889400D03*
%TD*%
%TO.C,U7*%
X28076600Y-22684400D03*
X28076600Y-23334400D03*
X28076600Y-23984400D03*
X29976600Y-23984400D03*
X29976600Y-22684400D03*
%TD*%
%TO.C,U5*%
X28076600Y-15445400D03*
X28076600Y-16095400D03*
X28076600Y-16745400D03*
X29976600Y-16745400D03*
X29976600Y-15445400D03*
%TD*%
%TO.C,U4*%
X28076600Y-19001400D03*
X28076600Y-19651400D03*
X28076600Y-20301400D03*
X29976600Y-20301400D03*
X29976600Y-19001400D03*
%TD*%
D13*
%TO.C,C5*%
X26272600Y-8367400D03*
X29222600Y-8367400D03*
%TD*%
D14*
%TO.C,L1*%
X6555000Y-11517000D03*
X8605000Y-11517000D03*
%TD*%
D15*
%TO.C,C1*%
X10702000Y-7237400D03*
X10702000Y-5687400D03*
%TD*%
D16*
%TO.C,R10*%
X40803200Y-13676000D03*
X40803200Y-14696000D03*
%TD*%
D17*
%TO.C,SW1*%
X28152200Y-2677800D03*
X28152200Y-3947800D03*
X35772200Y-3947800D03*
X35772200Y-2677800D03*
%TD*%
D18*
%TO.C,R2*%
X37320000Y-3840000D03*
X38340000Y-3840000D03*
%TD*%
D19*
%TO.C,C10*%
X31960000Y-22420000D03*
X33510000Y-22420000D03*
%TD*%
D20*
%TO.C,H4*%
X4500000Y-25500000D03*
%TD*%
%TO.C,H2*%
X50500000Y-4500000D03*
%TD*%
D21*
%TO.C,D3*%
X41045000Y-5571600D03*
X39470000Y-5571600D03*
%TD*%
D18*
%TO.C,R4*%
X37270000Y-5100000D03*
X38290000Y-5100000D03*
%TD*%
D22*
%TO.C,R12*%
X40777800Y-16626400D03*
X40777800Y-15606400D03*
%TD*%
D23*
%TO.C,R9*%
X26488600Y-11523400D03*
X25468600Y-11523400D03*
%TD*%
%TO.C,R6*%
X26488600Y-22318400D03*
X25468600Y-22318400D03*
%TD*%
D20*
%TO.C,H3*%
X50500000Y-25500000D03*
%TD*%
D23*
%TO.C,R7*%
X26488600Y-18635400D03*
X25468600Y-18635400D03*
%TD*%
D24*
%TO.C,J1*%
X4154000Y-13700000D03*
X4154000Y-14350000D03*
X4154000Y-15000000D03*
X4154000Y-15650000D03*
X4154000Y-16300000D03*
D25*
X1454000Y-16000000D03*
D26*
X1454000Y-18500000D03*
D27*
X1454000Y-17900000D03*
D28*
X4154000Y-12500000D03*
D25*
X1454000Y-14000000D03*
D26*
X1454000Y-11500000D03*
D27*
X1454000Y-12100000D03*
D28*
X4154000Y-17500000D03*
%TD*%
D19*
%TO.C,C7*%
X31909200Y-11599600D03*
X33459200Y-11599600D03*
%TD*%
D29*
%TO.C,C2*%
X24037000Y-4174600D03*
X24037000Y-7124600D03*
%TD*%
D16*
%TO.C,R11*%
X45324400Y-13676000D03*
X45324400Y-14696000D03*
%TD*%
D30*
%TO.C,Q2*%
X44013800Y-16169500D03*
X42113800Y-16169500D03*
X43063800Y-18044500D03*
%TD*%
D19*
%TO.C,C9*%
X31934600Y-18711600D03*
X33484600Y-18711600D03*
%TD*%
D31*
%TO.C,Q1*%
X42113800Y-14132900D03*
X44013800Y-14132900D03*
X43063800Y-12257900D03*
%TD*%
D32*
%TO.C,U1*%
X12809800Y-2028800D03*
X12809800Y-4328800D03*
D33*
X19109800Y-4328800D03*
D32*
X12809800Y-6628800D03*
%TD*%
D21*
%TO.C,D2*%
X41097500Y-2340000D03*
X39522500Y-2340000D03*
%TD*%
D18*
%TO.C,R3*%
X37320000Y-2330000D03*
X38340000Y-2330000D03*
%TD*%
%TO.C,R5*%
X12410000Y-9800000D03*
X13430000Y-9800000D03*
%TD*%
D29*
%TO.C,C3*%
X21624000Y-4174600D03*
X21624000Y-7124600D03*
%TD*%
D19*
%TO.C,C8*%
X31909200Y-15155600D03*
X33459200Y-15155600D03*
%TD*%
D34*
%TO.C,U3*%
X16052400Y-9002400D03*
X16052400Y-10272400D03*
X16052400Y-11542400D03*
X16052400Y-12812400D03*
X16052400Y-14082400D03*
X16052400Y-15352400D03*
X16052400Y-16622400D03*
X16052400Y-17892400D03*
X21002400Y-17892400D03*
X21002400Y-16622400D03*
X21002400Y-15352400D03*
X21002400Y-14082400D03*
X21002400Y-12812400D03*
X21002400Y-11542400D03*
X21002400Y-10272400D03*
X21002400Y-9002400D03*
%TD*%
D19*
%TO.C,C6*%
X23074000Y-8748400D03*
X24624000Y-8748400D03*
%TD*%
D35*
%TO.C,U2*%
X6503000Y-15829500D03*
X7453000Y-15829500D03*
X8403000Y-15829500D03*
X8403000Y-13554500D03*
X7453000Y-13554500D03*
X6503000Y-13554500D03*
%TD*%
D23*
%TO.C,R1*%
X23838000Y-10120000D03*
X22818000Y-10120000D03*
%TD*%
D21*
%TO.C,D1*%
X41097500Y-3930000D03*
X39522500Y-3930000D03*
%TD*%
D19*
%TO.C,C4*%
X12469200Y-12533000D03*
X14019200Y-12533000D03*
%TD*%
D22*
%TO.C,R13*%
X45324400Y-16649800D03*
X45324400Y-15629800D03*
%TD*%
D23*
%TO.C,R8*%
X26488600Y-15079400D03*
X25468600Y-15079400D03*
%TD*%
D20*
%TO.C,H1*%
X4500000Y-4500000D03*
%TD*%
M02*
